<?xml version="1.0" encoding="utf-8"?>
<!-- Generator: Adobe Illustrator 24.2.0, SVG Export Plug-In . SVG Version: 6.00 Build 0)  -->
<svg version="1.1" id="Layer_1" xmlns="http://www.w3.org/2000/svg" xmlns:xlink="http://www.w3.org/1999/xlink" x="0px" y="0px"
	 viewBox="0 0 500 500" style="enable-background:new 0 0 500 500;" xml:space="preserve">
<style type="text/css">
	.st0{fill:#EAEAEA;}
	.st1{fill:#2490CF;}
	.st2{fill:#2F2E41;}
	.st3{fill:#6BBFEB;}
	.st4{fill:#F7B73C;}
	.st5{fill:#FFFFFF;}
</style>
<g>
	<g>
		<path class="st0" d="M401.3,254.2L357,357.1c-18.5,42.9-68.3,62.8-111.3,44.2L142.9,357c-42.9-18.5-62.8-68.3-44.2-111.3
			L143,142.9c18.5-42.9,68.3-62.8,111.3-44.2L357.1,143C400,161.5,419.8,211.3,401.3,254.2z"/>
	</g>
	<g>
		<g>
			<g>
				<path class="st1" d="M71.3,250.1c-12.5-2.7-24.6-7.4-35.7-13.9c-1.6,10-2,20-1.1,30c10.4,8.7,25.9,13.1,38.3,15.8
					c-12.3,1.9-24.6-0.5-36.6-4c2,10.4,5.4,20.6,10.4,30.3c2,4,4.4,7.8,7,11.5c7.9,2.5,17.6,4.6,29.8,7.9c13.4,2,27.6,0.8,39.3-6
					c-2.9,11-15.2,16.8-26.3,19c-6.2,1.3-13.7,1.4-21.8,0.3c0.2,0.1,0.4,0.3,0.5,0.4c29.8,21.8,68.7,24,99.9,7.8
					c0.7-0.4,1.4-0.7,2.1-1.1c0.7-0.4,1.4-0.8,2.1-1.2c7.6-4.4,14.7-10,21-16.8c12.3-13,20.3-29,19.2-48c-0.9-9.4-3.5-17.1-7.4-23.5
					c-9.7,28.6-27.4,52.2-48.3,57.3c11-10.5,34.1-49.5,35-71.6l0,0c-7.7-5.7-17.1-9.7-27.2-12.8c-0.5,0.2-1,0.3-1.4,0.5
					c-18.9,8.5-24.6,30.7-32,50c0.7-21,7.1-40.3,19.8-54.2c-8.7-2-17.7-3.6-26.3-5.3c-13.2,4.9-24.1,15.7-29,28.8
					c-2.2-12.2,4.6-22.3,11.2-32.6c-3.7-0.9-7.3-1.9-10.7-3C87,210.9,71.5,203.4,59.4,192c-1.8-1.7-3.5-3.4-5.1-5.3c0,0,0,0,0,0.1
					l0,0c-0.5,0.7-0.9,1.5-1.4,2.2c-7.2,12-12.4,24.9-15.5,38C48.4,235.4,58.2,246.6,71.3,250.1z"/>
			</g>
			<g>
				<path class="st1" d="M52.9,189c13.3,26.8,29.1,52.8,47.1,77.4c14.6,20,30.7,39,47.8,56.7c10.1,10.4,19.3,19.1,27.1,26
					c14.7,13,24.3,19.8,24.4,19.9l2.6-3.7c-0.1-0.1-9-6.4-22.8-18.5c-8-7-17.6-16-28.2-26.9C125.3,293.4,89,250,59.4,192
					c-1.8-1.7-3.5-3.4-5.1-5.3c0,0,0,0,0,0.1l0,0C53.8,187.5,53.4,188.3,52.9,189z"/>
			</g>
		</g>
		<g>
			<g>
				<path class="st1" d="M428.7,250.1c12.5-2.7,24.6-7.4,35.7-13.9c1.6,10,2,20,1.1,30c-10.4,8.7-25.9,13.1-38.3,15.8
					c12.3,1.9,24.6-0.5,36.6-4c-2,10.4-5.4,20.6-10.4,30.3c-2,4-4.4,7.8-7,11.5c-7.9,2.5-17.6,4.6-29.8,7.9c-13.4,2-27.6,0.8-39.3-6
					c2.9,11,15.2,16.8,26.3,19c6.2,1.3,13.7,1.4,21.8,0.3c-0.2,0.1-0.4,0.3-0.5,0.4c-29.8,21.8-68.7,24-99.9,7.8
					c-0.7-0.4-1.4-0.7-2.1-1.1c-0.7-0.4-1.4-0.8-2.1-1.2c-7.6-4.4-14.7-10-21-16.8c-12.3-13-20.3-29-19.2-48
					c0.9-9.4,3.5-17.1,7.4-23.5c9.7,28.6,27.4,52.2,48.3,57.3c-11-10.5-34.1-49.5-35-71.6l0,0c7.7-5.7,17.1-9.7,27.2-12.8
					c0.5,0.2,1,0.3,1.4,0.5c18.9,8.5,24.6,30.7,32,50c-0.7-21-7.1-40.3-19.8-54.2c8.7-2,17.7-3.6,26.3-5.3
					c13.2,4.9,24.1,15.7,29,28.8c2.2-12.2-4.6-22.3-11.2-32.6c3.7-0.9,7.3-1.9,10.7-3c15.9-4.9,31.5-12.4,43.6-23.8
					c1.8-1.7,3.5-3.4,5.1-5.3c0,0,0,0,0,0.1l0,0c0.5,0.7,0.9,1.5,1.4,2.2c7.2,12,12.4,24.9,15.5,38
					C451.6,235.4,441.8,246.6,428.7,250.1z"/>
			</g>
			<g>
				<path class="st1" d="M447.1,189c-13.3,26.8-29.1,52.8-47.1,77.4c-14.6,20-30.7,39-47.8,56.7c-10.1,10.4-19.3,19.1-27.1,26
					c-14.7,13-24.3,19.8-24.4,19.9l-2.6-3.7c0.1-0.1,9-6.4,22.8-18.5c8-7,17.6-16,28.2-26.9c25.7-26.5,62-69.9,91.5-127.9
					c1.8-1.7,3.5-3.4,5.1-5.3c0,0,0,0,0,0.1l0,0C446.2,187.5,446.6,188.3,447.1,189z"/>
			</g>
		</g>
	</g>
	<g>
		<path class="st2" d="M91.7,356.1l29.6-188.9c1-6.1,6.1-10.5,12.2-10.5h274.2c7.5,0,13.3,6.7,12.3,14.2L393,359.8
			c-0.9,6.1-6.1,10.7-12.3,10.7H104C96.3,370.5,90.5,363.7,91.7,356.1z"/>
	</g>
	<g>
		<path class="st3" d="M88.4,349.9l29.2-185.1c0.9-5.9,6-10.3,12.1-10.3h269.9c7.4,0,13.1,6.6,12.1,13.9L385,353.6
			c-0.9,6-6,10.5-12.1,10.5H100.5C93,364,87.2,357.3,88.4,349.9z"/>
	</g>
	<g>
		<path class="st2" d="M400.1,174.9l-11.5,80l-1.3,8.7l-12,83.2c-0.8,5.6-5.6,9.7-11.2,9.7h-253c-7,0-12.3-6.2-11.2-13.1l12.6-79.8
			l1.4-8.8l13.1-83.3c0.9-5.5,5.6-9.6,11.2-9.6h250.7C395.8,162,401.1,168.1,400.1,174.9z"/>
	</g>
	<g>
		<polygon class="st3" points="388.6,254.9 387.3,263.7 112.5,263.7 113.9,254.9 243,254.9 251.8,254.9 		"/>
	</g>
	<g>
		<polygon class="st3" points="264.6,162 251.8,254.9 250.6,263.7 237.8,356.6 229.3,356.6 241.9,263.7 243,254.9 255.5,162 		"/>
	</g>
	<g>
		<g>
			<path class="st4" d="M218.2,242.2l-1.4,8.9c-0.2,1.3-0.5,2.6-0.8,3.9h-71.8c0.1-1.3,0.2-2.6,0.4-3.9l1.4-8.9
				c3.1-19.7,21.8-35.7,41.8-35.7C207.7,206.5,221.3,222.5,218.2,242.2L218.2,242.2z"/>
		</g>
		<g>
			
				<ellipse transform="matrix(0.7589 -0.6512 0.6512 0.7589 -79.1597 170.0184)" class="st4" cx="190" cy="191.9" rx="13.8" ry="11.8"/>
		</g>
	</g>
	<g>
		<g>
			<path class="st3" d="M358.8,242.2l-1.4,8.9c-0.2,1.3-0.5,2.6-0.8,3.9h-71.8c0.1-1.3,0.2-2.6,0.4-3.9l1.4-8.9
				c3.1-19.7,21.8-35.7,41.8-35.7C348.2,206.5,361.9,222.5,358.8,242.2L358.8,242.2z"/>
		</g>
		<g>
			
				<ellipse transform="matrix(0.7589 -0.6512 0.6512 0.7589 -45.2718 261.5515)" class="st3" cx="330.6" cy="191.9" rx="13.8" ry="11.8"/>
		</g>
	</g>
	<g>
		<g>
			<path class="st3" d="M201.8,343.8l-1.4,8.9c-0.2,1.3-0.5,2.6-0.8,3.9h-71.8c0.1-1.3,0.2-2.6,0.4-3.9l1.4-8.9
				c3.1-19.7,21.8-35.7,41.8-35.7C191.3,308.1,204.9,324,201.8,343.8L201.8,343.8z"/>
		</g>
		<g>
			
				<ellipse transform="matrix(0.7589 -0.6512 0.6512 0.7589 -149.2534 183.8311)" class="st3" cx="173.6" cy="293.5" rx="13.8" ry="11.8"/>
		</g>
	</g>
	<g>
		<g>
			<path class="st4" d="M342.4,343.8l-1.4,8.9c-0.2,1.3-0.5,2.6-0.8,3.9h-71.8c0.1-1.3,0.2-2.6,0.4-3.9l1.4-8.9
				c3.1-19.7,21.8-35.7,41.8-35.7C331.8,308.1,345.5,324,342.4,343.8L342.4,343.8z"/>
		</g>
		<g>
			
				<ellipse transform="matrix(0.7589 -0.6512 0.6512 0.7589 -115.3654 275.3643)" class="st4" cx="314.2" cy="293.5" rx="13.8" ry="11.8"/>
		</g>
	</g>
	<g>
		<g>
			
				<ellipse transform="matrix(0.7356 -0.6774 0.6774 0.7356 -151.3797 194.6326)" class="st3" cx="173.6" cy="291.2" rx="16.5" ry="14.5"/>
		</g>
		<g>
			<g>
				
					<ellipse transform="matrix(0.7356 -0.6774 0.6774 0.7356 -150.371 190.3643)" class="st2" cx="168.7" cy="287.8" rx="2.7" ry="2.4"/>
			</g>
			<g>
				
					<ellipse transform="matrix(0.7356 -0.6774 0.6774 0.7356 -147.5115 197.6906)" class="st2" cx="179.5" cy="287.8" rx="2.7" ry="2.4"/>
			</g>
		</g>
		<g>
			<path class="st2" d="M165.2,295.2h15.9C181.1,295.2,172.2,304.9,165.2,295.2z"/>
		</g>
	</g>
	<g>
		<g>
			
				<ellipse transform="matrix(0.7356 -0.6774 0.6774 0.7356 -114.2149 289.8517)" class="st4" cx="314.2" cy="291.2" rx="16.5" ry="14.5"/>
		</g>
		<g>
			<g>
				
					<ellipse transform="matrix(0.7356 -0.6774 0.6774 0.7356 -113.2062 285.5835)" class="st2" cx="309.2" cy="287.8" rx="2.7" ry="2.4"/>
			</g>
			<g>
				
					<ellipse transform="matrix(0.7356 -0.6774 0.6774 0.7356 -110.3467 292.9098)" class="st2" cx="320.1" cy="287.8" rx="2.7" ry="2.4"/>
			</g>
		</g>
		<g>
			<path class="st2" d="M305.8,295.2h15.9C321.6,295.2,312.8,304.9,305.8,295.2z"/>
		</g>
	</g>
	<g>
		<g>
			
				<ellipse transform="matrix(0.7356 -0.6774 0.6774 0.7356 -41.0756 274.1011)" class="st3" cx="330.6" cy="189.7" rx="16.5" ry="14.5"/>
		</g>
		<g>
			<g>
				
					<ellipse transform="matrix(0.7356 -0.6774 0.6774 0.7356 -40.0669 269.8328)" class="st2" cx="325.6" cy="186.2" rx="2.7" ry="2.4"/>
			</g>
			<g>
				
					<ellipse transform="matrix(0.7356 -0.6774 0.6774 0.7356 -37.2074 277.1591)" class="st2" cx="336.4" cy="186.2" rx="2.7" ry="2.4"/>
			</g>
		</g>
		<g>
			<path class="st2" d="M322.2,193.6H338C338,193.6,329.2,203.3,322.2,193.6z"/>
		</g>
	</g>
	<g>
		<g>
			
				<ellipse transform="matrix(0.7356 -0.6774 0.6774 0.7356 -78.2404 178.8819)" class="st4" cx="190" cy="189.7" rx="16.5" ry="14.5"/>
		</g>
		<g>
			<g>
				
					<ellipse transform="matrix(0.7356 -0.6774 0.6774 0.7356 -77.2317 174.6136)" class="st2" cx="185.1" cy="186.2" rx="2.7" ry="2.4"/>
			</g>
			<g>
				
					<ellipse transform="matrix(0.7356 -0.6774 0.6774 0.7356 -74.3722 181.9399)" class="st2" cx="195.9" cy="186.2" rx="2.7" ry="2.4"/>
			</g>
		</g>
		<g>
			<path class="st2" d="M181.6,193.6h15.9C197.5,193.6,188.6,203.3,181.6,193.6z"/>
		</g>
	</g>
	<g>
		<ellipse transform="matrix(0.9824 -0.1869 0.1869 0.9824 -47.6656 46.8533)" class="st5" cx="224.7" cy="276.3" rx="8" ry="7.5"/>
	</g>
	<g>
		<ellipse transform="matrix(0.9824 -0.1869 0.1869 0.9824 -45.1091 73.9739)" class="st5" cx="369.8" cy="276.3" rx="8" ry="7.5"/>
	</g>
	<g>
		<ellipse transform="matrix(0.9824 -0.1869 0.1869 0.9824 -28.3888 47.6175)" class="st5" cx="238.4" cy="174.4" rx="8" ry="7.5"/>
	</g>
	<g>
		<ellipse transform="matrix(0.9824 -0.1869 0.1869 0.9824 -25.8323 74.7381)" class="st5" cx="383.5" cy="174.4" rx="8" ry="7.5"/>
	</g>
</g>
</svg>
