<?xml version="1.0" encoding="utf-8"?>
<!-- Generator: Adobe Illustrator 24.2.0, SVG Export Plug-In . SVG Version: 6.00 Build 0)  -->
<svg version="1.1" id="Layer_1" xmlns="http://www.w3.org/2000/svg" xmlns:xlink="http://www.w3.org/1999/xlink" x="0px" y="0px"
	 viewBox="0 0 500 500" style="enable-background:new 0 0 500 500;" xml:space="preserve">
<style type="text/css">
	.st0{fill:#EAEAEA;}
	.st1{fill:#2490CF;}
	.st2{fill:#2F2E41;}
	.st3{fill:#6BBFEB;}
	.st4{fill:#FFFFFF;}
	.st5{fill:#F7B73C;}
</style>
<g>
	<g>
		<path class="st0" d="M391.6,234.3l-56.2,130.4c-14,32.5-51.7,47.5-84.2,33.5L120.9,342c-32.5-14-47.5-51.7-33.5-84.2l56.2-130.4
			C157.6,95,195.3,80,227.7,94l130.4,56.2C390.6,164.1,405.6,201.8,391.6,234.3z"/>
	</g>
	<g>
		<g>
			<g>
				<path class="st1" d="M48.4,245.8c-14.5-3.1-28.4-8.6-41.2-16c-1.8,11.5-2.3,23.1-1.3,34.6c12,10.1,29.9,15.1,44.2,18.2
					c-14.2,2.2-28.4-0.5-42.3-4.6c2.3,12,6.3,23.8,12,35c2.4,4.6,5.1,9,8.1,13.2c9.1,2.9,20.4,5.3,34.5,9.1c15.4,2.4,31.9,1,45.4-7
					c-3.4,12.7-17.6,19.4-30.4,22c-7.2,1.5-15.8,1.6-25.2,0.3c0.2,0.1,0.4,0.3,0.6,0.4c34.5,25.2,79.3,27.7,115.4,9
					c0.8-0.4,1.6-0.8,2.4-1.3c0.8-0.4,1.6-0.9,2.4-1.4c8.8-5.1,17-11.6,24.3-19.4c14.2-15.1,23.4-33.5,22.2-55.4
					c-1.1-10.8-4.1-19.7-8.6-27.1c-11.2,33-31.7,60.2-55.7,66.2c12.7-12.2,39.3-57.1,40.4-82.7l0,0c-8.9-6.6-19.7-11.2-31.4-14.8
					c-0.5,0.2-1.1,0.4-1.7,0.6c-21.8,9.8-28.4,35.5-37,57.8c0.8-24.3,8.2-46.6,22.8-62.5c-10.1-2.3-20.4-4.2-30.4-6.1
					c-15.2,5.6-27.8,18.1-33.5,33.3c-2.5-14.1,5.3-25.8,12.9-37.7c-4.3-1-8.4-2.2-12.3-3.4c-18.4-5.7-36.4-14.3-50.3-27.5
					c-2-1.9-4-4-5.9-6.1c0,0,0,0,0,0.1l0,0c-0.5,0.9-1.1,1.7-1.6,2.6c-8.3,13.9-14.3,28.7-17.9,43.9
					C21.9,228.8,33.2,241.8,48.4,245.8z"/>
			</g>
			<g>
				<path class="st1" d="M27.1,175.2c15.3,30.9,33.6,61,54.4,89.4c16.9,23.1,35.5,45.1,55.2,65.5c11.6,12,22.3,22,31.3,30
					c17,15.1,28.1,22.8,28.2,23l2.9-4.2c-0.2-0.1-10.4-7.3-26.4-21.4c-9.2-8.1-20.3-18.5-32.5-31.1
					c-29.6-30.6-71.6-80.7-105.7-147.7c-2-1.9-4-4-5.9-6.1c0,0,0,0,0,0.1l0,0C28.2,173.5,27.7,174.4,27.1,175.2z"/>
			</g>
		</g>
		<g>
			<g>
				<path class="st1" d="M451.6,245.8c14.5-3.1,28.4-8.6,41.2-16c1.8,11.5,2.3,23.1,1.3,34.6c-12,10.1-29.9,15.1-44.2,18.2
					c14.2,2.2,28.4-0.5,42.3-4.6c-2.3,12-6.3,23.8-12,35c-2.4,4.6-5.1,9-8.1,13.2c-9.1,2.9-20.4,5.3-34.5,9.1
					c-15.4,2.4-31.9,1-45.4-7c3.4,12.7,17.6,19.4,30.4,22c7.2,1.5,15.8,1.6,25.2,0.3c-0.2,0.1-0.4,0.3-0.6,0.4
					c-34.5,25.2-79.3,27.7-115.4,9c-0.8-0.4-1.6-0.8-2.4-1.3c-0.8-0.4-1.6-0.9-2.4-1.4c-8.8-5.1-17-11.6-24.3-19.4
					c-14.2-15.1-23.4-33.5-22.2-55.4c1.1-10.8,4.1-19.7,8.6-27.1c11.2,33,31.7,60.2,55.7,66.2c-12.7-12.2-39.3-57.1-40.4-82.7l0,0
					c8.9-6.6,19.7-11.2,31.4-14.8c0.5,0.2,1.1,0.4,1.7,0.6c21.8,9.8,28.4,35.5,37,57.8c-0.8-24.3-8.2-46.6-22.8-62.5
					c10.1-2.3,20.4-4.2,30.4-6.1c15.2,5.6,27.8,18.1,33.5,33.3c2.5-14.1-5.3-25.8-12.9-37.7c4.3-1,8.4-2.2,12.3-3.4
					c18.4-5.7,36.4-14.3,50.3-27.5c2-1.9,4-4,5.9-6.1c0,0,0,0,0,0.1l0,0c0.5,0.9,1.1,1.7,1.6,2.6c8.3,13.9,14.3,28.7,17.9,43.9
					C478.1,228.8,466.8,241.8,451.6,245.8z"/>
			</g>
			<g>
				<path class="st1" d="M472.9,175.2c-15.3,30.9-33.6,61-54.4,89.4c-16.9,23.1-35.5,45.1-55.2,65.5c-11.6,12-22.3,22-31.3,30
					c-17,15.1-28.1,22.8-28.2,23l-2.9-4.2c0.2-0.1,10.4-7.3,26.4-21.4c9.2-8.1,20.3-18.5,32.5-31.1c29.6-30.6,71.6-80.7,105.7-147.7
					c2-1.9,4-4,5.9-6.1c0,0,0,0,0,0.1l0,0C471.8,173.5,472.3,174.4,472.9,175.2z"/>
			</g>
		</g>
	</g>
	<g>
		<path class="st2" d="M175.6,358.1l15.9,42.2l28.3-44.2c2.4-3.7,6.6-6,11.1-6h138c9.1,0,17.2-5.9,19.6-14.4l40.4-138.1
			c3.7-12.6-6.1-25.1-19.6-25.1H114.1c-13,0-22.6,11.5-20,23.8l19.5,138.2c3.7,8.8,21.7,14.2,31.1,14.5l19.1,0.7
			C169.1,350,173.8,353.3,175.6,358.1z"/>
	</g>
	<g>
		<path class="st3" d="M163.9,352.3l27.6,48l16.6-50.1c2.4-3.8,6.6-6.2,11.1-6.2h138c9.1,0,17.2-6.1,19.6-14.9l40.4-143
			c3.7-13-6.1-26-19.6-26H102.4c-13,0-22.6,11.9-20,24.6l29.8,141.9c1.9,9.2,9.9,15.9,19.3,16.2l20.6,0.7
			C157.4,343.9,162.1,347.3,163.9,352.3z"/>
	</g>
	<g>
		<g>
			<circle class="st4" cx="180.9" cy="256.9" r="20.8"/>
		</g>
		<g>
			<circle class="st4" cx="243.1" cy="232.5" r="20.8"/>
		</g>
		<g>
			<circle class="st4" cx="303" cy="256.9" r="20.8"/>
		</g>
	</g>
	<g>
		<circle class="st5" cx="411.3" cy="173.9" r="34.4"/>
	</g>
	<g>
		<g>
			<circle class="st2" cx="180.9" cy="264.3" r="20.8"/>
		</g>
		<g>
			<circle class="st2" cx="243.2" cy="243.6" r="20.8"/>
		</g>
		<g>
			<circle class="st2" cx="303.1" cy="264.3" r="20.8"/>
		</g>
	</g>
	<g>
		<g>
			<circle class="st5" cx="349.2" cy="359.2" r="34.4"/>
		</g>
		<g>
			<g>
				<circle class="st2" cx="337.2" cy="351.6" r="5.6"/>
			</g>
			<g>
				<circle class="st2" cx="361.1" cy="351.6" r="5.6"/>
			</g>
		</g>
		<g>
			<path class="st2" d="M331.6,367.9h35.1C366.7,367.9,350,389.4,331.6,367.9z"/>
		</g>
	</g>
	<g>
		<g>
			<circle class="st5" cx="284.6" cy="376.9" r="34.4"/>
		</g>
		<g>
			<g>
				<circle class="st2" cx="296.5" cy="384.5" r="5.6"/>
			</g>
			<g>
				<circle class="st2" cx="272.6" cy="384.5" r="5.6"/>
			</g>
		</g>
		<g>
			<path class="st2" d="M272.6,363.7c0,0,11-12.9,23.9,0"/>
		</g>
	</g>
	<g>
		<g>
			<circle class="st5" cx="126.8" cy="354.7" r="34.4"/>
		</g>
		<g>
			<g>
				<circle class="st2" cx="114.8" cy="347.1" r="5.6"/>
			</g>
			<g>
				<circle class="st2" cx="138.8" cy="347.1" r="5.6"/>
			</g>
		</g>
		<g>
			<path class="st4" d="M108.7,366.6c16.8,23.4,31.4,7.1,36.4,0c0.9-1.2,0-2.9-1.5-2.9h-33.3C108.7,363.7,107.8,365.4,108.7,366.6z"
				/>
		</g>
	</g>
</g>
</svg>
