<svg xmlns="http://www.w3.org/2000/svg" xmlns:xlink="http://www.w3.org/1999/xlink" viewBox="0 0 555.4 626.333"><defs><style>.cls-1,.cls-5{fill:none;}.cls-2{clip-path:url(#clip-path);}.cls-3{fill:#2f2e41;}.cls-4{fill:url(#linear-gradient);}.cls-5{stroke:#fff;stroke-linecap:round;stroke-miterlimit:10;stroke-width:1.058px;}.cls-6{fill:url(#linear-gradient-2);}.cls-7{fill:url(#linear-gradient-3);}.cls-8{fill:#fff;}.cls-9{fill:url(#linear-gradient-4);}.cls-10{fill:#f4bc71;}.cls-11{fill:#ffb59e;}.cls-12{fill:#f4a690;}.cls-13{fill:#ed9885;}.cls-14{fill:#d8994e;}.cls-15{fill:#ffd097;}</style><clipPath id="clip-path" transform="translate(-72.3 -36.834)"><rect class="cls-1" width="700" height="700"/></clipPath><linearGradient id="linear-gradient" x1="604.581" y1="558.524" x2="514.941" y2="522.884" gradientUnits="userSpaceOnUse"><stop offset="0" stop-color="#6cbdea"/><stop offset="1" stop-color="#2490cf"/></linearGradient><linearGradient id="linear-gradient-2" x1="565.639" y1="500.906" x2="477.799" y2="482.186" xlink:href="#linear-gradient"/><linearGradient id="linear-gradient-3" x1="154.556" y1="602.819" x2="183.383" y2="563.183" xlink:href="#linear-gradient"/><linearGradient id="linear-gradient-4" x1="90.245" y1="520.203" x2="215.525" y2="517.323" xlink:href="#linear-gradient"/></defs><g id="Layer_2" data-name="Layer 2"><g id="Layer_1-2" data-name="Layer 1"><g class="cls-2"><path class="cls-3" d="M216.1,644.77c19.05-26.69-46.2-130.3-96.842-123.362-21.618,2.962-42.036,26.271-38.615,39.959,3.268,13.078,25.86,7.618,46.678,27.458,21.727,20.707,13.069,41.857,32.949,55.831C177.522,656.784,207.253,657.161,216.1,644.77Z" transform="translate(-72.3 -36.834)"/><path class="cls-3" d="M536,618s.27,50.77-75.01,44.66l-11.64.05-96.37.46s-16.5-.33-30.68-1.68c-12.72-1.21-62.58-5.96-72.66-6.92l-1.78-.17-1.18-3.85-1.43-4.66-3.85-12.54L236.688,618l-3-9.78-.64-2.08-.88-2.87,9.52.46.38.02,3.21.16,4.36.21,199.71,9.68,5.74.28,3.16.15,31.48,1.53Z" transform="translate(-72.3 -36.834)"/><path class="cls-3" d="M227.05,588.638s-6.605-56.5-43.3-77.786-82.923-55.038-82.923-91.729S138.005,379.9,148.4,341.538s-22.623-69.182-22.623-106.607,37.426-79.988,82.189-79.254,46.3,22.686,90.836,23.96,27.311-79,81.615-80.465,65.311,16.878,82.923,41.094,31.555,43.3,57.973,58.707,57.974,12.475,62.377,46.965-17.613,59.441-26.42,78.52.734,55.772,22.016,80.722,46.231,26.418,46.965,57.973-53.57,69.714-72.65,104.2-17.612,50.634-17.612,50.634H226.9Z" transform="translate(-72.3 -36.834)"/><path class="cls-3" d="M615.46,356.255c-2.7-6.128-4.74-11.338-5.052-18.1-.193-4.179-.527-8.122-3.619-11.3-6.365-6.534-14.516-2.213-17.4,5.169a29.739,29.739,0,0,0-1.195,3.814,43.111,43.111,0,0,0-.938,30.256c2.957,8.431,9.676,19.793,17.662,24.356,6.734,3.847,15.236,1.6,18.087-5.888C626.538,375.29,619.061,364.423,615.46,356.255Z" transform="translate(-72.3 -36.834)"/><path class="cls-3" d="M110.423,299.106a10.512,10.512,0,0,0-2.644.082A6.529,6.529,0,0,0,100,303.85a12.334,12.334,0,0,0-1.072,1.65c-1.894,3.558-1.889,7.426-1.816,11.306-2.978,6.128-6.466,12.287-.95,17.824,8.505,8.536,17.986-7.313,20.709-13.766C120.041,313.359,121.809,300.342,110.423,299.106Z" transform="translate(-72.3 -36.834)"/><path class="cls-3" d="M309.877,126.014c-5.121-.237-8.91,3.093-10.418,7.521a15.866,15.866,0,0,0-2.92,9.047c-.053,4.675,4.845,6.739,8.65,4.964,6.22-2.9,9.841-9.118,10.436-15.784C315.911,128.565,312.756,126.147,309.877,126.014Z" transform="translate(-72.3 -36.834)"/><path class="cls-4" d="M617.939,484.2c-5.566,9.157-12.332,17.509-18.036,26.574a86.5,86.5,0,0,0-7.344,14.095,110.554,110.554,0,0,0-4.518,15.478c-2.343,9.923-4.816,20.051-12.063,27.645-5.307,5.561-12.225,9.237-19.27,12.116-14.408,5.887-30.44,9.04-43.069,18.615-9.158,6.943-15.276,16.885-23.792,24.493-7.253,6.479-18.482,11.416-27.843,6.939a52.033,52.033,0,0,0,8.068-22.179,108.069,108.069,0,0,1,52.406-73.032c6.993-3.945,14.485-7.441,19.954-13.507,5.373-5.96,8.356-13.5,11.5-20.767,3.231-7.461,6.87-14.51,13-20.02,5.872-5.279,13.015-8.952,20.051-12.413,14.167-6.966,30.924-14.788,36.729-30.47C631.981,452.248,626.072,470.821,617.939,484.2Z" transform="translate(-72.3 -36.834)"/><path class="cls-5" d="M599.793,480.062s-19.512,19.328-25.953,33.961-6.712,25.935-18.618,33.3-36.38,14.754-48.621,28.617-12.61,27.193-44.6,54.22" transform="translate(-72.3 -36.834)"/><path class="cls-1" d="M617.939,484.2c-5.566,9.157-12.332,17.509-18.036,26.574a86.5,86.5,0,0,0-7.344,14.095,110.554,110.554,0,0,0-4.518,15.478c-2.343,9.923-4.816,20.051-12.063,27.645-5.307,5.561-12.225,9.237-19.27,12.116-14.408,5.887-30.44,9.04-43.069,18.615-9.158,6.943-15.276,16.885-23.792,24.493-7.253,6.479-18.482,11.416-27.843,6.939a52.033,52.033,0,0,0,8.068-22.179,108.069,108.069,0,0,1,52.406-73.032c6.993-3.945,14.485-7.441,19.954-13.507,5.373-5.96,8.356-13.5,11.5-20.767,3.231-7.461,6.87-14.51,13-20.02,5.872-5.279,13.015-8.952,20.051-12.413,14.167-6.966,30.924-14.788,36.729-30.47C631.981,452.248,626.072,470.821,617.939,484.2Z" transform="translate(-72.3 -36.834)"/><path class="cls-6" d="M566.373,420.345c1.038-19.484-.5-41.114-14.964-55.8-12.32-12.5-30.251-14.195-45.013-5.088-14.815,9.139-24.37,24.7-31.76,40a289.273,289.273,0,0,0-21.573,62.745c-9.818,43.935-10.679,89.492-6.927,134.207q.714,8.5,1.65,16.986a2.852,2.852,0,0,0,4.7,1.777,6.772,6.772,0,0,0,6.145.631c4.215-1.359,7.568-5.4,10.729-8.319Q480.732,597,491.171,585.565a328.609,328.609,0,0,0,37.342-49.434C549.943,501.168,564.183,461.485,566.373,420.345Z" transform="translate(-72.3 -36.834)"/><line class="cls-5" x1="444.779" y1="369.057" x2="377.009" y2="585.615"/><path class="cls-1" d="M566.373,420.345c1.038-19.484-.5-41.114-14.964-55.8-12.32-12.5-30.251-14.195-45.013-5.088-14.815,9.139-24.37,24.7-31.76,40a289.273,289.273,0,0,0-21.573,62.745c-9.818,43.935-10.679,89.492-6.927,134.207q.714,8.5,1.65,16.986a2.852,2.852,0,0,0,4.7,1.777,6.772,6.772,0,0,0,6.145.631c4.215-1.359,7.568-5.4,10.729-8.319Q480.732,597,491.171,585.565a328.609,328.609,0,0,0,37.342-49.434C549.943,501.168,564.183,461.485,566.373,420.345Z" transform="translate(-72.3 -36.834)"/><path class="cls-7" d="M270.09,610.286c-.807-.6-1.611-1.192-2.391-1.769-2.072-1.527-4.147-3.064-6.226-4.579q-2.865-2.1-5.739-4.189c-1.444-1.042-2.878-2.086-4.321-3.128-.262-.186-.523-.371-.775-.558q-3.7-2.668-7.391-5.306-6.813-4.864-13.668-9.663-23.529-16.5-47.45-32.442-19.987-13.409-40.144-26.571-5.457-3.568-10.9-7.128l-14.712-9.6c-7.745-5.049-15.657-11.3-24.8-13.477a20.477,20.477,0,0,0-4.378-.574,14.244,14.244,0,0,0-8.2,2.231,14.943,14.943,0,0,0-5.9,8.478c-2.283,7.918.667,15.727,5.373,22.116,5.264,7.134,12.276,13.111,18.876,18.956q7.077,6.27,14.5,12.16c2.232,1.794,4.494,3.547,6.782,5.283a483.857,483.857,0,0,0,45.349,30.31c14.855,8.832,40.556,21.666,61.427,31.809,3.93,1.91,7.686,3.723,11.171,5.386,12.093,5.808,20.87,9.925,21.97,10.493,2.55,1.307,5.368,3.078,8.318,4.437a26.859,26.859,0,0,0,3.1,1.232,16.366,16.366,0,0,0,3.29.73,10.789,10.789,0,0,0,5.635-.776,9.667,9.667,0,0,0,3.467-2.525c3.34-3.768,3.868-9.934,2.393-14.6C282.451,619.814,276.066,614.718,270.09,610.286Z" transform="translate(-72.3 -36.834)"/><path class="cls-5" d="M109.234,527.356C166.541,576.986,262.2,630.55,282.342,641.621l.009,0" transform="translate(-72.3 -36.834)"/><path class="cls-8" d="M492.159,497.3a1.521,1.521,0,0,0,.839,2.923A1.521,1.521,0,0,0,492.159,497.3Z" transform="translate(-72.3 -36.834)"/><path class="cls-8" d="M91.978,517.121a1.521,1.521,0,0,0,.839,2.922A1.521,1.521,0,0,0,91.978,517.121Z" transform="translate(-72.3 -36.834)"/><path class="cls-8" d="M170.272,577.994a1.364,1.364,0,0,0-.994-.551,1.154,1.154,0,0,0-.6.036l-.374.164a1.522,1.522,0,0,0-.537.561l-.143.361a1.51,1.51,0,0,0,.012.795l.161.56a1.562,1.562,0,0,0,1.881,1.041l.373-.164a1.506,1.506,0,0,0,.537-.561l.144-.361a1.511,1.511,0,0,0-.013-.795l-.16-.559A1.138,1.138,0,0,0,170.272,577.994Z" transform="translate(-72.3 -36.834)"/><path class="cls-8" d="M174.324,552.838a1.521,1.521,0,0,0,.839,2.923A1.521,1.521,0,0,0,174.324,552.838Z" transform="translate(-72.3 -36.834)"/><path class="cls-8" d="M170.617,474.545a1.521,1.521,0,0,0,.839,2.923A1.521,1.521,0,0,0,170.617,474.545Z" transform="translate(-72.3 -36.834)"/><path class="cls-8" d="M166.225,421.286a1.521,1.521,0,0,0,.84,2.922A1.521,1.521,0,0,0,166.225,421.286Z" transform="translate(-72.3 -36.834)"/><path class="cls-8" d="M233.187,494.134a1.521,1.521,0,0,0,.839,2.922A1.521,1.521,0,0,0,233.187,494.134Z" transform="translate(-72.3 -36.834)"/><path class="cls-8" d="M546.687,484.667a1.521,1.521,0,0,0,.839,2.922A1.521,1.521,0,0,0,546.687,484.667Z" transform="translate(-72.3 -36.834)"/><path class="cls-8" d="M546.6,421.085a1.521,1.521,0,0,0,.84,2.922A1.521,1.521,0,0,0,546.6,421.085Z" transform="translate(-72.3 -36.834)"/><path class="cls-8" d="M500.468,374.361a1.521,1.521,0,0,0,.839,2.922A1.521,1.521,0,0,0,500.468,374.361Z" transform="translate(-72.3 -36.834)"/><path class="cls-8" d="M493.731,302.39a1.522,1.522,0,0,0,.84,2.923A1.522,1.522,0,0,0,493.731,302.39Z" transform="translate(-72.3 -36.834)"/><path class="cls-8" d="M460.427,336.186a1.521,1.521,0,0,0,.839,2.923A1.521,1.521,0,0,0,460.427,336.186Z" transform="translate(-72.3 -36.834)"/><path class="cls-9" d="M244.3,399.043c-4.887,2.6-8.145,7.312-10.987,11.9-3.52,5.683-6.962,11.417-10.439,17.126-2.7,4.44-5.34,8.9-8.9,12.722-2.851,3.057-6.543,6.087-10.861,6.511-6.008.591-9.806-4.481-12.833-8.9A89.7,89.7,0,0,0,164.468,413c-9.529-6.048-21.127-11.058-32.595-8.277-9.687,2.349-17.55,10.1-17.648,20.421-.091,9.7,5.946,18.551,11.759,25.818,4.122,5.153,8.457,10.145,12.7,15.2l6.54,7.8a33.837,33.837,0,0,1,5.069,7.023c2.542,5.417-.162,10.4-4.616,13.72-4.573,3.41-9.9,4.866-15.175,6.761-8.644,3.1-20.059,9.756-16.659,20.763,2.652,8.585,12.9,12.293,21.085,11.472,5.541-.556,10.8-2.564,15.993-4.461a78.926,78.926,0,0,1,17.491-4.521c5.554-.685,11.552-1,17.046.274,4.769,1.105,10.083,4.706,7.9,10.321-2.069,5.331-8.106,8.133-13.032,10.146-5.65,2.307-11.536,3.951-17.314,5.895-10.537,3.544-21.512,8.677-27.345,18.665-4.559,7.807-4.359,19.031,2.214,25.7,8.114,8.226,21.665,4.616,31.212,1.348a84.1,84.1,0,0,0,29.033-17.059c6.139-5.548,13.826-14.891,23.109-13.642A11.33,11.33,0,0,1,230.805,576a10.551,10.551,0,0,1-1.351,6.518A185.717,185.717,0,0,0,204.088,601.7c-6.461,5.829-14.653,14.512-12.412,24.084C194.218,636.634,207.239,638,216.333,636c11.122-2.448,21.4-7.922,30.885-14.064,10.238-6.626,20.046-14,29.788-21.331A296.792,296.792,0,0,0,306.494,575.8c17.545-17.176,32.193-38.554,36.73-63.072a70.184,70.184,0,0,0,1.258-17.533c-.363-5.14-1.832-10.429-5.506-14.209-3.306-3.4-8.2-5.435-12.927-4.222-4.828,1.24-7.911,5.428-10.253,9.544-3.15,5.539-5.944,11.2-9.494,16.514a133.58,133.58,0,0,1-12.079,15.488c-2.141,2.364-4.342,4.712-6.7,6.86-2.165,1.969-4.69,3.946-7.621,4.562a7.732,7.732,0,0,1-7.087-1.821c-2.014-2.125-1.46-5.238-.523-7.727,2.194-5.824,5.705-11.318,9.1-16.5,3.521-5.387,7.308-10.591,11.025-15.842,7.051-9.96,14.6-20.567,18.231-32.36,2.4-7.814,1.707-19.967-9.013-20.209-9.418-.211-17.509,7.08-22.693,14.2-5.754,7.907-9.746,16.923-15.32,24.946-2.8,4.027-5.992,8.055-10.192,10.689-4.147,2.6-10.111,4.5-14.772,2.12-4.726-2.412-5.414-7.949-4.462-12.647,1.089-5.374,4-10.338,6.8-14.98,6.336-10.5,14.3-20.16,19.015-31.571a44.506,44.506,0,0,0,3.594-16.605c.04-4.931-1.195-10.193-5.83-12.754C253.651,396.4,248.355,396.888,244.3,399.043Z" transform="translate(-72.3 -36.834)"/><path class="cls-5" d="M156.143,450.527s81,81.4,132.213,149.521" transform="translate(-72.3 -36.834)"/><path class="cls-5" d="M199.1,494.769s28.293-38.17,41.774-67.434" transform="translate(-72.3 -36.834)"/><path class="cls-5" d="M135.655,515.981s33.411-6.77,58.857-24.746" transform="translate(-72.3 -36.834)"/><path class="cls-5" d="M234.474,534.567s22.946-19.516,57.513-76.989" transform="translate(-72.3 -36.834)"/><path class="cls-5" d="M149.041,581.247s51.065-18.234,81.635-50.075" transform="translate(-72.3 -36.834)"/><path class="cls-5" d="M270.359,576.079S294.4,559.816,318.5,521.05" transform="translate(-72.3 -36.834)"/><path class="cls-5" d="M204.4,621.034s38.022-20.441,66.25-40.363" transform="translate(-72.3 -36.834)"/><path class="cls-1" d="M244.3,399.043c-4.887,2.6-8.145,7.312-10.987,11.9-3.52,5.683-6.962,11.417-10.439,17.126-2.7,4.44-5.34,8.9-8.9,12.722-2.851,3.057-6.543,6.087-10.861,6.511-6.008.591-9.806-4.481-12.833-8.9A89.7,89.7,0,0,0,164.468,413c-9.529-6.048-21.127-11.058-32.595-8.277-9.687,2.349-17.55,10.1-17.648,20.421-.091,9.7,5.946,18.551,11.759,25.818,4.122,5.153,8.457,10.145,12.7,15.2l6.54,7.8a33.837,33.837,0,0,1,5.069,7.023c2.542,5.417-.162,10.4-4.616,13.72-4.573,3.41-9.9,4.866-15.175,6.761-8.644,3.1-20.059,9.756-16.659,20.763,2.652,8.585,12.9,12.293,21.085,11.472,5.541-.556,10.8-2.564,15.993-4.461a78.926,78.926,0,0,1,17.491-4.521c5.554-.685,11.552-1,17.046.274,4.769,1.105,10.083,4.706,7.9,10.321-2.069,5.331-8.106,8.133-13.032,10.146-5.65,2.307-11.536,3.951-17.314,5.895-10.537,3.544-21.512,8.677-27.345,18.665-4.559,7.807-4.359,19.031,2.214,25.7,8.114,8.226,21.665,4.616,31.212,1.348a84.1,84.1,0,0,0,29.033-17.059c6.139-5.548,13.826-14.891,23.109-13.642A11.33,11.33,0,0,1,230.805,576a10.551,10.551,0,0,1-1.351,6.518A185.717,185.717,0,0,0,204.088,601.7c-6.461,5.829-14.653,14.512-12.412,24.084C194.218,636.634,207.239,638,216.333,636c11.122-2.448,21.4-7.922,30.885-14.064,10.238-6.626,20.046-14,29.788-21.331A296.792,296.792,0,0,0,306.494,575.8c17.545-17.176,32.193-38.554,36.73-63.072a70.184,70.184,0,0,0,1.258-17.533c-.363-5.14-1.832-10.429-5.506-14.209-3.306-3.4-8.2-5.435-12.927-4.222-4.828,1.24-7.911,5.428-10.253,9.544-3.15,5.539-5.944,11.2-9.494,16.514a133.58,133.58,0,0,1-12.079,15.488c-2.141,2.364-4.342,4.712-6.7,6.86-2.165,1.969-4.69,3.946-7.621,4.562a7.732,7.732,0,0,1-7.087-1.821c-2.014-2.125-1.46-5.238-.523-7.727,2.194-5.824,5.705-11.318,9.1-16.5,3.521-5.387,7.308-10.591,11.025-15.842,7.051-9.96,14.6-20.567,18.231-32.36,2.4-7.814,1.707-19.967-9.013-20.209-9.418-.211-17.509,7.08-22.693,14.2-5.754,7.907-9.746,16.923-15.32,24.946-2.8,4.027-5.992,8.055-10.192,10.689-4.147,2.6-10.111,4.5-14.772,2.12-4.726-2.412-5.414-7.949-4.462-12.647,1.089-5.374,4-10.338,6.8-14.98,6.336-10.5,14.3-20.16,19.015-31.571a44.506,44.506,0,0,0,3.594-16.605c.04-4.931-1.195-10.193-5.83-12.754C253.651,396.4,248.355,396.888,244.3,399.043Z" transform="translate(-72.3 -36.834)"/><path class="cls-8" d="M506.053,247.08a18.187,18.187,0,0,0,3.038-.928,21.945,21.945,0,0,0,10.416-8.572,24.506,24.506,0,0,0,2.205-4.622,20,20,0,0,0,3.99,7.57c2.652,2.965,6,6.3,9.992,7.125a31.218,31.218,0,0,0-5.21,2.725,22.868,22.868,0,0,0-9.161,12.161c-.509,1.513-.941,3.056-1.346,4.606C518.192,259.361,514.231,249.7,506.053,247.08Z" transform="translate(-72.3 -36.834)"/><path class="cls-8" d="M542.1,283.8a11.127,11.127,0,0,0,1.869-.571,13.487,13.487,0,0,0,6.406-5.272,14.978,14.978,0,0,0,1.356-2.843,12.309,12.309,0,0,0,2.454,4.656c1.631,1.824,3.692,3.878,6.146,4.383a19.187,19.187,0,0,0-3.2,1.675,14.07,14.07,0,0,0-5.634,7.48c-.313.93-.579,1.879-.828,2.832C549.564,291.353,547.128,285.409,542.1,283.8Z" transform="translate(-72.3 -36.834)"/><path class="cls-8" d="M507.8,306.223a11.156,11.156,0,0,0,1.869-.571,13.5,13.5,0,0,0,6.406-5.272,15.008,15.008,0,0,0,1.356-2.843,12.3,12.3,0,0,0,2.454,4.656c1.631,1.824,3.692,3.877,6.145,4.382a19.3,19.3,0,0,0-3.2,1.676,14.07,14.07,0,0,0-5.634,7.48c-.313.93-.579,1.879-.828,2.832C515.264,313.776,512.828,307.831,507.8,306.223Z" transform="translate(-72.3 -36.834)"/><path class="cls-8" d="M190.558,262.042a13.583,13.583,0,0,1,1.125,2.115,16.546,16.546,0,0,1,.984,10.125,18.485,18.485,0,0,1-1.289,3.641,15.066,15.066,0,0,1,6.164-1.909c3-.167,6.562-.161,9.127,1.528a23.592,23.592,0,0,1-1.325-4.231,17.249,17.249,0,0,1,1.6-11.37c.535-1.078,1.128-2.131,1.738-3.174C203.58,261.966,196.313,265.008,190.558,262.042Z" transform="translate(-72.3 -36.834)"/><path class="cls-8" d="M214.022,236.281a13.76,13.76,0,0,0-2.115-1.125,16.547,16.547,0,0,0-10.125-.983,18.4,18.4,0,0,0-3.641,1.289,15.071,15.071,0,0,0,1.909-6.164c.167-3,.161-6.563-1.528-9.128a23.512,23.512,0,0,0,4.231,1.325,17.245,17.245,0,0,0,11.369-1.6c1.079-.536,2.132-1.128,3.174-1.739C214.1,223.26,211.056,230.526,214.022,236.281Z" transform="translate(-72.3 -36.834)"/><path class="cls-8" d="M586.918,448.558a13.665,13.665,0,0,0,2.291-.7,16.531,16.531,0,0,0,7.855-6.464,18.4,18.4,0,0,0,1.664-3.485,15.072,15.072,0,0,0,3.008,5.709c2,2.235,4.527,4.753,7.535,5.373a23.526,23.526,0,0,0-3.929,2.054,17.248,17.248,0,0,0-6.908,9.171c-.384,1.141-.71,2.305-1.015,3.474C596.073,457.819,593.086,450.53,586.918,448.558Z" transform="translate(-72.3 -36.834)"/><path class="cls-8" d="M480.707,642.53a13.784,13.784,0,0,0,2.291-.7,16.551,16.551,0,0,0,7.855-6.464,18.5,18.5,0,0,0,1.663-3.486,15.06,15.06,0,0,0,3.009,5.709c2,2.235,4.526,4.753,7.535,5.373a23.61,23.61,0,0,0-3.93,2.054,17.253,17.253,0,0,0-6.908,9.171c-.384,1.141-.709,2.3-1.014,3.474C489.861,651.791,486.874,644.5,480.707,642.53Z" transform="translate(-72.3 -36.834)"/><path class="cls-8" d="M430.612,161.262a13.661,13.661,0,0,0,2.291-.7,16.541,16.541,0,0,0,7.855-6.464,18.383,18.383,0,0,0,1.663-3.486,15.081,15.081,0,0,0,3.009,5.709c2,2.236,4.527,4.754,7.535,5.373a23.566,23.566,0,0,0-3.929,2.055,17.243,17.243,0,0,0-6.908,9.171c-.385,1.141-.71,2.3-1.015,3.473C439.767,170.523,436.779,163.234,430.612,161.262Z" transform="translate(-72.3 -36.834)"/><path class="cls-8" d="M183.635,378.285a8.337,8.337,0,0,0,1.4-.426,10.082,10.082,0,0,0,4.784-3.937,11.3,11.3,0,0,0,1.013-2.123,9.161,9.161,0,0,0,1.832,3.477c1.218,1.362,2.756,2.895,4.589,3.272a14.334,14.334,0,0,0-2.393,1.252,10.493,10.493,0,0,0-4.207,5.585c-.234.695-.432,1.4-.618,2.115C189.21,383.925,187.39,379.486,183.635,378.285Z" transform="translate(-72.3 -36.834)"/><path class="cls-8" d="M182.268,350.31a13.642,13.642,0,0,1-2.269-.693,16.392,16.392,0,0,1-7.778-6.4,18.263,18.263,0,0,1-1.646-3.452,14.931,14.931,0,0,1-2.98,5.653c-1.98,2.214-4.482,4.707-7.461,5.321a23.372,23.372,0,0,1,3.891,2.034,17.081,17.081,0,0,1,6.84,9.082c.38,1.129.7,2.281,1,3.439C173.2,359.48,176.161,352.263,182.268,350.31Z" transform="translate(-72.3 -36.834)"/><path class="cls-10" d="M446.218,573.146v89.57l-93.24.45s-16.5-.33-30.68-1.68c-12.72-1.21-62.58-5.96-72.66-6.92l-1.78-.17-.11-.36v-80.89Z" transform="translate(-72.3 -36.834)"/><path class="cls-11" d="M178.678,434.04c.035,6.584.278,17.178.823,28.85.557,12.089,1.426,25.325,2.7,36.51.579,4.984,1.228,9.551,1.97,13.422q1.1,5.738,2.365,11.22c.1.464.208.927.324,1.391.487,2.133,1.009,4.242,1.542,6.317q1.079,4.189,2.225,8.206c.2.695.394,1.391.6,2.075a312.007,312.007,0,0,0,20.33,51.717c.464.916.916,1.82,1.368,2.7a23.821,23.821,0,0,0-4.358,9.586c-3.269,16.25,9.458,34.169,17.421,33.682a19.7,19.7,0,0,0,4.137-.776c1.055,1.39,6.132-1.38,7.3.2a3.622,3.622,0,0,0,3.871,1.332,1.272,1.272,0,0,0,.371-.15,5.316,5.316,0,0,0,1.843-4.347c.115.522.243,1.055.359,1.565a3.359,3.359,0,0,0,6.63-.649,54.765,54.765,0,0,0-.557-9.933c-.521-4.9-.7-7.569-1.75-10.907a34.887,34.887,0,0,0-7.835-13.283c-.962-46.606-1.913-113.438-2.886-161.9-.012-.707-.023-1.414-.046-2.109-.024-1.6-.058-3.176-.093-4.718Z" transform="translate(-72.3 -36.834)"/><path class="cls-12" d="M220.057,596.89s29.58-1.554,29.533,42.2a3.328,3.328,0,0,0,.916-2.2,54.765,54.765,0,0,0-.557-9.933c-.521-4.9-.7-7.569-1.75-10.907a34.887,34.887,0,0,0-7.835-13.283c-.962-46.606-1.913-113.438-2.886-161.9-.012-.707-.023-1.414-.046-2.109l-7.207-2.812L240.2,601.34A34.631,34.631,0,0,0,220.057,596.89Z" transform="translate(-72.3 -36.834)"/><path class="cls-11" d="M516.025,434.04c-.035,6.584-.279,17.178-.823,28.85-.557,12.089-1.426,25.325-2.7,36.51-.579,4.984-1.229,9.551-1.97,13.422q-1.1,5.738-2.365,11.22c-.1.464-.209.927-.324,1.391-.487,2.133-1.009,4.242-1.542,6.317q-1.079,4.189-2.225,8.206c-.2.695-.394,1.391-.6,2.075a312.007,312.007,0,0,1-20.33,51.717c-.464.916-.916,1.82-1.368,2.7a23.821,23.821,0,0,1,4.358,9.586c3.269,16.25-9.458,34.169-17.421,33.682a19.713,19.713,0,0,1-4.138-.776c-1.054,1.39-6.131-1.38-7.3.2a3.622,3.622,0,0,1-3.871,1.332,1.272,1.272,0,0,1-.371-.15,5.316,5.316,0,0,1-1.843-4.347c-.116.522-.243,1.055-.359,1.565a3.359,3.359,0,0,1-6.63-.649,54.765,54.765,0,0,1,.557-9.933c.521-4.9.695-7.569,1.75-10.907a34.887,34.887,0,0,1,7.835-13.283c.962-46.606,1.912-113.438,2.886-161.9.012-.707.023-1.414.046-2.109.024-1.6.058-3.176.093-4.718Z" transform="translate(-72.3 -36.834)"/><path class="cls-12" d="M474.646,596.89s-29.58-1.554-29.533,42.2a3.328,3.328,0,0,1-.916-2.2,54.765,54.765,0,0,1,.557-9.933c.521-4.9.695-7.569,1.75-10.907a34.887,34.887,0,0,1,7.835-13.283c.962-46.606,1.912-113.438,2.886-161.9.012-.707.023-1.414.046-2.109l7.207-2.812L454.5,601.34A34.631,34.631,0,0,1,474.646,596.89Z" transform="translate(-72.3 -36.834)"/><path class="cls-10" d="M272.18,291.309l-64.313,30.938a18.284,18.284,0,0,0-9.7,11.616l-29.7,107.7a4.913,4.913,0,0,0,4.736,6.22h64.741a4.913,4.913,0,0,0,4.894-4.476l4.913-54.936v184.77H446.954V388.375l4.913,54.936a4.913,4.913,0,0,0,4.894,4.476H521.5a4.913,4.913,0,0,0,4.736-6.22l-29.7-107.7a18.284,18.284,0,0,0-9.7-11.616l-64.313-30.938Z" transform="translate(-72.3 -36.834)"/><polygon class="cls-11" points="316.374 227.481 316.374 235.638 316 235.993 303.193 248.258 275.049 275.204 246.904 248.258 234.019 235.921 228.778 230.903 228.778 227.481 316.374 227.481"/><path class="cls-11" d="M257.137,172.375s-7.111-12.578-20.123-6.939-3.344,45.484,20.123,44.429Z" transform="translate(-72.3 -36.834)"/><path class="cls-11" d="M437.571,172.375s7.111-12.578,20.123-6.939,3.344,45.484-20.123,44.429Z" transform="translate(-72.3 -36.834)"/><path class="cls-11" d="M437.568,155.026v34.7c0,2.054-.066,4.1-.2,6.114a90.218,90.218,0,0,1-180.228-6.114v-34.7a90.217,90.217,0,1,1,180.433,0Z" transform="translate(-72.3 -36.834)"/><ellipse class="cls-13" cx="241.051" cy="152.319" rx="5.044" ry="1.479"/><ellipse class="cls-13" cx="307.439" cy="152.319" rx="5.044" ry="1.479"/><path class="cls-13" d="M328.966,160.224v8.241l-17.858-12.794,5.336-.836a10.455,10.455,0,0,1,7.836,1.924Z" transform="translate(-72.3 -36.834)"/><path class="cls-13" d="M364.124,160.224v8.241l17.858-12.794-5.336-.836a10.456,10.456,0,0,0-7.836,1.924Z" transform="translate(-72.3 -36.834)"/><path class="cls-13" d="M435.158,157.986v1.46c.45-.27.89-.55,1.32-.85Zm-9.86-53.07a92.659,92.659,0,0,0-170.58,50.11v34.7a92.66,92.66,0,0,0,1.71,17.75c.15.8.32,1.6.49,2.39.09.38.18.77.27,1.15a92.7,92.7,0,0,0,29.79,48.9,90.533,90.533,0,0,0,7.36,5.72c.63.44,1.26.88,1.91,1.3q1.83,1.23,3.73,2.35c2.06,1.24,4.18,2.4,6.34,3.47l.01.01a92.4,92.4,0,0,0,81.97.06q3.195-1.575,6.26-3.39,1.95-1.155,3.84-2.41c.04-.03.08-.05.12-.08.63-.42,1.26-.85,1.88-1.28a93.043,93.043,0,0,0,37.11-54.59l.01-.03c.09-.39.18-.78.26-1.18.18-.79.35-1.59.49-2.39a90.839,90.839,0,0,0,1.5-11.47c.14-2.03.21-4.14.21-6.28v-34.7A92.062,92.062,0,0,0,425.3,104.916Zm-36.62,162.24a87.805,87.805,0,0,1-129.14-77.43v-34.7c0-.74.01-1.48.03-2.21a87.836,87.836,0,0,1,158.17-50.31,87.026,87.026,0,0,1,17.39,50.27q.03,1.125.03,2.25v34.7c0,2.03-.07,4.03-.2,5.95A87.913,87.913,0,0,1,388.678,267.156Z" transform="translate(-72.3 -36.834)"/><path class="cls-3" d="M297.737,160.224a18.061,18.061,0,0,1,6.526-6.41,18.92,18.92,0,0,1,9.1-2.693,17.883,17.883,0,0,1,4.84.575l1.166.347c.382.134.752.3,1.125.448a9.307,9.307,0,0,1,1.088.512c.35.194.714.359,1.047.576a17.57,17.57,0,0,1,6.333,6.645,53.781,53.781,0,0,0-7.785-3.573,22.281,22.281,0,0,0-7.7-1.185,28.319,28.319,0,0,0-7.784,1.466A66.313,66.313,0,0,0,297.737,160.224Z" transform="translate(-72.3 -36.834)"/><path class="cls-3" d="M364.124,160.224a14.458,14.458,0,0,1,2.72-3.776,19.531,19.531,0,0,1,3.669-2.933,18.559,18.559,0,0,1,9.23-2.81,17.725,17.725,0,0,1,4.935.606l1.185.365c.388.139.763.313,1.141.469a9.315,9.315,0,0,1,1.1.536c.354.2.72.378,1.055.6a16.71,16.71,0,0,1,6.194,6.939,65.3,65.3,0,0,0-7.923-3.279,23.447,23.447,0,0,0-7.547-1.063,30.523,30.523,0,0,0-7.657,1.349C369.613,158.009,366.988,159.047,364.124,160.224Z" transform="translate(-72.3 -36.834)"/><path class="cls-13" d="M329.772,236.149a58.835,58.835,0,0,0,8.833,2.608,41.609,41.609,0,0,0,8.708.906,34.688,34.688,0,0,0,4.35-.261c.729-.064,1.447-.2,2.179-.3.365-.052.721-.147,1.087-.206s.733-.124,1.093-.22c2.917-.629,5.827-1.552,8.909-2.526a23.245,23.245,0,0,1-7.909,5.585,24.157,24.157,0,0,1-4.721,1.506c-.809.2-1.64.281-2.465.407-.831.071-1.664.136-2.5.137a24.25,24.25,0,0,1-9.719-1.921,22.6,22.6,0,0,1-4.3-2.382,18.847,18.847,0,0,1-1.9-1.537A12.579,12.579,0,0,1,329.772,236.149Z" transform="translate(-72.3 -36.834)"/><path class="cls-3" d="M338.635,194.212a8.968,8.968,0,0,1,.864-2.754,11.173,11.173,0,0,1,.745-1.287,9.676,9.676,0,0,1,.978-1.167l.556-.546.635-.472a7.783,7.783,0,0,1,1.393-.806,12.321,12.321,0,0,1,1.552-.529c.536-.077,1.084-.176,1.629-.2.537.02,1.085.024,1.623.077l1.555.328c.508.137.972.352,1.459.528.24.1.483.173.72.3l.706.374a10.433,10.433,0,0,1,2.569,2.049,8.071,8.071,0,0,1,1.684,2.979,7.881,7.881,0,0,1,.248,3.405,8.872,8.872,0,0,1-1.086,3.1,10.847,10.847,0,0,1-1.962,2.464,12.827,12.827,0,0,1-2.481,1.766,14.744,14.744,0,0,1-2.745,1.121,15.52,15.52,0,0,1-2.853.52,17.132,17.132,0,0,1-5.614-.392,25.322,25.322,0,0,0,5.359-.933,18.447,18.447,0,0,0,2.453-.939,14.794,14.794,0,0,0,2.189-1.311,9.5,9.5,0,0,0,3.087-3.634,5.468,5.468,0,0,0,.307-4.161,5.9,5.9,0,0,0-2.82-3.081,8.5,8.5,0,0,0-1.067-.5c-.373-.142-.744-.325-1.117-.44l-1.123-.314-1.121-.162a7.289,7.289,0,0,0-4.394,1.074,11.321,11.321,0,0,0-1.049.695c-.327.273-.678.537-1,.846a17.4,17.4,0,0,0-1.871,2.014Z" transform="translate(-72.3 -36.834)"/><path class="cls-13" d="M256.235,212.3c-14.054,0-23.542-13.317-26.465-25.977-2.6-11.248-.129-20.313,6.286-23.093,11.869-5.142,20.351,2.961,23.179,7.964l-4.192,2.379c-.25-.435-6.256-10.608-17.071-5.921-4.05,1.755-5.492,8.987-3.506,17.587,2.558,11.077,10.717,22.763,22.563,22.223l.216,4.815C256.907,212.287,256.568,212.3,256.235,212.3Z" transform="translate(-72.3 -36.834)"/><path class="cls-13" d="M438.473,212.3q-.5,0-1.01-.023l.216-4.815c11.86.536,20.005-11.145,22.563-22.223,1.986-8.6.544-15.832-3.507-17.587-10.819-4.689-16.82,5.486-17.07,5.921l-4.192-2.379c2.828-5,11.314-13.108,23.179-7.964,6.415,2.78,8.883,11.845,6.286,23.093C462.015,198.978,452.526,212.294,438.473,212.3Z" transform="translate(-72.3 -36.834)"/><rect class="cls-3" x="235.196" y="131.631" width="11.711" height="20.688" rx="5.855"/><rect class="cls-3" x="301.583" y="131.631" width="11.711" height="20.688" rx="5.855"/><path class="cls-13" d="M254.939,186.38c-.174-.384-4.362-9.364-11.635-6.552l-1.736-4.5c9.232-3.568,15.657,4.371,17.765,9.068Z" transform="translate(-72.3 -36.834)"/><path class="cls-13" d="M248.552,197.433c-9.678-5.767-3.07-20.747-2.784-21.382l4.4,1.978c-.053.116-5.047,11.747.855,15.264Z" transform="translate(-72.3 -36.834)"/><path class="cls-13" d="M439.613,184.493l-4.1-2.542c2.858-4.622,11.006-11.865,21.4-6.2l-2.307,4.231C445.8,175.18,440.22,183.525,439.613,184.493Z" transform="translate(-72.3 -36.834)"/><path class="cls-13" d="M446.856,193.087l-2.263-4.254c5.512-2.934,2.156-11.876,2.121-11.966l4.5-1.727C452.936,179.628,454.244,189.156,446.856,193.087Z" transform="translate(-72.3 -36.834)"/><path class="cls-14" d="M272.18,293.911l22.574-26.166a2.379,2.379,0,0,1,3.446-.164l49.151,47.059L320.542,336.7Z" transform="translate(-72.3 -36.834)"/><path class="cls-14" d="M422.522,293.911l-22.573-26.166a2.38,2.38,0,0,0-3.447-.164L347.351,314.64l26.81,22.057Z" transform="translate(-72.3 -36.834)"/><path class="cls-14" d="M305.244,353.493h54.65a0,0,0,0,1,0,0v57.4a10.26,10.26,0,0,1-10.26,10.26H315.5a10.26,10.26,0,0,1-10.26-10.26v-57.4A0,0,0,0,1,305.244,353.493Z"/><path class="cls-10" d="M305.244,353.633H356.1a0,0,0,0,1,0,0v52.708a10.26,10.26,0,0,1-10.26,10.26H315.5a10.26,10.26,0,0,1-10.26-10.26V353.633A0,0,0,0,1,305.244,353.633Z"/><path class="cls-14" d="M201.452,353.493H256.1a0,0,0,0,1,0,0v57.4a10.26,10.26,0,0,1-10.26,10.26h-34.13a10.26,10.26,0,0,1-10.26-10.26v-57.4A0,0,0,0,1,201.452,353.493Z"/><path class="cls-10" d="M201.452,353.633h50.859a0,0,0,0,1,0,0v52.708a10.26,10.26,0,0,1-10.26,10.26H211.712a10.26,10.26,0,0,1-10.26-10.26V353.633A0,0,0,0,1,201.452,353.633Z"/><path class="cls-10" d="M272.18,291.309l22.574-26.166a2.378,2.378,0,0,1,3.446-.165l49.151,47.06L320.542,334.1Z" transform="translate(-72.3 -36.834)"/><path class="cls-10" d="M422.522,291.309l-22.573-26.166a2.379,2.379,0,0,0-3.447-.165l-49.151,47.06,26.81,22.057Z" transform="translate(-72.3 -36.834)"/><rect class="cls-14" x="175.449" y="536.312" width="198.132" height="14.313"/><rect class="cls-15" x="259.768" y="534.143" width="29.494" height="18.651"/><path class="cls-13" d="M254.722,160.224,325.7,127.847a53.6,53.6,0,0,1,44.8.144l69.472,32.233V88.756A14.259,14.259,0,0,0,431.449,75.7l-70.8-31.1a30.461,30.461,0,0,0-24.937.2L263.042,78.1a14.259,14.259,0,0,0-8.32,12.963Z" transform="translate(-72.3 -36.834)"/><path class="cls-3" d="M309.84,223.909a15.789,15.789,0,0,1,6.011-6.368,15.992,15.992,0,0,1,8.855-2.149,21.768,21.768,0,0,1,2.311.2c.755.144,1.522.266,2.257.48a27,27,0,0,1,4.315,1.523,39.074,39.074,0,0,1,7.69,4.654l-2.607,3.315a48.388,48.388,0,0,0-6.732-4.627,23.459,23.459,0,0,0-7.486-2.667,16,16,0,0,0-3.948-.12,14.8,14.8,0,0,0-3.893.944,16.079,16.079,0,0,0-3.628,1.96A17.325,17.325,0,0,0,309.84,223.909Z" transform="translate(-72.3 -36.834)"/><path class="cls-3" d="M384.857,223.909a17.325,17.325,0,0,0-3.145-2.852,16.057,16.057,0,0,0-3.628-1.96,14.8,14.8,0,0,0-3.893-.944,16,16,0,0,0-3.948.12,23.459,23.459,0,0,0-7.486,2.667,48.447,48.447,0,0,0-6.732,4.627l-2.607-3.315a39.074,39.074,0,0,1,7.69-4.654,27,27,0,0,1,4.315-1.523c.735-.214,1.5-.336,2.257-.48a21.791,21.791,0,0,1,2.311-.2,15.99,15.99,0,0,1,8.855,2.149A15.789,15.789,0,0,1,384.857,223.909Z" transform="translate(-72.3 -36.834)"/><path class="cls-10" d="M439.973,83.56v71.463L370.5,122.8a53.6,53.6,0,0,0-44.808-.145l-70.975,32.373V85.867A14.245,14.245,0,0,1,263.04,72.9l72.668-33.3a30.48,30.48,0,0,1,24.94-.2l70.8,31.1a14.274,14.274,0,0,1,8.524,13.061Z" transform="translate(-72.3 -36.834)"/><rect class="cls-14" x="273.545" y="277.806" width="3.012" height="256.336"/><circle class="cls-14" cx="275.654" cy="511.155" r="5.422"/><circle class="cls-14" cx="275.654" cy="463.878" r="5.422"/><circle class="cls-14" cx="275.654" cy="416.601" r="5.422"/><circle class="cls-14" cx="275.654" cy="369.324" r="5.422"/><circle class="cls-14" cx="275.654" cy="322.047" r="5.422"/><circle class="cls-15" cx="274.143" cy="509.966" r="5.422"/><circle class="cls-15" cx="274.143" cy="462.689" r="5.422"/><circle class="cls-15" cx="274.143" cy="415.412" r="5.422"/><circle class="cls-15" cx="274.143" cy="368.135" r="5.422"/><circle class="cls-15" cx="274.143" cy="320.858" r="5.422"/></g></g></g></svg>