<?xml version="1.0" encoding="utf-8"?>
<!-- Generator: Adobe Illustrator 24.2.0, SVG Export Plug-In . SVG Version: 6.00 Build 0)  -->
<svg version="1.1" id="Layer_1" xmlns="http://www.w3.org/2000/svg" xmlns:xlink="http://www.w3.org/1999/xlink" x="0px" y="0px"
	 viewBox="0 0 500 500" style="enable-background:new 0 0 500 500;" xml:space="preserve">
<style type="text/css">
	.st0{fill:#EAEAEA;}
	.st1{fill:#2490CF;}
	.st2{fill:#2F2E41;}
	.st3{fill:#6CBDEA;}
	.st4{fill:#F7B73C;}
	.st5{fill:#FFFFFF;}
</style>
<g>
	<g>
		<path class="st0" d="M437,245.8L380,378.2c-18.5,42.9-68.3,62.8-111.3,44.2l-132.4-57.1C93.4,346.9,73.5,297.1,92,254.2
			l57.1-132.4c18.5-42.9,68.3-62.8,111.3-44.2l132.4,57.1C435.7,153.1,455.5,202.9,437,245.8z"/>
	</g>
	<g>
		<g>
			<g>
				<path class="st1" d="M56.6,197.4c-13.3-2.8-26-7.8-37.7-14.7c-1.7,10.6-2.1,21.2-1.2,31.7c11,9.2,27.4,13.9,40.5,16.7
					c-13,2-26-0.5-38.8-4.3c2.1,11,5.8,21.8,11,32c2.2,4.2,4.6,8.3,7.4,12.1c8.3,2.6,18.7,4.9,31.6,8.3c14.1,2.2,29.2,0.9,41.5-6.4
					c-3.1,11.6-16.1,17.7-27.8,20.2c-6.6,1.3-14.5,1.4-23,0.3c0.2,0.1,0.4,0.3,0.6,0.4c31.6,23,72.7,25.4,105.7,8.3
					c0.7-0.4,1.5-0.8,2.2-1.2c0.7-0.4,1.5-0.8,2.2-1.2c8.1-4.7,15.6-10.6,22.3-17.7c13-13.8,21.5-30.7,20.4-50.8
					c-1-9.9-3.7-18-7.8-24.8c-10.3,30.3-29,55.2-51.1,60.6c11.6-11.1,36-52.3,37-75.7l0,0c-8.2-6-18.1-10.3-28.8-13.5
					c-0.5,0.2-1,0.4-1.5,0.5c-20,9-26,32.5-33.9,52.9c0.7-22.2,7.5-42.6,20.9-57.3c-9.2-2.1-18.7-3.8-27.9-5.6
					c-14,5.1-25.5,16.6-30.7,30.5c-2.3-12.9,4.8-23.6,11.8-34.5c-3.9-1-7.7-2-11.3-3.2c-16.9-5.2-33.4-13.1-46.1-25.2
					c-1.9-1.8-3.7-3.6-5.4-5.6c0,0,0,0,0,0.1l0,0c-0.5,0.8-1,1.6-1.4,2.4c-7.6,12.7-13.1,26.3-16.4,40.2
					C32.4,181.7,42.7,193.7,56.6,197.4z"/>
			</g>
			<g>
				<path class="st1" d="M37.2,132.7C51.2,161,68,188.6,87,214.6c15.5,21.1,32.5,41.3,50.5,60c10.7,11,20.4,20.2,28.7,27.5
					c15.6,13.8,25.7,20.9,25.9,21l2.7-3.9c-0.1-0.1-9.5-6.7-24.2-19.6c-8.4-7.4-18.6-16.9-29.8-28.5c-27.1-28-65.6-73.9-96.8-135.3
					c-1.9-1.8-3.7-3.6-5.4-5.6c0,0,0,0,0,0.1l0,0C38.1,131.1,37.6,131.9,37.2,132.7z"/>
			</g>
		</g>
		<g>
			<g>
				<path class="st1" d="M443.4,202c13.3-2.8,26-7.8,37.7-14.7c1.7,10.6,2.1,21.2,1.2,31.7c-11,9.2-27.4,13.9-40.5,16.7
					c13,2,26-0.5,38.8-4.3c-2.1,11-5.8,21.8-11,32c-2.2,4.2-4.6,8.3-7.4,12.1c-8.3,2.6-18.7,4.9-31.6,8.3
					c-14.1,2.2-29.2,0.9-41.5-6.4c3.1,11.6,16.1,17.7,27.8,20.2c6.6,1.3,14.5,1.4,23,0.3c-0.2,0.1-0.4,0.3-0.6,0.4
					c-31.6,23-72.7,25.4-105.7,8.3c-0.7-0.4-1.5-0.8-2.2-1.2c-0.7-0.4-1.5-0.8-2.2-1.2c-8.1-4.7-15.6-10.6-22.3-17.7
					c-13-13.8-21.5-30.7-20.4-50.8c1-9.9,3.7-18,7.8-24.8c10.3,30.3,29,55.2,51.1,60.6c-11.6-11.1-36-52.3-37-75.7l0,0
					c8.2-6,18.1-10.3,28.8-13.5c0.5,0.2,1,0.4,1.5,0.5c20,9,26,32.5,33.9,52.9c-0.7-22.2-7.5-42.6-20.9-57.3
					c9.2-2.1,18.7-3.8,27.9-5.6c14,5.1,25.5,16.6,30.7,30.5c2.3-12.9-4.8-23.6-11.8-34.5c3.9-1,7.7-2,11.3-3.2
					c16.9-5.2,33.4-13.1,46.1-25.2c1.9-1.8,3.7-3.6,5.4-5.6c0,0,0,0,0,0.1l0,0c0.5,0.8,1,1.6,1.4,2.4c7.6,12.7,13.1,26.3,16.4,40.2
					C467.6,186.4,457.3,198.3,443.4,202z"/>
			</g>
			<g>
				<path class="st1" d="M462.8,137.3c-14,28.3-30.8,55.9-49.8,81.9c-15.5,21.1-32.5,41.3-50.5,60c-10.7,11-20.4,20.2-28.7,27.5
					c-15.6,13.8-25.7,20.9-25.9,21l-2.7-3.9c0.1-0.1,9.5-6.7,24.2-19.6c8.4-7.4,18.6-16.9,29.8-28.5c27.1-28,65.6-73.9,96.8-135.3
					c1.9-1.8,3.7-3.6,5.4-5.6c0,0,0,0,0,0.1l0,0C461.9,135.7,462.4,136.5,462.8,137.3z"/>
			</g>
		</g>
	</g>
	<g>
		<g>
			<rect x="194.9" y="303.3" class="st2" width="54.6" height="11.2"/>
		</g>
		<g>
			<path class="st3" d="M328.7,305.9h-213c-10.9,0-19.8-8.8-19.8-19.8V147.9c0-10.9,8.8-19.8,19.8-19.8h213
				c10.9,0,19.8,8.8,19.8,19.8v138.3C348.5,297.1,339.6,305.9,328.7,305.9z"/>
		</g>
		<g>
			<path class="st2" d="M339.2,145.2v143.7c0,4.6-3.7,8.2-8.2,8.2H113.5c-4.6,0-8.2-3.7-8.2-8.2V145.2c0-4.6,3.7-8.2,8.2-8.2h217.4
				C335.5,137,339.2,140.7,339.2,145.2z"/>
		</g>
		<g>
			<g>
				<path class="st3" d="M190.6,290.5v6.6h-57.3v-6.6c0-15.8,12.8-28.6,28.6-28.6C177.8,261.9,190.6,274.7,190.6,290.5z"/>
			</g>
			<g>
				<circle class="st3" cx="161.9" cy="250.2" r="10.2"/>
			</g>
			<g>
				<circle class="st3" cx="160.4" cy="248" r="12.6"/>
			</g>
			<g>
				<g>
					<circle class="st2" cx="156" cy="245.2" r="2"/>
				</g>
				<g>
					<circle class="st2" cx="164.7" cy="245.2" r="2"/>
				</g>
			</g>
			<g>
				<path class="st2" d="M153.9,251.2h12.8C166.8,251.2,160.6,259.1,153.9,251.2z"/>
			</g>
		</g>
		<g>
			<g>
				<path class="st4" d="M315.1,290.5v6.6h-57.3v-6.6c0-15.8,12.8-28.6,28.6-28.6C302.3,261.9,315.1,274.7,315.1,290.5z"/>
			</g>
			<g>
				<circle class="st3" cx="286.4" cy="250.2" r="10.2"/>
			</g>
			<g>
				<circle class="st4" cx="284.9" cy="248" r="12.6"/>
			</g>
			<g>
				<g>
					<circle class="st2" cx="280.5" cy="245.2" r="2"/>
				</g>
				<g>
					<circle class="st2" cx="289.2" cy="245.2" r="2"/>
				</g>
			</g>
			<g>
				<path class="st2" d="M278.4,251.2h12.8C291.3,251.2,285.1,259.1,278.4,251.2z"/>
			</g>
		</g>
		<g>
			<g>
				<path class="st4" d="M190.6,205.9v7.2c0,1-0.1,2.1-0.2,3.1h-56.9c-0.1-1-0.2-2.1-0.2-3.1v-7.2c0-15.8,12.8-28.6,28.6-28.6
					S190.6,190,190.6,205.9L190.6,205.9z"/>
			</g>
			<g>
				<circle class="st3" cx="161.9" cy="165.5" r="10.2"/>
			</g>
			<g>
				<circle class="st4" cx="160.4" cy="163.3" r="12.6"/>
			</g>
			<g>
				<g>
					<circle class="st2" cx="156" cy="160.6" r="2"/>
				</g>
				<g>
					<circle class="st2" cx="164.7" cy="160.6" r="2"/>
				</g>
			</g>
			<g>
				<path class="st2" d="M153.9,166.5h12.8C166.8,166.5,160.6,174.4,153.9,166.5z"/>
			</g>
		</g>
		<g>
			<g>
				<path class="st3" d="M315.1,205.9v7.2c0,1-0.1,2.1-0.2,3.1H258c-0.1-1-0.2-2.1-0.2-3.1v-7.2c0-15.8,12.8-28.6,28.6-28.6
					C302.3,177.2,315.1,190,315.1,205.9L315.1,205.9z"/>
			</g>
			<g>
				<circle class="st3" cx="286.4" cy="165.5" r="10.2"/>
			</g>
			<g>
				<circle class="st3" cx="284.9" cy="163.3" r="12.6"/>
			</g>
			<g>
				<g>
					<circle class="st2" cx="280.5" cy="160.6" r="2"/>
				</g>
				<g>
					<circle class="st2" cx="289.2" cy="160.6" r="2"/>
				</g>
			</g>
			<g>
				<path class="st2" d="M278.4,166.5h12.8C291.3,166.5,285.1,174.4,278.4,166.5z"/>
			</g>
		</g>
		<g>
			<rect x="105.3" y="214.1" class="st3" width="233.9" height="5.9"/>
		</g>
		<g>
			<rect x="219.3" y="130.8" class="st3" width="5.9" height="172.4"/>
		</g>
		<g>
			<g>
				<path class="st2" d="M77.5,324.3L77.5,324.3c-18,18.8-5.3,50.9,20.3,50.9h249c25.5,0,38.3-32.1,20.3-50.9l0,0
					c-5.4-5.6-12.7-8.7-20.3-8.7h-249C90.1,315.5,82.9,318.7,77.5,324.3z"/>
			</g>
			<g>
				<path class="st2" d="M401.8,364.5L401.8,364.5c-9.5,0-17.1-7.7-17.1-17.1v-4.1c0-9.5,7.7-17.1,17.1-17.1h0
					c9.5,0,17.1,7.7,17.1,17.1v4.1C419,356.9,411.3,364.5,401.8,364.5z"/>
			</g>
			<g>
				<path class="st3" d="M77.5,320.9L77.5,320.9c-18,18-5.3,48.9,20.3,48.9h249c25.5,0,38.3-30.9,20.3-48.9l0,0
					c-5.4-5.4-12.7-8.4-20.3-8.4h-249C90.1,312.5,82.9,315.5,77.5,320.9z"/>
			</g>
			<g>
				<path class="st5" d="M280.1,363.1H164.4c-3.6,0-6.5-2.9-6.5-6.5v0c0-3.6,2.9-6.5,6.5-6.5h115.7c3.6,0,6.5,2.9,6.5,6.5v0
					C286.6,360.2,283.7,363.1,280.1,363.1z"/>
			</g>
			<g>
				<path class="st5" d="M144.7,344.6h-10c-3,0-5.5-2.5-5.5-5.5v0c0-3,2.5-5.5,5.5-5.5h10c3,0,5.5,2.5,5.5,5.5v0
					C150.2,342.2,147.8,344.6,144.7,344.6z"/>
				<path class="st5" d="M177.7,344.6h-10c-3,0-5.5-2.5-5.5-5.5v0c0-3,2.5-5.5,5.5-5.5h10c3,0,5.5,2.5,5.5,5.5v0
					C183.2,342.2,180.8,344.6,177.7,344.6z"/>
				<path class="st5" d="M210.8,344.6h-10c-3,0-5.5-2.5-5.5-5.5v0c0-3,2.5-5.5,5.5-5.5h10c3,0,5.5,2.5,5.5,5.5v0
					C216.3,342.2,213.8,344.6,210.8,344.6z"/>
				<path class="st5" d="M243.8,344.6h-10c-3,0-5.5-2.5-5.5-5.5v0c0-3,2.5-5.5,5.5-5.5h10c3,0,5.5,2.5,5.5,5.5v0
					C249.3,342.2,246.8,344.6,243.8,344.6z"/>
				<path class="st5" d="M276.8,344.6h-10c-3,0-5.5-2.5-5.5-5.5v0c0-3,2.5-5.5,5.5-5.5h10c3,0,5.5,2.5,5.5,5.5v0
					C282.3,342.2,279.8,344.6,276.8,344.6z"/>
				<path class="st5" d="M309.8,344.6h-10c-3,0-5.5-2.5-5.5-5.5v0c0-3,2.5-5.5,5.5-5.5h10c3,0,5.5,2.5,5.5,5.5v0
					C315.3,342.2,312.8,344.6,309.8,344.6z"/>
			</g>
			<g>
				<path class="st5" d="M126.5,329.6h-10c-3,0-5.5-2.5-5.5-5.5l0,0c0-3,2.5-5.5,5.5-5.5h10c3,0,5.5,2.5,5.5,5.5l0,0
					C132,327.2,129.6,329.6,126.5,329.6z"/>
				<path class="st5" d="M155.3,329.6h-10c-3,0-5.5-2.5-5.5-5.5l0,0c0-3,2.5-5.5,5.5-5.5h10c3,0,5.5,2.5,5.5,5.5l0,0
					C160.8,327.2,158.3,329.6,155.3,329.6z"/>
				<path class="st5" d="M184.1,329.6h-10c-3,0-5.5-2.5-5.5-5.5l0,0c0-3,2.5-5.5,5.5-5.5h10c3,0,5.5,2.5,5.5,5.5l0,0
					C189.6,327.2,187.1,329.6,184.1,329.6z"/>
				<path class="st5" d="M212.9,329.6h-10c-3,0-5.5-2.5-5.5-5.5l0,0c0-3,2.5-5.5,5.5-5.5h10c3,0,5.5,2.5,5.5,5.5l0,0
					C218.4,327.2,215.9,329.6,212.9,329.6z"/>
				<path class="st5" d="M241.6,329.6h-10c-3,0-5.5-2.5-5.5-5.5l0,0c0-3,2.5-5.5,5.5-5.5h10c3,0,5.5,2.5,5.5,5.5l0,0
					C247.1,327.2,244.7,329.6,241.6,329.6z"/>
				<path class="st5" d="M270.4,329.6h-10c-3,0-5.5-2.5-5.5-5.5l0,0c0-3,2.5-5.5,5.5-5.5h10c3,0,5.5,2.5,5.5,5.5l0,0
					C275.9,327.2,273.5,329.6,270.4,329.6z"/>
				<path class="st5" d="M299.2,329.6h-10c-3,0-5.5-2.5-5.5-5.5l0,0c0-3,2.5-5.5,5.5-5.5h10c3,0,5.5,2.5,5.5,5.5l0,0
					C304.7,327.2,302.2,329.6,299.2,329.6z"/>
				<path class="st5" d="M328,329.6h-10c-3,0-5.5-2.5-5.5-5.5l0,0c0-3,2.5-5.5,5.5-5.5h10c3,0,5.5,2.5,5.5,5.5l0,0
					C333.5,327.2,331,329.6,328,329.6z"/>
			</g>
			<g>
				<path class="st2" d="M280.1,365.2H164.4c-3.6,0-6.5-2.9-6.5-6.5v0c0-3.6,2.9-6.5,6.5-6.5h115.7c3.6,0,6.5,2.9,6.5,6.5v0
					C286.6,362.3,283.7,365.2,280.1,365.2z"/>
			</g>
			<g>
				<path class="st2" d="M144.7,346.7h-10c-3,0-5.5-2.5-5.5-5.5l0,0c0-3,2.5-5.5,5.5-5.5h10c3,0,5.5,2.5,5.5,5.5l0,0
					C150.2,344.2,147.8,346.7,144.7,346.7z"/>
				<path class="st2" d="M177.7,346.7h-10c-3,0-5.5-2.5-5.5-5.5l0,0c0-3,2.5-5.5,5.5-5.5h10c3,0,5.5,2.5,5.5,5.5l0,0
					C183.2,344.2,180.8,346.7,177.7,346.7z"/>
				<path class="st2" d="M210.8,346.7h-10c-3,0-5.5-2.5-5.5-5.5l0,0c0-3,2.5-5.5,5.5-5.5h10c3,0,5.5,2.5,5.5,5.5l0,0
					C216.3,344.2,213.8,346.7,210.8,346.7z"/>
				<path class="st2" d="M243.8,346.7h-10c-3,0-5.5-2.5-5.5-5.5l0,0c0-3,2.5-5.5,5.5-5.5h10c3,0,5.5,2.5,5.5,5.5l0,0
					C249.3,344.2,246.8,346.7,243.8,346.7z"/>
				<path class="st2" d="M276.8,346.7h-10c-3,0-5.5-2.5-5.5-5.5l0,0c0-3,2.5-5.5,5.5-5.5h10c3,0,5.5,2.5,5.5,5.5l0,0
					C282.3,344.2,279.8,346.7,276.8,346.7z"/>
				<path class="st2" d="M309.8,346.7h-10c-3,0-5.5-2.5-5.5-5.5l0,0c0-3,2.5-5.5,5.5-5.5h10c3,0,5.5,2.5,5.5,5.5l0,0
					C315.3,344.2,312.8,346.7,309.8,346.7z"/>
			</g>
			<g>
				<path class="st2" d="M126.5,331.7h-10c-3,0-5.5-2.5-5.5-5.5l0,0c0-3,2.5-5.5,5.5-5.5h10c3,0,5.5,2.5,5.5,5.5l0,0
					C132,329.2,129.6,331.7,126.5,331.7z"/>
				<path class="st2" d="M155.3,331.7h-10c-3,0-5.5-2.5-5.5-5.5l0,0c0-3,2.5-5.5,5.5-5.5h10c3,0,5.5,2.5,5.5,5.5l0,0
					C160.8,329.2,158.3,331.7,155.3,331.7z"/>
				<path class="st2" d="M184.1,331.7h-10c-3,0-5.5-2.5-5.5-5.5l0,0c0-3,2.5-5.5,5.5-5.5h10c3,0,5.5,2.5,5.5,5.5l0,0
					C189.6,329.2,187.1,331.7,184.1,331.7z"/>
				<path class="st2" d="M212.9,331.7h-10c-3,0-5.5-2.5-5.5-5.5l0,0c0-3,2.5-5.5,5.5-5.5h10c3,0,5.5,2.5,5.5,5.5l0,0
					C218.4,329.2,215.9,331.7,212.9,331.7z"/>
				<path class="st2" d="M241.6,331.7h-10c-3,0-5.5-2.5-5.5-5.5l0,0c0-3,2.5-5.5,5.5-5.5h10c3,0,5.5,2.5,5.5,5.5l0,0
					C247.1,329.2,244.7,331.7,241.6,331.7z"/>
				<path class="st2" d="M270.4,331.7h-10c-3,0-5.5-2.5-5.5-5.5l0,0c0-3,2.5-5.5,5.5-5.5h10c3,0,5.5,2.5,5.5,5.5l0,0
					C275.9,329.2,273.5,331.7,270.4,331.7z"/>
				<path class="st2" d="M299.2,331.7h-10c-3,0-5.5-2.5-5.5-5.5l0,0c0-3,2.5-5.5,5.5-5.5h10c3,0,5.5,2.5,5.5,5.5l0,0
					C304.7,329.2,302.2,331.7,299.2,331.7z"/>
				<path class="st2" d="M328,331.7h-10c-3,0-5.5-2.5-5.5-5.5l0,0c0-3,2.5-5.5,5.5-5.5h10c3,0,5.5,2.5,5.5,5.5l0,0
					C333.5,329.2,331,331.7,328,331.7z"/>
			</g>
			<g>
				<path class="st3" d="M401.8,358.7L401.8,358.7c-9.5,0-17.1-7.7-17.1-17.1v-4.1c0-9.5,7.7-17.1,17.1-17.1h0
					c9.5,0,17.1,7.7,17.1,17.1v4.1C419,351,411.3,358.7,401.8,358.7z"/>
			</g>
		</g>
		<g>
			<path class="st2" d="M431,151.6v148.5c0,8.1-6.6,14.6-14.6,14.6h-46.4c-8.1,0-14.6-6.6-14.6-14.6V151.6c0-8.1,6.6-14.6,14.6-14.6
				h46.4C424.4,137,431,143.5,431,151.6z"/>
		</g>
		<g>
			<path class="st3" d="M431,143.9V293c0,8.7-6.6,15.7-14.6,15.7h-46.4c-8.1,0-14.6-7-14.6-15.7V143.9c0-8.7,6.6-15.7,14.6-15.7
				h46.4C424.4,128.2,431,135.2,431,143.9z"/>
		</g>
		<g>
			<path class="st5" d="M401.8,335.3L401.8,335.3c-1.2,0-2.1-0.9-2.1-2.1V326c0-1.2,0.9-2.1,2.1-2.1h0c1.2,0,2.1,0.9,2.1,2.1v7.2
				C403.9,334.4,402.9,335.3,401.8,335.3z"/>
		</g>
		<g>
			<path class="st2" d="M401.8,337.6L401.8,337.6c-1.2,0-2.1-0.9-2.1-2.1v-7.2c0-1.2,0.9-2.1,2.1-2.1h0c1.2,0,2.1,0.9,2.1,2.1v7.2
				C403.9,336.6,402.9,337.6,401.8,337.6z"/>
		</g>
		<g>
			<path class="st5" d="M367.6,298.8L367.6,298.8c-0.9,0-1.7-0.8-1.7-1.7v-75.7c0-0.9,0.8-1.7,1.7-1.7l0,0c0.9,0,1.7,0.8,1.7,1.7
				v75.7C369.3,298.1,368.5,298.8,367.6,298.8z"/>
			<path class="st5" d="M377.8,298.8L377.8,298.8c-0.9,0-1.7-0.8-1.7-1.7v-75.7c0-0.9,0.8-1.7,1.7-1.7l0,0c0.9,0,1.7,0.8,1.7,1.7
				v75.7C379.5,298.1,378.7,298.8,377.8,298.8z"/>
			<path class="st5" d="M388,298.8L388,298.8c-0.9,0-1.7-0.8-1.7-1.7v-75.7c0-0.9,0.8-1.7,1.7-1.7l0,0c0.9,0,1.7,0.8,1.7,1.7v75.7
				C389.7,298.1,388.9,298.8,388,298.8z"/>
			<path class="st5" d="M398.2,298.8L398.2,298.8c-0.9,0-1.7-0.8-1.7-1.7v-75.7c0-0.9,0.8-1.7,1.7-1.7l0,0c0.9,0,1.7,0.8,1.7,1.7
				v75.7C399.9,298.1,399.1,298.8,398.2,298.8z"/>
			<path class="st5" d="M408.4,298.8L408.4,298.8c-0.9,0-1.7-0.8-1.7-1.7v-75.7c0-0.9,0.8-1.7,1.7-1.7l0,0c0.9,0,1.7,0.8,1.7,1.7
				v75.7C410.1,298.1,409.4,298.8,408.4,298.8z"/>
			<path class="st5" d="M418.6,298.8L418.6,298.8c-0.9,0-1.7-0.8-1.7-1.7v-75.7c0-0.9,0.8-1.7,1.7-1.7l0,0c0.9,0,1.7,0.8,1.7,1.7
				v75.7C420.3,298.1,419.6,298.8,418.6,298.8z"/>
		</g>
		<g>
			<path class="st2" d="M367.6,302L367.6,302c-0.9,0-1.7-0.8-1.7-1.7v-75.7c0-0.9,0.8-1.7,1.7-1.7l0,0c0.9,0,1.7,0.8,1.7,1.7v75.7
				C369.3,301.2,368.5,302,367.6,302z"/>
			<path class="st2" d="M377.8,302L377.8,302c-0.9,0-1.7-0.8-1.7-1.7v-75.7c0-0.9,0.8-1.7,1.7-1.7l0,0c0.9,0,1.7,0.8,1.7,1.7v75.7
				C379.5,301.2,378.7,302,377.8,302z"/>
			<path class="st2" d="M388,302L388,302c-0.9,0-1.7-0.8-1.7-1.7v-75.7c0-0.9,0.8-1.7,1.7-1.7l0,0c0.9,0,1.7,0.8,1.7,1.7v75.7
				C389.7,301.2,388.9,302,388,302z"/>
			<path class="st2" d="M398.2,302L398.2,302c-0.9,0-1.7-0.8-1.7-1.7v-75.7c0-0.9,0.8-1.7,1.7-1.7l0,0c0.9,0,1.7,0.8,1.7,1.7v75.7
				C399.9,301.2,399.1,302,398.2,302z"/>
			<path class="st2" d="M408.4,302L408.4,302c-0.9,0-1.7-0.8-1.7-1.7v-75.7c0-0.9,0.8-1.7,1.7-1.7l0,0c0.9,0,1.7,0.8,1.7,1.7v75.7
				C410.1,301.2,409.4,302,408.4,302z"/>
			<path class="st2" d="M418.6,302L418.6,302c-0.9,0-1.7-0.8-1.7-1.7v-75.7c0-0.9,0.8-1.7,1.7-1.7l0,0c0.9,0,1.7,0.8,1.7,1.7v75.7
				C420.3,301.2,419.6,302,418.6,302z"/>
		</g>
		<g>
			<circle class="st2" cx="393.1" cy="179.2" r="11.9"/>
		</g>
		<g>
			<circle class="st4" cx="393.1" cy="179.2" r="6.8"/>
		</g>
	</g>
</g>
</svg>
