<svg xmlns="http://www.w3.org/2000/svg" viewBox="0 0 429.42 170.58"><defs><style>.cls-1{fill:#515251;}.cls-2{fill:#2491d0;}.cls-3{fill:#6cbeeb;}.cls-4{fill:#fff;}</style></defs><g id="Layer_2" data-name="Layer 2"><g id="Layer_2-2" data-name="Layer 2"><path class="cls-1" d="M179.05,117.39c-4.36,0-7.64,3.53-7.64,8.21s3.28,8.22,7.64,8.22,7.64-3.53,7.64-8.22S183.4,117.39,179.05,117.39Zm0,13.13c-2.49,0-4.17-2-4.17-4.92s1.68-4.91,4.17-4.91,4.16,2,4.16,4.91S181.54,130.52,179.05,130.52Z"/><path class="cls-1" d="M197,117.55h-8.24v14.53a1.6,1.6,0,0,0,1.6,1.59h.35a1.6,1.6,0,0,0,1.6-1.59v-4.92h3.5a1.6,1.6,0,0,0,0-3.2h-3.5v-3.21H197a1.6,1.6,0,0,0,0-3.2Z"/><path class="cls-1" d="M213.84,121.66c-2.59-.72-3.73-1.17-3.73-2.58a1.94,1.94,0,0,1,.57-1.47,2.91,2.91,0,0,1,2.17-.69,2.78,2.78,0,0,1,2.64,1.46,2.1,2.1,0,0,0,1.92,1.24,2.14,2.14,0,0,0,1.83-1,2,2,0,0,0,.08-2c-1.1-2.14-3.42-3.37-6.36-3.37-4.11,0-7,2.46-7,6,0,4.37,3.46,5.29,6.25,6s3.81,1.17,3.81,2.68-1.14,2.26-2.91,2.26a2.73,2.73,0,0,1-2.86-1.66,2.13,2.13,0,0,0-2-1.43,2.15,2.15,0,0,0-1.78.94,2.1,2.1,0,0,0-.21,2c1,2.41,3.6,3.91,6.85,3.91,4.61,0,7-3.06,7-6.08C220.14,123.39,216.5,122.39,213.84,121.66Z"/><path class="cls-1" d="M232.3,117a5.08,5.08,0,0,1,4.67,2.46,2.11,2.11,0,1,0,3.55-2.29,9.74,9.74,0,0,0-8.22-4,10.33,10.33,0,0,0,0,20.66,9.77,9.77,0,0,0,8.2-3.91,2.07,2.07,0,0,0,.16-2.17,2.1,2.1,0,0,0-3.69-.13,5.11,5.11,0,0,1-4.67,2.44c-3.57,0-6-2.63-6-6.54S228.73,117,232.3,117Z"/><path class="cls-1" d="M256.89,113.42a2,2,0,0,0-2,2v6.11H247v-6.11a2,2,0,1,0-4.09,0v16.16a2,2,0,0,0,4.09,0v-6.38h7.81v6.38a2,2,0,0,0,4.09,0V115.47A2.05,2.05,0,0,0,256.89,113.42Z"/><path class="cls-1" d="M270.56,113.21c-5.46,0-9.58,4.44-9.58,10.33s4.12,10.32,9.58,10.32,9.58-4.44,9.58-10.32S276,113.21,270.56,113.21Zm0,16.88c-3.35,0-5.59-2.63-5.59-6.55s2.24-6.56,5.59-6.56,5.59,2.64,5.59,6.56S273.9,130.09,270.56,130.09Z"/><path class="cls-1" d="M291.76,113.21c-5.46,0-9.58,4.44-9.58,10.33s4.12,10.32,9.58,10.32,9.59-4.44,9.59-10.32S297.23,113.21,291.76,113.21Zm0,16.88c-3.34,0-5.59-2.63-5.59-6.55s2.25-6.56,5.59-6.56,5.6,2.64,5.6,6.56S295.11,130.09,291.76,130.09Z"/><path class="cls-1" d="M312.17,130h-4.69v-14.8a1.83,1.83,0,0,0-1.82-1.82h-.45a1.82,1.82,0,0,0-1.82,1.82V132a1.65,1.65,0,0,0,1.66,1.65h7.12a1.82,1.82,0,1,0,0-3.63Z"/><path class="cls-2" d="M188.88,76a2.48,2.48,0,1,0,0-5H173.61a2.21,2.21,0,0,0-2.2,2.2v27.9a2.21,2.21,0,0,0,2.2,2.2h15.27a2.48,2.48,0,1,0,0-5H177.51V89.49h9.91a2.48,2.48,0,1,0,0-4.95h-9.91V76Z"/><path class="cls-1" d="M240.3,72.39a3,3,0,0,0-5.25.54l-9.36,23.13-9.37-23.13a3,3,0,1,0-5.56,2.27l10.58,25.25a4.69,4.69,0,0,0,8.64,0L240.56,75.2A3,3,0,0,0,240.3,72.39Z"/><path class="cls-1" d="M260.09,70.71c-9.1,0-16,7.08-16,16.46s6.86,16.46,16,16.46,16-7.07,16-16.46S269.2,70.71,260.09,70.71Zm0,27.79c-6.15,0-10.28-4.55-10.28-11.33s4.13-11.33,10.28-11.33,10.29,4.56,10.29,11.33S266.24,98.5,260.09,98.5Z"/><path class="cls-1" d="M281.49,103.32h13.44a2.46,2.46,0,1,0,0-4.91h-9a.44.44,0,0,1-.44-.44V73.52A2.46,2.46,0,0,0,283,71.06h-1.19a2.46,2.46,0,0,0-2.45,2.46v27.7A2.1,2.1,0,0,0,281.49,103.32Z"/><path class="cls-1" d="M322.21,71.06a2.93,2.93,0,0,0-2.79,3V91.25c0,4.78-2.2,7.2-6.54,7.2s-6.58-2.42-6.58-7.2V74.11a2.8,2.8,0,1,0-5.58,0v17.1c0,9.16,6.26,12.42,12.12,12.42S325,100.37,325,91.21V74.11A2.93,2.93,0,0,0,322.21,71.06Z"/><path class="cls-1" d="M330.78,76h6.86v24.89a2.46,2.46,0,0,0,2.46,2.46h1.19a2.46,2.46,0,0,0,2.45-2.46V76h6.81a2.46,2.46,0,1,0,0-4.91H330.78a2.46,2.46,0,0,0,0,4.91Z"/><path class="cls-1" d="M359.39,103.32a3.06,3.06,0,0,0,3.05-3V74.11a3,3,0,0,0-6.1,0v26.16A3,3,0,0,0,359.39,103.32Z"/><path class="cls-1" d="M381.73,70.71c-9.1,0-16,7.08-16,16.46s6.87,16.46,16,16.46,16-7.07,16-16.46S390.84,70.71,381.73,70.71Zm0,27.79c-6.15,0-10.28-4.55-10.28-11.33s4.13-11.33,10.28-11.33S392,80.4,392,87.17,387.88,98.5,381.73,98.5Z"/><path class="cls-1" d="M426.37,71a3,3,0,0,0-3.05,3V93.63L407.85,72.56A3.78,3.78,0,0,0,401,74.8v25.47a3.05,3.05,0,0,0,6.1,0V80.67l15.46,21.1a3.78,3.78,0,0,0,6.83-2.23V74.07A3.06,3.06,0,0,0,426.37,71Z"/><rect class="cls-2" x="194.69" y="84.54" width="12.51" height="4.88" rx="1.06"/><path class="cls-3" d="M49.35,86.66a89.57,89.57,0,0,0-13.3,5.07c-2.34,1.11-4.64,2.35-6.82,3.66a.58.58,0,0,0-.12.1,65.16,65.16,0,0,0-6.33,4.29,13.86,13.86,0,0,1-8.36,2.82,13.56,13.56,0,0,1-9.59-3.94L4,97.84A13.62,13.62,0,0,1,5.12,77.52c1.08-.88,2-1.57,2.85-2.2,1.4-1.06,2.86-2.1,4.31-3.07l.11-.07c.29-.2.57-.39.86-.57a115.93,115.93,0,0,1,14.08-8,48.88,48.88,0,0,1,6.61,4.08A48.44,48.44,0,0,1,46.21,80.88,46,46,0,0,1,49.35,86.66Z"/><path class="cls-3" d="M53.68,106.69c0,1.5-.07,3-.2,4.43h0c-.13,1.27-.28,2.55-.5,3.8h0a41.4,41.4,0,0,1-.91,4.18h0c-.39,1.47-.85,2.92-1.36,4.34h0a13.91,13.91,0,0,1-5,.94,13.53,13.53,0,0,1-9.62-4l-.6-.6a13.66,13.66,0,0,1,2.62-21.38,56.17,56.17,0,0,1,5-2.74c.62-.31,1.36-.67,2.13-1,1.15-.5,2.23-1,3.28-1.35s2-.74,3-1.08A50.87,50.87,0,0,1,53,98.56,49.55,49.55,0,0,1,53.68,106.69Z"/><path class="cls-3" d="M117.09,118.78l-.57.58a13.7,13.7,0,0,1-15,2.91c-.36-1-.68-2.09-1-3.15,0,0,0,0,0,0A52,52,0,0,1,99.51,114c-.14-.94-.25-1.88-.34-2.83,0,0,0,0,0-.08-.13-1.44-.19-2.89-.19-4.36a48.39,48.39,0,0,1,.8-8.82,49.9,49.9,0,0,1,1.6-6.26,65,65,0,0,1,12.93,5.68,13.67,13.67,0,0,1,2.79,21.49Z"/><path class="cls-3" d="M152.62,86.31a13.67,13.67,0,0,1-4,10.39l-.81.82a13.75,13.75,0,0,1-17.93,1.23,77.35,77.35,0,0,0-26.33-12.62,44.87,44.87,0,0,1,3.21-5.76A48.21,48.21,0,0,1,126.6,63a109.09,109.09,0,0,1,21,13.44A13.63,13.63,0,0,1,152.62,86.31Z"/><path class="cls-3" d="M91.22,130.66h0l0,0a21.88,21.88,0,0,0-30.91,0l0,.05c-8.54,8.53-7.74,23.15,0,30.9,3.81,3.81,9.51,5.74,15.22,5.77,5.87,0,11.75-1.9,15.66-5.81C99.74,153,99,138.39,91.22,130.66Zm-15.64-3.18a18.18,18.18,0,0,1,9.64,2.57h0A14.21,14.21,0,1,1,66.39,130,18.34,18.34,0,0,1,75.58,127.48Z"/><path class="cls-4" d="M85.22,130A18.71,18.71,0,0,0,66.39,130a14.2,14.2,0,0,1,18.83.06Z"/><path class="cls-3" d="M19.74,80.57a30.71,30.71,0,0,0,14.92,8.24Q31,90.58,27.53,92.66l-.09.06a71.71,71.71,0,0,0-6.61,4.49,10.43,10.43,0,0,1-13.72-.84l-.81-.81A10.45,10.45,0,0,1,7.13,80C8,79.31,9,78.6,9.88,77.92c1.37-1,2.77-2,4.2-3l.9-.6A29.6,29.6,0,0,0,19.74,80.57Z"/><path class="cls-3" d="M52.82,118.66c-.49.28-1,.57-1.47.88a10.54,10.54,0,0,1-13-1.41l-.6-.6a10.46,10.46,0,0,1,2-16.35q2.33-1.4,4.79-2.6c.67-.32,1.33-.64,2-.93,1-.46,2.07-.9,3.13-1.3a34.22,34.22,0,0,1,3.22,9.18A33.93,33.93,0,0,1,52.82,118.66Z"/><path class="cls-3" d="M132.9,80.57A30.73,30.73,0,0,1,118,88.81q3.67,1.77,7.13,3.85l.09.06a72.94,72.94,0,0,1,6.6,4.49,10.43,10.43,0,0,0,13.72-.84l.81-.81A10.44,10.44,0,0,0,145.51,80c-.9-.72-1.81-1.43-2.74-2.11-1.38-1-2.78-2-4.21-3l-.9-.6A29.27,29.27,0,0,1,132.9,80.57Z"/><path class="cls-3" d="M99.82,118.66c.5.28,1,.57,1.47.88a10.54,10.54,0,0,0,13-1.41l.6-.6a10.46,10.46,0,0,0-2-16.35q-2.32-1.4-4.79-2.6c-.67-.32-1.33-.64-2-.93-1-.46-2.07-.9-3.13-1.3a33.77,33.77,0,0,0-3.16,22.31Z"/><path class="cls-3" d="M75.56,3.42V31.19L65.35,37.55V55l-13,.59V45.29a1.6,1.6,0,0,0-1.12-1.53l-28.06-9a1.61,1.61,0,0,1-.27-3Z"/><path class="cls-2" d="M95.6,130.8l.16-.17-2.27-2.28a25.14,25.14,0,0,0-35.47,0l-2.25,2.33.17.15c-7.27,9.65-6.58,24.34,2.11,33,4.22,4.24,10.6,6.68,17.49,6.73h.2c7,0,13.45-2.46,17.75-6.76a24.65,24.65,0,0,0,7.05-18.07A26,26,0,0,0,95.6,130.8Zm-20,33.33c-5.2,0-9.94-1.8-13-4.85-6.2-6.2-7.52-18.8,0-26.32l.8-.84a17.6,17.6,0,0,1,3-2.14,18.75,18.75,0,0,1,18.83.07h0c.4.25.8.49,1.19.77l-.14.16,2.78,2.1a18.91,18.91,0,0,1,5,12.77,18.37,18.37,0,0,1-5.18,13.41C85.84,162.34,80.83,164.18,75.58,164.13ZM121,107.32a13.59,13.59,0,0,0-6.68-10,65,65,0,0,0-12.93-5.68,81.46,81.46,0,0,0-49.88.64q-1.5.51-3,1.08c-1.05.4-2.13.85-3.28,1.35-.77.34-1.51.7-2.13,1a56.17,56.17,0,0,0-5,2.74,13.66,13.66,0,0,0-2.62,21.38l.6.6a13.53,13.53,0,0,0,9.62,4,13.91,13.91,0,0,0,5-.94h0a14.1,14.1,0,0,0,2.36-1.19c.45-.27.89-.54,1.35-.8.94-.52,2-1,3.1-1.55l.17-.08c13.28-6,30.56-5.34,42,1.51a12.74,12.74,0,0,0,1.85.92,13.7,13.7,0,0,0,15-2.91l.57-.58A13.6,13.6,0,0,0,121,107.32ZM55,113.94l-.26.13c-.48.21-1,.44-1.4.67l-.39.19h0c-.6.31-1.17.61-1.71.92s-1.09.62-1.6.94a7.28,7.28,0,0,1-9-.94l-.61-.6A7.21,7.21,0,0,1,41.41,104a51,51,0,0,1,4.52-2.46c.57-.28,1.23-.6,1.91-.89,1.06-.48,2-.88,3-1.24l.18-.07,2-.73a74.94,74.94,0,0,1,24.6-4.12,73.19,73.19,0,0,1,17.64,2.12c1.54.39,3.05.82,4.53,1.31.72.22,1.43.48,2.14.74h0a58.68,58.68,0,0,1,9.15,4.25,7.21,7.21,0,0,1,1.44,11.36l-.57.59a7.32,7.32,0,0,1-8.94,1A38.73,38.73,0,0,0,99.51,114l-.3-.14C86.17,107.74,69,107.69,55,113.94Zm92.58-37.5A109.09,109.09,0,0,0,126.6,63a107.34,107.34,0,0,0-23-8.14c-1.25-.29-2.52-.57-3.8-.82-.88-.17-1.76-.32-2.65-.47A111.48,111.48,0,0,0,80.34,52l-2.42,0h-.55a112.4,112.4,0,0,0-12,.74A117.74,117.74,0,0,0,52.3,55c-1.08.24-2.16.5-3.23.78a118.89,118.89,0,0,0-21.74,7.88,115.93,115.93,0,0,0-14.08,8c-.29.18-.57.37-.86.57l-.11.07c-1.45,1-2.91,2-4.31,3.07-.86.63-1.77,1.32-2.85,2.2A13.62,13.62,0,0,0,4,97.84l.8.82a13.56,13.56,0,0,0,9.59,3.94,13.86,13.86,0,0,0,8.36-2.82,65.16,65.16,0,0,1,6.33-4.29.58.58,0,0,1,.12-.1c2.18-1.31,4.48-2.55,6.82-3.66a89.57,89.57,0,0,1,13.3-5.07,100.72,100.72,0,0,1,54.2-.53,77.35,77.35,0,0,1,26.33,12.62,13.75,13.75,0,0,0,17.93-1.23l.81-.82a13.65,13.65,0,0,0-1-20.26ZM46.21,80.88a94.33,94.33,0,0,0-13,5c-1,.48-2,1-3,1.52h0c-1.48.79-2.93,1.6-4.33,2.45l-.16.09a76.75,76.75,0,0,0-6.86,4.67A7.12,7.12,0,0,1,9.4,94.1l-.82-.82a7.2,7.2,0,0,1-2.11-5.52,7.1,7.1,0,0,1,2.68-5.21c1-.81,1.85-1.46,2.67-2,1.35-1,2.71-2,4.06-2.91l.12-.08.73-.49s0,0,0,0a110.24,110.24,0,0,1,17.18-9.3,112.66,112.66,0,0,1,44-9.25l2.51,0a106.16,106.16,0,0,1,18.12,1.9l.43.09a99.55,99.55,0,0,1,37.51,15.73,0,0,0,0,1,0,0c2.42,1.62,4.75,3.38,7,5.24h0a7.07,7.07,0,0,1,2.62,5.19,7.2,7.2,0,0,1-2.11,5.49l-.82.82a7.28,7.28,0,0,1-9.47.65A74.86,74.86,0,0,0,123.41,87h0a88.26,88.26,0,0,0-16.64-6.66A107.39,107.39,0,0,0,46.21,80.88Z"/><path class="cls-2" d="M131.33,29,78.61.58A4.83,4.83,0,0,0,74,.58L21.32,29a4.84,4.84,0,0,0,.81,8.87l26.94,8.62v9.6a4.82,4.82,0,0,0,4.84,4.82,5.41,5.41,0,0,0,1-.09,113,113,0,0,1,13.58-2l.72,0c3-.23,5.87-.33,8.72-.32l2.51,0A105.41,105.41,0,0,1,97.78,60.4a4.31,4.31,0,0,0,1.19.08,4.51,4.51,0,0,0,1-.16,4.84,4.84,0,0,0,3.56-4.65v-9.2l26.94-8.62a4.84,4.84,0,0,0,.82-8.87ZM100.7,40.62h0l-.21.08a4.79,4.79,0,0,0-3.36,4.6v8.42A113,113,0,0,0,80.34,52l-2.42,0h-.55c-2.8,0-5.74.11-8.65.32l-.84.08c-.84.07-1.69.15-2.53.24-3.27.34-6.56.83-9.83,1.44V45.3a4.79,4.79,0,0,0-3.35-4.6L52,40.62h0L27.72,32.86,75.56,7.08l.76-.41,48.6,26.19Z"/><path class="cls-2" d="M98.77,46.93,76.32,34.45,53.87,46.93l-3.14-5.64L74,28.38a4.8,4.8,0,0,1,4.7,0l23.24,12.91Z"/><circle class="cls-2" cx="68.76" cy="67.89" r="4.07"/><circle class="cls-2" cx="83.88" cy="67.89" r="4.07"/></g></g></svg>