<svg xmlns="http://www.w3.org/2000/svg" xmlns:xlink="http://www.w3.org/1999/xlink" viewBox="0 0 555.4 629.57"><defs><style>.cls-1{fill:#2f2e41;}.cls-2{fill:url(#linear-gradient);}.cls-3,.cls-4{fill:none;}.cls-3{stroke:#fff;stroke-linecap:round;stroke-miterlimit:10;stroke-width:1.058px;}.cls-5{fill:url(#linear-gradient-2);}.cls-6{fill:url(#linear-gradient-3);}.cls-7{fill:#fff;}.cls-8{fill:url(#linear-gradient-4);}.cls-9{fill:#f7b73c;}.cls-10{fill:#ffb59e;}.cls-11{fill:#f4a690;}.cls-12{fill:#6cbdea;}.cls-13{fill:#ed9885;}.cls-14{fill:#2490cf;}</style><linearGradient id="linear-gradient" x1="532.281" y1="524.928" x2="442.641" y2="489.288" gradientUnits="userSpaceOnUse"><stop offset="0" stop-color="#6cbdea"/><stop offset="1" stop-color="#2490cf"/></linearGradient><linearGradient id="linear-gradient-2" x1="493.339" y1="467.309" x2="405.499" y2="448.589" xlink:href="#linear-gradient"/><linearGradient id="linear-gradient-3" x1="82.256" y1="569.223" x2="111.083" y2="529.586" xlink:href="#linear-gradient"/><linearGradient id="linear-gradient-4" x1="17.945" y1="486.607" x2="143.225" y2="483.727" xlink:href="#linear-gradient"/></defs><g id="Layer_2" data-name="Layer 2"><g id="Layer_1-2" data-name="Layer 1"><path class="cls-1" d="M143.8,611.174c19.05-26.691-46.2-130.3-96.842-123.363-21.618,2.963-42.036,26.272-38.615,39.96,3.268,13.078,25.86,7.617,46.678,27.458,21.727,20.707,13.069,41.857,32.949,55.83C105.222,623.188,134.953,623.565,143.8,611.174Z"/><path class="cls-1" d="M463.7,584.4s.27,50.77-75.01,44.66l-11.64.05-96.37.46s-16.5-.33-30.68-1.68c-12.72-1.21-62.58-5.96-72.66-6.92l-1.78-.17-1.18-3.85-1.43-4.66-3.85-12.54-4.71-15.35-3-9.78-.64-2.08-.88-2.87,9.52.46.38.02,3.21.16,4.36.21,199.71,9.68,5.74.28,3.16.15,31.48,1.53Z"/><path class="cls-1" d="M154.75,555.042s-6.6-56.505-43.3-77.786-82.923-55.038-82.923-91.73S65.705,346.3,76.1,307.942,53.481,238.76,53.481,201.334s37.426-79.987,82.189-79.253,46.3,22.686,90.836,23.96,27.311-79,81.615-80.466,65.311,16.879,82.923,41.1,31.555,43.3,57.973,58.707,57.974,12.475,62.377,46.965-17.613,59.44-26.42,78.52.734,55.771,22.016,80.722S553.221,398,553.955,429.556s-53.57,69.715-72.65,104.2S463.693,584.4,463.693,584.4H154.6Z"/><path class="cls-1" d="M543.16,322.658c-2.7-6.127-4.74-11.337-5.052-18.1-.193-4.178-.527-8.121-3.619-11.3-6.365-6.534-14.516-2.212-17.4,5.169a29.8,29.8,0,0,0-1.2,3.815,43.111,43.111,0,0,0-.938,30.256c2.957,8.43,9.676,19.793,17.662,24.355,6.734,3.847,15.237,1.6,18.087-5.887C554.238,341.694,546.761,330.827,543.16,322.658Z"/><path class="cls-1" d="M38.123,265.51a10.466,10.466,0,0,0-2.644.082,6.527,6.527,0,0,0-7.774,4.662,12.243,12.243,0,0,0-1.073,1.65c-1.894,3.558-1.889,7.426-1.816,11.306-2.978,6.128-6.466,12.287-.95,17.823,8.505,8.536,17.986-7.313,20.709-13.766C47.741,279.763,49.509,266.746,38.123,265.51Z"/><path class="cls-1" d="M237.577,92.417c-5.121-.236-8.91,3.093-10.418,7.521a15.877,15.877,0,0,0-2.92,9.048c-.053,4.675,4.845,6.738,8.65,4.964,6.22-2.9,9.841-9.119,10.436-15.784C243.611,94.969,240.456,92.55,237.577,92.417Z"/><path class="cls-2" d="M545.639,450.605c-5.566,9.157-12.332,17.509-18.036,26.575a86.411,86.411,0,0,0-7.343,14.094,110.4,110.4,0,0,0-4.519,15.479c-2.343,9.923-4.816,20.051-12.063,27.645-5.307,5.561-12.225,9.237-19.27,12.115-14.408,5.888-30.44,9.041-43.069,18.615-9.158,6.944-15.276,16.886-23.792,24.494-7.252,6.479-18.482,11.416-27.843,6.939a52.033,52.033,0,0,0,8.068-22.179,108.072,108.072,0,0,1,52.406-73.032c6.993-3.946,14.485-7.441,19.954-13.507,5.374-5.961,8.356-13.5,11.5-20.768,3.231-7.46,6.87-14.509,13-20.019,5.872-5.279,13.015-8.953,20.051-12.413,14.167-6.967,30.924-14.788,36.729-30.47C559.681,418.652,553.772,437.225,545.639,450.605Z"/><path class="cls-3" d="M527.494,446.465s-19.513,19.328-25.954,33.962-6.712,25.935-18.618,33.3-36.38,14.753-48.621,28.617-12.61,27.193-44.6,54.22"/><path class="cls-4" d="M545.639,450.605c-5.566,9.157-12.332,17.509-18.036,26.575a86.411,86.411,0,0,0-7.343,14.094,110.4,110.4,0,0,0-4.519,15.479c-2.343,9.923-4.816,20.051-12.063,27.645-5.307,5.561-12.225,9.237-19.27,12.115-14.408,5.888-30.44,9.041-43.069,18.615-9.158,6.944-15.276,16.886-23.792,24.494-7.252,6.479-18.482,11.416-27.843,6.939a52.033,52.033,0,0,0,8.068-22.179,108.072,108.072,0,0,1,52.406-73.032c6.993-3.946,14.485-7.441,19.954-13.507,5.374-5.961,8.356-13.5,11.5-20.768,3.231-7.46,6.87-14.509,13-20.019,5.872-5.279,13.015-8.953,20.051-12.413,14.167-6.967,30.924-14.788,36.729-30.47C559.681,418.652,553.772,437.225,545.639,450.605Z"/><path class="cls-5" d="M494.073,386.749c1.038-19.485-.5-41.115-14.964-55.8-12.32-12.5-30.251-14.195-45.013-5.088-14.815,9.138-24.37,24.7-31.76,40a289.3,289.3,0,0,0-21.573,62.746c-9.818,43.934-10.679,89.491-6.927,134.206q.714,8.5,1.65,16.987a2.852,2.852,0,0,0,4.7,1.776,6.769,6.769,0,0,0,6.145.632c4.215-1.359,7.568-5.4,10.729-8.319q11.368-10.488,21.807-21.928a328.659,328.659,0,0,0,37.342-49.434C477.643,467.572,491.883,427.888,494.073,386.749Z"/><line class="cls-3" x1="444.779" y1="372.295" x2="377.009" y2="588.852"/><path class="cls-4" d="M494.073,386.749c1.038-19.485-.5-41.115-14.964-55.8-12.32-12.5-30.251-14.195-45.013-5.088-14.815,9.138-24.37,24.7-31.76,40a289.3,289.3,0,0,0-21.573,62.746c-9.818,43.934-10.679,89.491-6.927,134.206q.714,8.5,1.65,16.987a2.852,2.852,0,0,0,4.7,1.776,6.769,6.769,0,0,0,6.145.632c4.215-1.359,7.568-5.4,10.729-8.319q11.368-10.488,21.807-21.928a328.659,328.659,0,0,0,37.342-49.434C477.643,467.572,491.883,427.888,494.073,386.749Z"/><path class="cls-6" d="M197.79,576.689c-.807-.6-1.611-1.191-2.391-1.768-2.072-1.528-4.147-3.065-6.226-4.58q-2.863-2.1-5.739-4.188c-1.444-1.042-2.878-2.087-4.321-3.129-.262-.185-.523-.37-.775-.558q-3.7-2.667-7.391-5.306-6.813-4.863-13.668-9.662-23.529-16.5-47.45-32.443-19.987-13.408-40.144-26.571-5.457-3.567-10.9-7.128l-14.712-9.6c-7.745-5.048-15.657-11.3-24.8-13.476a20.414,20.414,0,0,0-4.378-.574,14.244,14.244,0,0,0-8.2,2.231,14.943,14.943,0,0,0-5.9,8.478c-2.283,7.918.667,15.727,5.373,22.116,5.264,7.134,12.276,13.11,18.876,18.956q7.077,6.27,14.5,12.16c2.232,1.793,4.494,3.547,6.782,5.283a483.652,483.652,0,0,0,45.349,30.309c14.855,8.833,40.556,21.667,61.427,31.81,3.93,1.91,7.686,3.723,11.171,5.386,12.093,5.807,20.87,9.924,21.97,10.493,2.55,1.307,5.368,3.078,8.318,4.436a26.5,26.5,0,0,0,3.1,1.232,16.438,16.438,0,0,0,3.29.731,10.8,10.8,0,0,0,5.635-.776,9.679,9.679,0,0,0,3.467-2.525c3.34-3.768,3.868-9.934,2.393-14.6C210.151,586.218,203.766,581.122,197.79,576.689Z"/><path class="cls-3" d="M36.934,493.76C94.241,543.389,189.9,596.954,210.042,608.025l.009,0"/><path class="cls-7" d="M419.859,463.7a1.521,1.521,0,0,0,.839,2.922A1.521,1.521,0,0,0,419.859,463.7Z"/><path class="cls-7" d="M19.678,483.525a1.521,1.521,0,0,0,.839,2.922A1.521,1.521,0,0,0,19.678,483.525Z"/><path class="cls-7" d="M97.972,544.4a1.133,1.133,0,0,0-.437-.383,1.145,1.145,0,0,0-.557-.167,1.133,1.133,0,0,0-.6.036l-.374.164a1.511,1.511,0,0,0-.536.561l-.144.361a1.51,1.51,0,0,0,.012.795l.161.559A1.468,1.468,0,0,0,96.78,547.4a1.154,1.154,0,0,0,.6-.036l.373-.164a1.506,1.506,0,0,0,.537-.561l.144-.361a1.511,1.511,0,0,0-.013-.795l-.16-.56A1.143,1.143,0,0,0,97.972,544.4Z"/><path class="cls-7" d="M102.024,519.242a1.521,1.521,0,0,0,.839,2.922A1.521,1.521,0,0,0,102.024,519.242Z"/><path class="cls-7" d="M98.317,440.949a1.521,1.521,0,0,0,.84,2.922A1.521,1.521,0,0,0,98.317,440.949Z"/><path class="cls-7" d="M93.925,387.69a1.521,1.521,0,0,0,.84,2.922A1.521,1.521,0,0,0,93.925,387.69Z"/><path class="cls-7" d="M160.887,460.537a1.521,1.521,0,0,0,.839,2.923A1.521,1.521,0,0,0,160.887,460.537Z"/><path class="cls-7" d="M474.387,451.071a1.521,1.521,0,0,0,.839,2.922A1.521,1.521,0,0,0,474.387,451.071Z"/><path class="cls-7" d="M474.3,387.488a1.522,1.522,0,0,0,.84,2.923A1.522,1.522,0,0,0,474.3,387.488Z"/><path class="cls-7" d="M428.168,340.765a1.521,1.521,0,0,0,.839,2.922A1.521,1.521,0,0,0,428.168,340.765Z"/><path class="cls-7" d="M421.431,268.794a1.521,1.521,0,0,0,.84,2.922A1.521,1.521,0,0,0,421.431,268.794Z"/><path class="cls-7" d="M388.127,302.59a1.521,1.521,0,0,0,.839,2.923A1.521,1.521,0,0,0,388.127,302.59Z"/><path class="cls-8" d="M172,365.446c-4.887,2.6-8.145,7.313-10.987,11.9-3.52,5.683-6.962,11.416-10.439,17.126-2.7,4.439-5.34,8.9-8.9,12.722-2.851,3.057-6.543,6.087-10.861,6.511-6.008.59-9.806-4.481-12.833-8.9a89.708,89.708,0,0,0-25.812-25.4c-9.529-6.049-21.127-11.059-32.6-8.277-9.687,2.348-17.55,10.1-17.648,20.421-.091,9.7,5.946,18.551,11.759,25.818,4.122,5.153,8.457,10.145,12.7,15.2l6.54,7.8a33.837,33.837,0,0,1,5.069,7.023c2.542,5.417-.162,10.4-4.616,13.72-4.573,3.409-9.9,4.866-15.175,6.76-8.644,3.1-20.059,9.757-16.659,20.764,2.652,8.585,12.9,12.292,21.085,11.471,5.541-.555,10.8-2.563,15.993-4.461a78.978,78.978,0,0,1,17.491-4.52c5.554-.685,11.552-1,17.046.273,4.769,1.106,10.083,4.707,7.9,10.322-2.069,5.331-8.106,8.133-13.032,10.145-5.649,2.308-11.536,3.952-17.314,5.895-10.537,3.545-21.512,8.678-27.345,18.666-4.559,7.807-4.359,19.031,2.214,25.7,8.114,8.227,21.665,4.617,31.212,1.348a84.082,84.082,0,0,0,29.033-17.059c6.139-5.548,13.826-14.891,23.11-13.641a11.329,11.329,0,0,1,9.57,9.632,10.552,10.552,0,0,1-1.351,6.518A185.71,185.71,0,0,0,131.788,568.1c-6.461,5.83-14.653,14.513-12.412,24.085,2.542,10.855,15.563,12.223,24.657,10.221,11.122-2.449,21.4-7.922,30.885-14.064,10.238-6.627,20.046-14,29.788-21.331A296.928,296.928,0,0,0,234.194,542.2c17.545-17.176,32.193-38.554,36.73-63.072a70.184,70.184,0,0,0,1.258-17.533c-.363-5.14-1.832-10.429-5.506-14.209-3.306-3.4-8.2-5.436-12.927-4.222-4.828,1.24-7.911,5.428-10.253,9.544-3.15,5.539-5.944,11.2-9.494,16.513a133.591,133.591,0,0,1-12.079,15.489c-2.141,2.364-4.342,4.712-6.7,6.86-2.165,1.969-4.69,3.946-7.621,4.562a7.734,7.734,0,0,1-7.087-1.821c-2.014-2.126-1.46-5.239-.523-7.727,2.194-5.824,5.7-11.319,9.095-16.5,3.521-5.386,7.308-10.591,11.025-15.842,7.051-9.96,14.6-20.566,18.231-32.359,2.4-7.814,1.707-19.968-9.013-20.209-9.418-.212-17.509,7.079-22.693,14.2-5.754,7.907-9.746,16.923-15.32,24.946-2.8,4.026-5.992,8.055-10.192,10.688-4.147,2.6-10.111,4.5-14.772,2.121-4.726-2.412-5.414-7.949-4.462-12.647,1.089-5.374,4-10.339,6.8-14.98,6.336-10.5,14.3-20.16,19.015-31.572a44.5,44.5,0,0,0,3.594-16.6c.04-4.931-1.2-10.193-5.83-12.755C181.351,362.8,176.055,363.292,172,365.446Z"/><path class="cls-3" d="M83.843,416.931s80.995,81.4,132.213,149.52"/><path class="cls-3" d="M126.8,461.173s28.293-38.17,41.774-67.434"/><path class="cls-3" d="M63.355,482.385s33.411-6.771,58.857-24.746"/><path class="cls-3" d="M162.174,500.97s22.946-19.515,57.513-76.988"/><path class="cls-3" d="M76.741,547.651s51.065-18.235,81.635-50.075"/><path class="cls-3" d="M198.059,542.483S222.1,526.22,246.2,487.453"/><path class="cls-3" d="M132.1,587.437s38.022-20.44,66.25-40.362"/><path class="cls-4" d="M172,365.446c-4.887,2.6-8.145,7.313-10.987,11.9-3.52,5.683-6.962,11.416-10.439,17.126-2.7,4.439-5.34,8.9-8.9,12.722-2.851,3.057-6.543,6.087-10.861,6.511-6.008.59-9.806-4.481-12.833-8.9a89.708,89.708,0,0,0-25.812-25.4c-9.529-6.049-21.127-11.059-32.6-8.277-9.687,2.348-17.55,10.1-17.648,20.421-.091,9.7,5.946,18.551,11.759,25.818,4.122,5.153,8.457,10.145,12.7,15.2l6.54,7.8a33.837,33.837,0,0,1,5.069,7.023c2.542,5.417-.162,10.4-4.616,13.72-4.573,3.409-9.9,4.866-15.175,6.76-8.644,3.1-20.059,9.757-16.659,20.764,2.652,8.585,12.9,12.292,21.085,11.471,5.541-.555,10.8-2.563,15.993-4.461a78.978,78.978,0,0,1,17.491-4.52c5.554-.685,11.552-1,17.046.273,4.769,1.106,10.083,4.707,7.9,10.322-2.069,5.331-8.106,8.133-13.032,10.145-5.649,2.308-11.536,3.952-17.314,5.895-10.537,3.545-21.512,8.678-27.345,18.666-4.559,7.807-4.359,19.031,2.214,25.7,8.114,8.227,21.665,4.617,31.212,1.348a84.082,84.082,0,0,0,29.033-17.059c6.139-5.548,13.826-14.891,23.11-13.641a11.329,11.329,0,0,1,9.57,9.632,10.552,10.552,0,0,1-1.351,6.518A185.71,185.71,0,0,0,131.788,568.1c-6.461,5.83-14.653,14.513-12.412,24.085,2.542,10.855,15.563,12.223,24.657,10.221,11.122-2.449,21.4-7.922,30.885-14.064,10.238-6.627,20.046-14,29.788-21.331A296.928,296.928,0,0,0,234.194,542.2c17.545-17.176,32.193-38.554,36.73-63.072a70.184,70.184,0,0,0,1.258-17.533c-.363-5.14-1.832-10.429-5.506-14.209-3.306-3.4-8.2-5.436-12.927-4.222-4.828,1.24-7.911,5.428-10.253,9.544-3.15,5.539-5.944,11.2-9.494,16.513a133.591,133.591,0,0,1-12.079,15.489c-2.141,2.364-4.342,4.712-6.7,6.86-2.165,1.969-4.69,3.946-7.621,4.562a7.734,7.734,0,0,1-7.087-1.821c-2.014-2.126-1.46-5.239-.523-7.727,2.194-5.824,5.7-11.319,9.095-16.5,3.521-5.386,7.308-10.591,11.025-15.842,7.051-9.96,14.6-20.566,18.231-32.359,2.4-7.814,1.707-19.968-9.013-20.209-9.418-.212-17.509,7.079-22.693,14.2-5.754,7.907-9.746,16.923-15.32,24.946-2.8,4.026-5.992,8.055-10.192,10.688-4.147,2.6-10.111,4.5-14.772,2.121-4.726-2.412-5.414-7.949-4.462-12.647,1.089-5.374,4-10.339,6.8-14.98,6.336-10.5,14.3-20.16,19.015-31.572a44.5,44.5,0,0,0,3.594-16.6c.04-4.931-1.2-10.193-5.83-12.755C181.351,362.8,176.055,363.292,172,365.446Z"/><path class="cls-7" d="M433.753,213.484a18.1,18.1,0,0,0,3.038-.929,21.938,21.938,0,0,0,10.416-8.571,24.425,24.425,0,0,0,2.2-4.623,19.99,19.99,0,0,0,3.99,7.57c2.652,2.965,6,6.3,9.992,7.126a31.218,31.218,0,0,0-5.21,2.725,22.864,22.864,0,0,0-9.161,12.161c-.509,1.513-.941,3.056-1.346,4.606C445.892,225.765,441.931,216.1,433.753,213.484Z"/><path class="cls-7" d="M469.8,250.2a11.221,11.221,0,0,0,1.869-.571,13.493,13.493,0,0,0,6.406-5.272,15.069,15.069,0,0,0,1.357-2.843,12.293,12.293,0,0,0,2.453,4.656c1.631,1.824,3.692,3.877,6.146,4.382a19.267,19.267,0,0,0-3.2,1.676,14.07,14.07,0,0,0-5.634,7.48c-.313.93-.579,1.879-.828,2.832C477.264,257.757,474.828,251.812,469.8,250.2Z"/><path class="cls-7" d="M435.5,272.627a11.249,11.249,0,0,0,1.869-.571,13.5,13.5,0,0,0,6.406-5.272,15.008,15.008,0,0,0,1.356-2.843,12.3,12.3,0,0,0,2.454,4.656c1.631,1.823,3.692,3.877,6.145,4.382a19.222,19.222,0,0,0-3.2,1.676,14.068,14.068,0,0,0-5.634,7.479c-.313.931-.579,1.88-.828,2.833C442.964,280.18,440.528,274.235,435.5,272.627Z"/><path class="cls-7" d="M118.258,228.445a13.638,13.638,0,0,1,1.125,2.116,16.546,16.546,0,0,1,.984,10.125,18.455,18.455,0,0,1-1.289,3.64,15.081,15.081,0,0,1,6.164-1.909c2.995-.167,6.562-.161,9.127,1.529a23.617,23.617,0,0,1-1.325-4.231,17.249,17.249,0,0,1,1.6-11.37c.535-1.078,1.128-2.131,1.738-3.174C131.28,228.37,124.013,231.412,118.258,228.445Z"/><path class="cls-7" d="M141.722,202.685a13.674,13.674,0,0,0-2.115-1.125,16.54,16.54,0,0,0-10.125-.983,18.391,18.391,0,0,0-3.641,1.288,15.066,15.066,0,0,0,1.909-6.164c.167-3,.161-6.562-1.528-9.127a23.512,23.512,0,0,0,4.231,1.325,17.243,17.243,0,0,0,11.37-1.6c1.078-.535,2.131-1.128,3.173-1.738C141.8,189.663,138.756,196.93,141.722,202.685Z"/><path class="cls-7" d="M514.618,414.962a13.758,13.758,0,0,0,2.291-.7,16.536,16.536,0,0,0,7.855-6.464,18.4,18.4,0,0,0,1.664-3.485,15.068,15.068,0,0,0,3.008,5.708c2,2.236,4.527,4.754,7.535,5.373a23.605,23.605,0,0,0-3.929,2.055,17.248,17.248,0,0,0-6.908,9.171c-.384,1.141-.71,2.3-1.015,3.473C523.773,424.222,520.786,416.933,514.618,414.962Z"/><path class="cls-7" d="M408.407,608.934a13.787,13.787,0,0,0,2.291-.7,16.546,16.546,0,0,0,7.855-6.464,18.463,18.463,0,0,0,1.663-3.485,15.056,15.056,0,0,0,3.009,5.708c2,2.236,4.526,4.754,7.535,5.373a23.615,23.615,0,0,0-3.93,2.055,17.253,17.253,0,0,0-6.908,9.171c-.384,1.141-.709,2.3-1.014,3.473C417.561,618.2,414.574,610.906,408.407,608.934Z"/><path class="cls-7" d="M358.312,127.666a13.661,13.661,0,0,0,2.291-.7,16.541,16.541,0,0,0,7.855-6.464,18.441,18.441,0,0,0,1.663-3.486,15.088,15.088,0,0,0,3.009,5.709c2,2.235,4.527,4.754,7.535,5.373a23.492,23.492,0,0,0-3.929,2.055,17.237,17.237,0,0,0-6.908,9.17c-.385,1.142-.71,2.3-1.015,3.474C367.467,136.927,364.479,129.638,358.312,127.666Z"/><path class="cls-7" d="M111.335,344.689a8.341,8.341,0,0,0,1.4-.427,10.074,10.074,0,0,0,4.784-3.936,11.333,11.333,0,0,0,1.013-2.123,9.169,9.169,0,0,0,1.832,3.477c1.218,1.361,2.756,2.895,4.589,3.272a14.443,14.443,0,0,0-2.393,1.251,10.505,10.505,0,0,0-4.207,5.585c-.234.695-.432,1.4-.618,2.116C116.91,350.329,115.091,345.89,111.335,344.689Z"/><path class="cls-7" d="M109.968,316.714a13.552,13.552,0,0,1-2.269-.694,16.39,16.39,0,0,1-7.778-6.4,18.293,18.293,0,0,1-1.646-3.452,14.946,14.946,0,0,1-2.98,5.653c-1.98,2.214-4.482,4.707-7.461,5.32a23.452,23.452,0,0,1,3.891,2.035,17.079,17.079,0,0,1,6.84,9.081c.38,1.13.7,2.282,1,3.44C100.9,325.884,103.861,318.666,109.968,316.714Z"/><path class="cls-9" d="M377.568,551.05v78.06h-.52l-96.37.46s-16.5-.33-30.68-1.68c-12.72-1.21-62.58-5.96-72.66-6.92l-1.78-.17-.44-1.45a1.163,1.163,0,0,1-.18.04V551.05Z"/><path class="cls-10" d="M177.778,615.02c0,.34-.01.71-.02,1.11a3.467,3.467,0,0,1-.42,1.54,3.327,3.327,0,0,1-.52.71,3.457,3.457,0,0,1-1.7.97,1.163,1.163,0,0,1-.18.04c-.11.02-.22.03-.33.04a3.423,3.423,0,0,1-3.62-2.64c-.09-.41-.19-.82-.29-1.24-.03-.12-.05-.23-.08-.35a2.34,2.34,0,0,1-.03.38,5.155,5.155,0,0,1-1.85,4.05,1.266,1.266,0,0,1-.38.16,3.715,3.715,0,0,1-3.95-1.36c-1.2-1.61-6.38,1.22-7.46-.2a20.142,20.142,0,0,1-4.22.79c-3.07.19-6.83-2.3-10.15-6.37-5.46-6.7-9.71-17.69-7.64-28.02a23.139,23.139,0,0,1,1.16-3.93,26.023,26.023,0,0,1,3.29-5.86c-.46-.9-.92-1.82-1.39-2.75q-2.16-4.335-4.39-9.14c-3.02-6.56-6.07-13.76-9-21.59-2.48-6.61-4.87-13.66-7.09-21.14-.09-.31-.19-.62-.28-.94-.21-.69-.41-1.4-.62-2.11-.78-2.74-1.53-5.53-2.27-8.38-.54-2.12-1.07-4.27-1.57-6.45-.12-.47-.23-.95-.33-1.42q-1.3-5.6-2.42-11.46c-.75-3.95-1.42-8.61-2.01-13.7-.02-.18-.04-.36-.06-.55-1.27-11.3-2.14-24.58-2.7-36.73-.26-5.46-.45-10.7-.58-15.41-.01-.48-.02-.96-.04-1.43-.13-4.97-.2-9.29-.22-12.61h59.89c.02.82.04,1.66.05,2.5.02.77.04,1.54.05,2.32.02.71.03,1.43.05,2.15.04,1.85.07,3.73.11,5.64.01.47.02.95.03,1.43.55,28.63,1.1,62.57,1.64,94.89.22,12.47.43,24.71.64,36.3q.15,8.115.3,15.76c.03,1.63.06,3.23.09,4.82.03,1.32.05,2.63.08,3.93.02.85.03,1.69.05,2.52a37.569,37.569,0,0,1,2.6,3.11c.31.4.61.83.91,1.27a34.273,34.273,0,0,1,4.03,7.83c.16.44.32.89.46,1.35a30.683,30.683,0,0,1,1.17,5.46c.21,1.6.38,3.41.62,5.68q.075.765.15,1.41A49.948,49.948,0,0,1,177.778,615.02Z"/><path class="cls-11" d="M146.668,575.293s30.2-1.586,30.152,43.086a3.405,3.405,0,0,0,.935-2.248,56.063,56.063,0,0,0-.568-10.142c-.533-5-.71-7.727-1.787-11.135a35.617,35.617,0,0,0-8-13.561c-.982-47.583-1.952-115.816-2.946-165.292-.012-.722-.024-1.444-.048-2.154l-7.358-2.871,10.187,168.861A35.356,35.356,0,0,0,146.668,575.293Z"/><path class="cls-10" d="M448.838,409.031c-.035,6.721-.284,17.537-.84,29.454-.568,12.342-1.455,25.856-2.757,37.275-.592,5.089-1.254,9.751-2.012,13.7q-1.118,5.858-2.414,11.455c-.106.473-.213.946-.331,1.42-.5,2.177-1.03,4.331-1.574,6.449q-1.1,4.278-2.272,8.378c-.2.71-.4,1.42-.615,2.118a318.551,318.551,0,0,1-20.757,52.8c-.473.935-.934,1.858-1.4,2.757a24.329,24.329,0,0,1,4.45,9.787c3.337,16.59-9.657,34.885-17.786,34.388a20.126,20.126,0,0,1-4.225-.793c-1.077,1.42-6.26-1.408-7.455.2a3.7,3.7,0,0,1-3.953,1.361,1.278,1.278,0,0,1-.378-.154c-1.148-.8-1.823-2.39-1.882-4.437-.118.532-.248,1.077-.367,1.6a3.429,3.429,0,0,1-6.769-.662,55.98,55.98,0,0,1,.569-10.142c.532-5,.709-7.727,1.787-11.135a35.6,35.6,0,0,1,8-13.561c.982-47.583,1.952-115.816,2.947-165.292.011-.722.023-1.444.047-2.154.024-1.633.059-3.242.094-4.816Z"/><path class="cls-11" d="M406.592,575.293s-30.2-1.586-30.152,43.086a3.405,3.405,0,0,1-.935-2.248,55.98,55.98,0,0,1,.569-10.142c.532-5,.709-7.727,1.787-11.135a35.6,35.6,0,0,1,8-13.561c.982-47.583,1.952-115.816,2.947-165.292.011-.722.023-1.444.047-2.154l7.358-2.871L386.026,579.837A35.351,35.351,0,0,1,406.592,575.293Z"/><path class="cls-12" d="M199.883,263.308l-65.661,31.586a18.665,18.665,0,0,0-9.9,11.86L93.994,416.715a5.016,5.016,0,0,0,4.836,6.35h66.1a5.015,5.015,0,0,0,5-4.569l5.016-56.088V551.051H378.32V362.408l5.016,56.088a5.015,5.015,0,0,0,5,4.569h66.1a5.016,5.016,0,0,0,4.836-6.35L428.942,306.754a18.67,18.67,0,0,0-9.9-11.86l-65.661-31.586Z"/><polygon class="cls-10" points="318.819 235.748 318.819 244.076 318.437 244.438 305.362 256.96 276.627 284.471 247.893 256.96 234.737 244.364 229.386 239.241 229.386 235.748 318.819 235.748"/><path class="cls-10" d="M184.525,141.881s-7.26-12.842-20.545-7.085-3.414,46.438,20.545,45.36Z"/><path class="cls-10" d="M368.74,141.881s7.26-12.842,20.545-7.085,3.414,46.438-20.545,45.36Z"/><path class="cls-10" d="M368.737,124.168v35.426c0,2.1-.067,4.182-.209,6.243a92.109,92.109,0,0,1-184.006-6.243V124.168a92.108,92.108,0,1,1,184.215,0Z"/><ellipse class="cls-13" cx="241.917" cy="159.01" rx="5.15" ry="1.51"/><ellipse class="cls-13" cx="309.696" cy="159.01" rx="5.15" ry="1.51"/><path class="cls-13" d="M257.859,129.475v8.414l-18.232-13.062,5.448-.853a10.677,10.677,0,0,1,8,1.963Z"/><path class="cls-13" d="M293.754,129.475v8.414l18.232-13.062-5.448-.853a10.674,10.674,0,0,0-8,1.963Z"/><path class="cls-13" d="M368.348,136.55l-.29-.35-1.54-1.84-.24-.28v9.17a17.9,17.9,0,0,1,1.34-2c.19-.24.39-.49.6-.74a1.738,1.738,0,0,1,.13-.15v-.66l-.01.01a.031.031,0,0,0-.01-.02c-.05-.09-.22-.35-.53-.77,0-.02-.02-.03-.03-.05.18-.24.38-.49.58-.74Zm-181.56,3.8c.07.08.13.15.19.22v-.25l-.19-.05Zm184.3-20.78a93.633,93.633,0,0,0-11.66-41.16q-1.65-3.015-3.56-5.9a94.6,94.6,0,0,0-173.81,51.66v35.42a94.218,94.218,0,0,0,1.75,18.13c.13.68.27,1.35.42,2.02a3.148,3.148,0,0,0,.09.42c.08.38.17.76.26,1.14.07.31.14.61.22.92.2.82.41,1.64.64,2.45A94.655,94.655,0,0,0,215,231.26q3.21,2.775,6.68,5.26c.1.07.2.15.31.22.17.12.34.24.51.35.58.42,1.17.82,1.76,1.22.06.04.13.08.19.12.63.42,1.27.83,1.91,1.22.63.41,1.26.8,1.91,1.18.33.2.67.4,1.01.6,1.78,1.03,3.6,2.01,5.45,2.92l.01.01c.22.11.44.22.66.32,0,.01.01.01.02.01a95.432,95.432,0,0,0,10.74,4.44A94.982,94.982,0,0,0,304,250.14a93,93,0,0,0,14.44-5.7h.01c.23-.12.47-.24.7-.36q1.335-.66,2.64-1.38c1.02-.55,2.04-1.13,3.04-1.72q1.98-1.185,3.92-2.46c.04-.03.08-.05.12-.08.44-.29.87-.58,1.3-.89.21-.13.42-.28.62-.43a94.609,94.609,0,0,0,37.53-54.33,3.821,3.821,0,0,0,.14-.56c.09-.3.16-.61.23-.91.09-.39.18-.77.26-1.16.03-.12.06-.23.08-.34.09-.4.17-.79.25-1.19.06-.3.12-.61.18-.91a95.073,95.073,0,0,0,1.52-11.72c.15-2.06.22-4.22.22-6.41V124.17C371.2,122.63,371.158,121.1,371.088,119.57Zm-5.02,46.1c-.19,2.91-.53,5.78-1,8.61l-.03.18a89.825,89.825,0,0,1-45.89,64l-.33.18a89.357,89.357,0,0,1-87.32-1.62c-.71-.41-1.41-.84-2.11-1.27q-3.75-2.34-7.24-5.02a89.47,89.47,0,0,1-35.17-71.14V124.17c0-1.54.04-3.08.12-4.61a.448.448,0,0,1,.01-.11A89.667,89.667,0,0,1,346.4,67.86c.02.02.04.05.06.07v.01c.43.53.86,1.06,1.26,1.6a88.892,88.892,0,0,1,18.55,53.72c.01.3.01.61.01.91V159.9C366.268,161.87,366.2,163.81,366.068,165.67Z"/><path class="cls-1" d="M225.976,129.475a18.435,18.435,0,0,1,6.663-6.544,19.319,19.319,0,0,1,9.294-2.75,18.278,18.278,0,0,1,4.942.588l1.19.354c.39.136.768.3,1.149.457a9.539,9.539,0,0,1,1.111.523c.357.2.728.366,1.068.588a17.932,17.932,0,0,1,6.466,6.784,54.943,54.943,0,0,0-7.948-3.647,22.757,22.757,0,0,0-7.858-1.21,28.869,28.869,0,0,0-7.946,1.5A67.578,67.578,0,0,0,225.976,129.475Z"/><path class="cls-1" d="M293.754,129.475a14.771,14.771,0,0,1,2.777-3.854,19.869,19.869,0,0,1,3.746-2.995,18.964,18.964,0,0,1,9.424-2.87,18.159,18.159,0,0,1,5.038.62l1.21.372c.4.142.779.32,1.165.479a9.706,9.706,0,0,1,1.123.547c.361.207.735.386,1.077.617a17.059,17.059,0,0,1,6.324,7.084,66.6,66.6,0,0,0-8.09-3.347,23.923,23.923,0,0,0-7.7-1.085,31.138,31.138,0,0,0-7.818,1.376C299.358,127.213,296.678,128.274,293.754,129.475Z"/><path class="cls-13" d="M258.682,206.992a59.958,59.958,0,0,0,9.018,2.662,42.484,42.484,0,0,0,8.891.925,35.38,35.38,0,0,0,4.441-.266c.744-.065,1.477-.208,2.224-.307.373-.053.737-.15,1.111-.21s.748-.127,1.115-.225c2.979-.642,5.949-1.585,9.1-2.579a23.742,23.742,0,0,1-8.075,5.7,24.6,24.6,0,0,1-4.819,1.539c-.826.206-1.675.286-2.517.415-.848.072-1.7.139-2.552.139a24.744,24.744,0,0,1-9.923-1.96,23.091,23.091,0,0,1-4.386-2.433,19.026,19.026,0,0,1-1.94-1.569A12.821,12.821,0,0,1,258.682,206.992Z"/><path class="cls-1" d="M267.731,164.175a9.189,9.189,0,0,1,.882-2.812,11.34,11.34,0,0,1,.761-1.313,9.9,9.9,0,0,1,1-1.191l.568-.557.648-.483A7.951,7.951,0,0,1,273.01,157a12.67,12.67,0,0,1,1.584-.54c.548-.079,1.108-.18,1.664-.208.548.021,1.108.025,1.657.078l1.588.336c.518.139.992.359,1.489.539.245.1.494.176.735.3l.721.381a10.7,10.7,0,0,1,2.623,2.092,8.257,8.257,0,0,1,1.72,3.042,8.082,8.082,0,0,1,.253,3.476,9.073,9.073,0,0,1-1.11,3.162,11.05,11.05,0,0,1-2,2.516,13.106,13.106,0,0,1-2.534,1.8,15.007,15.007,0,0,1-2.8,1.144,15.881,15.881,0,0,1-2.912.532,17.511,17.511,0,0,1-5.731-.4,25.847,25.847,0,0,0,5.471-.953,18.614,18.614,0,0,0,2.5-.959A15,15,0,0,0,280.162,172a9.714,9.714,0,0,0,3.152-3.71,5.578,5.578,0,0,0,.313-4.248,6.019,6.019,0,0,0-2.879-3.145,8.506,8.506,0,0,0-1.089-.506c-.381-.145-.759-.332-1.141-.449l-1.147-.321-1.144-.166a7.441,7.441,0,0,0-4.486,1.1,11.779,11.779,0,0,0-1.071.708c-.334.28-.692.549-1.016.865a17.7,17.7,0,0,0-1.909,2.056Z"/><path class="cls-13" d="M183.6,182.637c-14.349,0-24.035-13.595-27.02-26.521-2.652-11.484-.132-20.739,6.418-23.577,12.117-5.25,20.777,3.024,23.665,8.131l-4.28,2.429c-.256-.444-6.387-10.83-17.428-6.046-4.136,1.793-5.608,9.176-3.581,17.957,2.612,11.309,10.942,23.239,23.036,22.689l.221,4.915C184.29,182.63,183.944,182.637,183.6,182.637Z"/><path class="cls-13" d="M369.662,182.637c-.342,0-.686-.007-1.032-.023l.221-4.915c12.108.547,20.424-11.38,23.036-22.689,2.027-8.781.555-16.164-3.58-17.957-11.047-4.787-17.174,5.6-17.429,6.046l-4.28-2.429c2.888-5.107,11.552-13.383,23.665-8.131,6.55,2.838,9.07,12.093,6.418,23.577C393.7,169.041,384.009,182.637,369.662,182.637Z"/><rect class="cls-1" x="235.939" y="137.889" width="11.956" height="21.121" rx="5.978"/><rect class="cls-1" x="303.718" y="137.889" width="11.956" height="21.121" rx="5.978"/><path class="cls-13" d="M182.28,156.18c-.177-.393-4.453-9.561-11.878-6.69l-1.773-4.589c9.426-3.643,15.986,4.463,18.138,9.258Z"/><path class="cls-13" d="M175.76,167.465c-9.881-5.889-3.135-21.182-2.842-21.831l4.487,2.019c-.053.119-5.152,11.993.874,15.584Z"/><path class="cls-13" d="M370.826,154.253l-4.181-2.595c2.918-4.719,11.236-12.114,21.844-6.327l-2.355,4.319C377.142,144.744,371.445,153.265,370.826,154.253Z"/><path class="cls-13" d="M378.22,163.027l-2.311-4.343c5.628-3,2.2-12.125,2.166-12.216l4.594-1.764C384.428,149.286,385.762,159.013,378.22,163.027Z"/><path class="cls-1" d="M379.322,87.162s-11.2-41.337-31.127-50.519-25.241-7.35-25.241-7.35S300.37-20.771,221.99,10l17.27,4.139s-70.427,17.448-67.985,90.016c0,0,3.782-4.982,11.974-9.754a98.323,98.323,0,0,0-4.877,30.635v5.824a6.132,6.132,0,0,0,1.8,4.348c1.113,1.113,4.89,34.388,4.348,1.8L223.1,88.742l32.411-.978A20.5,20.5,0,0,0,241.917,98.78s62.859,6.657,88.988-6.859l9.209,10.973,28.623,34.116a6.153,6.153,0,0,0,6.151-6.15v-6.692A98.27,98.27,0,0,0,368.2,88.38C372.176,87.039,376.1,86.381,379.322,87.162Z"/><path class="cls-14" d="M199.883,265.965,222.93,239.25a2.429,2.429,0,0,1,3.519-.168l50.181,48.046-27.372,22.519Z"/><path class="cls-14" d="M353.377,265.965,330.33,239.25a2.429,2.429,0,0,0-3.519-.168L276.63,287.128,304,309.647Z"/><path class="cls-14" d="M307.455,364.4h55.8a0,0,0,0,1,0,0v58.821a10.26,10.26,0,0,1-10.26,10.26H317.715a10.26,10.26,0,0,1-10.26-10.26V364.4A0,0,0,0,1,307.455,364.4Z"/><path class="cls-12" d="M307.455,364.544H359.38a0,0,0,0,1,0,0v54.028a10.26,10.26,0,0,1-10.26,10.26h-31.4a10.26,10.26,0,0,1-10.26-10.26V364.544A0,0,0,0,1,307.455,364.544Z"/><path class="cls-7" d="M199.883,263.308l23.047-26.715a2.429,2.429,0,0,1,3.519-.168l50.181,48.046L249.258,306.99Z"/><path class="cls-7" d="M353.377,263.308,330.33,236.593a2.429,2.429,0,0,0-3.519-.168L276.63,284.471,304,306.99Z"/><rect class="cls-14" x="174.94" y="551.051" width="202.285" height="14.613"/><rect class="cls-7" x="261.026" y="548.837" width="30.112" height="19.041"/><rect class="cls-1" x="193.599" y="124.678" width="6.151" height="30.371" transform="translate(8.663 291.172) rotate(-74.245)"/><path class="cls-1" d="M266.338,140.91a29.2,29.2,0,0,0-28.98-26.07,27.547,27.547,0,0,0-3.77.25,29.179,29.179,0,0,0-25.09,24.92,27.523,27.523,0,0,0-.28,3.98v.05c0,.78.03,1.55.1,2.31a29.139,29.139,0,0,0,58.02.71,29.629,29.629,0,0,0,0-6.15Zm-28.98,26.07a23.017,23.017,0,0,1-22.96-21.9c-.02-.36-.03-.72-.03-1.09a23,23,0,0,1,22.6-22.98c.13-.01.26-.01.39-.01a22.784,22.784,0,0,1,10.72,2.66c.24.12.47.25.7.39a22.353,22.353,0,0,1,3.99,2.9,18.324,18.324,0,0,1,1.41,1.38q.435.465.84.96c.41.49.8.99,1.16,1.51a21.4,21.4,0,0,1,1.68,2.8,20.484,20.484,0,0,1,1.21,2.85,22.694,22.694,0,0,1,1.28,7.54A23.018,23.018,0,0,1,237.358,166.98Z"/><path class="cls-1" d="M343.058,139.58a29.138,29.138,0,0,0-57.78,1.33,29.629,29.629,0,0,0,0,6.15,29.134,29.134,0,0,0,58.03-.96c.06-.7.09-1.4.09-2.11A27.919,27.919,0,0,0,343.058,139.58Zm-28.8,27.4a22.977,22.977,0,0,1-20.5-33.38q.315-.645.69-1.26a.251.251,0,0,1,.04-.07c0-.01,0-.01.01-.02a22.506,22.506,0,0,1,3.45-4.44c.18-.19.37-.37.56-.55a22.293,22.293,0,0,1,4.33-3.21,22.822,22.822,0,0,1,11.42-3.05,20.376,20.376,0,0,1,2.72.17,22.985,22.985,0,0,1-2.72,45.81Z"/><rect class="cls-1" x="262.884" y="140.912" width="24.767" height="6.15"/><rect class="cls-1" x="339.184" y="134.988" width="31.912" height="6.15" transform="translate(-25.875 141.729) rotate(-21.795)"/></g></g></svg>