<?xml version="1.0" encoding="utf-8"?>
<!-- Generator: Adobe Illustrator 24.2.0, SVG Export Plug-In . SVG Version: 6.00 Build 0)  -->
<svg version="1.1" id="Layer_1" xmlns="http://www.w3.org/2000/svg" xmlns:xlink="http://www.w3.org/1999/xlink" x="0px" y="0px"
	 viewBox="0 0 500 500" style="enable-background:new 0 0 500 500;" xml:space="preserve">
<style type="text/css">
	.st0{fill:#EAEAEA;}
	.st1{fill:#2490CF;}
	.st2{fill:#F7B73C;}
	.st3{fill:#6BBFEB;}
	.st4{fill:#2F2E41;}
	.st5{fill:#FFFFFF;}
	.st6{fill:#BC7F1D;}
</style>
<g>
	<g>
		<path class="st0" d="M410.4,204.6l-80.3,186.3c-7.4,17.3-27.5,25.2-44.7,17.8L99.2,328.4C81.9,321,73.9,301,81.4,283.7l80.3-186.3
			c7.4-17.3,27.5-25.2,44.7-17.8l186.3,80.3C409.9,167.3,417.9,187.4,410.4,204.6z"/>
	</g>
	<g>
		<g>
			<g>
				<path class="st1" d="M50.8,243.9c-14.3-3.1-28.1-8.5-40.7-15.9c-1.8,11.4-2.3,22.9-1.2,34.2c11.9,10,29.5,14.9,43.6,18
					c-14,2.2-28.1-0.5-41.8-4.6c2.3,11.9,6.2,23.5,11.8,34.5c2.3,4.6,5,8.9,8,13.1c9,2.9,20.1,5.2,34,9c15.2,2.3,31.5,0.9,44.8-6.9
					c-3.3,12.5-17.3,19.1-30,21.7c-7.1,1.4-15.6,1.5-24.8,0.3c0.2,0.1,0.4,0.3,0.6,0.4c34,24.8,78.4,27.4,114,8.9
					c0.8-0.4,1.6-0.8,2.4-1.3c0.8-0.4,1.6-0.9,2.3-1.3c8.7-5.1,16.8-11.5,24-19.1c14-14.9,23.1-33.1,22-54.7
					c-1-10.7-4-19.5-8.5-26.8c-11.1,32.6-31.3,59.5-55.1,65.3c12.5-12,38.9-56.4,39.9-81.7l0,0c-8.8-6.5-19.5-11.1-31-14.6
					c-0.5,0.2-1.1,0.4-1.6,0.6c-21.5,9.7-28,35-36.5,57.1c0.8-24,8.1-46,22.5-61.8c-9.9-2.3-20.1-4.1-30-6
					c-15,5.5-27.5,17.9-33.1,32.9c-2.5-14,5.2-25.5,12.7-37.2c-4.2-1-8.3-2.2-12.2-3.4c-18.2-5.6-36-14.2-49.7-27.2
					c-2-1.9-4-3.9-5.8-6c0,0,0,0,0,0.1l0,0c-0.5,0.9-1.1,1.7-1.6,2.6c-8.2,13.7-14.1,28.4-17.7,43.4
					C24.7,227.1,35.9,239.9,50.8,243.9z"/>
			</g>
			<g>
				<path class="st1" d="M29.9,174.2c15.1,30.6,33.2,60.3,53.8,88.3c16.7,22.8,35,44.5,54.5,64.6c11.5,11.9,22,21.8,30.9,29.6
					c16.8,14.9,27.7,22.6,27.9,22.7l2.9-4.2c-0.2-0.1-10.3-7.3-26.1-21.1c-9.1-8-20.1-18.3-32.1-30.7
					C112.4,293.3,71,243.8,37.3,177.6c-2-1.9-4-3.9-5.8-6c0,0,0,0,0,0.1l0,0C30.9,172.5,30.4,173.3,29.9,174.2z"/>
			</g>
		</g>
		<g>
			<g>
				<path class="st1" d="M449.2,243.9c14.3-3.1,28.1-8.5,40.7-15.9c1.8,11.4,2.3,22.9,1.2,34.2c-11.9,10-29.5,14.9-43.6,18
					c14,2.2,28.1-0.5,41.8-4.6c-2.3,11.9-6.2,23.5-11.8,34.5c-2.3,4.6-5,8.9-8,13.1c-9,2.9-20.1,5.2-34,9
					c-15.2,2.3-31.5,0.9-44.8-6.9c3.3,12.5,17.3,19.1,30,21.7c7.1,1.4,15.6,1.5,24.8,0.3c-0.2,0.1-0.4,0.3-0.6,0.4
					c-34,24.8-78.4,27.4-114,8.9c-0.8-0.4-1.6-0.8-2.4-1.3s-1.6-0.9-2.3-1.3c-8.7-5.1-16.8-11.5-24-19.1c-14-14.9-23.1-33.1-22-54.7
					c1-10.7,4-19.5,8.5-26.8c11.1,32.6,31.3,59.5,55.1,65.3c-12.5-12-38.9-56.4-39.9-81.7l0,0c8.8-6.5,19.5-11.1,31-14.6
					c0.5,0.2,1.1,0.4,1.6,0.6c21.5,9.7,28,35,36.5,57.1c-0.8-24-8.1-46-22.5-61.8c9.9-2.3,20.1-4.1,30-6c15,5.5,27.5,17.9,33.1,32.9
					c2.5-14-5.2-25.5-12.7-37.2c4.2-1,8.3-2.2,12.2-3.4c18.2-5.6,36-14.2,49.7-27.2c2-1.9,4-3.9,5.8-6c0,0,0,0,0,0.1l0,0
					c0.5,0.9,1.1,1.7,1.6,2.6c8.2,13.7,14.1,28.4,17.7,43.4C475.3,227.1,464.1,239.9,449.2,243.9z"/>
			</g>
			<g>
				<path class="st1" d="M470.1,174.2c-15.1,30.6-33.2,60.3-53.8,88.3c-16.7,22.8-35,44.5-54.5,64.6c-11.5,11.9-22,21.8-30.9,29.6
					c-16.8,14.9-27.7,22.6-27.9,22.7l-2.9-4.2c0.2-0.1,10.3-7.3,26.1-21.1c9.1-8,20.1-18.3,32.1-30.7
					c29.3-30.2,70.7-79.7,104.4-145.9c2-1.9,4-3.9,5.8-6c0,0,0,0,0,0.1l0,0C469.1,172.5,469.6,173.3,470.1,174.2z"/>
			</g>
		</g>
	</g>
	<g>
		<g>
			<path class="st2" d="M187.5,154.7v-42.4c0-3.5,2.9-6.4,6.4-6.4h18.5c3.5,0,6.4,2.9,6.4,6.4v49"/>
		</g>
		<g>
			<path class="st2" d="M281.1,154.7v-42.4c0-3.5,2.9-6.4,6.4-6.4h18.5c3.5,0,6.4,2.9,6.4,6.4v49"/>
		</g>
	</g>
	<g>
		<path class="st3" d="M328,398.6H172c-18.8,0-34-15.2-34-34V186.1c0-18.8,15.2-34,34-34H328c18.8,0,34,15.2,34,34v178.4
			C362,383.3,346.8,398.6,328,398.6z"/>
	</g>
	<g>
		<path class="st4" d="M348.2,173.3v203.9c0,6.7-5.4,12.1-12.1,12.1H163.9c-6.7,0-12.1-5.4-12.1-12.1V173.3
			c0-6.7,5.4-12.1,12.1-12.1h172.2C342.8,161.3,348.2,166.7,348.2,173.3z"/>
	</g>
	<g>
		<g>
			<rect x="207" y="225.5" class="st5" width="26.1" height="29.2"/>
		</g>
		<g>
			<rect x="266.9" y="225.5" class="st5" width="26.1" height="29.2"/>
		</g>
	</g>
	<g>
		<polygon class="st5" points="207,287.7 293,287.7 293,303 279.9,303 279.9,319.9 266.9,319.9 266.9,333 233.1,333 233.1,320.7 
			220.1,320.7 220.1,306.1 207,306.1 		"/>
	</g>
	<g>
		<g>
			<g>
				<polygon class="st6" points="103.8,324.9 179.4,278.1 228.7,371.4 104.5,327.8 				"/>
			</g>
			<g>
				<polygon class="st5" points="103.8,324.9 178.1,280.3 223.4,362 174.6,288.5 104.5,327.8 				"/>
			</g>
			<g>
				
					<rect x="123.1" y="300.2" transform="matrix(0.8716 -0.4902 0.4902 0.8716 -149.9863 126.5469)" class="st2" width="86.9" height="98.9"/>
			</g>
		</g>
		<g>
			<g>
				<polygon class="st6" points="396.2,325.4 321,277.9 270.9,370.9 395.5,328.3 				"/>
			</g>
			<g>
				<polygon class="st5" points="396.2,325.4 322.3,280.2 276.3,361.5 325.7,288.4 395.5,328.3 				"/>
			</g>
			<g>
				
					<rect x="283.7" y="306.1" transform="matrix(0.4976 -0.8674 0.8674 0.4976 -135.8647 464.6356)" class="st2" width="98.9" height="86.9"/>
			</g>
		</g>
	</g>
	<g>
		<circle class="st5" cx="322" cy="185" r="20.3"/>
	</g>
	<g>
		<g>
			<g>
				<rect x="308.5" y="177.3" class="st4" width="12.5" height="17.2"/>
			</g>
		</g>
		<g>
			<g>
				<rect x="323" y="177.3" class="st4" width="12.5" height="17.2"/>
			</g>
		</g>
	</g>
</g>
</svg>
