<?xml version="1.0" encoding="utf-8"?>
<!-- Generator: Adobe Illustrator 24.2.0, SVG Export Plug-In . SVG Version: 6.00 Build 0)  -->
<svg version="1.1" id="Layer_1" xmlns="http://www.w3.org/2000/svg" xmlns:xlink="http://www.w3.org/1999/xlink" x="0px" y="0px"
	 viewBox="0 0 500 500" style="enable-background:new 0 0 500 500;" xml:space="preserve">
<style type="text/css">
	.st0{fill:#EAEAEA;}
	.st1{fill:#2490CF;}
	.st2{fill:#2F2E41;}
	.st3{fill:#F7B73C;}
	.st4{fill:#6BBFEB;}
	.st5{fill:#FFFFFF;}
</style>
<g>
	<path class="st0" d="M404.1,218.8l-73.8,171.3c-9.7,22.5-35.8,32.9-58.3,23.2l-171.3-73.8c-22.5-9.7-32.9-35.8-23.2-58.3
		l73.8-171.3c9.7-22.5,35.8-32.9,58.3-23.2l171.3,73.8C403.4,170.2,413.8,196.3,404.1,218.8z"/>
	<g>
		<g>
			<g>
				<path class="st1" d="M49.1,254.3c-14.4-3.1-28.3-8.5-41.1-16c-1.8,11.5-2.3,23.1-1.3,34.5c12,10.1,29.8,15.1,44,18.1
					c-14.1,2.2-28.3-0.5-42.2-4.6c2.3,12,6.3,23.7,11.9,34.8c2.3,4.6,5,9,8,13.2c9.1,2.9,20.3,5.3,34.3,9.1c15.4,2.3,31.8,1,45.2-7
					c-3.3,12.6-17.5,19.3-30.3,21.9c-7.1,1.5-15.7,1.6-25.1,0.3c0.2,0.1,0.4,0.3,0.6,0.4c34.3,25.1,79.1,27.6,115,9
					c0.8-0.4,1.6-0.8,2.4-1.3c0.8-0.4,1.6-0.9,2.4-1.3c8.8-5.1,16.9-11.6,24.2-19.3c14.1-15,23.3-33.4,22.2-55.2
					c-1.1-10.8-4.1-19.6-8.5-27c-11.2,32.9-31.6,60-55.6,65.9c12.7-12.1,39.2-56.9,40.3-82.4l0,0c-8.9-6.6-19.7-11.2-31.3-14.7
					c-0.5,0.2-1.1,0.4-1.7,0.6c-21.7,9.8-28.3,35.4-36.8,57.6c0.8-24.2,8.1-46.4,22.7-62.3c-10-2.3-20.3-4.2-30.3-6.1
					c-15.2,5.6-27.7,18-33.4,33.2c-2.5-14.1,5.3-25.7,12.8-37.5c-4.3-1-8.4-2.2-12.3-3.4c-18.3-5.7-36.3-14.3-50.1-27.4
					c-2-1.9-4-4-5.8-6.1c0,0,0,0,0,0.1l0,0c-0.5,0.9-1.1,1.7-1.6,2.6c-8.3,13.9-14.3,28.6-17.8,43.8C22.7,237.3,34,250.2,49.1,254.3
					z"/>
			</g>
			<g>
				<path class="st1" d="M27.9,183.9c15.3,30.8,33.5,60.8,54.2,89.1c16.8,23,35.3,44.9,55,65.2c11.6,12,22.2,22,31.2,29.9
					c17,15,28,22.8,28.1,22.9l2.9-4.2c-0.2-0.1-10.4-7.3-26.3-21.3c-9.2-8.1-20.3-18.4-32.4-31c-29.5-30.5-71.3-80.4-105.3-147.2
					c-2-1.9-4-4-5.8-6.1c0,0,0,0,0,0.1l0,0C29,182.2,28.4,183.1,27.9,183.9z"/>
			</g>
		</g>
		<g>
			<g>
				<path class="st1" d="M450.9,254.3c14.4-3.1,28.3-8.5,41.1-16c1.8,11.5,2.3,23.1,1.3,34.5c-12,10.1-29.8,15.1-44,18.1
					c14.1,2.2,28.3-0.5,42.2-4.6c-2.3,12-6.3,23.7-11.9,34.8c-2.3,4.6-5,9-8,13.2c-9.1,2.9-20.3,5.3-34.3,9.1
					c-15.4,2.3-31.8,1-45.2-7c3.3,12.6,17.5,19.3,30.3,21.9c7.1,1.5,15.7,1.6,25.1,0.3c-0.2,0.1-0.4,0.3-0.6,0.4
					c-34.3,25.1-79.1,27.6-115,9c-0.8-0.4-1.6-0.8-2.4-1.3c-0.8-0.4-1.6-0.9-2.4-1.3c-8.8-5.1-16.9-11.6-24.2-19.3
					c-14.1-15-23.3-33.4-22.2-55.2c1.1-10.8,4.1-19.6,8.5-27c11.2,32.9,31.6,60,55.6,65.9c-12.7-12.1-39.2-56.9-40.3-82.4l0,0
					c8.9-6.6,19.7-11.2,31.3-14.7c0.5,0.2,1.1,0.4,1.7,0.6c21.7,9.8,28.3,35.4,36.8,57.6c-0.8-24.2-8.1-46.4-22.7-62.3
					c10-2.3,20.3-4.2,30.3-6.1c15.2,5.6,27.7,18,33.4,33.2c2.5-14.1-5.3-25.7-12.8-37.5c4.3-1,8.4-2.2,12.3-3.4
					c18.3-5.7,36.3-14.3,50.1-27.4c2-1.9,4-4,5.8-6.1c0,0,0,0,0,0.1l0,0c0.5,0.9,1.1,1.7,1.6,2.6c8.3,13.9,14.3,28.6,17.8,43.8
					C477.3,237.3,466,250.2,450.9,254.3z"/>
			</g>
			<g>
				<path class="st1" d="M472.1,183.9c-15.3,30.8-33.5,60.8-54.2,89.1c-16.8,23-35.3,44.9-55,65.2c-11.6,12-22.2,22-31.2,29.9
					c-17,15-28,22.8-28.1,22.9l-2.9-4.2c0.2-0.1,10.4-7.3,26.3-21.3c9.2-8.1,20.3-18.4,32.4-31c29.5-30.5,71.3-80.4,105.3-147.2
					c2-1.9,4-4,5.8-6.1c0,0,0,0,0,0.1l0,0C471,182.2,471.6,183.1,472.1,183.9z"/>
			</g>
		</g>
	</g>
	<g>
		<path class="st2" d="M168.5,130.1c0,0-19.5,59.9-23.6,141.4h-11.7c0,0-41.1,116.7,45.6,123.3c0,0,169.2-1.2,169.3-6.3
			c0.1-5.1-12.2-178.9-12.2-178.9L274.2,127L168.5,130.1z"/>
		<polygon class="st3" points="344,123 344,130.1 320.9,131.1 168.5,130.1 168.5,123 308.4,122.9 		"/>
		<path class="st3" d="M351.1,271.5h25.5c0,0-5,111.4-28.6,116.9l12.2-31.4"/>
		<path class="st3" d="M162.8,271.5h-29.7c0,0-25.4,118.2,51.8,118.2L162.8,271.5z"/>
		<path class="st4" d="M182.3,130.1H344c0,0,32.5,113.5,14.3,245c-1.2,8.4-8.4,14.6-16.8,14.6H184.9c-8.5,0-15.7-6.2-16.8-14.6
			C149.7,243.6,182.3,130.1,182.3,130.1z"/>
		<g>
			<path class="st5" d="M281.7,371.5h52.2c7.8,0,14-6.3,14-14v-20.3c0-7.8-6.3-14-14-14h-52.2c-7.8,0-14,6.3-14,14v20.3
				C267.7,365.3,273.9,371.5,281.7,371.5z"/>
			<path class="st5" d="M192.4,371.5h52.2c7.8,0,14-6.3,14-14v-20.3c0-7.8-6.3-14-14-14h-52.2c-7.8,0-14,6.3-14,14v20.3
				C178.3,365.3,184.6,371.5,192.4,371.5z"/>
		</g>
		<g>
			<path class="st2" d="M348,336.4v30.7c0,4.9-4,8.8-8.8,8.8h-62.6c-4.9,0-8.8-4-8.8-8.8v-30.7c0-3.4,2-6.4,4.8-7.9
				c1.2-0.6,2.6-1,4-1h62.6c2.4,0,4.6,1,6.2,2.5C347,331.7,348,333.9,348,336.4z"/>
			<path class="st2" d="M258.6,336.4v30.7c0,4.9-4,8.8-8.8,8.8h-62.6c-4.9,0-8.8-4-8.8-8.8v-30.7c0-3.4,1.9-6.3,4.6-7.8
				c1.3-0.7,2.7-1.1,4.2-1.1h62.6c2.3,0,4.4,0.9,6,2.4C257.6,331.5,258.6,333.8,258.6,336.4z"/>
		</g>
		<path class="st5" d="M345.3,329.4l-37.5,21.7l-35.3-23.2c1.2-0.6,2.6-1,4-1h62.6C341.5,326.9,343.7,327.9,345.3,329.4z"/>
		<path class="st5" d="M255.8,329.3l-37.7,21.8L183,328c1.3-0.7,2.7-1.1,4.2-1.1h62.6C252.1,326.9,254.2,327.8,255.8,329.3z"/>
		<path class="st2" d="M267.7,266.9c0,0-1.4-114.5,76.4-136.8c0,0-78.8-27.2-85.4-24.7c-6.6,2.5-90.2,24.7-90.2,24.7
			S267.7,163.2,267.7,266.9z"/>
		<circle class="st2" cx="267.7" cy="260.3" r="6.6"/>
		<path class="st3" d="M267.7,259.8c0,0-1.4-114.5,76.4-136.8c0,0-78.8-27.2-85.4-24.7c-6.6,2.5-90.2,24.7-90.2,24.7
			S267.7,156.1,267.7,259.8z"/>
		<circle class="st3" cx="267.7" cy="256.8" r="6.6"/>
		<g>
			<path class="st5" d="M235.4,127.7c1-0.2,2.4-0.3,4-0.3c1.9,0,3.3,0.3,4.2,1c0.8,0.6,1.2,1.5,1.2,2.7c0,1.7-1.2,2.8-2.3,3.2v0.1
				c0.9,0.4,1.4,1.2,1.8,2.5c0.4,1.5,0.8,3.2,1.1,3.7h-3c-0.2-0.4-0.5-1.4-0.9-3.1c-0.4-1.6-0.9-2.1-2.1-2.1h-0.9v5.2h-2.9V127.7z
				 M238.3,133.3h1.2c1.5,0,2.4-0.7,2.4-1.9c0-1.2-0.8-1.8-2.2-1.8c-0.7,0-1.1,0.1-1.3,0.1V133.3z"/>
			<path class="st5" d="M250.1,137.2l-0.9,3.4h-3.1l4-13.1h3.9l4.1,13.1h-3.2l-1-3.4H250.1z M253.5,135l-0.8-2.8
				c-0.2-0.8-0.5-1.8-0.7-2.5h0c-0.2,0.8-0.4,1.8-0.6,2.5l-0.8,2.8H253.5z"/>
			<path class="st5" d="M259.8,140.6v-13.1h3.5l2.7,4.8c0.8,1.4,1.6,3,2.1,4.5h0.1c-0.2-1.7-0.3-3.5-0.3-5.5v-3.8h2.7v13.1h-3.1
				l-2.8-5.1c-0.8-1.4-1.6-3.1-2.3-4.6l-0.1,0c0.1,1.7,0.1,3.6,0.1,5.7v4H259.8z"/>
			<path class="st5" d="M273.4,137.6c0.8,0.4,2,0.8,3.3,0.8c1.4,0,2.1-0.6,2.1-1.4c0-0.8-0.6-1.3-2.2-1.8c-2.2-0.8-3.6-2-3.6-3.9
				c0-2.2,1.9-4,5-4c1.5,0,2.6,0.3,3.3,0.7l-0.7,2.4c-0.5-0.3-1.5-0.6-2.7-0.6c-1.3,0-1.9,0.6-1.9,1.3c0,0.8,0.7,1.2,2.4,1.8
				c2.3,0.9,3.4,2.1,3.4,3.9c0,2.2-1.7,4.1-5.3,4.1c-1.5,0-3-0.4-3.7-0.8L273.4,137.6z"/>
			<path class="st5" d="M291.6,135.1h-4.8v3.1h5.4v2.4h-8.4v-13.1h8.1v2.4h-5.1v2.7h4.8V135.1z"/>
			<path class="st5" d="M294.2,127.5h3v10.6h5.2v2.5h-8.2V127.5z"/>
		</g>
	</g>
</g>
</svg>
