<?xml version="1.0" encoding="utf-8"?>
<!-- Generator: Adobe Illustrator 24.2.0, SVG Export Plug-In . SVG Version: 6.00 Build 0)  -->
<svg version="1.1" id="Layer_1" xmlns="http://www.w3.org/2000/svg" xmlns:xlink="http://www.w3.org/1999/xlink" x="0px" y="0px"
	 viewBox="0 0 500 500" style="enable-background:new 0 0 500 500;" xml:space="preserve">
<style type="text/css">
	.st0{fill:#EAEAEA;}
	.st1{fill:#2490CF;}
	.st2{fill:#2F2E41;}
	.st3{fill:#6BBFEB;}
	.st4{fill:#FFFFFF;}
	.st5{fill:#F7B73C;}
</style>
<g>
	<g>
		<path class="st0" d="M425,198.6l-94.5,219.3c-6.1,14.2-22.5,20.7-36.7,14.6L74.6,338c-14.2-6.1-20.7-22.5-14.6-36.7l94.5-219.3
			c6.1-14.2,22.5-20.7,36.7-14.6L410.5,162C424.6,168.1,431.1,184.5,425,198.6z"/>
	</g>
	<g>
		<g>
			<g>
				<path class="st1" d="M61.4,276.3c-14.3-3.1-28.1-8.5-40.7-15.9c-1.8,11.4-2.3,22.9-1.2,34.2c11.9,10,29.5,14.9,43.7,18
					c-14,2.2-28.1-0.5-41.8-4.6c2.3,11.9,6.2,23.5,11.8,34.6c2.3,4.6,5,8.9,8,13.1c9,2.9,20.1,5.2,34,9c15.2,2.3,31.5,0.9,44.8-6.9
					c-3.3,12.5-17.3,19.1-30,21.7c-7.1,1.4-15.6,1.5-24.9,0.3c0.2,0.1,0.4,0.3,0.6,0.4c34,24.9,78.4,27.4,114,8.9
					c0.8-0.4,1.6-0.8,2.4-1.3c0.8-0.4,1.6-0.9,2.3-1.3c8.7-5.1,16.8-11.5,24-19.1c14-14.9,23.1-33.1,22-54.8
					c-1-10.7-4-19.5-8.5-26.8c-11.1,32.6-31.3,59.5-55.1,65.4c12.5-12,38.9-56.4,39.9-81.7l0,0c-8.8-6.5-19.5-11.1-31-14.6
					c-0.5,0.2-1.1,0.4-1.6,0.6c-21.5,9.7-28,35.1-36.5,57.1c0.8-24,8.1-46,22.6-61.8c-9.9-2.3-20.2-4.1-30.1-6
					c-15.1,5.6-27.5,17.9-33.1,32.9c-2.5-14,5.2-25.5,12.7-37.2c-4.2-1-8.3-2.2-12.2-3.4c-18.2-5.6-36-14.2-49.7-27.2
					c-2-1.9-4-3.9-5.8-6c0,0,0,0,0,0.1l0,0c-0.5,0.9-1.1,1.7-1.6,2.6C32.2,220.3,26.3,235,22.7,250
					C35.3,259.5,46.4,272.3,61.4,276.3z"/>
			</g>
			<g>
				<path class="st1" d="M40.4,206.6c15.2,30.6,33.2,60.3,53.8,88.3c16.7,22.8,35,44.6,54.5,64.7c11.5,11.9,22.1,21.8,31,29.7
					c16.8,14.9,27.7,22.6,27.9,22.7l2.9-4.2c-0.2-0.1-10.3-7.3-26.1-21.1c-9.1-8-20.1-18.3-32.1-30.7C123,325.7,81.5,276.2,47.8,210
					c-2-1.9-4-3.9-5.8-6c0,0,0,0,0,0.1l0,0C41.4,204.9,40.9,205.7,40.4,206.6z"/>
			</g>
		</g>
		<g>
			<g>
				<path class="st1" d="M438.6,276.3c14.3-3.1,28.1-8.5,40.7-15.9c1.8,11.4,2.3,22.9,1.2,34.2c-11.9,10-29.5,14.9-43.7,18
					c14,2.2,28.1-0.5,41.8-4.6c-2.3,11.9-6.2,23.5-11.8,34.6c-2.3,4.6-5,8.9-8,13.1c-9,2.9-20.1,5.2-34,9
					c-15.2,2.3-31.5,0.9-44.8-6.9c3.3,12.5,17.3,19.1,30,21.7c7.1,1.4,15.6,1.5,24.9,0.3c-0.2,0.1-0.4,0.3-0.6,0.4
					c-34,24.9-78.4,27.4-114,8.9c-0.8-0.4-1.6-0.8-2.4-1.3c-0.8-0.4-1.6-0.9-2.3-1.3c-8.7-5.1-16.8-11.5-24-19.1
					c-14-14.9-23.1-33.1-22-54.8c1-10.7,4-19.5,8.5-26.8c11.1,32.6,31.3,59.5,55.1,65.4c-12.5-12-38.9-56.4-39.9-81.7l0,0
					c8.8-6.5,19.5-11.1,31-14.6c0.5,0.2,1.1,0.4,1.6,0.6c21.5,9.7,28,35.1,36.5,57.1c-0.8-24-8.1-46-22.6-61.8
					c9.9-2.3,20.2-4.1,30.1-6c15.1,5.6,27.5,17.9,33.1,32.9c2.5-14-5.2-25.5-12.7-37.2c4.2-1,8.3-2.2,12.2-3.4
					c18.2-5.6,36-14.2,49.7-27.2c2-1.9,4-3.9,5.8-6c0,0,0,0,0,0.1l0,0c0.5,0.9,1.1,1.7,1.6,2.6c8.2,13.7,14.1,28.4,17.7,43.4
					C464.7,259.5,453.6,272.3,438.6,276.3z"/>
			</g>
			<g>
				<path class="st1" d="M459.6,206.6c-15.2,30.6-33.2,60.3-53.8,88.3c-16.7,22.8-35,44.6-54.5,64.7c-11.5,11.9-22.1,21.8-31,29.7
					c-16.8,14.9-27.7,22.6-27.9,22.7l-2.9-4.2c0.2-0.1,10.3-7.3,26.1-21.1c9.1-8,20.1-18.3,32.1-30.7
					c29.3-30.2,70.7-79.8,104.4-145.9c2-1.9,4-3.9,5.8-6c0,0,0,0,0,0.1l0,0C458.6,204.9,459.1,205.7,459.6,206.6z"/>
			</g>
		</g>
	</g>
	<g>
		<path class="st2" d="M345.8,418.7H145.3c-15.9,0-28.8-12.9-28.8-28.8V129.4c0-15.9,12.9-28.8,28.8-28.8h200.5
			c15.9,0,28.8,12.9,28.8,28.8v260.5C374.6,405.8,361.7,418.7,345.8,418.7z"/>
	</g>
	<g>
		<path class="st3" d="M345.8,413.8H154.2c-15.9,0-28.8-12.9-28.8-28.8V123.9c0-15.9,12.9-28.8,28.8-28.8h191.5
			c15.9,0,28.8,12.9,28.8,28.8V385C374.6,400.9,361.7,413.8,345.8,413.8z"/>
	</g>
	<g>
		<path class="st4" d="M319.9,185.6H180.1c-3.2,0-5.8-2.6-5.8-5.8v0c0-3.2,2.6-5.8,5.8-5.8h139.8c3.2,0,5.8,2.6,5.8,5.8v0
			C325.7,183,323.1,185.6,319.9,185.6z"/>
		<path class="st4" d="M319.9,226.4H180.1c-3.2,0-5.8-2.6-5.8-5.8v0c0-3.2,2.6-5.8,5.8-5.8h139.8c3.2,0,5.8,2.6,5.8,5.8v0
			C325.7,223.8,323.1,226.4,319.9,226.4z"/>
		<path class="st4" d="M319.9,267.2H180.1c-3.2,0-5.8-2.6-5.8-5.8v0c0-3.2,2.6-5.8,5.8-5.8h139.8c3.2,0,5.8,2.6,5.8,5.8v0
			C325.7,264.6,323.1,267.2,319.9,267.2z"/>
		<path class="st4" d="M319.9,308H180.1c-3.2,0-5.8-2.6-5.8-5.8l0,0c0-3.2,2.6-5.8,5.8-5.8h139.8c3.2,0,5.8,2.6,5.8,5.8l0,0
			C325.7,305.4,323.1,308,319.9,308z"/>
	</g>
	<g>
		<path class="st2" d="M319.9,191.3H180.1c-3.2,0-5.8-2.6-5.8-5.8v0c0-3.2,2.6-5.8,5.8-5.8h139.8c3.2,0,5.8,2.6,5.8,5.8v0
			C325.7,188.7,323.1,191.3,319.9,191.3z"/>
		<path class="st2" d="M319.9,232.1H180.1c-3.2,0-5.8-2.6-5.8-5.8v0c0-3.2,2.6-5.8,5.8-5.8h139.8c3.2,0,5.8,2.6,5.8,5.8v0
			C325.7,229.5,323.1,232.1,319.9,232.1z"/>
		<path class="st2" d="M319.9,272.8H180.1c-3.2,0-5.8-2.6-5.8-5.8l0,0c0-3.2,2.6-5.8,5.8-5.8h139.8c3.2,0,5.8,2.6,5.8,5.8l0,0
			C325.7,270.2,323.1,272.8,319.9,272.8z"/>
		<path class="st2" d="M319.9,313.6H180.1c-3.2,0-5.8-2.6-5.8-5.8v0c0-3.2,2.6-5.8,5.8-5.8h139.8c3.2,0,5.8,2.6,5.8,5.8v0
			C325.7,311,323.1,313.6,319.9,313.6z"/>
	</g>
	<g>
		<g>
			<path class="st4" d="M194.8,123.7c1.8-0.3,4.5-0.5,7.5-0.5c3.7,0,6.3,0.6,8,2c1.5,1.2,2.3,2.9,2.3,5.2c0,3.2-2.2,5.3-4.4,6.1v0.1
				c1.7,0.7,2.7,2.4,3.3,4.6c0.8,2.8,1.5,6,2,7h-5.7c-0.4-0.7-1-2.7-1.7-5.8c-0.7-3.1-1.7-3.9-4-4h-1.7v9.8h-5.6V123.7z
				 M200.4,134.4h2.2c2.8,0,4.5-1.4,4.5-3.6c0-2.3-1.5-3.4-4.1-3.5c-1.4,0-2.1,0.1-2.5,0.2V134.4z"/>
		</g>
		<g>
			<path class="st4" d="M222.8,141.8l-1.8,6.4h-5.8l7.6-24.8h7.4l7.7,24.8h-6l-1.9-6.4H222.8z M229.1,137.6l-1.5-5.3
				c-0.4-1.5-0.9-3.3-1.3-4.8h-0.1c-0.4,1.5-0.7,3.4-1.1,4.8l-1.5,5.3H229.1z"/>
		</g>
		<g>
			<path class="st4" d="M241.2,123.7c1.7-0.3,4.2-0.5,7.6-0.5c3.5,0,5.9,0.7,7.6,2c1.6,1.3,2.7,3.3,2.7,5.7s-0.8,4.5-2.3,5.9
				c-1.9,1.8-4.8,2.6-8.1,2.6c-0.7,0-1.4,0-1.9-0.1v8.9h-5.6V123.7z M246.7,135c0.5,0.1,1.1,0.1,1.9,0.1c3,0,4.8-1.5,4.8-4.1
				c0-2.3-1.6-3.6-4.4-3.6c-1.1,0-1.9,0.1-2.3,0.2V135z"/>
		</g>
		<g>
			<path class="st4" d="M285.3,135.5c0,8.1-4.9,13.1-12.2,13.1c-7.4,0-11.7-5.6-11.7-12.6c0-7.4,4.8-13,12.1-13
				C281.1,123,285.3,128.7,285.3,135.5z M267.4,135.9c0,4.9,2.3,8.3,6,8.3c3.8,0,6-3.6,6-8.4c0-4.5-2.1-8.3-6-8.3
				C269.6,127.4,267.4,131.1,267.4,135.9z"/>
		</g>
		<g>
			<path class="st4" d="M292.7,128.1h-6.7v-4.7h19.1v4.7h-6.8v20.1h-5.6V128.1z"/>
		</g>
	</g>
	<g>
		<g>
			<g>
				<circle class="st5" cx="323.3" cy="184.5" r="15.6"/>
			</g>
			<g>
				<g>
					<path class="st4" d="M321,188.2l-1.1,3.9h-3.6l4.7-15.3h4.5l4.7,15.3h-3.7l-1.2-3.9H321z M324.9,185.6l-1-3.2
						c-0.3-0.9-0.5-2-0.8-3h0c-0.2,0.9-0.5,2.1-0.7,3l-0.9,3.2H324.9z"/>
				</g>
			</g>
		</g>
		<g>
			<g>
				<circle class="st5" cx="323.3" cy="266" r="15.6"/>
			</g>
			<g>
				<g>
					<path class="st4" d="M321,269.7l-1.1,3.9h-3.6l4.7-15.3h4.5l4.7,15.3h-3.7l-1.2-3.9H321z M324.9,267.1l-1-3.2
						c-0.3-0.9-0.5-2-0.8-3h0c-0.2,0.9-0.5,2.1-0.7,3l-0.9,3.2H324.9z"/>
				</g>
			</g>
		</g>
		<g>
			<g>
				<circle class="st5" cx="323.3" cy="306.7" r="15.6"/>
			</g>
			<g>
				<g>
					<path class="st4" d="M321,310.4l-1.1,3.9h-3.6L321,299h4.5l4.7,15.3h-3.7l-1.2-3.9H321z M324.9,307.8l-1-3.2
						c-0.3-0.9-0.5-2-0.8-3h0c-0.2,0.9-0.5,2.1-0.7,3l-0.9,3.2H324.9z"/>
				</g>
			</g>
		</g>
		<g>
			<g>
				<circle class="st5" cx="323.3" cy="225.2" r="15.6"/>
			</g>
			<g>
				<g>
					<path class="st4" d="M317.1,217.1c1-0.2,3-0.3,4.9-0.3c2.3,0,3.7,0.2,4.9,0.9c1.2,0.6,2,1.8,2,3.3c0,1.5-0.9,2.9-2.8,3.6v0
						c1.9,0.5,3.3,2,3.3,4.1c0,1.5-0.7,2.7-1.7,3.5c-1.2,1-3.2,1.5-6.6,1.5c-1.9,0-3.2-0.1-4.1-0.2V217.1z M320.9,223.5h1.2
						c2,0,3-0.8,3-2.1c0-1.3-1-1.9-2.7-1.9c-0.8,0-1.3,0-1.6,0.1V223.5z M320.9,230.9c0.4,0,0.8,0,1.5,0c1.7,0,3.2-0.6,3.2-2.4
						c0-1.7-1.5-2.4-3.4-2.4h-1.3V230.9z"/>
				</g>
			</g>
		</g>
	</g>
	<g>
		<path class="st5" d="M299.9,386.2h-94.3c-9.1,0-16.5-7.4-16.5-16.5v-12.6c0-9.1,7.4-16.5,16.5-16.5h94.3c9.1,0,16.5,7.4,16.5,16.5
			v12.6C316.3,378.8,309,386.2,299.9,386.2z"/>
	</g>
	<g>
		<g>
			<path class="st4" d="M209.7,351.9h4.9v17.4h8.6v4.1h-13.4V351.9z"/>
		</g>
		<g>
			<path class="st4" d="M229.8,351.9v12.4c0,3.7,1.4,5.6,3.9,5.6c2.6,0,4-1.8,4-5.6v-12.4h4.9v12.1c0,6.6-3.4,9.8-9,9.8
				c-5.4,0-8.6-3-8.6-9.9v-12H229.8z"/>
		</g>
		<g>
			<path class="st4" d="M246.7,351.9h4.9v17.4h8.6v4.1h-13.4V351.9z"/>
		</g>
		<g>
			<path class="st4" d="M266.9,351.9v12.4c0,3.7,1.4,5.6,3.9,5.6c2.6,0,4-1.8,4-5.6v-12.4h4.9v12.1c0,6.6-3.4,9.8-9,9.8
				c-5.4,0-8.6-3-8.6-9.9v-12H266.9z"/>
		</g>
		<g>
			<path class="st4" d="M284,368.4c1.3,0.7,3.3,1.3,5.4,1.3c2.2,0,3.4-0.9,3.4-2.3c0-1.3-1-2.1-3.6-3c-3.6-1.2-5.9-3.2-5.9-6.4
				c0-3.7,3.1-6.5,8.1-6.5c2.4,0,4.2,0.5,5.5,1.1l-1.1,3.9c-0.9-0.4-2.4-1-4.5-1s-3.1,1-3.1,2.1c0,1.4,1.2,2,4,3
				c3.8,1.4,5.6,3.4,5.6,6.4c0,3.6-2.8,6.7-8.7,6.7c-2.5,0-4.9-0.6-6.1-1.3L284,368.4z"/>
		</g>
	</g>
</g>
</svg>
