<?xml version="1.0" encoding="utf-8"?>
<!-- Generator: Adobe Illustrator 24.2.0, SVG Export Plug-In . SVG Version: 6.00 Build 0)  -->
<svg version="1.1" id="Layer_1" xmlns="http://www.w3.org/2000/svg" xmlns:xlink="http://www.w3.org/1999/xlink" x="0px" y="0px"
	 viewBox="0 0 500 500" style="enable-background:new 0 0 500 500;" xml:space="preserve">
<style type="text/css">
	.st0{fill:#EAEAEA;}
	.st1{fill:#2490CF;}
	.st2{fill:#2F2E41;}
	.st3{fill:#6BBFEB;}
	.st4{fill:#F7B73C;}
	.st5{fill:#FFFFFF;}
</style>
<g>
	<g>
		<path class="st0" d="M428.4,216.1l-76.7,178.1c-9.3,21.5-34.3,31.5-55.8,22.2l-178.1-76.7c-21.5-9.3-31.5-34.3-22.2-55.8
			l76.7-178.1c9.3-21.5,34.3-31.5,55.8-22.2l178.1,76.7C427.7,169.6,437.7,194.6,428.4,216.1z"/>
	</g>
	<g>
		<g>
			<g>
				<path class="st1" d="M52.8,264.5c-15-3.2-29.4-8.9-42.6-16.6c-1.9,11.9-2.4,23.9-1.3,35.8c12.4,10.4,30.9,15.6,45.7,18.8
					c-14.6,2.3-29.3-0.5-43.7-4.8c2.4,12.4,6.5,24.6,12.4,36.1c2.4,4.8,5.2,9.3,8.3,13.7c9.4,3,21,5.5,35.6,9.4
					c15.9,2.4,33,1,46.9-7.2c-3.5,13.1-18.1,20-31.4,22.7c-7.4,1.5-16.3,1.6-26,0.3c0.2,0.2,0.4,0.3,0.6,0.5
					c35.6,26,82,28.6,119.2,9.3c0.8-0.4,1.7-0.9,2.5-1.3c0.8-0.5,1.6-0.9,2.5-1.4c9.1-5.3,17.6-12,25.1-20
					c14.6-15.6,24.2-34.6,23-57.3c-1.1-11.2-4.2-20.4-8.8-28c-11.6,34.1-32.7,62.2-57.6,68.3c13.1-12.6,40.6-59,41.8-85.4l0,0
					c-9.2-6.8-20.4-11.6-32.4-15.3c-0.6,0.2-1.1,0.4-1.7,0.6c-22.5,10.2-29.3,36.6-38.2,59.7c0.8-25.1,8.4-48.1,23.6-64.6
					c-10.4-2.4-21.1-4.3-31.4-6.3c-15.7,5.8-28.7,18.7-34.6,34.4c-2.6-14.6,5.4-26.6,13.3-38.9c-4.4-1.1-8.7-2.2-12.7-3.6
					c-19-5.9-37.6-14.8-52-28.4c-2.1-2-4.1-4.1-6.1-6.3c0,0,0,0,0,0.1l0,0c-0.6,0.9-1.1,1.8-1.6,2.7c-8.6,14.4-14.8,29.7-18.5,45.4
					C25.5,246.8,37.2,260.3,52.8,264.5z"/>
			</g>
			<g>
				<path class="st1" d="M30.9,191.5c15.8,32,34.7,63,56.2,92.3c17.5,23.8,36.6,46.6,57,67.6c12,12.4,23.1,22.8,32.4,31
					c17.6,15.6,29,23.6,29.2,23.7l3-4.4c-0.2-0.1-10.8-7.6-27.3-22.1c-9.5-8.4-21-19.1-33.6-32.1c-30.6-31.6-73.9-83.4-109.2-152.6
					c-2.1-2-4.1-4.1-6.1-6.3c0,0,0,0,0,0.1l0,0C31.9,189.7,31.4,190.6,30.9,191.5z"/>
			</g>
		</g>
		<g>
			<g>
				<path class="st1" d="M447.2,264.5c15-3.2,29.4-8.9,42.6-16.6c1.9,11.9,2.4,23.9,1.3,35.8c-12.4,10.4-30.9,15.6-45.7,18.8
					c14.6,2.3,29.3-0.5,43.7-4.8c-2.4,12.4-6.5,24.6-12.4,36.1c-2.4,4.8-5.2,9.3-8.3,13.7c-9.4,3-21,5.5-35.6,9.4
					c-15.9,2.4-33,1-46.9-7.2c3.5,13.1,18.1,20,31.4,22.7c7.4,1.5,16.3,1.6,26,0.3c-0.2,0.2-0.4,0.3-0.6,0.5
					c-35.6,26-82,28.6-119.2,9.3c-0.8-0.4-1.7-0.9-2.5-1.3c-0.8-0.5-1.6-0.9-2.5-1.4c-9.1-5.3-17.6-12-25.1-20
					c-14.6-15.6-24.2-34.6-23-57.3c1.1-11.2,4.2-20.4,8.8-28c11.6,34.1,32.7,62.2,57.6,68.3c-13.1-12.6-40.6-59-41.8-85.4l0,0
					c9.2-6.8,20.4-11.6,32.4-15.3c0.6,0.2,1.1,0.4,1.7,0.6c22.5,10.2,29.3,36.6,38.2,59.7c-0.8-25.1-8.4-48.1-23.6-64.6
					c10.4-2.4,21.1-4.3,31.4-6.3c15.7,5.8,28.7,18.7,34.6,34.4c2.6-14.6-5.4-26.6-13.3-38.9c4.4-1.1,8.7-2.2,12.7-3.6
					c19-5.9,37.6-14.8,52-28.4c2.1-2,4.1-4.1,6.1-6.3c0,0,0,0,0,0.1l0,0c0.6,0.9,1.1,1.8,1.6,2.7c8.6,14.4,14.8,29.7,18.5,45.4
					C474.5,246.8,462.8,260.3,447.2,264.5z"/>
			</g>
			<g>
				<path class="st1" d="M469.1,191.5c-15.8,32-34.7,63-56.2,92.3c-17.5,23.8-36.6,46.6-57,67.6c-12,12.4-23.1,22.8-32.4,31
					c-17.6,15.6-29,23.6-29.2,23.7l-3-4.4c0.2-0.1,10.8-7.6,27.3-22.1c9.5-8.4,21-19.1,33.6-32.1c30.6-31.6,73.9-83.4,109.2-152.6
					c2.1-2,4.1-4.1,6.1-6.3c0,0,0,0,0,0.1l0,0C468.1,189.7,468.6,190.6,469.1,191.5z"/>
			</g>
		</g>
	</g>
	<g>
		<path class="st2" d="M186.1,121.1l-60.8,13.2c-3.8,0.8-6.2,4.5-5.5,8.4l46,259.9c0.7,3.4,3.6,5.8,7,5.8l84.9,1.3h79.7
			c3.4,0,6.4-2.4,7-5.8l51.3-261.2c0.7-3.8-1.7-7.5-5.5-8.4l-60.8-13.2C282.2,110.9,233.4,110.9,186.1,121.1z"/>
	</g>
	<g>
		<path class="st3" d="M179.4,118.5l-60,13c-3.7,0.8-6.2,4.5-5.4,8.2L164.5,397c0.6,3.3,3.5,5.7,6.9,5.7H250h78.5
			c3.4,0,6.3-2.4,6.9-5.7L386,139.7c0.7-3.8-1.7-7.4-5.4-8.2l-60-13C274.1,108.4,225.9,108.4,179.4,118.5z"/>
	</g>
	<g>
		<circle class="st4" cx="343.7" cy="163.5" r="28.3"/>
	</g>
	<g>
		<g>
			<path class="st5" d="M339.5,170.3l-2,7.2H331l8.5-27.9h8.3l8.6,27.9h-6.8l-2.2-7.2H339.5z M346.6,165.6l-1.7-5.9
				c-0.5-1.7-1-3.7-1.4-5.4h-0.1c-0.4,1.7-0.8,3.8-1.3,5.4l-1.7,5.9H346.6z"/>
		</g>
	</g>
	<g>
		<path class="st5" d="M317.7,210.8H182.3c-4,0-7.2-3.2-7.2-7.2v0c0-4,3.2-7.2,7.2-7.2h135.3c4,0,7.2,3.2,7.2,7.2v0
			C324.9,207.5,321.7,210.8,317.7,210.8z"/>
		<path class="st5" d="M311.5,250.2h-123c-3.8,0-6.8-3.1-6.8-6.8v0c0-3.8,3.1-6.8,6.8-6.8h123c3.8,0,6.8,3.1,6.8,6.8v0
			C318.4,247.2,315.3,250.2,311.5,250.2z"/>
		<path class="st5" d="M305.4,289.7H194.6c-3.6,0-6.5-2.9-6.5-6.5v0c0-3.6,2.9-6.5,6.5-6.5h110.8c3.6,0,6.5,2.9,6.5,6.5v0
			C311.8,286.8,308.9,289.7,305.4,289.7z"/>
		<path class="st5" d="M299.2,329.1h-98.5c-3.4,0-6.1-2.7-6.1-6.1l0,0c0-3.4,2.7-6.1,6.1-6.1h98.5c3.4,0,6.1,2.7,6.1,6.1l0,0
			C305.3,326.4,302.6,329.1,299.2,329.1z"/>
		<path class="st5" d="M293.1,368.6h-86.2c-3.2,0-5.7-2.6-5.7-5.7v0c0-3.2,2.6-5.7,5.7-5.7h86.2c3.2,0,5.7,2.6,5.7,5.7v0
			C298.8,366,296.2,368.6,293.1,368.6z"/>
	</g>
	<g>
		<path class="st2" d="M317.7,214.4H182.3c-4,0-7.2-3.2-7.2-7.2v0c0-4,3.2-7.2,7.2-7.2h135.3c4,0,7.2,3.2,7.2,7.2v0
			C324.9,211.2,321.7,214.4,317.7,214.4z"/>
		<path class="st2" d="M311.5,253.8h-123c-3.8,0-6.8-3.1-6.8-6.8v0c0-3.8,3.1-6.8,6.8-6.8h123c3.8,0,6.8,3.1,6.8,6.8v0
			C318.4,250.8,315.3,253.8,311.5,253.8z"/>
		<path class="st2" d="M305.4,293.3H194.6c-3.6,0-6.5-2.9-6.5-6.5l0,0c0-3.6,2.9-6.5,6.5-6.5h110.8c3.6,0,6.5,2.9,6.5,6.5l0,0
			C311.8,290.4,308.9,293.3,305.4,293.3z"/>
		<path class="st2" d="M299.2,332.7h-98.5c-3.4,0-6.1-2.7-6.1-6.1l0,0c0-3.4,2.7-6.1,6.1-6.1h98.5c3.4,0,6.1,2.7,6.1,6.1l0,0
			C305.3,330,302.6,332.7,299.2,332.7z"/>
		<path class="st2" d="M293.1,372.2h-86.2c-3.2,0-5.7-2.6-5.7-5.7v0c0-3.2,2.6-5.7,5.7-5.7h86.2c3.2,0,5.7,2.6,5.7,5.7v0
			C298.8,369.6,296.2,372.2,293.1,372.2z"/>
	</g>
	<g>
		<g>
			<circle class="st4" cx="315.4" cy="206.9" r="16.3"/>
			<polygon class="st5" points="312.2,216.3 303.6,207.7 307.7,203.7 312.2,208.2 323.1,197.4 327.1,201.4 			"/>
		</g>
		<g>
			<circle class="st4" cx="310.2" cy="246.8" r="16.3"/>
			<polygon class="st5" points="307,256.2 298.4,247.6 302.5,243.6 307,248.1 317.9,237.3 321.9,241.3 			"/>
		</g>
		<g>
			<circle class="st4" cx="304.9" cy="286.7" r="16.3"/>
			<polygon class="st5" points="301.8,296.1 293.2,287.5 297.3,283.5 301.8,288 312.6,277.2 316.7,281.2 			"/>
		</g>
		<g>
			<circle class="st4" cx="299.7" cy="326.6" r="16.3"/>
			<polygon class="st5" points="296.6,336.1 288,327.5 292,323.4 296.6,327.9 307.4,317.1 311.5,321.1 			"/>
		</g>
		<g>
			<circle class="st4" cx="294.5" cy="366.5" r="16.3"/>
			<polygon class="st5" points="291.4,376 282.8,367.4 286.8,363.3 291.4,367.8 302.2,357 306.3,361.1 			"/>
		</g>
	</g>
	<g>
		<g>
			<path class="st5" d="M197.5,162.4c1.8,0.9,4.7,1.9,7.6,1.9c3.1,0,4.8-1.3,4.8-3.3c0-1.9-1.4-3-5.1-4.3c-5-1.8-8.3-4.5-8.3-8.9
				c0-5.2,4.3-9.1,11.5-9.1c3.4,0,5.9,0.7,7.7,1.5l-1.5,5.5c-1.2-0.6-3.4-1.4-6.3-1.4s-4.4,1.3-4.4,2.9c0,1.9,1.7,2.8,5.6,4.3
				c5.3,2,7.9,4.8,7.9,9c0,5.1-3.9,9.4-12.2,9.4c-3.5,0-6.9-0.9-8.6-1.8L197.5,162.4z"/>
		</g>
		<g>
			<path class="st5" d="M221.6,139.2h6.8v13.4h0.1c0.7-1.2,1.4-2.2,2.1-3.3l6.9-10.1h8.4l-10,12.9l10.6,17.4h-8l-7.4-13.1l-2.6,3.2
				v9.9h-6.8V139.2z"/>
		</g>
		<g>
			<path class="st5" d="M256,139.2v30.3h-6.9v-30.3H256z"/>
		</g>
		<g>
			<path class="st5" d="M262,139.2h6.9v24.5h12v5.8H262V139.2z"/>
		</g>
		<g>
			<path class="st5" d="M284.9,139.2h6.9v24.5h12v5.8h-18.9V139.2z"/>
		</g>
	</g>
</g>
</svg>
