<svg xmlns="http://www.w3.org/2000/svg" viewBox="0 0 67.24 67.24"><defs><style>.cls-1{fill:#ff8c1a;}.cls-2{fill:#fff;}</style></defs><g id="Layer_2" data-name="Layer 2"><g id="Layer_1-2" data-name="Layer 1"><circle class="cls-1" cx="33.62" cy="33.62" r="33.62"/><path class="cls-2" d="M50.42,18H16.82a6,6,0,0,0-6,6V43.23a6,6,0,0,0,6,6h33.6a6,6,0,0,0,6-6V24A6,6,0,0,0,50.42,18Zm0,28H16.82A2.83,2.83,0,0,1,14,43.23V24a2.73,2.73,0,0,1,.23-1.09L31.6,36.82a3.3,3.3,0,0,0,4,0L53,22.92A2.73,2.73,0,0,1,53.24,24V43.23A2.83,2.83,0,0,1,50.42,46.05ZM33.58,34.34,17.15,21.2H50.08Z"/></g></g></svg>