<svg xmlns="http://www.w3.org/2000/svg" viewBox="0 0 67.24 67.24"><defs><style>.cls-1{fill:#ff8c1a;}.cls-2{fill:#fff;}</style></defs><g id="Layer_2" data-name="Layer 2"><g id="Layer_1-2" data-name="Layer 1"><circle class="cls-1" cx="33.62" cy="33.62" r="33.62"/><path class="cls-2" d="M51.37,46.64h0l-1.21-1.23a46.31,46.31,0,0,0-3.93-3.71c-3.3-2.7-5.77-.86-7.24.24a4.83,4.83,0,0,1-2.15,1.13c-1,.11-2.63-1.8-3.44-2.73L33.1,40a26.91,26.91,0,0,1-4.85-7.91q-.12-.32-.3-.72c-1.17-2.79-1.17-3.59-1.07-3.81.24-.43.73-.65,1.57-1,1.39-.57,3.72-1.52,3.84-4.88A28.62,28.62,0,0,0,32,17.44c-.07-.66-.14-1.29-.19-1.91l0-.52c-.16-2.38-.34-5.08-4.36-6.32a8.57,8.57,0,0,0-7.1.82c-5.06,2.84-7.46,8.59-6.43,15.4a48.48,48.48,0,0,0,9.8,21.88c3.94,4.93,8.8,8.92,13.32,10.94A15.38,15.38,0,0,0,43.13,59a11.2,11.2,0,0,0,6.84-2l.1.08.52-.57s.12-.13.26-.29L51,56l-.61-.58.7.48.15-.18.33-.39.51-.64,0,0C53.74,52.35,54.56,49.8,51.37,46.64Zm-27.94-21c-1.24,2.22,0,5.13.92,7.34l.23.58a31.11,31.11,0,0,0,5.56,9.07l.3.33c1.52,1.74,3.82,4.37,6.82,4a8.25,8.25,0,0,0,4.09-1.89c1.39-1,1.47-1.09,2.39-.34a44.48,44.48,0,0,1,3.61,3.43l1.24,1.25c1.35,1.34,1.5,1.48-.45,3.8l-.07.09c-1.77,2.07-6.43,2.13-9.42.8-4-1.78-8.29-5.35-11.85-9.8a44.36,44.36,0,0,1-9-20C17.05,19.2,18.71,15,22.28,13a4.56,4.56,0,0,1,4-.48c1.42.43,1.43.57,1.58,2.8l0,.54c0,.68.12,1.38.2,2.09a25.79,25.79,0,0,1,.24,3.65c0,.75-.12.84-1.39,1.36A6.37,6.37,0,0,0,23.43,25.63ZM31,15.07Z"/></g></g></svg>