<svg xmlns="http://www.w3.org/2000/svg" viewBox="0 0 167.58 129.9"><defs><style>.cls-1{fill:#2f2e41;}</style></defs><g id="Layer_2" data-name="Layer 2"><g id="Layer_1-2" data-name="Layer 1"><path class="cls-1" d="M148.59,0H19A19,19,0,0,0,0,19v91.92a19,19,0,0,0,19,19h129.6a19,19,0,0,0,19-19V19A19,19,0,0,0,148.59,0Zm14.06,110.91a14.07,14.07,0,0,1-14.06,14H19a14.06,14.06,0,0,1-14-14V19a14.06,14.06,0,0,1,14-14h129.6a14.07,14.07,0,0,1,14.06,14Z"/><path class="cls-1" d="M147.93,8.31H19.65A11.15,11.15,0,0,0,8.52,19.44v91a11.15,11.15,0,0,0,11.13,11.13H147.93a11.14,11.14,0,0,0,11.13-11.13v-91A11.14,11.14,0,0,0,147.93,8.31ZM19.65,13.24H147.93a6.2,6.2,0,0,1,6.19,6.2V97.07H13.46V19.44A6.2,6.2,0,0,1,19.65,13.24ZM147.93,116.66H19.65a6.2,6.2,0,0,1-6.19-6.2V102H154.12v8.46A6.2,6.2,0,0,1,147.93,116.66Z"/><path class="cls-1" d="M83.79,106.07a3.65,3.65,0,1,0,3.64,3.65A3.64,3.64,0,0,0,83.79,106.07Z"/><polygon class="cls-1" points="45.73 114.23 45.73 105.2 37.09 109.72 45.73 114.23"/><polygon class="cls-1" points="121.85 114.23 130.49 109.72 121.85 105.2 121.85 114.23"/><path class="cls-1" d="M83.79,88.38A32.63,32.63,0,1,0,51.16,55.75,32.67,32.67,0,0,0,83.79,88.38Zm-2.47-60.2V39.87H71.91A51.21,51.21,0,0,1,79,28.48Q80.17,28.29,81.32,28.18Zm30.05,25.1h-6.9a39.92,39.92,0,0,0-1.23-8.47h6A27.63,27.63,0,0,1,111.37,53.28ZM81.32,71.63v11.7c-.77-.07-1.53-.17-2.29-.3a46.24,46.24,0,0,1-7.73-11.4ZM69.42,66.7A34,34,0,0,1,68,58.22H81.32V66.7Zm16.84,4.93h9.41A50.73,50.73,0,0,1,88.54,83q-1.12.19-2.28.3Zm0-4.93V58.22H99.41a40,40,0,0,1-1.54,7.63l-.27.85Zm18.08-8.48h7a27.62,27.62,0,0,1-2.15,8.48h-6.46A43.92,43.92,0,0,0,104.34,58.22Zm-4.77-4.94H86.26V44.81h11.9A34,34,0,0,1,99.57,53.28ZM86.26,39.87V28.18c.77.07,1.54.17,2.29.3a45.92,45.92,0,0,1,7.73,11.39Zm-4.94,4.94v8.47H68.17a40.12,40.12,0,0,1,1.55-7.62c.08-.29.17-.57.26-.85ZM63.24,53.28h-7a27.34,27.34,0,0,1,2.14-8.47h6.46A44,44,0,0,0,63.24,53.28Zm-.13,4.94a40.1,40.1,0,0,0,1.23,8.48h-6a27.33,27.33,0,0,1-2.14-8.48Zm-2,13.41H66A45.31,45.31,0,0,0,70.38,80,27.92,27.92,0,0,1,61.13,71.63Zm35.48,8.66a56.34,56.34,0,0,0,4.44-8.66h5.41A28,28,0,0,1,96.61,80.29Zm9.85-40.42h-4.84a45.34,45.34,0,0,0-4.42-8.34A28,28,0,0,1,106.46,39.87ZM71,31.22a56.19,56.19,0,0,0-4.44,8.65h-5.4A27.79,27.79,0,0,1,71,31.22Z"/></g></g></svg>