<svg xmlns="http://www.w3.org/2000/svg" viewBox="0 0 1920 1165.08"><defs><style>.cls-1{fill:none;}.cls-2{fill:#2490cf;}.cls-3{fill:#6cbdea;}</style></defs><g id="Layer_2" data-name="Layer 2"><g id="Layer_1-2" data-name="Layer 1"><path class="cls-1" d="M29.59,194.62c-2.4,8.32-4.59,16.94-7,25.41q2.21,5.86,4.8,11.72A156.85,156.85,0,0,0,29.59,194.62Z"/><path class="cls-1" d="M74.31,938.46c0-1.17-.11-2.34-.19-3.5-3.64.58-7.2,1.08-10.61,1.51A95.73,95.73,0,0,0,74.31,938.46Z"/><path class="cls-1" d="M0,1012.29v11.48c1.47.77,3,1.49,4.48,2.17C3,1022.05,1.47,1017.44,0,1012.29Z"/><path class="cls-1" d="M179.81,167.81c-3.51-15.52-8.09-30.23-21.44-39.6.69,1.52,1.3,3.08,1.88,4.65,2.27,3,4.43,6.18,6.44,9.41A174.09,174.09,0,0,1,179.81,167.81Z"/><path class="cls-2" d="M123.42,214.08c-1.16-28.93-15.14-57-37.21-80.68,12.85,29.22,30.74,59.65,19.36,89.48-.34.72-.69,1.43-1,2.12-1.1.58-2.19,1.14-3.29,1.7a811.64,811.64,0,0,1,71.36,99.51,207.6,207.6,0,0,0,18.77-60.43c-18-11.32-34.46-27.34-55-31A186.68,186.68,0,0,1,193,251.41a188.33,188.33,0,0,0-2.28-46.21c-9.41-6.61-21-11-32.72-14,0,0,0,0,0,0C146.65,198.85,135.12,206.8,123.42,214.08Z"/><path class="cls-2" d="M179.81,167.81a174.09,174.09,0,0,0-13.12-25.54c-2-3.23-4.17-6.36-6.44-9.41a77.08,77.08,0,0,1,.7,50.86,191.55,191.55,0,0,1,25.68,3.67c-1.15-4.07-2.46-8.1-3.9-12.09l-1.15.68C181,173.25,180.42,170.52,179.81,167.81Z"/><path class="cls-2" d="M0,223.89v41.74c8.11-8.46,13.55-19.21,17.8-30.88A89.92,89.92,0,0,1,0,223.89Z"/><path class="cls-2" d="M60.93,240.54h0C45.2,223.32,32.26,186.3,25.83,157.09q-6.46-6-12.56-11.48c-4.46,21.65-.62,48.06,9.27,74.42,2.46-8.47,4.65-17.09,7.05-25.41a156.85,156.85,0,0,1-2.25,37.13q1.68,3.8,3.53,7.57-2.41-.6-4.83-1.38c-3.71,15.73-10.19,30.17-19.64,42.44C20.05,282.3,34,283.6,47.54,285a76.75,76.75,0,0,0,40.75-48.1c5,18.51-4.06,34.9-12.83,51.55,5.8.9,11.41,1.93,16.75,3.18,25.14,5.49,50.05,14.9,70.06,30.84a806.53,806.53,0,0,0-67.44-92.66C83.62,235,72.3,238.87,60.93,240.54Z"/><path class="cls-2" d="M21.44,124.26a62.48,62.48,0,0,0-6.24,13.91c2.8,2.49,5.6,5,8.37,7.52C22.07,137,21.31,129.51,21.44,124.26Z"/><path class="cls-2" d="M23.57,145.69c-2.77-2.53-5.57-5-8.37-7.52a76.44,76.44,0,0,0-1.93,7.44q6.09,5.44,12.56,11.48C25,153.13,24.2,149.3,23.57,145.69Z"/><path class="cls-2" d="M94.83,229.82a806.53,806.53,0,0,1,67.44,92.66,113,113,0,0,1,8.49,7.46l.05-.09h0c.62-1.2,1.22-2.41,1.81-3.63a811.64,811.64,0,0,0-71.36-99.51Q98.05,228.32,94.83,229.82Z"/><path class="cls-3" d="M26,237.94q2.41.78,4.83,1.38-1.85-3.78-3.53-7.57-2.6-5.85-4.8-11.72c-9.89-26.36-13.73-52.77-9.27-74.42a76.44,76.44,0,0,1,1.93-7.44,62.48,62.48,0,0,1,6.24-13.91c-.13,5.25.63,12.72,2.13,21.43.63,3.61,1.38,7.44,2.26,11.4,6.43,29.21,19.37,66.23,35.09,83.45h0c11.37-1.67,22.69-5.54,33.9-10.72q3.23-1.5,6.43-3.12c1.1-.56,2.19-1.12,3.29-1.7.33-.69.68-1.4,1-2.12,11.38-29.83-6.51-60.26-19.36-89.48,22.07,23.69,36.05,51.75,37.21,80.68,11.7-7.28,23.23-15.23,34.53-22.84,0,0,0,0,0,0a72.79,72.79,0,0,0,3-7.48,77.08,77.08,0,0,0-.7-50.86c-.58-1.57-1.19-3.13-1.88-4.65,13.35,9.37,17.93,24.08,21.44,39.6.61,2.71,1.19,5.44,1.77,8.17l1.15-.68c4.63-2.77,9.22-5.34,13.74-7.63,22.81-11.9,48-20.66,73.53-21.26C174.7,115.08,87.87,107.08,31,106c-11.06-.22-21.43-.19-31,0V223.89a89.92,89.92,0,0,0,17.8,10.86A74.7,74.7,0,0,0,26,237.94Z"/><path class="cls-3" d="M31,99.1a834.41,834.41,0,0,1,113.8,10.08,814.27,814.27,0,0,1,135.59,33.45A207.8,207.8,0,0,0,256,84.22c-21,2.85-44,1.13-62.11,11.53A186.65,186.65,0,0,1,248,72.19a188.48,188.48,0,0,0-31.39-34C195.71,40,174.08,52,157.64,62.53,169,47.09,185,36.32,202.06,27.14A175.36,175.36,0,0,0,157.82,5.31a140,140,0,0,0-20.09-5c-11.32,5.82-24.26,14.15-41.16,23.8C79.75,36.41,65.45,53.25,60.19,73.4c-8.74-15.16-1.6-34.85,8.1-49.42,5.39-8.11,13.49-16.34,23.5-24l-1,.15A147,147,0,0,0,0,51.3V99.11C9.58,98.91,19.93,98.88,31,99.1Z"/><path class="cls-3" d="M31,106c56.85,1.11,143.68,9.11,239,40.44,3.76-.09,7.53,0,11.3.27a.44.44,0,0,0,0-.1h0c-.3-1.33-.61-2.64-.94-4a814.27,814.27,0,0,0-135.59-33.45A834.41,834.41,0,0,0,31,99.1c-11-.22-21.37-.19-30.95,0V106C9.59,105.78,20,105.75,31,106Z"/><path class="cls-2" d="M4.48,1025.94c-1.51-.68-3-1.4-4.48-2.17v3a65.56,65.56,0,0,0,7.26,5.59C6.35,1030.51,5.42,1028.37,4.48,1025.94Z"/><path class="cls-2" d="M42,895.72c.65.52,1.31,1,2,1.6,24.85,23.87,21.39,61.82,22.3,96.27,5.92-18.54,8.77-37.23,8-55.13a95.73,95.73,0,0,1-10.8-2c3.41-.43,7-.93,10.61-1.51a115.13,115.13,0,0,0-8.66-37.27c14.77,1.72,29.69,4.18,44.22,6.4a80.15,80.15,0,0,1,14,15.18c1.88-1.09,3.72-2.23,5.47-3.46a203.25,203.25,0,0,0,2.46-49.87,201.94,201.94,0,0,1-61.12,17.95c22.22-3.95,40-21.25,59.42-33.46a224,224,0,0,0-20.27-65.22A877.15,877.15,0,0,1,30.21,895.49Q36.06,895.45,42,895.72Z"/><path class="cls-2" d="M98.49,789.23C76.9,806.44,50,816.59,22.88,822.52,17.11,823.86,11.06,825,4.8,826c9.47,18,19.21,35.66,13.85,55.63A82,82,0,0,0,0,848.38v50.24a132.38,132.38,0,0,1,20.1-2.77A872,872,0,0,0,98.49,789.23Z"/><path class="cls-2" d="M30.21,895.49a877.15,877.15,0,0,0,79.45-110.28c-.63-1.32-1.28-2.62-1.94-3.93h0l-.06-.1q-4.39,4.26-9.17,8.05A872,872,0,0,1,20.1,895.85C23.43,895.63,26.8,895.52,30.21,895.49Z"/><path class="cls-3" d="M132.09,1121.55l1.06-.31c-13.3-2.85-25-7.15-34-12.59C83,1098.89,67,1083,68.5,1064.14c14.41,17.24,36.13,27.09,58.19,31.33,20.94,1.65,37.42,3.82,51.15,4.28a150.33,150.33,0,0,0,17.32-14.09A189.26,189.26,0,0,0,228.29,1044c-20.85-1.12-41.49-4.25-59.65-14.1,20.91,2.73,47.56,4.51,68.75-3.39a203.22,203.22,0,0,0,15-47.63,201.56,201.56,0,0,1-63.67,1.91c22.49,1.8,44.09-10.43,65.94-17.34a223.84,223.84,0,0,0-3.11-68.23,879.63,879.63,0,0,1-117,95.08,901,901,0,0,1-106.45,62.23c-9.88,4.9-19.29,9.32-28.13,13.3v36.57A158.69,158.69,0,0,0,132.09,1121.55Z"/><path class="cls-3" d="M25,1045.77c55-27.26,136.06-75,214.68-149.5-25.24,11.19-53.82,14.21-81.57,13.09-5.92-.16-12.06-.61-18.36-1.25,4.62,19.78,9.57,39.35-.67,57.32a82.52,82.52,0,0,0-15.41-46.16,80.15,80.15,0,0,0-14-15.18c-14.53-2.22-29.45-4.68-44.22-6.4A115.13,115.13,0,0,1,74.12,935c.08,1.16.14,2.33.19,3.5.74,17.9-2.11,36.59-8,55.13-.91-34.45,2.55-72.4-22.3-96.27-.66-.55-1.32-1.08-2-1.6q-6-.27-11.8-.23c-3.41,0-6.78.14-10.11.36A132.38,132.38,0,0,0,0,898.62v113.67c1.47,5.15,3,9.76,4.48,13.65.94,2.43,1.87,4.57,2.78,6.39A65.56,65.56,0,0,1,0,1026.74v30.93Q11.9,1052.27,25,1045.77Z"/><path class="cls-3" d="M134.58,990.28a879.63,879.63,0,0,0,117-95.08c-.28-1.44-.58-2.86-.89-4.29h0l0-.1q-5.34,3-10.91,5.47C161.09,970.72,80,1018.51,25,1045.77q-13.11,6.51-25,11.9v8.14c8.84-4,18.25-8.4,28.13-13.3A901,901,0,0,0,134.58,990.28Z"/><path class="cls-1" d="M1898.58,1037.1a183,183,0,0,0-30.41,31q7.08-2.33,13.9-5C1887.49,1054.33,1893.26,1045.69,1898.58,1037.1Z"/><path class="cls-1" d="M1853.88,162.75c-.07-1.21-.13-2.41-.19-3.62l-6.29-.15c-.24,1.75-.44,3.49-.62,5.23C1849.14,163.77,1851.51,163.29,1853.88,162.75Z"/><path class="cls-1" d="M1849.9,875.55q2.73-1.09,5.53-2c-18.52-4.24-34.82,3.25-51,12.32a203.63,203.63,0,0,1,32.27-8.54Q1843.29,876.16,1849.9,875.55Z"/><path class="cls-1" d="M1848.5,65.12l-.19-.05.18.19S1848.49,65.17,1848.5,65.12Z"/><path class="cls-3" d="M1780.25,143.58a57,57,0,0,1-8.35-7.37c-.54-.66-1.05-1.31-1.55-2-.52-17.22.77-33.79,5.55-48.75h0c21.74-6.35,58.21-2.72,87.85,3.69q8.71-5,17.51-9.78a128.6,128.6,0,0,0-32.76-14.29s0,.1,0,.14l-.18-.19c-17.4-5-37-7.57-57.23-7.6a82.93,82.93,0,0,1,19-16.52,123.13,123.13,0,0,0-19.57-4.81c-20.6-1-36.82-2.7-50.31-2.78a147.48,147.48,0,0,0-16.6,14.32,185.47,185.47,0,0,0-31.35,41.82c20.49.52,40.83,3,58.93,12.17-20.6-2.1-46.8-3.1-67.37,5.25a199.38,199.38,0,0,0-13.38,47.15,198.38,198.38,0,0,1,62.42-3.65c-22.12-1.14-43,11.47-64.22,18.86a219.6,219.6,0,0,0,5,66.87A862.24,862.24,0,0,1,1780.25,143.58Z"/><path class="cls-3" d="M1846.78,164.21c.18-1.74.38-3.48.62-5.23-21.48-.57-43.06-1.74-60.47-11.19q-6.75,4.91-13.59,10.11C1795.59,167.33,1821,169,1846.78,164.21Z"/><path class="cls-3" d="M1866.06,159.51c-4.08-.17-8.21-.27-12.37-.38.06,1.21.12,2.41.19,3.62Q1860,161.35,1866.06,159.51Z"/><path class="cls-3" d="M1784.49,10.7l-1,.33c13.12,2.43,24.71,6.32,33.7,11.41a90.63,90.63,0,0,1,13,8.89c26.61-8.47,53.06-4.17,77.61,7,4.2,1.91,8.26,4,12.2,6.26V29.27A155.73,155.73,0,0,0,1784.49,10.7Z"/><path class="cls-3" d="M1685.17,234.77c24.46-11.69,52.42-15.45,79.68-15.12l10.57-34.33c-1.22-8.8-2.39-17.66-3.31-26.49A853.58,853.58,0,0,0,1685.17,234.77Z"/><path class="cls-3" d="M1905,102.15a70.66,70.66,0,0,0-17-18.09q-6.64,3.57-13.77,7.58C1887.35,95,1898.38,98.72,1905,102.15Z"/><path class="cls-3" d="M1874.19,91.64q7.11-4,13.77-7.58c-2.13-1.63-4.37-3.18-6.7-4.65q-8.79,4.77-17.51,9.78C1867.34,90,1870.84,90.79,1874.19,91.64Z"/><path class="cls-3" d="M1772,157.3c.46.21.93.4,1.39.6q6.86-5.21,13.59-10.11a59.86,59.86,0,0,1-6.68-4.21,862.24,862.24,0,0,0-106.65,92.57c.31,1.4.64,2.79,1,4.18h0l0,.1q5.16-3.1,10.55-5.67a853.58,853.58,0,0,1,86.94-75.94C1772.06,158.32,1772,157.81,1772,157.3Z"/><path class="cls-2" d="M1861.81,226.51a863.52,863.52,0,0,1-95,113.41A220,220,0,0,0,1833.7,344c7.1-21.35,19.43-42.37,18-64.47a198.26,198.26,0,0,1-2.81,62.47,199.43,199.43,0,0,0,47-14c8.07-20.68,6.71-46.86,4.34-67.44,9.4,18,12.17,38.28,13,58.77,2.31-1.31,4.59-2.69,6.85-4.11V131.47A886.11,886.11,0,0,1,1861.81,226.51Z"/><path class="cls-2" d="M1830.19,31.33c-2.23.71-4.47,1.5-6.7,2.39a104.4,104.4,0,0,0-13.4,7.23,82.93,82.93,0,0,0-19,16.52c20.22,0,39.83,2.57,57.23,7.6l.19.05a128.6,128.6,0,0,1,32.76,14.29c2.33,1.47,4.57,3,6.7,4.65a70.66,70.66,0,0,1,17,18.09c-6.57-3.43-17.6-7.19-30.76-10.51-3.35-.85-6.85-1.67-10.44-2.45-29.64-6.41-66.11-10-87.85-3.69h0c-4.78,15-6.07,31.53-5.55,48.75.5.65,1,1.3,1.55,2a57,57,0,0,0,8.35,7.37,59.86,59.86,0,0,0,6.68,4.21c17.41,9.45,39,10.62,60.47,11.19l6.29.15c4.16.11,8.29.21,12.37.38q-6.09,1.85-12.18,3.24c-2.37.54-4.74,1-7.1,1.46-25.82,4.75-51.19,3.12-73.44-6.31-.46-.2-.93-.39-1.39-.6,0,.51.11,1,.16,1.53.92,8.83,2.09,17.69,3.31,26.49.72,5.2,1.45,10.36,2.15,15.48a81.28,81.28,0,0,0,59.79,29.79c-17.79,9.79-36.93,4.64-56.28-.18.54,6.19.89,12.22,1,18,.69,27.25-2.69,55.26-14,79.87,74.24-76.08,122.34-154.95,149.9-208.53.71-1.38,1.42-2.76,2.11-4.13v-71c-3.94-2.24-8-4.35-12.2-6.26C1883.25,27.16,1856.8,22.86,1830.19,31.33Z"/><path class="cls-2" d="M1917.89,119.79c-27.56,53.58-75.66,132.45-149.9,208.53a119.1,119.1,0,0,1-5.53,10.63l.11,0h0c1.4.33,2.8.64,4.2.94a863.52,863.52,0,0,0,95-113.41,886.11,886.11,0,0,0,58.19-95V115.66C1919.31,117,1918.6,118.41,1917.89,119.79Z"/><path class="cls-2" d="M1900.38,1086.3a107,107,0,0,1-27.36-7.59c-9.88,18.67-16.15,38-11.43,58.66.27.9.55,1.77.83,2.62,15.38,11.13,31.29,20.2,47.88,25.09h0a84.67,84.67,0,0,0,9.69-9.59v-69A105.72,105.72,0,0,1,1900.38,1086.3Z"/><path class="cls-2" d="M1849.9,875.55q-6.62.62-13.17,1.78a203.63,203.63,0,0,0-32.27,8.54c-2.87,1.61-5.73,3.27-8.59,4.92-.1-.51-.21-1-.31-1.53q-6.88,2.81-13.54,6.08a223.6,223.6,0,0,1,23.27,19.38A90,90,0,0,1,1849.9,875.55Z"/><path class="cls-2" d="M1834.27,1045.86c-7.44-11.16-12.94-24-17.22-37.78a941.52,941.52,0,0,0-133,14c29.46,4.87,57.1,19.11,81.52,36.59,5.26,3.66,10.54,7.71,15.86,12,7.57-20.63,14.71-41.27,34.64-51.43a89.55,89.55,0,0,0-9.82,72.93c11.82,10.64,23.85,21.71,36.19,32,3.24-17.79,10.7-34.7,21.43-50.21-1.71-1-3.37-2-5-3.11q4.71-1.35,9.33-2.87a183,183,0,0,1,30.41-31c-5.32,8.59-11.09,17.23-16.51,26a210.39,210.39,0,0,0,37.93-19.31V1018.6c-28.37,14.51-62.5,27.4-85.72,27.27Z"/><path class="cls-2" d="M1813.62,995.9c.34-.83.69-1.68,1.05-2.54,16.94-33.2,57.32-41.49,92.7-53.21-37.8-.6-73,9.23-99,30.85-2.84-15.83-5-32-7.21-47.79l0-.06c-11.79-7.81-24.64-14.41-37.74-17.4a220.1,220.1,0,0,0-41.83,34.17,218.08,218.08,0,0,1,58.7,36.07c-19.26-15-46-16.74-69.91-23.47a242.18,242.18,0,0,0-37.7,63.54,948.91,948.91,0,0,1,142-16C1814.35,998.69,1814,997.3,1813.62,995.9Z"/><path class="cls-2" d="M1814.72,1000.07a948.91,948.91,0,0,0-142,16c-.6,1.46-1.17,2.92-1.74,4.4h0a.49.49,0,0,0,0,.11c4.41.29,8.78.81,13.11,1.53a941.52,941.52,0,0,1,133-14C1816.23,1005.45,1815.46,1002.78,1814.72,1000.07Z"/><path class="cls-3" d="M1791.42,871.39c1.56,5.71,2.91,11.69,4.14,17.87.1.51.21,1,.31,1.53,2.86-1.65,5.72-3.31,8.59-4.92,16.15-9.07,32.45-16.56,51-12.32q-2.81.9-5.53,2a90,90,0,0,0-44.61,39.17,85.44,85.44,0,0,0-4.14,8.43l0,.06c2.25,15.74,4.37,32,7.21,47.79,26-21.62,61.24-31.45,99-30.85-35.38,11.72-75.76,20-92.7,53.21-.36.86-.71,1.71-1.05,2.54.36,1.4.73,2.79,1.1,4.17.74,2.71,1.51,5.38,2.33,8,4.28,13.78,9.78,26.62,17.22,37.78h0c23.22.13,57.35-12.76,85.72-27.27V913.19A958.77,958.77,0,0,0,1752.34,791C1771.83,813.66,1783.9,842.31,1791.42,871.39Z"/><path class="cls-3" d="M1912.92,822.82c-3.71-22.52-10.21-50.67-25-70.13a219.65,219.65,0,0,0-54-.62,218.48,218.48,0,0,1,21.9,65.33c-5.18-23.86-24.6-42.39-38.6-62.86a242.42,242.42,0,0,0-69.67,24.58,949.51,949.51,0,0,1,135,91.35q19.1,15.43,37.43,31.86V759.67c-3.69-1.11-7.41-2.13-11.15-3C1914.22,778.58,1917.44,800.92,1912.92,822.82Z"/><path class="cls-3" d="M1868.17,1068.09q-4.62,1.52-9.33,2.87c1.61,1.08,3.27,2.11,5,3.11a87.87,87.87,0,0,0,9.2,4.64,107,107,0,0,0,27.36,7.59,105.72,105.72,0,0,0,19.62.2v-42.73a210.39,210.39,0,0,1-37.93,19.31Q1875.26,1065.76,1868.17,1068.09Z"/><path class="cls-3" d="M1747.53,779.12c-1.39.73-2.78,1.49-4.16,2.26h0l-.1.07q4.79,4.57,9.07,9.58A958.77,958.77,0,0,1,1920,913.19V902.33q-18.32-16.4-37.43-31.86A949.51,949.51,0,0,0,1747.53,779.12Z"/></g></g></svg>