<svg xmlns="http://www.w3.org/2000/svg" viewBox="0 0 167.71 130"><defs><style>.cls-1{fill:#2f2e41;}</style></defs><g id="Layer_2" data-name="Layer 2"><g id="Layer_1-2" data-name="Layer 1"><path class="cls-1" d="M148.71,0H19A19,19,0,0,0,0,19v92a19,19,0,0,0,19,19h129.7a19,19,0,0,0,19-19V19A19,19,0,0,0,148.71,0Zm14.06,111a14.08,14.08,0,0,1-14.06,14.07H19A14.08,14.08,0,0,1,4.94,111V19A14.08,14.08,0,0,1,19,4.94h129.7A14.08,14.08,0,0,1,162.77,19Z"/><path class="cls-1" d="M148,8.31H19.67A11.16,11.16,0,0,0,8.53,19.45v91.1a11.16,11.16,0,0,0,11.14,11.14H148a11.16,11.16,0,0,0,11.14-11.14V19.45A11.16,11.16,0,0,0,148,8.31Zm6.2,102.24a6.21,6.21,0,0,1-6.2,6.2H19.67a6.21,6.21,0,0,1-6.2-6.2v-8.47H154.24Zm0-13.41H13.47V19.45a6.21,6.21,0,0,1,6.2-6.2H148a6.21,6.21,0,0,1,6.2,6.2Z"/><path class="cls-1" d="M83.86,113.44a3.64,3.64,0,1,0-3.65-3.64A3.64,3.64,0,0,0,83.86,113.44Z"/><polygon class="cls-1" points="45.77 105.28 37.12 109.8 45.77 114.32 45.77 105.28"/><polygon class="cls-1" points="121.94 105.28 121.94 114.32 130.59 109.8 121.94 105.28"/><path class="cls-1" d="M131.12,48.73a8,8,0,0,0-8-8H102.81V36.63L84,18,65.09,36.63v4.09H44.6a8,8,0,0,0-8,8V86.22H25.11v4.94h117.5V86.22H131.12Zm-66,37.49H41.53V48.73a3.07,3.07,0,0,1,3.07-3.07H65.09Zm32.78-45.5v45.5H70V38.69L84,25,97.87,38.69Zm28.31,45.5H102.81V45.66h20.31a3.07,3.07,0,0,1,3.06,3.07Z"/><path class="cls-1" d="M73.38,47.9A10.58,10.58,0,1,0,84,37.33,10.58,10.58,0,0,0,73.38,47.9Zm16.21,0A5.64,5.64,0,1,1,84,42.27,5.64,5.64,0,0,1,89.59,47.9Z"/></g></g></svg>