<svg xmlns="http://www.w3.org/2000/svg" viewBox="0 0 102.4 102.4"><defs><style>.cls-1{fill:#2f2e41;}</style></defs><g id="Layer_2" data-name="Layer 2"><g id="Layer_1-2" data-name="Layer 1"><path class="cls-1" d="M51.2,0a51.2,51.2,0,1,0,51.2,51.2A51.26,51.26,0,0,0,51.2,0ZM4.31,53.33h15.1A62.63,62.63,0,0,0,22,70.89H8.59A46.71,46.71,0,0,1,4.31,53.33Zm49-26.08V4.31a47.34,47.34,0,0,1,6.57.76A75.08,75.08,0,0,1,74.42,27.25ZM76,31.51a57,57,0,0,1,2.82,17.56H53.33V31.51ZM49.07,27.25H29A83.71,83.71,0,0,1,42.5,5.07a47.34,47.34,0,0,1,6.57-.76Zm0,4.26V49.07H23.72a66.88,66.88,0,0,1,2.81-15c.27-.88.56-1.74.85-2.59Zm-26.56,1.2a69.58,69.58,0,0,0-3,16.36H4.31A46.71,46.71,0,0,1,8.59,31.51h14.3C22.76,31.91,22.63,32.31,22.51,32.71Zm1.08,20.62H49.07V70.89H26.41A57,57,0,0,1,23.59,53.33ZM49.07,75.15V98.09a47.34,47.34,0,0,1-6.57-.76A75.08,75.08,0,0,1,28,75.15Zm4.26,0H73.4A83.51,83.51,0,0,1,59.9,97.33a47.34,47.34,0,0,1-6.57.76Zm0-4.26V53.33H78.68a66.88,66.88,0,0,1-2.81,15c-.27.88-.56,1.74-.85,2.59Zm26.56-1.2a69.58,69.58,0,0,0,3-16.36H98.09a46.71,46.71,0,0,1-4.28,17.56H79.51C79.64,70.49,79.77,70.09,79.89,69.69ZM83,49.07a62.63,62.63,0,0,0-2.63-17.56H93.81a46.71,46.71,0,0,1,4.28,17.56Zm8.57-21.82H78.92A74.57,74.57,0,0,0,67.24,7.08,47.23,47.23,0,0,1,91.56,27.25Zm-56-20.31A90.2,90.2,0,0,0,24.4,27.25H10.84A47.32,47.32,0,0,1,35.55,6.94ZM10.84,75.15H23.48A74.57,74.57,0,0,0,35.16,95.32,47.23,47.23,0,0,1,10.84,75.15Zm56,20.31A90.2,90.2,0,0,0,78,75.15H91.56A47.27,47.27,0,0,1,66.85,95.46Z"/></g></g></svg>