<svg xmlns="http://www.w3.org/2000/svg" viewBox="0 0 140.74 82.32"><defs><style>.cls-1{fill:#2f2e41;}</style></defs><g id="Layer_2" data-name="Layer 2"><g id="Layer_1-2" data-name="Layer 1"><path class="cls-1" d="M115.87,31.22a24.17,24.17,0,0,0-7.48,1.17A41.49,41.49,0,0,0,95.41,10,39.43,39.43,0,0,0,69.23,0c-18.75,0-34.83,13.25-39,31.81a24.41,24.41,0,0,0-5.34-.59C11.16,31.22,0,42.68,0,56.77S11.16,82.32,24.87,82.32h91c13.71,0,24.87-11.46,24.87-25.55S129.58,31.22,115.87,31.22Zm0,47.1h-91c-11.57,0-21-9.67-21-21.55s9.41-21.56,21-21.56a20.67,20.67,0,0,1,6.11.93c1.22.68,10.66,6.24,12.45,17.26l3.84-.65C45.44,41.5,37.17,35.3,33.89,33.25,37.47,16.22,52.12,4,69.23,4c17.58,0,32.35,12.66,35.55,30.26-3.21,2.66-12.53,11.06-12.53,18.82h3.89c0-5.7,8.28-13.5,11.73-16.24a20.33,20.33,0,0,1,8-1.63c11.57,0,21,9.67,21,21.56S127.44,78.32,115.87,78.32Z"/></g></g></svg>