<svg xmlns="http://www.w3.org/2000/svg" viewBox="0 0 67.24 67.24"><defs><style>.cls-1{fill:#eaeaea;}.cls-2{fill:#2f2e41;}</style></defs><g id="Layer_2" data-name="Layer 2"><g id="Layer_1-2" data-name="Layer 1"><circle class="cls-1" cx="33.62" cy="33.62" r="33.62"/><path class="cls-2" d="M48.21,23.4a13.72,13.72,0,0,0-4.4-7.84l-1.26-1.1a13.59,13.59,0,0,0-17.84,0l-1.22,1.06A13.47,13.47,0,0,0,20.4,32L30.46,51.14a3.34,3.34,0,0,0,2.94,1.79h0a3.35,3.35,0,0,0,2.92-1.74l10.4-18.93A13.58,13.58,0,0,0,48.21,23.4Zm-24.82,7A10.14,10.14,0,0,1,25.71,18L26.93,17a10.21,10.21,0,0,1,13.39,0l1.26,1.1a10.1,10.1,0,0,1,2.2,12.54L33.45,49.57Z"/><path class="cls-2" d="M33.62,31.78a6.25,6.25,0,0,0,0-12.5h0a6.25,6.25,0,0,0,0,12.5Zm0-9.12a2.88,2.88,0,0,1,0,5.75h0a2.88,2.88,0,0,1,0-5.75Z"/></g></g></svg>