<svg xmlns="http://www.w3.org/2000/svg" viewBox="0 0 186.79 129.82"><defs><style>.cls-1{fill:#2f2e41;}</style></defs><g id="Layer_2" data-name="Layer 2"><g id="Layer_1-2" data-name="Layer 1"><path class="cls-1" d="M185.19,115.25l-9-13.37a9.28,9.28,0,0,0-4.72-3.62,12.3,12.3,0,0,0,3-8.1V12.33A12.34,12.34,0,0,0,162.15,0H24.64A12.34,12.34,0,0,0,12.31,12.33V90.16a12.3,12.3,0,0,0,3,8.1,9.28,9.28,0,0,0-4.72,3.62l-9,13.37a9.35,9.35,0,0,0,7.75,14.57h168.1a9.34,9.34,0,0,0,7.74-14.57ZM28.07,102.5h131.2l3.37,4.64h-138ZM17,12.33a7.61,7.61,0,0,1,7.6-7.6H162.15a7.61,7.61,0,0,1,7.6,7.6V90.16a7.61,7.61,0,0,1-7.6,7.6H24.64a7.61,7.61,0,0,1-7.6-7.6ZM66.33,125.09l3-4.23a5.91,5.91,0,0,1,4.83-2.18h38.43a5.91,5.91,0,0,1,4.83,2.18l3,4.23Zm115.19-2.45a4.54,4.54,0,0,1-4.07,2.45H126.27l-5-7a10.54,10.54,0,0,0-8.68-4.16H74.18a10.54,10.54,0,0,0-8.68,4.16l-5,7H9.35a4.61,4.61,0,0,1-3.83-7.19l9-13.38a4.61,4.61,0,0,1,3.82-2h3.8l-3,4.07a3.23,3.23,0,0,0-.31,3.39,3.54,3.54,0,0,0,3.2,1.91H165.19a3.54,3.54,0,0,0,3.19-1.89,3.23,3.23,0,0,0-.28-3.38l-3-4.1h3.29a4.6,4.6,0,0,1,3.82,2l9,13.38A4.55,4.55,0,0,1,181.52,122.64Z"/><path class="cls-1" d="M31,94.6H155.78a9.45,9.45,0,0,0,9.44-9.45V17.34a9.45,9.45,0,0,0-9.44-9.45H31a9.46,9.46,0,0,0-9.45,9.45V85.15A9.46,9.46,0,0,0,31,94.6ZM26.3,17.34A4.71,4.71,0,0,1,31,12.63H155.78a4.71,4.71,0,0,1,4.71,4.71V85.15a4.72,4.72,0,0,1-4.71,4.72H31a4.72,4.72,0,0,1-4.72-4.72Z"/><rect class="cls-1" x="19.06" y="116.08" width="27.26" height="4.73"/><rect class="cls-1" x="140.47" y="116.08" width="27.26" height="4.73"/><path class="cls-1" d="M51.3,48.76A12,12,0,0,0,61.45,30.31l7.16-4.68,8.22,7.62a24.72,24.72,0,0,0,1.61,39.07L74,78l-8.25-3.19a12,12,0,1,0-1.59,4.46l11.43,4.42,7-9a24.71,24.71,0,0,0,25.22-2.84l16,7.39,7.1-9.68a11.91,11.91,0,0,0,5,1.12,12,12,0,1,0-12-12,11.92,11.92,0,0,0,3.17,8.11l-4.81,6.56-10.76-5a24.75,24.75,0,0,0-30.7-37.88L69.11,19.65l-11,7.18a12,12,0,0,0-18.84,9.9A12,12,0,0,0,51.3,48.76ZM53.9,80.4a7.29,7.29,0,1,1,7.3-7.29A7.3,7.3,0,0,1,53.9,80.4Zm82-29a7.29,7.29,0,1,1-7.29,7.29A7.3,7.3,0,0,1,135.94,51.38ZM80.68,68.1a10.75,10.75,0,0,1,10.69-9.78h2.88a10.74,10.74,0,0,1,10.68,9.78,20,20,0,0,1-24.25,0ZM92.81,53.59a5.27,5.27,0,1,1,5.27-5.27A5.28,5.28,0,0,1,92.81,53.59Zm20-1.43A20,20,0,0,1,108.9,64.1a15.58,15.58,0,0,0-8.53-9.25,10,10,0,1,0-15.12,0,15.58,15.58,0,0,0-8.53,9.25,20,20,0,1,1,36.13-11.94ZM51.3,29.44A7.29,7.29,0,1,1,44,36.73,7.3,7.3,0,0,1,51.3,29.44Z"/></g></g></svg>