<svg xmlns="http://www.w3.org/2000/svg" viewBox="0 0 178.64 112.3"><defs><style>.cls-1{fill:#2f2e41;}</style></defs><g id="Layer_2" data-name="Layer 2"><g id="Layer_1-2" data-name="Layer 1"><path class="cls-1" d="M172.21,40.16H150.93V10.66A10.67,10.67,0,0,0,140.27,0h-119A10.67,10.67,0,0,0,10.65,10.66V78a10.63,10.63,0,0,0,2.64,7,8.06,8.06,0,0,0-4.08,3.12L1.39,99.69a8.09,8.09,0,0,0,6.7,12.61H172.21a6.44,6.44,0,0,0,6.43-6.43V46.58A6.43,6.43,0,0,0,172.21,40.16Zm-33.38,0H136a6.41,6.41,0,0,0-6.43,6.42h0V75.69H26.83a4.08,4.08,0,0,1-4.08-4.08V16.53a4.08,4.08,0,0,1,4.08-4.08H134.75a4.08,4.08,0,0,1,4.08,4.08ZM14.74,10.66a6.58,6.58,0,0,1,6.57-6.57h119a6.58,6.58,0,0,1,6.57,6.57v29.5h-3.92V16.53a8.18,8.18,0,0,0-8.17-8.17H26.83a8.18,8.18,0,0,0-8.17,8.17V71.61a8.18,8.18,0,0,0,8.17,8.17H129.6v4.78H21.31A6.58,6.58,0,0,1,14.74,78Zm114.86,82H21.31l3-4H129.6ZM57.38,108.2,60,104.54a5.13,5.13,0,0,1,4.18-1.88H97.41a5.13,5.13,0,0,1,4.18,1.88l2.61,3.66Zm51.85,0-4.31-6a9.16,9.16,0,0,0-7.51-3.6H64.17a9.14,9.14,0,0,0-7.51,3.6l-4.31,6H8.09A4,4,0,0,1,4.78,102L12.6,90.41a4,4,0,0,1,3.3-1.75h3.29l-2.62,3.52a2.78,2.78,0,0,0-.26,2.93,3,3,0,0,0,2.76,1.65H129.6v9.11h0v0q0,.3,0,.6l0,.24.06.38a2.5,2.5,0,0,0,.07.26c0,.11.05.22.08.33l.09.27c0,.07,0,.15.08.22Zm65.32-2.33a2.33,2.33,0,0,1-2.34,2.33H136a2.33,2.33,0,0,1-2.34-2.33V46.58a2.27,2.27,0,0,1,.19-.9A2.32,2.32,0,0,1,136,44.25h36.19a2.34,2.34,0,0,1,2.34,2.33Z"/><path class="cls-1" d="M166.83,46.62H141.41a5.18,5.18,0,0,0-5.18,5.17V93.67a4.7,4.7,0,0,0,4.69,4.69h26.4A4.7,4.7,0,0,0,172,93.67V51.79A5.19,5.19,0,0,0,166.83,46.62Zm1.08,47.05a.58.58,0,0,1-.59.59h-26.4a.59.59,0,0,1-.6-.59V51.79a1.09,1.09,0,0,1,1.09-1.08h25.42a1.08,1.08,0,0,1,1.08,1.08Z"/><path class="cls-1" d="M154.12,99.82a3.46,3.46,0,1,0,3.46,3.46A3.46,3.46,0,0,0,154.12,99.82Z"/></g></g></svg>