<svg xmlns="http://www.w3.org/2000/svg" xmlns:xlink="http://www.w3.org/1999/xlink" viewBox="0 0 555.4 626.333"><defs><style>.cls-1{fill:#2f2e41;}.cls-2{fill:url(#linear-gradient);}.cls-3,.cls-4{fill:none;}.cls-3{stroke:#fff;stroke-linecap:round;stroke-miterlimit:10;stroke-width:1.058px;}.cls-5{fill:url(#linear-gradient-2);}.cls-6{fill:url(#linear-gradient-3);}.cls-7{fill:#fff;}.cls-8{fill:url(#linear-gradient-4);}.cls-9{fill:#f4bc71;}.cls-10{fill:#ffb59e;}.cls-11{fill:#f4a690;}.cls-12{fill:#ed9885;}.cls-13{fill:#d8994e;}.cls-14{fill:#ffd097;}</style><linearGradient id="linear-gradient" x1="532.281" y1="521.691" x2="442.641" y2="486.051" gradientUnits="userSpaceOnUse"><stop offset="0" stop-color="#6cbdea"/><stop offset="1" stop-color="#2490cf"/></linearGradient><linearGradient id="linear-gradient-2" x1="493.339" y1="464.072" x2="405.499" y2="445.352" xlink:href="#linear-gradient"/><linearGradient id="linear-gradient-3" x1="82.256" y1="565.986" x2="111.083" y2="526.349" xlink:href="#linear-gradient"/><linearGradient id="linear-gradient-4" x1="17.945" y1="483.369" x2="143.225" y2="480.489" xlink:href="#linear-gradient"/></defs><g id="Layer_2" data-name="Layer 2"><g id="Layer_1-2" data-name="Layer 1"><path class="cls-1" d="M143.8,607.937c19.05-26.691-46.2-130.3-96.842-123.363-21.618,2.962-42.036,26.271-38.615,39.96,3.268,13.078,25.86,7.617,46.678,27.457,21.727,20.707,13.069,41.858,32.949,55.831C105.222,619.951,134.953,620.327,143.8,607.937Z"/><path class="cls-1" d="M463.7,581.162s.27,50.77-75.01,44.66l-11.64.05-96.37.46s-16.5-.33-30.68-1.68c-12.72-1.21-62.58-5.96-72.66-6.92l-1.78-.17-1.18-3.85-1.43-4.66-3.85-12.54-4.71-15.35-3-9.78-.64-2.08-.88-2.87,9.52.46.38.02,3.21.16,4.36.21,199.71,9.68,5.74.28,3.16.15,31.48,1.53Z"/><path class="cls-1" d="M154.75,551.8s-6.6-56.5-43.3-77.786-82.923-55.037-82.923-91.729S65.705,343.065,76.1,304.7,53.481,235.523,53.481,198.1s37.426-79.988,82.189-79.254,46.3,22.687,90.836,23.96,27.311-79,81.615-80.465,65.311,16.878,82.923,41.1,31.555,43.3,57.973,58.706,57.974,12.475,62.377,46.966-17.613,59.44-26.42,78.52.734,55.771,22.016,80.721,46.231,26.418,46.965,57.973-53.57,69.714-72.65,104.2-17.612,50.635-17.612,50.635H154.6Z"/><path class="cls-1" d="M543.16,319.421c-2.7-6.127-4.74-11.337-5.052-18.1-.193-4.178-.527-8.121-3.619-11.3-6.365-6.534-14.516-2.213-17.4,5.169a29.789,29.789,0,0,0-1.2,3.814,43.112,43.112,0,0,0-.938,30.256c2.957,8.431,9.676,19.794,17.662,24.356,6.734,3.847,15.237,1.6,18.087-5.887C554.238,338.457,546.761,327.59,543.16,319.421Z"/><path class="cls-1" d="M38.123,262.272a10.559,10.559,0,0,0-2.644.082,6.529,6.529,0,0,0-7.774,4.662,12.37,12.37,0,0,0-1.073,1.65c-1.894,3.559-1.889,7.427-1.816,11.306-2.978,6.128-6.466,12.287-.95,17.824,8.505,8.536,17.986-7.313,20.709-13.766C47.741,276.526,49.509,263.509,38.123,262.272Z"/><path class="cls-1" d="M237.577,89.18c-5.121-.237-8.91,3.093-10.418,7.521a15.875,15.875,0,0,0-2.92,9.048c-.053,4.674,4.845,6.738,8.65,4.963,6.22-2.9,9.841-9.118,10.436-15.784C243.611,91.731,240.456,89.313,237.577,89.18Z"/><path class="cls-2" d="M545.639,447.368c-5.566,9.157-12.332,17.509-18.036,26.575a86.371,86.371,0,0,0-7.343,14.094,110.423,110.423,0,0,0-4.519,15.478c-2.343,9.924-4.816,20.052-12.063,27.646-5.307,5.561-12.225,9.236-19.27,12.115-14.408,5.888-30.44,9.041-43.069,18.615-9.158,6.943-15.276,16.885-23.792,24.494-7.252,6.478-18.482,11.416-27.843,6.939a52.037,52.037,0,0,0,8.068-22.18,108.072,108.072,0,0,1,52.406-73.032c6.993-3.945,14.485-7.44,19.954-13.506,5.374-5.961,8.356-13.5,11.5-20.768,3.231-7.461,6.87-14.509,13-20.02,5.872-5.278,13.015-8.952,20.051-12.412,14.167-6.967,30.924-14.789,36.729-30.471C559.681,415.415,553.772,433.988,545.639,447.368Z"/><path class="cls-3" d="M527.494,443.228s-19.513,19.328-25.954,33.961-6.712,25.935-18.618,33.3S446.542,525.24,434.3,539.1s-12.61,27.193-44.6,54.22"/><path class="cls-4" d="M545.639,447.368c-5.566,9.157-12.332,17.509-18.036,26.575a86.371,86.371,0,0,0-7.343,14.094,110.423,110.423,0,0,0-4.519,15.478c-2.343,9.924-4.816,20.052-12.063,27.646-5.307,5.561-12.225,9.236-19.27,12.115-14.408,5.888-30.44,9.041-43.069,18.615-9.158,6.943-15.276,16.885-23.792,24.494-7.252,6.478-18.482,11.416-27.843,6.939a52.037,52.037,0,0,0,8.068-22.18,108.072,108.072,0,0,1,52.406-73.032c6.993-3.945,14.485-7.44,19.954-13.506,5.374-5.961,8.356-13.5,11.5-20.768,3.231-7.461,6.87-14.509,13-20.02,5.872-5.278,13.015-8.952,20.051-12.412,14.167-6.967,30.924-14.789,36.729-30.471C559.681,415.415,553.772,433.988,545.639,447.368Z"/><path class="cls-5" d="M494.073,383.511c1.038-19.484-.5-41.114-14.964-55.794-12.32-12.5-30.251-14.2-45.013-5.089-14.815,9.139-24.37,24.7-31.76,40a289.291,289.291,0,0,0-21.573,62.745c-9.818,43.935-10.679,89.492-6.927,134.207q.714,8.5,1.65,16.986a2.852,2.852,0,0,0,4.7,1.777,6.772,6.772,0,0,0,6.145.632c4.215-1.359,7.568-5.4,10.729-8.32q11.368-10.488,21.807-21.928A328.651,328.651,0,0,0,456.213,499.3C477.643,464.335,491.883,424.651,494.073,383.511Z"/><line class="cls-3" x1="444.779" y1="369.057" x2="377.009" y2="585.615"/><path class="cls-4" d="M494.073,383.511c1.038-19.484-.5-41.114-14.964-55.794-12.32-12.5-30.251-14.2-45.013-5.089-14.815,9.139-24.37,24.7-31.76,40a289.291,289.291,0,0,0-21.573,62.745c-9.818,43.935-10.679,89.492-6.927,134.207q.714,8.5,1.65,16.986a2.852,2.852,0,0,0,4.7,1.777,6.772,6.772,0,0,0,6.145.632c4.215-1.359,7.568-5.4,10.729-8.32q11.368-10.488,21.807-21.928A328.651,328.651,0,0,0,456.213,499.3C477.643,464.335,491.883,424.651,494.073,383.511Z"/><path class="cls-6" d="M197.79,573.452c-.807-.6-1.611-1.191-2.391-1.769-2.072-1.527-4.147-3.064-6.226-4.579q-2.863-2.1-5.739-4.188c-1.444-1.043-2.878-2.087-4.321-3.129-.262-.185-.523-.37-.775-.558q-3.7-2.667-7.391-5.306-6.813-4.863-13.668-9.662-23.529-16.5-47.45-32.443Q89.842,498.41,69.685,485.247q-5.457-3.567-10.9-7.128l-14.712-9.6c-7.745-5.048-15.657-11.3-24.8-13.477a20.413,20.413,0,0,0-4.378-.573,14.229,14.229,0,0,0-8.2,2.231,14.94,14.94,0,0,0-5.9,8.477c-2.283,7.918.667,15.727,5.373,22.116,5.264,7.135,12.276,13.111,18.876,18.956q7.077,6.272,14.5,12.16c2.232,1.794,4.494,3.548,6.782,5.284A484.043,484.043,0,0,0,91.668,554c14.855,8.833,40.556,21.667,61.427,31.81,3.93,1.909,7.686,3.723,11.171,5.385,12.093,5.808,20.87,9.925,21.97,10.494,2.55,1.307,5.368,3.077,8.318,4.436a26.5,26.5,0,0,0,3.1,1.232,16.366,16.366,0,0,0,3.29.73,10.8,10.8,0,0,0,5.635-.775,9.681,9.681,0,0,0,3.467-2.526c3.34-3.768,3.868-9.933,2.393-14.6C210.151,582.98,203.766,577.885,197.79,573.452Z"/><path class="cls-3" d="M36.934,490.522c57.307,49.63,152.969,103.2,173.108,114.266l.009,0"/><path class="cls-7" d="M419.859,460.464a1.521,1.521,0,0,0,.839,2.923A1.521,1.521,0,0,0,419.859,460.464Z"/><path class="cls-7" d="M19.678,480.287a1.521,1.521,0,0,0,.839,2.923A1.521,1.521,0,0,0,19.678,480.287Z"/><path class="cls-7" d="M97.972,541.16a1.373,1.373,0,0,0-.994-.551,1.154,1.154,0,0,0-.6.036l-.374.164a1.526,1.526,0,0,0-.536.561l-.144.362a1.507,1.507,0,0,0,.012.794l.161.56a1.143,1.143,0,0,0,.288.527,1.367,1.367,0,0,0,.994.55,1.143,1.143,0,0,0,.6-.035l.373-.164a1.521,1.521,0,0,0,.537-.561l.144-.362a1.507,1.507,0,0,0-.013-.794l-.16-.56A1.138,1.138,0,0,0,97.972,541.16Z"/><path class="cls-7" d="M102.024,516a1.521,1.521,0,0,0,.839,2.923A1.521,1.521,0,0,0,102.024,516Z"/><path class="cls-7" d="M98.317,437.711a1.522,1.522,0,0,0,.84,2.923A1.522,1.522,0,0,0,98.317,437.711Z"/><path class="cls-7" d="M93.925,384.452a1.522,1.522,0,0,0,.84,2.923A1.522,1.522,0,0,0,93.925,384.452Z"/><path class="cls-7" d="M160.887,457.3a1.521,1.521,0,0,0,.839,2.923A1.521,1.521,0,0,0,160.887,457.3Z"/><path class="cls-7" d="M474.387,447.833a1.521,1.521,0,0,0,.839,2.923A1.521,1.521,0,0,0,474.387,447.833Z"/><path class="cls-7" d="M474.3,384.251a1.521,1.521,0,0,0,.84,2.922A1.521,1.521,0,0,0,474.3,384.251Z"/><path class="cls-7" d="M428.168,337.527a1.521,1.521,0,0,0,.839,2.923A1.521,1.521,0,0,0,428.168,337.527Z"/><path class="cls-7" d="M421.431,265.557a1.521,1.521,0,0,0,.84,2.922A1.521,1.521,0,0,0,421.431,265.557Z"/><path class="cls-7" d="M388.127,299.353a1.521,1.521,0,0,0,.839,2.922A1.521,1.521,0,0,0,388.127,299.353Z"/><path class="cls-8" d="M172,362.209c-4.887,2.6-8.145,7.313-10.987,11.9-3.52,5.684-6.962,11.417-10.439,17.127-2.7,4.439-5.34,8.9-8.9,12.721-2.851,3.058-6.543,6.087-10.861,6.512-6.008.59-9.806-4.482-12.833-8.9a89.7,89.7,0,0,0-25.812-25.4c-9.529-6.048-21.127-11.058-32.6-8.277-9.687,2.349-17.55,10.1-17.648,20.421-.091,9.7,5.946,18.552,11.759,25.819,4.122,5.153,8.457,10.145,12.7,15.2l6.54,7.8a33.785,33.785,0,0,1,5.069,7.023c2.542,5.416-.162,10.4-4.616,13.719-4.573,3.41-9.9,4.866-15.175,6.761-8.644,3.1-20.059,9.756-16.659,20.763,2.652,8.585,12.9,12.293,21.085,11.472,5.541-.556,10.8-2.564,15.993-4.461a78.981,78.981,0,0,1,17.491-4.521c5.554-.685,11.552-1,17.046.274,4.769,1.106,10.083,4.706,7.9,10.322-2.069,5.33-8.106,8.133-13.032,10.145-5.649,2.308-11.536,3.951-17.314,5.9C80.174,518.071,69.2,523.2,63.366,533.193c-4.559,7.807-4.359,19.03,2.214,25.7,8.114,8.227,21.665,4.616,31.212,1.348a84.082,84.082,0,0,0,29.033-17.059c6.139-5.548,13.826-14.891,23.11-13.642a11.33,11.33,0,0,1,9.57,9.632,10.555,10.555,0,0,1-1.351,6.519,185.629,185.629,0,0,0-25.366,19.175c-6.461,5.83-14.653,14.512-12.412,24.084,2.542,10.855,15.563,12.223,24.657,10.221,11.122-2.448,21.4-7.921,30.885-14.064,10.238-6.626,20.046-14,29.788-21.331a296.918,296.918,0,0,0,29.488-24.806c17.545-17.176,32.193-38.555,36.73-63.072a70.187,70.187,0,0,0,1.258-17.533c-.363-5.14-1.832-10.43-5.506-14.209-3.306-3.4-8.2-5.436-12.927-4.223-4.828,1.24-7.911,5.428-10.253,9.545-3.15,5.538-5.944,11.2-9.494,16.513a133.591,133.591,0,0,1-12.079,15.489c-2.141,2.364-4.342,4.712-6.7,6.859-2.165,1.97-4.69,3.946-7.621,4.563a7.735,7.735,0,0,1-7.087-1.822c-2.014-2.125-1.46-5.238-.523-7.727,2.194-5.824,5.7-11.318,9.095-16.5,3.521-5.386,7.308-10.591,11.025-15.842,7.051-9.96,14.6-20.566,18.231-32.36,2.4-7.813,1.707-19.967-9.013-20.208-9.418-.212-17.509,7.079-22.693,14.2-5.754,7.907-9.746,16.923-15.32,24.946-2.8,4.027-5.992,8.055-10.192,10.689-4.147,2.6-10.111,4.5-14.772,2.121-4.726-2.413-5.414-7.95-4.462-12.648,1.089-5.374,4-10.338,6.8-14.98,6.336-10.5,14.3-20.159,19.015-31.571a44.5,44.5,0,0,0,3.594-16.605c.04-4.93-1.2-10.193-5.83-12.754C181.351,359.563,176.055,360.054,172,362.209Z"/><path class="cls-3" d="M83.843,413.694s80.995,81.4,132.213,149.52"/><path class="cls-3" d="M126.8,457.936s28.293-38.17,41.774-67.434"/><path class="cls-3" d="M63.355,479.148s33.411-6.771,58.857-24.746"/><path class="cls-3" d="M162.174,497.733s22.946-19.516,57.513-76.989"/><path class="cls-3" d="M76.741,544.414s51.065-18.235,81.635-50.076"/><path class="cls-3" d="M198.059,539.246s24.045-16.263,48.141-55.03"/><path class="cls-3" d="M132.1,584.2s38.022-20.44,66.25-40.363"/><path class="cls-4" d="M172,362.209c-4.887,2.6-8.145,7.313-10.987,11.9-3.52,5.684-6.962,11.417-10.439,17.127-2.7,4.439-5.34,8.9-8.9,12.721-2.851,3.058-6.543,6.087-10.861,6.512-6.008.59-9.806-4.482-12.833-8.9a89.7,89.7,0,0,0-25.812-25.4c-9.529-6.048-21.127-11.058-32.6-8.277-9.687,2.349-17.55,10.1-17.648,20.421-.091,9.7,5.946,18.552,11.759,25.819,4.122,5.153,8.457,10.145,12.7,15.2l6.54,7.8a33.785,33.785,0,0,1,5.069,7.023c2.542,5.416-.162,10.4-4.616,13.719-4.573,3.41-9.9,4.866-15.175,6.761-8.644,3.1-20.059,9.756-16.659,20.763,2.652,8.585,12.9,12.293,21.085,11.472,5.541-.556,10.8-2.564,15.993-4.461a78.981,78.981,0,0,1,17.491-4.521c5.554-.685,11.552-1,17.046.274,4.769,1.106,10.083,4.706,7.9,10.322-2.069,5.33-8.106,8.133-13.032,10.145-5.649,2.308-11.536,3.951-17.314,5.9C80.174,518.071,69.2,523.2,63.366,533.193c-4.559,7.807-4.359,19.03,2.214,25.7,8.114,8.227,21.665,4.616,31.212,1.348a84.082,84.082,0,0,0,29.033-17.059c6.139-5.548,13.826-14.891,23.11-13.642a11.33,11.33,0,0,1,9.57,9.632,10.555,10.555,0,0,1-1.351,6.519,185.629,185.629,0,0,0-25.366,19.175c-6.461,5.83-14.653,14.512-12.412,24.084,2.542,10.855,15.563,12.223,24.657,10.221,11.122-2.448,21.4-7.921,30.885-14.064,10.238-6.626,20.046-14,29.788-21.331a296.918,296.918,0,0,0,29.488-24.806c17.545-17.176,32.193-38.555,36.73-63.072a70.187,70.187,0,0,0,1.258-17.533c-.363-5.14-1.832-10.43-5.506-14.209-3.306-3.4-8.2-5.436-12.927-4.223-4.828,1.24-7.911,5.428-10.253,9.545-3.15,5.538-5.944,11.2-9.494,16.513a133.591,133.591,0,0,1-12.079,15.489c-2.141,2.364-4.342,4.712-6.7,6.859-2.165,1.97-4.69,3.946-7.621,4.563a7.735,7.735,0,0,1-7.087-1.822c-2.014-2.125-1.46-5.238-.523-7.727,2.194-5.824,5.7-11.318,9.095-16.5,3.521-5.386,7.308-10.591,11.025-15.842,7.051-9.96,14.6-20.566,18.231-32.36,2.4-7.813,1.707-19.967-9.013-20.208-9.418-.212-17.509,7.079-22.693,14.2-5.754,7.907-9.746,16.923-15.32,24.946-2.8,4.027-5.992,8.055-10.192,10.689-4.147,2.6-10.111,4.5-14.772,2.121-4.726-2.413-5.414-7.95-4.462-12.648,1.089-5.374,4-10.338,6.8-14.98,6.336-10.5,14.3-20.159,19.015-31.571a44.5,44.5,0,0,0,3.594-16.605c.04-4.93-1.2-10.193-5.83-12.754C181.351,359.563,176.055,360.054,172,362.209Z"/><path class="cls-7" d="M433.753,210.247a18.191,18.191,0,0,0,3.038-.929,21.938,21.938,0,0,0,10.416-8.571,24.485,24.485,0,0,0,2.2-4.623,19.99,19.99,0,0,0,3.99,7.57c2.652,2.965,6,6.3,9.992,7.125a31.293,31.293,0,0,0-5.21,2.725,22.868,22.868,0,0,0-9.161,12.161c-.509,1.513-.941,3.056-1.346,4.606C445.892,222.527,441.931,212.862,433.753,210.247Z"/><path class="cls-7" d="M469.8,246.966a11.036,11.036,0,0,0,1.869-.571,13.485,13.485,0,0,0,6.406-5.271,15.1,15.1,0,0,0,1.357-2.843,12.293,12.293,0,0,0,2.453,4.656c1.631,1.823,3.692,3.877,6.146,4.382a19.118,19.118,0,0,0-3.2,1.676,14.064,14.064,0,0,0-5.634,7.479c-.313.931-.579,1.88-.828,2.833C477.264,254.519,474.828,248.575,469.8,246.966Z"/><path class="cls-7" d="M435.5,269.389a11.064,11.064,0,0,0,1.869-.571,13.492,13.492,0,0,0,6.406-5.272,14.978,14.978,0,0,0,1.356-2.843,12.3,12.3,0,0,0,2.454,4.656c1.631,1.824,3.692,3.877,6.145,4.382a19.3,19.3,0,0,0-3.2,1.676,14.07,14.07,0,0,0-5.634,7.48c-.313.93-.579,1.879-.828,2.833C442.964,276.942,440.528,271,435.5,269.389Z"/><path class="cls-7" d="M118.258,225.208a13.628,13.628,0,0,1,1.125,2.115,16.547,16.547,0,0,1,.984,10.125,18.462,18.462,0,0,1-1.289,3.641,15.066,15.066,0,0,1,6.164-1.909c2.995-.167,6.562-.161,9.127,1.528a23.567,23.567,0,0,1-1.325-4.231,17.246,17.246,0,0,1,1.6-11.369c.535-1.079,1.128-2.132,1.738-3.174C131.28,225.133,124.013,228.175,118.258,225.208Z"/><path class="cls-7" d="M141.722,199.448a13.674,13.674,0,0,0-2.115-1.125,16.547,16.547,0,0,0-10.125-.984,18.462,18.462,0,0,0-3.641,1.289,15.066,15.066,0,0,0,1.909-6.164c.167-3,.161-6.562-1.528-9.128a23.6,23.6,0,0,0,4.231,1.326,17.256,17.256,0,0,0,11.37-1.6c1.078-.536,2.131-1.128,3.173-1.739C141.8,186.426,138.756,193.692,141.722,199.448Z"/><path class="cls-7" d="M514.618,411.724a13.661,13.661,0,0,0,2.291-.7,16.536,16.536,0,0,0,7.855-6.464,18.442,18.442,0,0,0,1.664-3.486,15.072,15.072,0,0,0,3.008,5.709c2,2.236,4.527,4.754,7.535,5.373a23.531,23.531,0,0,0-3.929,2.055,17.244,17.244,0,0,0-6.908,9.171c-.384,1.141-.71,2.3-1.015,3.473C523.773,420.985,520.786,413.7,514.618,411.724Z"/><path class="cls-7" d="M408.407,605.7a13.69,13.69,0,0,0,2.291-.7,16.546,16.546,0,0,0,7.855-6.464,18.5,18.5,0,0,0,1.663-3.486,15.06,15.06,0,0,0,3.009,5.709c2,2.236,4.526,4.754,7.535,5.373a23.615,23.615,0,0,0-3.93,2.055,17.253,17.253,0,0,0-6.908,9.171c-.384,1.141-.709,2.3-1.014,3.473C417.561,614.957,414.574,607.668,408.407,605.7Z"/><path class="cls-7" d="M358.312,124.429a13.665,13.665,0,0,0,2.291-.7,16.541,16.541,0,0,0,7.855-6.464,18.4,18.4,0,0,0,1.663-3.485,15.077,15.077,0,0,0,3.009,5.708c2,2.236,4.527,4.754,7.535,5.374a23.487,23.487,0,0,0-3.929,2.054,17.243,17.243,0,0,0-6.908,9.171c-.385,1.141-.71,2.3-1.015,3.474C367.467,133.69,364.479,126.4,358.312,124.429Z"/><path class="cls-7" d="M111.335,341.451a8.245,8.245,0,0,0,1.4-.426,10.082,10.082,0,0,0,4.784-3.937,11.273,11.273,0,0,0,1.013-2.123,9.161,9.161,0,0,0,1.832,3.477c1.218,1.362,2.756,2.895,4.589,3.272a14.373,14.373,0,0,0-2.393,1.252,10.5,10.5,0,0,0-4.207,5.585c-.234.695-.432,1.4-.618,2.115C116.91,347.092,115.091,342.652,111.335,341.451Z"/><path class="cls-7" d="M109.968,313.476a13.548,13.548,0,0,1-2.269-.693,16.386,16.386,0,0,1-7.778-6.4,18.282,18.282,0,0,1-1.646-3.451,14.934,14.934,0,0,1-2.98,5.652c-1.98,2.214-4.482,4.708-7.461,5.321a23.377,23.377,0,0,1,3.891,2.035,17.079,17.079,0,0,1,6.84,9.081c.38,1.13.7,2.282,1,3.439C100.9,322.647,103.861,315.429,109.968,313.476Z"/><path class="cls-9" d="M373.918,536.313v89.569l-93.24.451s-16.5-.33-30.68-1.681c-12.72-1.21-62.58-5.96-72.66-6.919l-1.78-.17-.11-.361V536.313Z"/><path class="cls-10" d="M106.378,397.207c.035,6.583.279,17.177.823,28.849.557,12.089,1.426,25.326,2.7,36.511.579,4.984,1.228,9.55,1.97,13.422q1.1,5.738,2.365,11.219c.1.464.208.928.324,1.391.487,2.133,1.009,4.242,1.542,6.317q1.079,4.191,2.225,8.206c.2.7.394,1.391.6,2.075a312.057,312.057,0,0,0,20.33,51.718c.464.915.916,1.819,1.368,2.7a23.827,23.827,0,0,0-4.358,9.586c-3.269,16.25,9.458,34.169,17.421,33.682a19.7,19.7,0,0,0,4.137-.776c1.055,1.391,6.132-1.379,7.3.2A3.624,3.624,0,0,0,169,603.637a1.3,1.3,0,0,0,.371-.151,5.316,5.316,0,0,0,1.843-4.346c.116.521.243,1.054.359,1.564a3.359,3.359,0,0,0,6.63-.649,54.765,54.765,0,0,0-.557-9.933c-.521-4.9-.695-7.569-1.75-10.907a34.887,34.887,0,0,0-7.835-13.283c-.962-46.606-1.912-113.438-2.886-161.9-.012-.707-.023-1.414-.046-2.11-.024-1.6-.058-3.176-.093-4.717Z"/><path class="cls-11" d="M147.757,560.056s29.58-1.553,29.533,42.2a3.328,3.328,0,0,0,.916-2.2,54.765,54.765,0,0,0-.557-9.933c-.521-4.9-.695-7.569-1.75-10.907a34.887,34.887,0,0,0-7.835-13.283c-.962-46.606-1.912-113.438-2.886-161.9-.012-.707-.023-1.414-.046-2.11l-7.207-2.812L167.9,564.507A34.627,34.627,0,0,0,147.757,560.056Z"/><path class="cls-10" d="M443.725,397.207c-.035,6.583-.279,17.177-.823,28.849-.557,12.089-1.426,25.326-2.7,36.511-.579,4.984-1.228,9.55-1.97,13.422q-1.1,5.738-2.365,11.219c-.1.464-.208.928-.324,1.391-.487,2.133-1.009,4.242-1.542,6.317q-1.078,4.191-2.225,8.206c-.2.7-.394,1.391-.6,2.075a312.057,312.057,0,0,1-20.33,51.718c-.464.915-.916,1.819-1.368,2.7a23.827,23.827,0,0,1,4.358,9.586c3.269,16.25-9.458,34.169-17.421,33.682a19.7,19.7,0,0,1-4.137-.776c-1.055,1.391-6.132-1.379-7.3.2a3.624,3.624,0,0,1-3.871,1.333,1.3,1.3,0,0,1-.371-.151,5.316,5.316,0,0,1-1.843-4.346c-.116.521-.243,1.054-.359,1.564a3.359,3.359,0,0,1-6.63-.649,54.765,54.765,0,0,1,.557-9.933c.521-4.9.695-7.569,1.75-10.907a34.887,34.887,0,0,1,7.835-13.283c.962-46.606,1.912-113.438,2.886-161.9.012-.707.023-1.414.046-2.11.024-1.6.058-3.176.093-4.717Z"/><path class="cls-11" d="M402.346,560.056s-29.58-1.553-29.533,42.2a3.328,3.328,0,0,1-.916-2.2,54.765,54.765,0,0,1,.557-9.933c.521-4.9.695-7.569,1.75-10.907a34.887,34.887,0,0,1,7.835-13.283c.962-46.606,1.912-113.438,2.886-161.9.012-.707.023-1.414.046-2.11l7.207-2.812L382.2,564.507A34.627,34.627,0,0,1,402.346,560.056Z"/><path class="cls-9" d="M199.88,254.475l-64.313,30.938a18.283,18.283,0,0,0-9.7,11.617l-29.7,107.7a4.913,4.913,0,0,0,4.736,6.22h64.741a4.913,4.913,0,0,0,4.894-4.476l4.913-54.936V536.312H374.654V351.541l4.913,54.936a4.913,4.913,0,0,0,4.894,4.476H449.2a4.913,4.913,0,0,0,4.736-6.22l-29.7-107.7a18.283,18.283,0,0,0-9.7-11.617l-64.313-30.938Z"/><polygon class="cls-10" points="316.374 227.481 316.374 235.638 316 235.993 303.193 248.258 275.049 275.204 246.904 248.258 234.019 235.921 228.778 230.903 228.778 227.481 316.374 227.481"/><path class="cls-10" d="M184.837,135.542s-7.111-12.579-20.123-6.94-3.344,45.484,20.123,44.429Z"/><path class="cls-10" d="M365.271,135.542s7.111-12.579,20.123-6.94,3.344,45.484-20.123,44.429Z"/><path class="cls-10" d="M365.268,118.192v34.7c0,2.054-.066,4.1-.2,6.114a90.218,90.218,0,0,1-180.228-6.114v-34.7a90.217,90.217,0,1,1,180.433,0Z"/><ellipse class="cls-12" cx="241.051" cy="152.319" rx="5.044" ry="1.479"/><ellipse class="cls-12" cx="307.439" cy="152.319" rx="5.044" ry="1.479"/><path class="cls-12" d="M256.666,123.39v8.241l-17.858-12.794,5.336-.835a10.454,10.454,0,0,1,7.836,1.923Z"/><path class="cls-12" d="M291.824,123.39v8.241l17.858-12.794L304.346,118a10.456,10.456,0,0,0-7.836,1.923Z"/><path class="cls-12" d="M362.858,121.153v1.46c.45-.27.89-.55,1.32-.85ZM353,68.083a92.659,92.659,0,0,0-170.58,50.109v34.7a92.668,92.668,0,0,0,1.71,17.75c.15.8.32,1.6.49,2.39.09.38.18.77.27,1.149a92.7,92.7,0,0,0,29.79,48.9,90.533,90.533,0,0,0,7.36,5.72c.63.44,1.26.879,1.91,1.3q1.83,1.228,3.73,2.349c2.06,1.24,4.18,2.4,6.34,3.47l.01.01a92.395,92.395,0,0,0,81.97.061q3.195-1.576,6.26-3.39c1.3-.77,2.58-1.57,3.84-2.411.04-.029.08-.049.12-.079.63-.421,1.26-.85,1.88-1.28a93.059,93.059,0,0,0,37.11-54.59l.01-.031c.09-.389.18-.78.26-1.179.18-.79.35-1.591.49-2.39a90.831,90.831,0,0,0,1.5-11.471c.14-2.029.21-4.139.21-6.279v-34.7A92.061,92.061,0,0,0,353,68.083Zm-36.62,162.24a87.805,87.805,0,0,1-129.14-77.43v-34.7c0-.74.01-1.48.03-2.209a87.838,87.838,0,0,1,158.17-50.311,87.031,87.031,0,0,1,17.39,50.27q.03,1.125.03,2.25v34.7c0,2.029-.07,4.029-.2,5.95A87.915,87.915,0,0,1,316.378,230.323Z"/><path class="cls-1" d="M225.437,123.39a18.077,18.077,0,0,1,6.526-6.41,18.931,18.931,0,0,1,9.1-2.693,17.883,17.883,0,0,1,4.84.575l1.166.347c.382.134.752.3,1.125.448a9.307,9.307,0,0,1,1.088.512c.35.194.714.359,1.047.577a17.568,17.568,0,0,1,6.333,6.644,54,54,0,0,0-7.785-3.573,22.3,22.3,0,0,0-7.7-1.184A28.245,28.245,0,0,0,233.4,120.1,66.139,66.139,0,0,0,225.437,123.39Z"/><path class="cls-1" d="M291.824,123.39a14.47,14.47,0,0,1,2.72-3.775,19.451,19.451,0,0,1,3.669-2.933,18.57,18.57,0,0,1,9.23-2.811,17.763,17.763,0,0,1,4.935.607l1.185.364c.388.139.763.313,1.141.469a9.566,9.566,0,0,1,1.1.536c.353.2.719.378,1.054.6a16.7,16.7,0,0,1,6.194,6.939,65.123,65.123,0,0,0-7.923-3.278,23.447,23.447,0,0,0-7.547-1.063,30.475,30.475,0,0,0-7.657,1.348C297.313,121.175,294.688,122.214,291.824,123.39Z"/><path class="cls-12" d="M257.472,199.316a58.829,58.829,0,0,0,8.833,2.607,41.542,41.542,0,0,0,8.708.906,34.686,34.686,0,0,0,4.35-.26c.729-.064,1.447-.2,2.179-.3.365-.051.721-.146,1.087-.2s.733-.125,1.093-.22c2.917-.629,5.827-1.553,8.909-2.526a23.242,23.242,0,0,1-7.909,5.584A24.092,24.092,0,0,1,280,206.407c-.809.2-1.64.28-2.465.406-.831.071-1.664.136-2.5.137a24.249,24.249,0,0,1-9.719-1.92,22.662,22.662,0,0,1-4.3-2.383,18.709,18.709,0,0,1-1.9-1.537A12.571,12.571,0,0,1,257.472,199.316Z"/><path class="cls-1" d="M266.335,157.378a9,9,0,0,1,.864-2.754,11.16,11.16,0,0,1,.745-1.286,9.6,9.6,0,0,1,.978-1.167l.556-.546.635-.473a7.783,7.783,0,0,1,1.393-.806,12.321,12.321,0,0,1,1.552-.529c.536-.077,1.084-.176,1.629-.2.537.021,1.085.024,1.623.077l1.555.329c.508.136.972.351,1.459.528.24.1.483.173.72.3l.706.373a10.457,10.457,0,0,1,2.569,2.049A8.071,8.071,0,0,1,285,156.243a7.881,7.881,0,0,1,.248,3.405,8.865,8.865,0,0,1-1.086,3.1,10.825,10.825,0,0,1-1.962,2.464,12.827,12.827,0,0,1-2.481,1.766,14.676,14.676,0,0,1-2.745,1.121,15.522,15.522,0,0,1-2.853.521,17.159,17.159,0,0,1-5.614-.393,25.258,25.258,0,0,0,5.359-.933,18.176,18.176,0,0,0,2.453-.939,14.794,14.794,0,0,0,2.189-1.311,9.5,9.5,0,0,0,3.087-3.634,5.46,5.46,0,0,0,.307-4.16,5.9,5.9,0,0,0-2.82-3.081,8.5,8.5,0,0,0-1.067-.5c-.373-.141-.743-.325-1.117-.439l-1.123-.315-1.121-.162a7.285,7.285,0,0,0-4.394,1.075,11.513,11.513,0,0,0-1.049.694c-.327.273-.678.538-1,.846a17.307,17.307,0,0,0-1.87,2.014Z"/><path class="cls-12" d="M183.935,175.461c-14.054,0-23.542-13.316-26.465-25.976-2.6-11.249-.129-20.314,6.286-23.094,11.869-5.142,20.351,2.962,23.179,7.964l-4.192,2.38c-.25-.436-6.256-10.608-17.071-5.922-4.05,1.755-5.492,8.987-3.506,17.587,2.558,11.077,10.717,22.763,22.563,22.224l.216,4.814C184.607,175.453,184.268,175.461,183.935,175.461Z"/><path class="cls-12" d="M366.173,175.461q-.5,0-1.01-.023l.216-4.814c11.86.535,20-11.146,22.563-22.224,1.986-8.6.544-15.832-3.506-17.587-10.82-4.689-16.821,5.487-17.071,5.922l-4.192-2.38c2.828-5,11.314-13.108,23.179-7.964,6.415,2.78,8.883,11.845,6.286,23.094C389.715,162.144,380.226,175.46,366.173,175.461Z"/><rect class="cls-1" x="235.196" y="131.631" width="11.711" height="20.688" rx="5.855"/><rect class="cls-1" x="301.583" y="131.631" width="11.711" height="20.688" rx="5.855"/><path class="cls-12" d="M182.639,149.546c-.174-.384-4.362-9.363-11.635-6.551l-1.736-4.5c9.232-3.568,15.657,4.371,17.765,9.068Z"/><path class="cls-12" d="M176.252,160.6c-9.678-5.768-3.07-20.748-2.783-21.382l4.4,1.977c-.053.116-5.047,11.747.855,15.264Z"/><path class="cls-12" d="M367.313,147.659l-4.095-2.541c2.858-4.623,11.006-11.866,21.4-6.2l-2.307,4.231C373.5,138.346,367.92,146.691,367.313,147.659Z"/><path class="cls-12" d="M374.556,156.253,372.293,152c5.512-2.934,2.156-11.875,2.121-11.965l4.5-1.728C380.636,142.795,381.944,152.322,374.556,156.253Z"/><path class="cls-13" d="M199.88,257.078l22.574-26.167a2.379,2.379,0,0,1,3.446-.164l49.151,47.059-26.809,22.058Z"/><path class="cls-13" d="M350.223,257.078l-22.574-26.167a2.38,2.38,0,0,0-3.447-.164l-49.151,47.059,26.81,22.058Z"/><path class="cls-13" d="M305.244,353.493h54.65a0,0,0,0,1,0,0v57.4a10.26,10.26,0,0,1-10.26,10.26H315.5a10.26,10.26,0,0,1-10.26-10.26v-57.4A0,0,0,0,1,305.244,353.493Z"/><path class="cls-9" d="M305.244,353.633H356.1a0,0,0,0,1,0,0v52.708a10.26,10.26,0,0,1-10.26,10.26H315.5a10.26,10.26,0,0,1-10.26-10.26V353.633A0,0,0,0,1,305.244,353.633Z"/><path class="cls-13" d="M201.452,353.493H256.1a0,0,0,0,1,0,0v57.4a10.26,10.26,0,0,1-10.26,10.26h-34.13a10.26,10.26,0,0,1-10.26-10.26v-57.4A0,0,0,0,1,201.452,353.493Z"/><path class="cls-9" d="M201.452,353.633h50.859a0,0,0,0,1,0,0v52.708a10.26,10.26,0,0,1-10.26,10.26H211.712a10.26,10.26,0,0,1-10.26-10.26V353.633A0,0,0,0,1,201.452,353.633Z"/><path class="cls-9" d="M199.88,254.475l22.574-26.166a2.378,2.378,0,0,1,3.446-.165l49.151,47.06-26.809,22.057Z"/><path class="cls-9" d="M350.223,254.475l-22.574-26.166a2.379,2.379,0,0,0-3.447-.165L275.051,275.2l26.81,22.057Z"/><rect class="cls-13" x="175.449" y="536.312" width="198.132" height="14.313"/><rect class="cls-14" x="259.768" y="534.143" width="29.494" height="18.651"/><path class="cls-12" d="M182.422,123.39,253.4,91.013a53.6,53.6,0,0,1,44.8.145l69.472,32.232V51.922a14.259,14.259,0,0,0-8.526-13.056l-70.8-31.1a30.457,30.457,0,0,0-24.937.2l-72.668,33.3a14.261,14.261,0,0,0-8.32,12.964Z"/><path class="cls-1" d="M237.54,187.076a15.791,15.791,0,0,1,6.011-6.369,16.009,16.009,0,0,1,8.855-2.149,21.51,21.51,0,0,1,2.311.2c.755.144,1.522.265,2.257.479a27,27,0,0,1,4.315,1.523,39.122,39.122,0,0,1,7.69,4.654l-2.607,3.315a48.388,48.388,0,0,0-6.732-4.627,23.45,23.45,0,0,0-7.486-2.667,16.044,16.044,0,0,0-3.948-.12,14.8,14.8,0,0,0-3.893.945,16.074,16.074,0,0,0-3.628,1.959A17.331,17.331,0,0,0,237.54,187.076Z"/><path class="cls-1" d="M312.558,187.076a17.4,17.4,0,0,0-3.145-2.853,16.081,16.081,0,0,0-3.629-1.959,14.8,14.8,0,0,0-3.893-.945,16.044,16.044,0,0,0-3.948.12,23.459,23.459,0,0,0-7.486,2.667,48.447,48.447,0,0,0-6.732,4.627l-2.607-3.315a39.122,39.122,0,0,1,7.69-4.654,27,27,0,0,1,4.315-1.523c.735-.214,1.5-.335,2.257-.479a21.532,21.532,0,0,1,2.311-.2,16.007,16.007,0,0,1,8.855,2.149A15.8,15.8,0,0,1,312.558,187.076Z"/><path class="cls-9" d="M367.673,46.726V118.19L298.2,85.961a53.6,53.6,0,0,0-44.808-.145L182.421,118.19V49.033A14.242,14.242,0,0,1,190.74,36.07l72.668-33.3a30.483,30.483,0,0,1,24.94-.2l70.8,31.1a14.269,14.269,0,0,1,8.524,13.06Z"/><rect class="cls-13" x="273.545" y="277.806" width="3.012" height="256.336"/><circle class="cls-13" cx="275.654" cy="511.155" r="5.422"/><circle class="cls-13" cx="275.654" cy="463.878" r="5.422"/><circle class="cls-13" cx="275.654" cy="416.601" r="5.422"/><circle class="cls-13" cx="275.654" cy="369.324" r="5.422"/><circle class="cls-13" cx="275.654" cy="322.047" r="5.422"/><circle class="cls-14" cx="274.143" cy="509.966" r="5.422"/><circle class="cls-14" cx="274.143" cy="462.689" r="5.422"/><circle class="cls-14" cx="274.143" cy="415.412" r="5.422"/><circle class="cls-14" cx="274.143" cy="368.135" r="5.422"/><circle class="cls-14" cx="274.143" cy="320.858" r="5.422"/></g></g></svg>