<svg xmlns="http://www.w3.org/2000/svg" xmlns:xlink="http://www.w3.org/1999/xlink" viewBox="0 0 555.4 600.811"><defs><style>.cls-1,.cls-5{fill:none;}.cls-2{clip-path:url(#clip-path);}.cls-3{fill:#2f2e41;}.cls-4{fill:url(#linear-gradient);}.cls-5{stroke:#fff;stroke-linecap:round;stroke-miterlimit:10;stroke-width:1.058px;}.cls-6{fill:url(#linear-gradient-2);}.cls-7{fill:url(#linear-gradient-3);}.cls-8{fill:#fff;}.cls-9{fill:url(#linear-gradient-4);}.cls-10{fill:#a8b3dd;}.cls-11{fill:#ffb59e;}.cls-12{fill:#f4a690;}.cls-13{fill:#ed9885;}.cls-14{fill:#ddd;}.cls-15{fill:#8292c4;}</style><clipPath id="clip-path" transform="translate(-72.3 -49.594)"><rect class="cls-1" width="700" height="700"/></clipPath><linearGradient id="linear-gradient" x1="604.581" y1="545.764" x2="514.941" y2="510.124" gradientUnits="userSpaceOnUse"><stop offset="0" stop-color="#6cbdea"/><stop offset="1" stop-color="#2490cf"/></linearGradient><linearGradient id="linear-gradient-2" x1="565.639" y1="488.145" x2="477.799" y2="469.425" xlink:href="#linear-gradient"/><linearGradient id="linear-gradient-3" x1="154.556" y1="590.059" x2="183.383" y2="550.422" xlink:href="#linear-gradient"/><linearGradient id="linear-gradient-4" x1="90.245" y1="507.442" x2="215.525" y2="504.562" xlink:href="#linear-gradient"/></defs><g id="Layer_2" data-name="Layer 2"><g id="Layer_1-2" data-name="Layer 1"><g class="cls-2"><path class="cls-3" d="M216.1,632.01c19.05-26.691-46.2-130.3-96.842-123.363-21.618,2.962-42.036,26.272-38.615,39.96,3.268,13.078,25.86,7.617,46.678,27.457,21.727,20.707,13.069,41.858,32.949,55.831C177.522,644.024,207.253,644.4,216.1,632.01Z" transform="translate(-72.3 -49.594)"/><path class="cls-3" d="M536,605.235s.27,50.77-75.01,44.66l-11.64.05-96.37.46s-16.5-.33-30.68-1.68c-12.72-1.21-62.58-5.96-72.66-6.92l-1.78-.17-1.18-3.85-1.43-4.66-3.85-12.54-4.71-15.35-3-9.78-.64-2.08-.88-2.87,9.52.46.38.02,3.21.16,4.36.21,199.71,9.68,5.74.28,3.16.15,31.48,1.53Z" transform="translate(-72.3 -49.594)"/><path class="cls-3" d="M227.05,575.878s-6.605-56.506-43.3-77.787-82.923-55.037-82.923-91.729,37.174-39.224,47.573-77.585S125.781,259.6,125.781,222.17s37.426-79.988,82.189-79.254,46.3,22.687,90.836,23.96,27.311-79,81.615-80.465,65.311,16.878,82.923,41.1,31.555,43.3,57.973,58.706,57.974,12.476,62.377,46.966-17.613,59.44-26.42,78.52.734,55.771,22.016,80.721,46.231,26.418,46.965,57.973-53.57,69.714-72.65,104.2-17.612,50.635-17.612,50.635H226.9Z" transform="translate(-72.3 -49.594)"/><path class="cls-3" d="M615.46,343.494c-2.7-6.127-4.74-11.337-5.052-18.1-.193-4.178-.527-8.121-3.619-11.3-6.365-6.534-14.516-2.213-17.4,5.169a29.789,29.789,0,0,0-1.195,3.814,43.112,43.112,0,0,0-.938,30.256c2.957,8.431,9.676,19.794,17.662,24.356,6.734,3.847,15.236,1.6,18.087-5.887C626.538,362.53,619.061,351.663,615.46,343.494Z" transform="translate(-72.3 -49.594)"/><path class="cls-3" d="M110.423,286.345a10.559,10.559,0,0,0-2.644.082A6.53,6.53,0,0,0,100,291.09a12.334,12.334,0,0,0-1.072,1.65c-1.894,3.558-1.889,7.426-1.816,11.305-2.978,6.128-6.466,12.287-.95,17.824,8.505,8.536,17.986-7.313,20.709-13.766C120.041,300.6,121.809,287.582,110.423,286.345Z" transform="translate(-72.3 -49.594)"/><path class="cls-3" d="M309.877,113.253c-5.121-.237-8.91,3.093-10.418,7.521a15.867,15.867,0,0,0-2.92,9.048c-.053,4.675,4.845,6.738,8.65,4.963,6.22-2.9,9.841-9.118,10.436-15.784C315.911,115.805,312.756,113.386,309.877,113.253Z" transform="translate(-72.3 -49.594)"/><path class="cls-4" d="M617.939,471.441c-5.566,9.157-12.332,17.509-18.036,26.575a86.454,86.454,0,0,0-7.344,14.094,110.554,110.554,0,0,0-4.518,15.478c-2.343,9.924-4.816,20.052-12.063,27.646-5.307,5.561-12.225,9.236-19.27,12.115-14.408,5.888-30.44,9.041-43.069,18.615-9.158,6.943-15.276,16.885-23.792,24.494-7.253,6.479-18.482,11.416-27.843,6.939a52.037,52.037,0,0,0,8.068-22.18,108.069,108.069,0,0,1,52.406-73.032c6.993-3.945,14.485-7.44,19.954-13.506,5.373-5.961,8.356-13.5,11.5-20.768,3.231-7.461,6.87-14.509,13-20.02,5.872-5.278,13.015-8.952,20.051-12.412,14.167-6.967,30.924-14.789,36.729-30.471C631.981,439.488,626.072,458.061,617.939,471.441Z" transform="translate(-72.3 -49.594)"/><path class="cls-5" d="M599.793,467.3s-19.512,19.328-25.953,33.961-6.712,25.935-18.618,33.3-36.38,14.753-48.621,28.617S493.991,590.37,462,617.4" transform="translate(-72.3 -49.594)"/><path class="cls-1" d="M617.939,471.441c-5.566,9.157-12.332,17.509-18.036,26.575a86.454,86.454,0,0,0-7.344,14.094,110.554,110.554,0,0,0-4.518,15.478c-2.343,9.924-4.816,20.052-12.063,27.646-5.307,5.561-12.225,9.236-19.27,12.115-14.408,5.888-30.44,9.041-43.069,18.615-9.158,6.943-15.276,16.885-23.792,24.494-7.253,6.479-18.482,11.416-27.843,6.939a52.037,52.037,0,0,0,8.068-22.18,108.069,108.069,0,0,1,52.406-73.032c6.993-3.945,14.485-7.44,19.954-13.506,5.373-5.961,8.356-13.5,11.5-20.768,3.231-7.461,6.87-14.509,13-20.02,5.872-5.278,13.015-8.952,20.051-12.412,14.167-6.967,30.924-14.789,36.729-30.471C631.981,439.488,626.072,458.061,617.939,471.441Z" transform="translate(-72.3 -49.594)"/><path class="cls-6" d="M566.373,407.584c1.038-19.484-.5-41.114-14.964-55.794-12.32-12.5-30.251-14.195-45.013-5.089-14.815,9.139-24.37,24.7-31.76,40a289.281,289.281,0,0,0-21.573,62.746c-9.818,43.934-10.679,89.491-6.927,134.206q.714,8.5,1.65,16.986a2.852,2.852,0,0,0,4.7,1.777,6.772,6.772,0,0,0,6.145.632c4.215-1.359,7.568-5.4,10.729-8.32q11.368-10.488,21.807-21.927a328.71,328.71,0,0,0,37.342-49.434C549.943,488.408,564.183,448.724,566.373,407.584Z" transform="translate(-72.3 -49.594)"/><line class="cls-5" x1="444.779" y1="343.536" x2="377.009" y2="560.093"/><path class="cls-1" d="M566.373,407.584c1.038-19.484-.5-41.114-14.964-55.794-12.32-12.5-30.251-14.195-45.013-5.089-14.815,9.139-24.37,24.7-31.76,40a289.281,289.281,0,0,0-21.573,62.746c-9.818,43.934-10.679,89.491-6.927,134.206q.714,8.5,1.65,16.986a2.852,2.852,0,0,0,4.7,1.777,6.772,6.772,0,0,0,6.145.632c4.215-1.359,7.568-5.4,10.729-8.32q11.368-10.488,21.807-21.927a328.71,328.71,0,0,0,37.342-49.434C549.943,488.408,564.183,448.724,566.373,407.584Z" transform="translate(-72.3 -49.594)"/><path class="cls-7" d="M270.09,597.525c-.807-.6-1.611-1.191-2.391-1.769-2.072-1.527-4.147-3.064-6.226-4.579q-2.865-2.1-5.739-4.188c-1.444-1.042-2.878-2.087-4.321-3.129-.262-.185-.523-.37-.775-.558q-3.7-2.667-7.391-5.306-6.813-4.863-13.668-9.662-23.529-16.5-47.45-32.443-19.987-13.408-40.144-26.571-5.457-3.567-10.9-7.128l-14.712-9.6c-7.745-5.048-15.657-11.3-24.8-13.477a20.476,20.476,0,0,0-4.378-.573,14.229,14.229,0,0,0-8.2,2.231,14.94,14.94,0,0,0-5.9,8.477c-2.283,7.918.667,15.727,5.373,22.116,5.264,7.135,12.276,13.111,18.876,18.956q7.077,6.271,14.5,12.16c2.232,1.794,4.494,3.548,6.782,5.284a484.043,484.043,0,0,0,45.349,30.309c14.855,8.833,40.556,21.667,61.427,31.81,3.93,1.909,7.686,3.723,11.171,5.386,12.093,5.807,20.87,9.924,21.97,10.493,2.55,1.307,5.368,3.078,8.318,4.436a26.5,26.5,0,0,0,3.1,1.232,16.366,16.366,0,0,0,3.29.73,10.788,10.788,0,0,0,5.635-.775,9.691,9.691,0,0,0,3.467-2.525c3.34-3.769,3.868-9.934,2.393-14.6C282.451,607.053,276.066,601.958,270.09,597.525Z" transform="translate(-72.3 -49.594)"/><path class="cls-5" d="M109.234,514.6C166.541,564.225,262.2,617.79,282.342,628.861l.009,0" transform="translate(-72.3 -49.594)"/><path class="cls-8" d="M492.159,484.538A1.521,1.521,0,0,0,493,487.46,1.521,1.521,0,0,0,492.159,484.538Z" transform="translate(-72.3 -49.594)"/><path class="cls-8" d="M91.978,504.36a1.521,1.521,0,0,0,.839,2.923A1.521,1.521,0,0,0,91.978,504.36Z" transform="translate(-72.3 -49.594)"/><path class="cls-8" d="M170.272,565.233a1.567,1.567,0,0,0-1.593-.515l-.374.164a1.537,1.537,0,0,0-.537.561l-.143.362a1.507,1.507,0,0,0,.012.794l.161.56a1.143,1.143,0,0,0,.288.527,1.126,1.126,0,0,0,.437.383,1.683,1.683,0,0,0,1.156.132l.373-.164a1.521,1.521,0,0,0,.537-.561l.144-.362a1.507,1.507,0,0,0-.013-.794l-.16-.56A1.143,1.143,0,0,0,170.272,565.233Z" transform="translate(-72.3 -49.594)"/><path class="cls-8" d="M174.324,540.077a1.521,1.521,0,0,0,.839,2.923A1.521,1.521,0,0,0,174.324,540.077Z" transform="translate(-72.3 -49.594)"/><path class="cls-8" d="M170.617,461.785a1.521,1.521,0,0,0,.839,2.922A1.521,1.521,0,0,0,170.617,461.785Z" transform="translate(-72.3 -49.594)"/><path class="cls-8" d="M166.225,408.525a1.522,1.522,0,0,0,.84,2.923A1.522,1.522,0,0,0,166.225,408.525Z" transform="translate(-72.3 -49.594)"/><path class="cls-8" d="M233.187,481.373a1.521,1.521,0,0,0,.839,2.923A1.521,1.521,0,0,0,233.187,481.373Z" transform="translate(-72.3 -49.594)"/><path class="cls-8" d="M546.687,471.906a1.521,1.521,0,0,0,.839,2.923A1.521,1.521,0,0,0,546.687,471.906Z" transform="translate(-72.3 -49.594)"/><path class="cls-8" d="M546.6,408.324a1.521,1.521,0,0,0,.84,2.922A1.521,1.521,0,0,0,546.6,408.324Z" transform="translate(-72.3 -49.594)"/><path class="cls-8" d="M500.468,361.6a1.521,1.521,0,0,0,.839,2.923A1.521,1.521,0,0,0,500.468,361.6Z" transform="translate(-72.3 -49.594)"/><path class="cls-8" d="M493.731,289.63a1.521,1.521,0,0,0,.84,2.922A1.521,1.521,0,0,0,493.731,289.63Z" transform="translate(-72.3 -49.594)"/><path class="cls-8" d="M460.427,323.426a1.521,1.521,0,0,0,.839,2.922A1.521,1.521,0,0,0,460.427,323.426Z" transform="translate(-72.3 -49.594)"/><path class="cls-9" d="M244.3,386.282c-4.887,2.6-8.145,7.313-10.987,11.9-3.52,5.684-6.962,11.417-10.439,17.127-2.7,4.439-5.34,8.9-8.9,12.722-2.851,3.057-6.543,6.087-10.861,6.511-6.008.59-9.806-4.482-12.833-8.9a89.682,89.682,0,0,0-25.812-25.4c-9.529-6.049-21.127-11.059-32.595-8.278-9.687,2.349-17.55,10.1-17.648,20.422-.091,9.7,5.946,18.551,11.759,25.818,4.122,5.153,8.457,10.145,12.7,15.2l6.54,7.8a33.785,33.785,0,0,1,5.069,7.023c2.542,5.416-.162,10.4-4.616,13.72-4.573,3.409-9.9,4.865-15.175,6.76-8.644,3.1-20.059,9.757-16.659,20.763,2.652,8.585,12.9,12.293,21.085,11.472,5.541-.556,10.8-2.564,15.993-4.461a78.981,78.981,0,0,1,17.491-4.521c5.554-.684,11.552-1,17.046.274,4.769,1.106,10.083,4.707,7.9,10.322-2.069,5.331-8.106,8.133-13.032,10.145-5.65,2.308-11.536,3.952-17.314,5.895-10.537,3.545-21.512,8.677-27.345,18.666-4.559,7.807-4.359,19.03,2.214,25.7,8.114,8.227,21.665,4.617,31.212,1.348a84.082,84.082,0,0,0,29.033-17.059c6.139-5.548,13.826-14.891,23.109-13.642a11.33,11.33,0,0,1,9.571,9.632,10.555,10.555,0,0,1-1.351,6.519,185.71,185.71,0,0,0-25.366,19.175c-6.461,5.83-14.653,14.512-12.412,24.085,2.542,10.855,15.563,12.222,24.657,10.22,11.122-2.448,21.4-7.921,30.885-14.064,10.238-6.626,20.046-14,29.788-21.331a296.918,296.918,0,0,0,29.488-24.806c17.545-17.176,32.193-38.555,36.73-63.072a70.187,70.187,0,0,0,1.258-17.533c-.363-5.14-1.832-10.43-5.506-14.209-3.306-3.4-8.2-5.436-12.927-4.222-4.828,1.24-7.911,5.427-10.253,9.544-3.15,5.538-5.944,11.2-9.494,16.513a133.591,133.591,0,0,1-12.079,15.489c-2.141,2.364-4.342,4.712-6.7,6.859-2.165,1.97-4.69,3.947-7.621,4.563a7.737,7.737,0,0,1-7.087-1.821c-2.014-2.126-1.46-5.239-.523-7.728,2.194-5.824,5.705-11.318,9.1-16.5,3.521-5.386,7.308-10.591,11.025-15.842,7.051-9.96,14.6-20.566,18.231-32.36,2.4-7.813,1.707-19.967-9.013-20.208-9.418-.212-17.509,7.079-22.693,14.2-5.754,7.908-9.746,16.923-15.32,24.946-2.8,4.027-5.992,8.055-10.192,10.689-4.147,2.6-10.111,4.5-14.772,2.121-4.726-2.412-5.414-7.95-4.462-12.647,1.089-5.375,4-10.339,6.8-14.981,6.336-10.5,14.3-20.159,19.015-31.571a44.5,44.5,0,0,0,3.594-16.6c.04-4.93-1.195-10.193-5.83-12.754C253.651,383.636,248.355,384.128,244.3,386.282Z" transform="translate(-72.3 -49.594)"/><path class="cls-5" d="M156.143,437.767s81,81.4,132.213,149.52" transform="translate(-72.3 -49.594)"/><path class="cls-5" d="M199.1,482.009s28.293-38.17,41.774-67.434" transform="translate(-72.3 -49.594)"/><path class="cls-5" d="M135.655,503.221s33.411-6.771,58.857-24.746" transform="translate(-72.3 -49.594)"/><path class="cls-5" d="M234.474,521.806s22.946-19.516,57.513-76.989" transform="translate(-72.3 -49.594)"/><path class="cls-5" d="M149.041,568.487s51.065-18.235,81.635-50.076" transform="translate(-72.3 -49.594)"/><path class="cls-5" d="M270.359,563.319s24.045-16.263,48.141-55.03" transform="translate(-72.3 -49.594)"/><path class="cls-5" d="M204.4,608.273s38.022-20.44,66.25-40.362" transform="translate(-72.3 -49.594)"/><path class="cls-1" d="M244.3,386.282c-4.887,2.6-8.145,7.313-10.987,11.9-3.52,5.684-6.962,11.417-10.439,17.127-2.7,4.439-5.34,8.9-8.9,12.722-2.851,3.057-6.543,6.087-10.861,6.511-6.008.59-9.806-4.482-12.833-8.9a89.682,89.682,0,0,0-25.812-25.4c-9.529-6.049-21.127-11.059-32.595-8.278-9.687,2.349-17.55,10.1-17.648,20.422-.091,9.7,5.946,18.551,11.759,25.818,4.122,5.153,8.457,10.145,12.7,15.2l6.54,7.8a33.785,33.785,0,0,1,5.069,7.023c2.542,5.416-.162,10.4-4.616,13.72-4.573,3.409-9.9,4.865-15.175,6.76-8.644,3.1-20.059,9.757-16.659,20.763,2.652,8.585,12.9,12.293,21.085,11.472,5.541-.556,10.8-2.564,15.993-4.461a78.981,78.981,0,0,1,17.491-4.521c5.554-.684,11.552-1,17.046.274,4.769,1.106,10.083,4.707,7.9,10.322-2.069,5.331-8.106,8.133-13.032,10.145-5.65,2.308-11.536,3.952-17.314,5.895-10.537,3.545-21.512,8.677-27.345,18.666-4.559,7.807-4.359,19.03,2.214,25.7,8.114,8.227,21.665,4.617,31.212,1.348a84.082,84.082,0,0,0,29.033-17.059c6.139-5.548,13.826-14.891,23.109-13.642a11.33,11.33,0,0,1,9.571,9.632,10.555,10.555,0,0,1-1.351,6.519,185.71,185.71,0,0,0-25.366,19.175c-6.461,5.83-14.653,14.512-12.412,24.085,2.542,10.855,15.563,12.222,24.657,10.22,11.122-2.448,21.4-7.921,30.885-14.064,10.238-6.626,20.046-14,29.788-21.331a296.918,296.918,0,0,0,29.488-24.806c17.545-17.176,32.193-38.555,36.73-63.072a70.187,70.187,0,0,0,1.258-17.533c-.363-5.14-1.832-10.43-5.506-14.209-3.306-3.4-8.2-5.436-12.927-4.222-4.828,1.24-7.911,5.427-10.253,9.544-3.15,5.538-5.944,11.2-9.494,16.513a133.591,133.591,0,0,1-12.079,15.489c-2.141,2.364-4.342,4.712-6.7,6.859-2.165,1.97-4.69,3.947-7.621,4.563a7.737,7.737,0,0,1-7.087-1.821c-2.014-2.126-1.46-5.239-.523-7.728,2.194-5.824,5.705-11.318,9.1-16.5,3.521-5.386,7.308-10.591,11.025-15.842,7.051-9.96,14.6-20.566,18.231-32.36,2.4-7.813,1.707-19.967-9.013-20.208-9.418-.212-17.509,7.079-22.693,14.2-5.754,7.908-9.746,16.923-15.32,24.946-2.8,4.027-5.992,8.055-10.192,10.689-4.147,2.6-10.111,4.5-14.772,2.121-4.726-2.412-5.414-7.95-4.462-12.647,1.089-5.375,4-10.339,6.8-14.981,6.336-10.5,14.3-20.159,19.015-31.571a44.5,44.5,0,0,0,3.594-16.6c.04-4.93-1.195-10.193-5.83-12.754C253.651,383.636,248.355,384.128,244.3,386.282Z" transform="translate(-72.3 -49.594)"/><path class="cls-8" d="M506.053,234.32a18.191,18.191,0,0,0,3.038-.929,21.943,21.943,0,0,0,10.416-8.571,24.516,24.516,0,0,0,2.205-4.623,19.99,19.99,0,0,0,3.99,7.57c2.652,2.965,6,6.3,9.992,7.125a31.293,31.293,0,0,0-5.21,2.725,22.872,22.872,0,0,0-9.161,12.161c-.509,1.513-.941,3.056-1.346,4.606C518.192,246.6,514.231,236.935,506.053,234.32Z" transform="translate(-72.3 -49.594)"/><path class="cls-8" d="M542.1,271.04a11.131,11.131,0,0,0,1.869-.572,13.485,13.485,0,0,0,6.406-5.271,15.037,15.037,0,0,0,1.356-2.843,12.309,12.309,0,0,0,2.454,4.656c1.631,1.823,3.692,3.877,6.146,4.382a19.118,19.118,0,0,0-3.2,1.676,14.064,14.064,0,0,0-5.634,7.479c-.313.931-.579,1.88-.828,2.833C549.564,278.593,547.128,272.648,542.1,271.04Z" transform="translate(-72.3 -49.594)"/><path class="cls-8" d="M507.8,293.462a11.064,11.064,0,0,0,1.869-.571,13.49,13.49,0,0,0,6.406-5.271,15.018,15.018,0,0,0,1.356-2.844,12.3,12.3,0,0,0,2.454,4.656c1.631,1.824,3.692,3.877,6.145,4.383a19.217,19.217,0,0,0-3.2,1.675,14.07,14.07,0,0,0-5.634,7.48c-.313.931-.579,1.879-.828,2.833C515.264,301.015,512.828,295.071,507.8,293.462Z" transform="translate(-72.3 -49.594)"/><path class="cls-8" d="M190.558,249.281a13.674,13.674,0,0,1,1.125,2.115,16.547,16.547,0,0,1,.984,10.125,18.462,18.462,0,0,1-1.289,3.641,15.066,15.066,0,0,1,6.164-1.909c3-.167,6.562-.161,9.127,1.528a23.567,23.567,0,0,1-1.325-4.231,17.246,17.246,0,0,1,1.6-11.369c.535-1.079,1.128-2.132,1.738-3.174C203.58,249.206,196.313,252.248,190.558,249.281Z" transform="translate(-72.3 -49.594)"/><path class="cls-8" d="M214.022,223.521a13.674,13.674,0,0,0-2.115-1.125,16.547,16.547,0,0,0-10.125-.984,18.462,18.462,0,0,0-3.641,1.289,15.066,15.066,0,0,0,1.909-6.164c.167-3,.161-6.562-1.528-9.128a23.515,23.515,0,0,0,4.231,1.326,17.252,17.252,0,0,0,11.369-1.6c1.079-.535,2.132-1.128,3.174-1.739C214.1,210.5,211.056,217.765,214.022,223.521Z" transform="translate(-72.3 -49.594)"/><path class="cls-8" d="M586.918,435.8a13.661,13.661,0,0,0,2.291-.7,16.536,16.536,0,0,0,7.855-6.464,18.442,18.442,0,0,0,1.664-3.486,15.072,15.072,0,0,0,3.008,5.709c2,2.236,4.527,4.754,7.535,5.373a23.605,23.605,0,0,0-3.929,2.055,17.248,17.248,0,0,0-6.908,9.171c-.384,1.141-.71,2.3-1.015,3.473C596.073,445.058,593.086,437.769,586.918,435.8Z" transform="translate(-72.3 -49.594)"/><path class="cls-8" d="M480.707,629.769a13.69,13.69,0,0,0,2.291-.7,16.546,16.546,0,0,0,7.855-6.464,18.5,18.5,0,0,0,1.663-3.486,15.053,15.053,0,0,0,3.009,5.709c2,2.236,4.526,4.754,7.535,5.373a23.615,23.615,0,0,0-3.93,2.055,17.253,17.253,0,0,0-6.908,9.171c-.384,1.141-.709,2.3-1.014,3.473C489.861,639.03,486.874,631.741,480.707,629.769Z" transform="translate(-72.3 -49.594)"/><path class="cls-8" d="M430.612,148.5a13.665,13.665,0,0,0,2.291-.7,16.535,16.535,0,0,0,7.855-6.464,18.4,18.4,0,0,0,1.663-3.485,15.077,15.077,0,0,0,3.009,5.708c2,2.236,4.527,4.754,7.535,5.374a23.487,23.487,0,0,0-3.929,2.054,17.243,17.243,0,0,0-6.908,9.171c-.385,1.141-.71,2.305-1.015,3.474C439.767,157.763,436.779,150.474,430.612,148.5Z" transform="translate(-72.3 -49.594)"/><path class="cls-8" d="M183.635,365.525a8.341,8.341,0,0,0,1.4-.427,10.076,10.076,0,0,0,4.784-3.937,11.293,11.293,0,0,0,1.013-2.122,9.157,9.157,0,0,0,1.832,3.476c1.218,1.362,2.756,2.9,4.589,3.272a14.334,14.334,0,0,0-2.393,1.252,10.5,10.5,0,0,0-4.207,5.585c-.234.695-.432,1.4-.618,2.115C189.21,371.165,187.39,366.726,183.635,365.525Z" transform="translate(-72.3 -49.594)"/><path class="cls-8" d="M182.268,337.549a13.456,13.456,0,0,1-2.269-.693,16.386,16.386,0,0,1-7.778-6.4A18.282,18.282,0,0,1,170.575,327a14.934,14.934,0,0,1-2.98,5.652c-1.98,2.214-4.482,4.708-7.461,5.321a23.377,23.377,0,0,1,3.891,2.035,17.079,17.079,0,0,1,6.84,9.081c.38,1.13.7,2.282,1,3.439C173.2,346.72,176.161,339.5,182.268,337.549Z" transform="translate(-72.3 -49.594)"/><path class="cls-10" d="M449.348,568.616v81.33l-96.37.46s-16.5-.33-30.68-1.68c-12.72-1.21-62.58-5.96-72.66-6.92v-73.19Z" transform="translate(-72.3 -49.594)"/><path class="cls-11" d="M180.146,428.64c.035,6.625.28,17.285.828,29.029.56,12.164,1.435,25.483,2.718,36.738.583,5.015,1.236,9.61,1.982,13.5q1.1,5.774,2.38,11.29c.1.466.21.933.326,1.4.49,2.146,1.015,4.269,1.551,6.357q1.084,4.215,2.24,8.257c.2.7.4,1.4.606,2.088a313.988,313.988,0,0,0,20.457,52.039c.466.921.921,1.831,1.376,2.717a23.969,23.969,0,0,0-4.385,9.645c-3.289,16.352,9.516,34.382,17.529,33.893a19.871,19.871,0,0,0,4.163-.782c1.062,1.4,6.17-1.388,7.348.2a3.647,3.647,0,0,0,3.9,1.342,1.279,1.279,0,0,0,.374-.152,5.349,5.349,0,0,0,1.854-4.374c.116.525.245,1.062.361,1.575a3.38,3.38,0,0,0,6.672-.653,55.283,55.283,0,0,0-.56-10c-.525-4.934-.7-7.616-1.761-10.975a35.11,35.11,0,0,0-7.884-13.365c-.968-46.9-1.925-114.144-2.905-162.906-.011-.712-.023-1.423-.046-2.123-.023-1.609-.058-3.195-.093-4.747Z" transform="translate(-72.3 -49.594)"/><path class="cls-12" d="M221.782,592.5s29.764-1.563,29.717,42.464a3.357,3.357,0,0,0,.922-2.216,55.283,55.283,0,0,0-.56-10c-.525-4.934-.7-7.616-1.761-10.975a35.11,35.11,0,0,0-7.884-13.365c-.968-46.9-1.925-114.144-2.905-162.906-.011-.712-.023-1.423-.046-2.123l-7.252-2.83,10.039,166.424A34.839,34.839,0,0,0,221.782,592.5Z" transform="translate(-72.3 -49.594)"/><path class="cls-11" d="M519.591,428.64c-.035,6.625-.28,17.285-.828,29.029-.56,12.164-1.435,25.483-2.718,36.738-.583,5.015-1.236,9.61-1.982,13.5q-1.1,5.774-2.379,11.29c-.105.466-.21.933-.327,1.4-.49,2.146-1.015,4.269-1.551,6.357q-1.084,4.215-2.239,8.257c-.2.7-.4,1.4-.607,2.088A314.082,314.082,0,0,1,486.5,589.342c-.467.921-.922,1.831-1.377,2.717a23.987,23.987,0,0,1,4.386,9.645c3.288,16.352-9.517,34.382-17.53,33.893a19.871,19.871,0,0,1-4.163-.782c-1.061,1.4-6.17-1.388-7.348.2a3.647,3.647,0,0,1-3.895,1.342,1.271,1.271,0,0,1-.373-.152,5.349,5.349,0,0,1-1.855-4.374c-.116.525-.245,1.062-.361,1.575a3.379,3.379,0,0,1-6.671-.653,55.1,55.1,0,0,1,.56-10c.524-4.934.7-7.616,1.761-10.975a35.1,35.1,0,0,1,7.884-13.365c.968-46.9,1.924-114.144,2.9-162.906.011-.712.023-1.423.046-2.123.024-1.609.059-3.195.094-4.747Z" transform="translate(-72.3 -49.594)"/><path class="cls-12" d="M477.955,592.5s-29.764-1.563-29.717,42.464a3.351,3.351,0,0,1-.921-2.216,55.1,55.1,0,0,1,.56-10c.524-4.934.7-7.616,1.761-10.975a35.1,35.1,0,0,1,7.884-13.365c.968-46.9,1.924-114.144,2.9-162.906.011-.712.023-1.423.046-2.123l7.252-2.83L457.685,596.981A34.842,34.842,0,0,1,477.955,592.5Z" transform="translate(-72.3 -49.594)"/><path class="cls-8" d="M274.23,285.021l-64.713,31.13a18.4,18.4,0,0,0-9.761,11.689L169.869,436.214a4.944,4.944,0,0,0,4.766,6.258h65.144a4.944,4.944,0,0,0,4.924-4.5l4.943-55.278v185.92H450.091V382.691l4.943,55.278a4.944,4.944,0,0,0,4.924,4.5H525.1a4.944,4.944,0,0,0,4.766-6.258L499.981,327.84a18.4,18.4,0,0,0-9.76-11.689l-64.714-31.13Z" transform="translate(-72.3 -49.594)"/><polygon class="cls-11" points="319.148 208.265 319.148 216.472 318.772 216.83 305.885 229.171 277.566 256.284 249.246 229.171 236.281 216.757 231.007 211.708 231.007 208.265 319.148 208.265"/><path class="cls-11" d="M259.093,165.348s-7.155-12.657-20.248-6.983-3.365,45.767,20.248,44.7Z" transform="translate(-72.3 -49.594)"/><path class="cls-11" d="M440.649,165.348s7.155-12.657,20.248-6.983,3.365,45.767-20.248,44.7Z" transform="translate(-72.3 -49.594)"/><path class="cls-11" d="M440.646,147.891v34.914c0,2.067-.066,4.122-.206,6.153a90.779,90.779,0,0,1-181.349-6.153V147.891a90.778,90.778,0,1,1,181.555,0Z" transform="translate(-72.3 -49.594)"/><ellipse class="cls-13" cx="243.357" cy="132.635" rx="5.075" ry="1.488"/><ellipse class="cls-13" cx="310.157" cy="132.635" rx="5.075" ry="1.488"/><path class="cls-13" d="M331.369,153.121v8.292L313.4,148.54l5.369-.841a10.522,10.522,0,0,1,7.885,1.935Z" transform="translate(-72.3 -49.594)"/><path class="cls-13" d="M366.746,153.121v8.292l17.969-12.873-5.37-.841a10.518,10.518,0,0,0-7.884,1.935Z" transform="translate(-72.3 -49.594)"/><path class="cls-13" d="M443.038,145.556q-.09-3.615-.45-7.17a92.156,92.156,0,0,0-18.26-46.59,94.137,94.137,0,0,0-8.55-9.81c-.7-.7-1.41-1.4-2.14-2.07l-.01-.01a93.725,93.725,0,0,0-12.57-9.95,93.208,93.208,0,0,0-108.16,4.22l-.03.03a93.284,93.284,0,0,0-33.66,52.01l-.3,1.35a92.317,92.317,0,0,0-2.24,19.59v.1c-.01.21-.01.42-.01.63v34.92a92.735,92.735,0,0,0,1.36,15.83c0,.02.01.03.01.05v.02c.11.65.23,1.31.35,1.95v.01c.16.81.33,1.6.51,2.4v.01c.08.37.17.73.25,1.1a.037.037,0,0,1,.01.03v.02a93.3,93.3,0,0,0,29.97,49.21q3.555,3.06,7.39,5.76h.01c.64.44,1.27.88,1.92,1.31h.01c1.24.82,2.48,1.62,3.76,2.37h.01l.02.01c2.06,1.24,4.18,2.39,6.33,3.46h.02a89.811,89.811,0,0,0,11.25,4.7,93.111,93.111,0,0,0,71.22-4.61l.03-.02c2.14-1.05,4.22-2.18,6.28-3.4l.04-.03c1.29-.76,2.58-1.56,3.83-2.4a.607.607,0,0,0,.1-.07c.01,0,.01,0,.02-.01.63-.41,1.26-.85,1.89-1.29a91.75,91.75,0,0,0,10.4-8.46,92.823,92.823,0,0,0,26.95-46.51v-.02c.09-.38.18-.77.26-1.15v-.01c.18-.81.35-1.59.5-2.4v-.01q.735-3.765,1.15-7.61v-.02c.15-1.29.26-2.6.34-3.9.16-2.04.22-4.17.22-6.32v-34.95C443.068,147.086,443.058,146.326,443.038,145.556Zm-4.82,37.25c0,2.04-.06,4.05-.2,5.99a88.361,88.361,0,0,1-176.28.43q-.225-3.18-.23-6.42v-34.92a87.966,87.966,0,0,1,20.81-56.88.01.01,0,0,1,.01-.01c1.03-1.23,2.09-2.41,3.19-3.58a88.128,88.128,0,0,1,64.35-27.88c1.21,0,2.41.03,3.62.07a87.771,87.771,0,0,1,58.86,25.81c1.26,1.26,2.49,2.56,3.67,3.89a86.629,86.629,0,0,1,6.24,7.88,87.635,87.635,0,0,1,15.89,47.31c.05,1.13.07,2.26.07,3.39Z" transform="translate(-72.3 -49.594)"/><path class="cls-3" d="M299.946,153.121a18.17,18.17,0,0,1,6.566-6.45,19.046,19.046,0,0,1,9.161-2.71,17.985,17.985,0,0,1,4.87.579l1.173.349c.384.134.757.3,1.132.451a9.419,9.419,0,0,1,1.095.514c.352.2.718.362,1.053.581a17.682,17.682,0,0,1,6.373,6.686,54.064,54.064,0,0,0-7.833-3.595,22.419,22.419,0,0,0-7.745-1.192,28.451,28.451,0,0,0-7.832,1.475A66.635,66.635,0,0,0,299.946,153.121Z" transform="translate(-72.3 -49.594)"/><path class="cls-3" d="M366.746,153.121a14.552,14.552,0,0,1,2.736-3.8,19.626,19.626,0,0,1,3.692-2.952,18.7,18.7,0,0,1,9.288-2.828,17.866,17.866,0,0,1,4.965.611l1.193.367c.39.139.767.315,1.148.472a9.351,9.351,0,0,1,1.107.539c.356.2.724.38,1.061.608a16.8,16.8,0,0,1,6.233,6.982,65.6,65.6,0,0,0-7.973-3.3,23.594,23.594,0,0,0-7.593-1.07,30.678,30.678,0,0,0-7.7,1.357C372.268,150.892,369.627,151.937,366.746,153.121Z" transform="translate(-72.3 -49.594)"/><path class="cls-13" d="M332.18,229.518a59.038,59.038,0,0,0,8.887,2.624,41.873,41.873,0,0,0,8.763.912,34.928,34.928,0,0,0,4.377-.262c.733-.065,1.456-.205,2.192-.3.367-.053.726-.148,1.1-.207s.737-.126,1.1-.222c2.936-.633,5.863-1.562,8.964-2.542a23.391,23.391,0,0,1-7.958,5.62,24.229,24.229,0,0,1-4.75,1.515c-.814.2-1.65.283-2.48.41-.836.071-1.674.137-2.515.137a24.393,24.393,0,0,1-9.78-1.932,22.768,22.768,0,0,1-4.323-2.4,18.838,18.838,0,0,1-1.912-1.547A12.62,12.62,0,0,1,332.18,229.518Z" transform="translate(-72.3 -49.594)"/><path class="cls-3" d="M341.1,187.32a9.05,9.05,0,0,1,.869-2.771,11.315,11.315,0,0,1,.75-1.3,9.794,9.794,0,0,1,.984-1.174l.56-.549.638-.475a7.822,7.822,0,0,1,1.4-.811,12.308,12.308,0,0,1,1.561-.533c.54-.077,1.092-.177,1.64-.2.54.02,1.092.024,1.633.077l1.565.331c.511.138.978.354,1.468.531.241.1.486.174.724.3l.71.376a10.48,10.48,0,0,1,2.585,2.062,8.111,8.111,0,0,1,1.695,3,7.946,7.946,0,0,1,.25,3.426,8.919,8.919,0,0,1-1.094,3.117,10.876,10.876,0,0,1-1.973,2.479,12.947,12.947,0,0,1-2.5,1.777,14.83,14.83,0,0,1-2.762,1.128,15.615,15.615,0,0,1-2.871.523,17.229,17.229,0,0,1-5.648-.395,25.442,25.442,0,0,0,5.392-.938,18.4,18.4,0,0,0,2.468-.945,14.782,14.782,0,0,0,2.2-1.319,9.564,9.564,0,0,0,3.107-3.657,5.5,5.5,0,0,0,.309-4.186,5.934,5.934,0,0,0-2.838-3.1,8.6,8.6,0,0,0-1.073-.5c-.376-.142-.749-.327-1.125-.442l-1.13-.317-1.128-.163a7.326,7.326,0,0,0-4.42,1.082,11.317,11.317,0,0,0-1.056.7c-.33.275-.682.541-1,.852a17.532,17.532,0,0,0-1.883,2.026Z" transform="translate(-72.3 -49.594)"/><path class="cls-13" d="M258.185,205.516c-14.142,0-23.688-13.4-26.629-26.139-2.614-11.318-.131-20.44,6.325-23.237,11.942-5.174,20.477,2.98,23.323,8.014l-4.218,2.394c-.252-.438-6.295-10.674-17.177-5.958-4.075,1.766-5.526,9.043-3.528,17.7,2.573,11.146,10.783,22.905,22.7,22.362l.218,4.844C258.861,205.508,258.521,205.516,258.185,205.516Z" transform="translate(-72.3 -49.594)"/><path class="cls-13" d="M441.557,205.516q-.5,0-1.017-.024l.218-4.844c11.934.539,20.13-11.215,22.7-22.362,2-8.653.547-15.93-3.529-17.7-10.887-4.718-16.926,5.521-17.177,5.958l-4.218-2.394c2.846-5.034,11.385-13.19,23.324-8.014,6.455,2.8,8.938,11.919,6.325,23.237C465.245,192.116,455.7,205.515,441.557,205.516Z" transform="translate(-72.3 -49.594)"/><rect class="cls-3" x="237.465" y="111.819" width="11.784" height="20.816" rx="5.892"/><rect class="cls-3" x="304.266" y="111.819" width="11.784" height="20.816" rx="5.892"/><path class="cls-13" d="M256.881,179.44c-.175-.387-4.389-9.422-11.707-6.593l-1.747-4.524c9.29-3.59,15.755,4.4,17.876,9.125Z" transform="translate(-72.3 -49.594)"/><path class="cls-13" d="M250.454,190.562c-9.738-5.8-3.089-20.877-2.8-21.515l4.422,1.989c-.053.117-5.078,11.82.861,15.36Z" transform="translate(-72.3 -49.594)"/><path class="cls-13" d="M442.7,177.541l-4.12-2.558c2.875-4.651,11.074-11.939,21.529-6.236l-2.322,4.258C448.929,168.169,443.315,176.567,442.7,177.541Z" transform="translate(-72.3 -49.594)"/><path class="cls-13" d="M449.992,186.188l-2.277-4.281c5.546-2.952,2.169-11.949,2.134-12.039l4.527-1.738C456.11,172.646,457.425,182.232,449.992,186.188Z" transform="translate(-72.3 -49.594)"/><path class="cls-3" d="M443.068,147.891v6.595a6.068,6.068,0,0,1-3.5,5.553,5.586,5.586,0,0,1-2.334.509.144.144,0,0,1-.017-.024l-2.316-2.868-3.53-4.37-.035-.036-21.253-26.325-8.733-10.814c-24.782,13.317-84.411,6.758-84.411,6.758a19.736,19.736,0,0,1,12.893-10.856l-30.745.964-34.256,44.534-2.334,3.037c.018,1.1.029,2.121.041,3.073.023,2.825.006,5.019-.041,6.668-.239,8.262-1.313,3.14-2.333-2.661-.415-2.334-.817-4.777-1.156-6.51a8.845,8.845,0,0,0-.635-2.346,6.164,6.164,0,0,1-1.71-4.286v-5.74q0-3.128.193-6.207a.166.166,0,0,1,.006-.054,99.787,99.787,0,0,1,4.428-23.931c-.584.351-1.15.709-1.687,1.066,15.956-78.139,91.418-69.762,91.418-69.762,54.366,0,76.675,33.611,85.8,62.725l-.1.036q.358.956.7,1.922A100.34,100.34,0,0,1,443.068,147.891Z" transform="translate(-72.3 -49.594)"/><path class="cls-14" d="M274.23,287.64l22.714-26.329a2.394,2.394,0,0,1,3.468-.166L349.868,308.5l-26.976,22.195Z" transform="translate(-72.3 -49.594)"/><path class="cls-14" d="M425.507,287.64l-22.714-26.329a2.394,2.394,0,0,0-3.468-.166L349.868,308.5l26.977,22.195Z" transform="translate(-72.3 -49.594)"/><path class="cls-10" d="M332.283,336.6l14.979,13.606a3.876,3.876,0,0,0,5.213,0L367.454,336.6a10.969,10.969,0,0,0-.406-16.59l-17.18-14.134-17.179,14.134A10.968,10.968,0,0,0,332.283,336.6Z" transform="translate(-72.3 -49.594)"/><path class="cls-10" d="M377.63,466.486,349.869,513.62l-27.763-47.134,17.949-122.825,7.207,6.546a3.863,3.863,0,0,0,5.213,0l7.207-6.546Z" transform="translate(-72.3 -49.594)"/><path class="cls-14" d="M307.949,335.06h54.99a0,0,0,0,1,0,0v57.823a10.26,10.26,0,0,1-10.26,10.26h-34.47a10.26,10.26,0,0,1-10.26-10.26V335.06A0,0,0,0,1,307.949,335.06Z"/><path class="cls-8" d="M307.949,335.2h51.175a0,0,0,0,1,0,0v53.1a10.26,10.26,0,0,1-10.26,10.26H318.209a10.26,10.26,0,0,1-10.26-10.26V335.2A0,0,0,0,1,307.949,335.2Z"/><path class="cls-13" d="M264.489,161.413s78.208-76.271,170.874-1.369l1.037-11.5-31.714-20.416L341.1,118.769l-67.983,21.322s-10.124,6.214-10.124,8.449S264.489,161.413,264.489,161.413Z" transform="translate(-72.3 -49.594)"/><path class="cls-8" d="M274.23,285.021l22.714-26.329a2.394,2.394,0,0,1,3.468-.165l49.456,47.352-26.976,22.194Z" transform="translate(-72.3 -49.594)"/><path class="cls-8" d="M425.507,285.021l-22.714-26.329a2.394,2.394,0,0,0-3.468-.165l-49.457,47.352,26.977,22.194Z" transform="translate(-72.3 -49.594)"/><rect class="cls-14" x="177.346" y="519.017" width="199.365" height="14.402"/><polygon class="cls-3" points="362.252 103.692 362.252 118.536 370.208 143.455 370.768 110.444 374.405 98.297 362.252 103.692"/><polygon class="cls-3" points="198.657 101.94 192.189 111.819 192.189 132.635 185.722 149.115 185.722 104.898 198.657 101.94"/><polygon class="cls-3" points="363.518 109.036 353.262 94.364 368.328 103.527 363.518 109.036"/><rect class="cls-10" x="262.19" y="516.834" width="29.677" height="18.767"/><path class="cls-10" d="M446.705,156.364l-6.062,4.181a.178.178,0,0,1-.018-.024,33.419,33.419,0,0,0-2.407-3.219c-.933-1.121-2.146-2.491-3.667-4.018l-.036-.037a75.579,75.579,0,0,0-6.614-5.88,90.178,90.178,0,0,0-14.183-9.152c-14.063-7.377-34.388-13.736-62.653-13.736-28.677,0-49.989,7.632-65.016,16.4a104.133,104.133,0,0,0-14.978,10.559c-.018.018-.036.03-.049.042s-.042.037-.066.055a90.769,90.769,0,0,0-9.444,9.232c-.946,1.079-1.74,2.036-2.382,2.854a.332.332,0,0,0-.043.055c-1.418,1.8-2.1,2.873-2.1,2.873l-.321-1.145-1.2-4.286-.66-2.346-1.267-1.873-.509-5.788q0-4.41.2-8.571a.169.169,0,0,1,.006-.055,143.269,143.269,0,0,1,2.849-22.864c16.578-78.14,94.984-69.763,94.984-69.763,56.488,0,79.667,33.612,89.148,62.725.218.655.424,1.309.624,1.958a138.162,138.162,0,0,1,5.867,36.133C446.759,153.108,446.705,156.364,446.705,156.364Z" transform="translate(-72.3 -49.594)"/><path class="cls-8" d="M351.065,49.855s-76.836-4.7-76.836,84.335c0,0,37.03-19.179,76.836-21.622,39.807,2.443,76.837,21.622,76.837,21.622C427.9,45.158,351.065,49.855,351.065,49.855Z" transform="translate(-72.3 -49.594)"/><path class="cls-15" d="M413.718,138.215c-14.063-7.377-34.388-13.736-62.653-13.736-28.677,0-49.989,7.632-65.016,16.4,15.4-9.869,40.467-23.216,65.016-24.58C375.584,117.66,399.273,129.462,413.718,138.215Z" transform="translate(-72.3 -49.594)"/></g></g></g></svg>