<svg xmlns="http://www.w3.org/2000/svg" xmlns:xlink="http://www.w3.org/1999/xlink" viewBox="0 0 555.4 600.811"><defs><style>.cls-1{fill:#2f2e41;}.cls-2{fill:url(#linear-gradient);}.cls-3,.cls-4{fill:none;}.cls-3{stroke:#fff;stroke-linecap:round;stroke-miterlimit:10;stroke-width:1.058px;}.cls-5{fill:url(#linear-gradient-2);}.cls-6{fill:url(#linear-gradient-3);}.cls-7{fill:#fff;}.cls-8{fill:url(#linear-gradient-4);}.cls-9{fill:#a8b3dd;}.cls-10{fill:#ffb59e;}.cls-11{fill:#f4a690;}.cls-12{fill:#ed9885;}.cls-13{fill:#ddd;}.cls-14{fill:#8292c4;}</style><linearGradient id="linear-gradient" x1="532.281" y1="496.17" x2="442.641" y2="460.53" gradientUnits="userSpaceOnUse"><stop offset="0" stop-color="#6cbdea"/><stop offset="1" stop-color="#2490cf"/></linearGradient><linearGradient id="linear-gradient-2" x1="493.339" y1="438.551" x2="405.499" y2="419.831" xlink:href="#linear-gradient"/><linearGradient id="linear-gradient-3" x1="82.256" y1="540.465" x2="111.083" y2="500.828" xlink:href="#linear-gradient"/><linearGradient id="linear-gradient-4" x1="17.945" y1="457.848" x2="143.225" y2="454.968" xlink:href="#linear-gradient"/></defs><g id="Layer_2" data-name="Layer 2"><g id="Layer_1-2" data-name="Layer 1"><path class="cls-1" d="M143.8,582.415c19.05-26.69-46.2-130.3-96.842-123.362-21.618,2.962-42.036,26.271-38.615,39.959,3.268,13.079,25.86,7.618,46.678,27.458,21.727,20.707,13.069,41.857,32.949,55.831C105.222,594.429,134.953,594.806,143.8,582.415Z"/><path class="cls-1" d="M463.7,555.641s.27,50.77-75.01,44.66l-11.64.05-96.37.46s-16.5-.33-30.68-1.68c-12.72-1.21-62.58-5.96-72.66-6.92l-1.78-.17-1.18-3.85-1.43-4.66-3.85-12.54-4.71-15.35-3-9.78-.64-2.08-.88-2.87,9.52.46.38.02,3.21.16,4.36.21,199.71,9.68,5.74.28,3.16.15,31.48,1.53Z"/><path class="cls-1" d="M154.75,526.283s-6.6-56.5-43.3-77.786-82.923-55.038-82.923-91.729S65.705,317.544,76.1,279.183,53.481,210,53.481,172.576,90.907,92.588,135.67,93.322s46.3,22.686,90.836,23.96,27.311-79,81.615-80.465S373.432,53.7,391.044,77.911s31.555,43.3,57.973,58.707,57.974,12.475,62.377,46.965-17.613,59.441-26.42,78.52.734,55.772,22.016,80.722,46.231,26.418,46.965,57.973-53.57,69.714-72.65,104.2-17.612,50.634-17.612,50.634H154.6Z"/><path class="cls-1" d="M543.16,293.9c-2.7-6.128-4.74-11.338-5.052-18.1-.193-4.179-.527-8.122-3.619-11.3-6.365-6.534-14.516-2.213-17.4,5.169a29.789,29.789,0,0,0-1.2,3.814,43.112,43.112,0,0,0-.938,30.256c2.957,8.431,9.676,19.793,17.662,24.356,6.734,3.847,15.237,1.6,18.087-5.887C554.238,312.935,546.761,302.068,543.16,293.9Z"/><path class="cls-1" d="M38.123,236.751a10.512,10.512,0,0,0-2.644.082,6.528,6.528,0,0,0-7.774,4.662,12.243,12.243,0,0,0-1.073,1.65c-1.894,3.558-1.889,7.426-1.816,11.306-2.978,6.128-6.466,12.287-.95,17.824,8.505,8.536,17.986-7.313,20.709-13.766C47.741,251,49.509,237.987,38.123,236.751Z"/><path class="cls-1" d="M237.577,63.659c-5.121-.237-8.91,3.093-10.418,7.521a15.874,15.874,0,0,0-2.92,9.047c-.053,4.675,4.845,6.739,8.65,4.964,6.22-2.9,9.841-9.118,10.436-15.784C243.611,66.21,240.456,63.792,237.577,63.659Z"/><path class="cls-2" d="M545.639,421.847c-5.566,9.157-12.332,17.509-18.036,26.575a86.371,86.371,0,0,0-7.343,14.094,110.423,110.423,0,0,0-4.519,15.478c-2.343,9.923-4.816,20.051-12.063,27.645-5.307,5.561-12.225,9.237-19.27,12.116-14.408,5.887-30.44,9.041-43.069,18.615-9.158,6.943-15.276,16.885-23.792,24.493-7.252,6.479-18.482,11.416-27.843,6.94a52.041,52.041,0,0,0,8.068-22.18,108.072,108.072,0,0,1,52.406-73.032c6.993-3.945,14.485-7.441,19.954-13.507,5.374-5.96,8.356-13.5,11.5-20.767,3.231-7.461,6.87-14.509,13-20.02,5.872-5.279,13.015-8.952,20.051-12.413,14.167-6.966,30.924-14.788,36.729-30.47C559.681,389.893,553.772,408.466,545.639,421.847Z"/><path class="cls-3" d="M527.494,417.707s-19.513,19.328-25.954,33.961-6.712,25.935-18.618,33.3-36.38,14.753-48.621,28.616-12.61,27.193-44.6,54.221"/><path class="cls-4" d="M545.639,421.847c-5.566,9.157-12.332,17.509-18.036,26.575a86.371,86.371,0,0,0-7.343,14.094,110.423,110.423,0,0,0-4.519,15.478c-2.343,9.923-4.816,20.051-12.063,27.645-5.307,5.561-12.225,9.237-19.27,12.116-14.408,5.887-30.44,9.041-43.069,18.615-9.158,6.943-15.276,16.885-23.792,24.493-7.252,6.479-18.482,11.416-27.843,6.94a52.041,52.041,0,0,0,8.068-22.18,108.072,108.072,0,0,1,52.406-73.032c6.993-3.945,14.485-7.441,19.954-13.507,5.374-5.96,8.356-13.5,11.5-20.767,3.231-7.461,6.87-14.509,13-20.02,5.872-5.279,13.015-8.952,20.051-12.413,14.167-6.966,30.924-14.788,36.729-30.47C559.681,389.893,553.772,408.466,545.639,421.847Z"/><path class="cls-5" d="M494.073,357.99c1.038-19.484-.5-41.114-14.964-55.8-12.32-12.5-30.251-14.195-45.013-5.088-14.815,9.139-24.37,24.7-31.76,40a289.273,289.273,0,0,0-21.573,62.745c-9.818,43.935-10.679,89.492-6.927,134.207q.714,8.5,1.65,16.986a2.852,2.852,0,0,0,4.7,1.777,6.772,6.772,0,0,0,6.145.632c4.215-1.359,7.568-5.4,10.729-8.32q11.368-10.488,21.807-21.928a328.609,328.609,0,0,0,37.342-49.434C477.643,438.813,491.883,399.13,494.073,357.99Z"/><line class="cls-3" x1="444.779" y1="343.536" x2="377.009" y2="560.093"/><path class="cls-4" d="M494.073,357.99c1.038-19.484-.5-41.114-14.964-55.8-12.32-12.5-30.251-14.195-45.013-5.088-14.815,9.139-24.37,24.7-31.76,40a289.273,289.273,0,0,0-21.573,62.745c-9.818,43.935-10.679,89.492-6.927,134.207q.714,8.5,1.65,16.986a2.852,2.852,0,0,0,4.7,1.777,6.772,6.772,0,0,0,6.145.632c4.215-1.359,7.568-5.4,10.729-8.32q11.368-10.488,21.807-21.928a328.609,328.609,0,0,0,37.342-49.434C477.643,438.813,491.883,399.13,494.073,357.99Z"/><path class="cls-6" d="M197.79,547.931c-.807-.6-1.611-1.192-2.391-1.769-2.072-1.527-4.147-3.064-6.226-4.579q-2.863-2.1-5.739-4.189c-1.444-1.042-2.878-2.086-4.321-3.128-.262-.185-.523-.37-.775-.558q-3.7-2.668-7.391-5.306-6.813-4.863-13.668-9.663-23.529-16.5-47.45-32.442-19.987-13.409-40.144-26.571-5.457-3.569-10.9-7.128L44.072,443c-7.745-5.048-15.657-11.3-24.8-13.477a20.477,20.477,0,0,0-4.378-.574,14.244,14.244,0,0,0-8.2,2.231,14.943,14.943,0,0,0-5.9,8.478c-2.283,7.918.667,15.727,5.373,22.116,5.264,7.134,12.276,13.111,18.876,18.956q7.077,6.27,14.5,12.16c2.232,1.794,4.494,3.547,6.782,5.283a483.857,483.857,0,0,0,45.349,30.31c14.855,8.833,40.556,21.667,61.427,31.81,3.93,1.909,7.686,3.723,11.171,5.385,12.093,5.808,20.87,9.925,21.97,10.493,2.55,1.307,5.368,3.078,8.318,4.437a26.68,26.68,0,0,0,3.1,1.232,16.366,16.366,0,0,0,3.29.73,10.8,10.8,0,0,0,5.635-.775,9.681,9.681,0,0,0,3.467-2.526c3.34-3.768,3.868-9.934,2.393-14.6C210.151,557.459,203.766,552.364,197.79,547.931Z"/><path class="cls-3" d="M36.934,465C94.241,514.631,189.9,568.2,210.042,579.266l.009,0"/><path class="cls-7" d="M419.859,434.943a1.521,1.521,0,0,0,.839,2.923A1.521,1.521,0,0,0,419.859,434.943Z"/><path class="cls-7" d="M19.678,454.766a1.521,1.521,0,0,0,.839,2.923A1.521,1.521,0,0,0,19.678,454.766Z"/><path class="cls-7" d="M97.972,515.639a1.561,1.561,0,0,0-1.593-.515l-.374.164a1.519,1.519,0,0,0-.536.561l-.144.361a1.51,1.51,0,0,0,.012.795l.161.56a1.134,1.134,0,0,0,.288.526,1.12,1.12,0,0,0,.437.384,1.69,1.69,0,0,0,1.156.131l.373-.164a1.511,1.511,0,0,0,.537-.56l.144-.362a1.511,1.511,0,0,0-.013-.795l-.16-.559A1.138,1.138,0,0,0,97.972,515.639Z"/><path class="cls-7" d="M102.024,490.483a1.521,1.521,0,0,0,.839,2.923A1.521,1.521,0,0,0,102.024,490.483Z"/><path class="cls-7" d="M98.317,412.19a1.522,1.522,0,0,0,.84,2.923A1.522,1.522,0,0,0,98.317,412.19Z"/><path class="cls-7" d="M93.925,358.931a1.522,1.522,0,0,0,.84,2.923A1.522,1.522,0,0,0,93.925,358.931Z"/><path class="cls-7" d="M160.887,431.779a1.521,1.521,0,0,0,.839,2.923A1.521,1.521,0,0,0,160.887,431.779Z"/><path class="cls-7" d="M474.387,422.312a1.521,1.521,0,0,0,.839,2.922A1.521,1.521,0,0,0,474.387,422.312Z"/><path class="cls-7" d="M474.3,358.73a1.521,1.521,0,0,0,.84,2.922A1.521,1.521,0,0,0,474.3,358.73Z"/><path class="cls-7" d="M428.168,312.006a1.521,1.521,0,0,0,.839,2.922A1.521,1.521,0,0,0,428.168,312.006Z"/><path class="cls-7" d="M421.431,240.035a1.522,1.522,0,0,0,.84,2.923A1.522,1.522,0,0,0,421.431,240.035Z"/><path class="cls-7" d="M388.127,273.832a1.521,1.521,0,0,0,.839,2.922A1.521,1.521,0,0,0,388.127,273.832Z"/><path class="cls-8" d="M172,336.688c-4.887,2.6-8.145,7.313-10.987,11.9-3.52,5.684-6.962,11.417-10.439,17.126-2.7,4.44-5.34,8.9-8.9,12.722-2.851,3.057-6.543,6.087-10.861,6.512-6.008.59-9.806-4.482-12.833-8.9a89.7,89.7,0,0,0-25.812-25.4c-9.529-6.048-21.127-11.058-32.6-8.277-9.687,2.349-17.55,10.1-17.648,20.421-.091,9.7,5.946,18.551,11.759,25.818,4.122,5.153,8.457,10.145,12.7,15.2l6.54,7.8a33.8,33.8,0,0,1,5.069,7.022c2.542,5.417-.162,10.4-4.616,13.72-4.573,3.41-9.9,4.866-15.175,6.761-8.644,3.1-20.059,9.756-16.659,20.763,2.652,8.585,12.9,12.293,21.085,11.472,5.541-.556,10.8-2.564,15.993-4.461a78.926,78.926,0,0,1,17.491-4.521c5.554-.685,11.552-1,17.046.274,4.769,1.105,10.083,4.706,7.9,10.322-2.069,5.33-8.106,8.133-13.032,10.145-5.649,2.307-11.536,3.951-17.314,5.895-10.537,3.544-21.512,8.677-27.345,18.666-4.559,7.806-4.359,19.03,2.214,25.695,8.114,8.227,21.665,4.616,31.212,1.348a84.1,84.1,0,0,0,29.033-17.059c6.139-5.548,13.826-14.891,23.11-13.642a11.33,11.33,0,0,1,9.57,9.632,10.551,10.551,0,0,1-1.351,6.518,185.717,185.717,0,0,0-25.366,19.176c-6.461,5.829-14.653,14.512-12.412,24.084,2.542,10.855,15.563,12.223,24.657,10.221,11.122-2.448,21.4-7.922,30.885-14.064,10.238-6.626,20.046-14,29.788-21.331a296.792,296.792,0,0,0,29.488-24.807c17.545-17.176,32.193-38.554,36.73-63.072a70.179,70.179,0,0,0,1.258-17.532c-.363-5.141-1.832-10.43-5.506-14.209-3.306-3.4-8.2-5.436-12.927-4.223-4.828,1.24-7.911,5.428-10.253,9.544-3.15,5.539-5.944,11.2-9.494,16.514a133.58,133.58,0,0,1-12.079,15.488c-2.141,2.364-4.342,4.712-6.7,6.86-2.165,1.97-4.69,3.946-7.621,4.563a7.735,7.735,0,0,1-7.087-1.822c-2.014-2.125-1.46-5.238-.523-7.727,2.194-5.824,5.7-11.318,9.095-16.5,3.521-5.386,7.308-10.591,11.025-15.842,7.051-9.96,14.6-20.567,18.231-32.36,2.4-7.814,1.707-19.967-9.013-20.208-9.418-.212-17.509,7.079-22.693,14.2-5.754,7.907-9.746,16.923-15.32,24.946-2.8,4.027-5.992,8.055-10.192,10.689-4.147,2.6-10.111,4.5-14.772,2.12-4.726-2.412-5.414-7.949-4.462-12.647,1.089-5.374,4-10.338,6.8-14.98,6.336-10.5,14.3-20.16,19.015-31.571a44.506,44.506,0,0,0,3.594-16.6c.04-4.93-1.2-10.193-5.83-12.754C181.351,334.042,176.055,334.533,172,336.688Z"/><path class="cls-3" d="M83.843,388.172s80.995,81.4,132.213,149.521"/><path class="cls-3" d="M126.8,432.414s28.293-38.17,41.774-67.434"/><path class="cls-3" d="M63.355,453.626s33.411-6.77,58.857-24.746"/><path class="cls-3" d="M162.174,472.212s22.946-19.516,57.513-76.989"/><path class="cls-3" d="M76.741,518.892s51.065-18.234,81.635-50.075"/><path class="cls-3" d="M198.059,513.724S222.1,497.461,246.2,458.7"/><path class="cls-3" d="M132.1,558.679s38.022-20.441,66.25-40.363"/><path class="cls-4" d="M172,336.688c-4.887,2.6-8.145,7.313-10.987,11.9-3.52,5.684-6.962,11.417-10.439,17.126-2.7,4.44-5.34,8.9-8.9,12.722-2.851,3.057-6.543,6.087-10.861,6.512-6.008.59-9.806-4.482-12.833-8.9a89.7,89.7,0,0,0-25.812-25.4c-9.529-6.048-21.127-11.058-32.6-8.277-9.687,2.349-17.55,10.1-17.648,20.421-.091,9.7,5.946,18.551,11.759,25.818,4.122,5.153,8.457,10.145,12.7,15.2l6.54,7.8a33.8,33.8,0,0,1,5.069,7.022c2.542,5.417-.162,10.4-4.616,13.72-4.573,3.41-9.9,4.866-15.175,6.761-8.644,3.1-20.059,9.756-16.659,20.763,2.652,8.585,12.9,12.293,21.085,11.472,5.541-.556,10.8-2.564,15.993-4.461a78.926,78.926,0,0,1,17.491-4.521c5.554-.685,11.552-1,17.046.274,4.769,1.105,10.083,4.706,7.9,10.322-2.069,5.33-8.106,8.133-13.032,10.145-5.649,2.307-11.536,3.951-17.314,5.895-10.537,3.544-21.512,8.677-27.345,18.666-4.559,7.806-4.359,19.03,2.214,25.695,8.114,8.227,21.665,4.616,31.212,1.348a84.1,84.1,0,0,0,29.033-17.059c6.139-5.548,13.826-14.891,23.11-13.642a11.33,11.33,0,0,1,9.57,9.632,10.551,10.551,0,0,1-1.351,6.518,185.717,185.717,0,0,0-25.366,19.176c-6.461,5.829-14.653,14.512-12.412,24.084,2.542,10.855,15.563,12.223,24.657,10.221,11.122-2.448,21.4-7.922,30.885-14.064,10.238-6.626,20.046-14,29.788-21.331a296.792,296.792,0,0,0,29.488-24.807c17.545-17.176,32.193-38.554,36.73-63.072a70.179,70.179,0,0,0,1.258-17.532c-.363-5.141-1.832-10.43-5.506-14.209-3.306-3.4-8.2-5.436-12.927-4.223-4.828,1.24-7.911,5.428-10.253,9.544-3.15,5.539-5.944,11.2-9.494,16.514a133.58,133.58,0,0,1-12.079,15.488c-2.141,2.364-4.342,4.712-6.7,6.86-2.165,1.97-4.69,3.946-7.621,4.563a7.735,7.735,0,0,1-7.087-1.822c-2.014-2.125-1.46-5.238-.523-7.727,2.194-5.824,5.7-11.318,9.095-16.5,3.521-5.386,7.308-10.591,11.025-15.842,7.051-9.96,14.6-20.567,18.231-32.36,2.4-7.814,1.707-19.967-9.013-20.208-9.418-.212-17.509,7.079-22.693,14.2-5.754,7.907-9.746,16.923-15.32,24.946-2.8,4.027-5.992,8.055-10.192,10.689-4.147,2.6-10.111,4.5-14.772,2.12-4.726-2.412-5.414-7.949-4.462-12.647,1.089-5.374,4-10.338,6.8-14.98,6.336-10.5,14.3-20.16,19.015-31.571a44.506,44.506,0,0,0,3.594-16.6c.04-4.93-1.2-10.193-5.83-12.754C181.351,334.042,176.055,334.533,172,336.688Z"/><path class="cls-7" d="M433.753,184.725a18.187,18.187,0,0,0,3.038-.928,21.94,21.94,0,0,0,10.416-8.572,24.445,24.445,0,0,0,2.2-4.622,19.99,19.99,0,0,0,3.99,7.57c2.652,2.965,6,6.3,9.992,7.125a31.218,31.218,0,0,0-5.21,2.725,22.868,22.868,0,0,0-9.161,12.161c-.509,1.513-.941,3.056-1.346,4.606C445.892,197.006,441.931,187.34,433.753,184.725Z"/><path class="cls-7" d="M469.8,221.445a11.127,11.127,0,0,0,1.869-.571,13.482,13.482,0,0,0,6.406-5.272,15.04,15.04,0,0,0,1.357-2.843,12.293,12.293,0,0,0,2.453,4.656c1.631,1.824,3.692,3.878,6.146,4.383a19.118,19.118,0,0,0-3.2,1.676,14.064,14.064,0,0,0-5.634,7.479c-.313.93-.579,1.88-.828,2.833C477.264,229,474.828,223.054,469.8,221.445Z"/><path class="cls-7" d="M435.5,243.868a11.156,11.156,0,0,0,1.869-.571,13.5,13.5,0,0,0,6.406-5.272,15.008,15.008,0,0,0,1.356-2.843,12.3,12.3,0,0,0,2.454,4.656c1.631,1.824,3.692,3.877,6.145,4.382a19.3,19.3,0,0,0-3.2,1.676,14.07,14.07,0,0,0-5.634,7.48c-.313.93-.579,1.879-.828,2.833C442.964,251.421,440.528,245.476,435.5,243.868Z"/><path class="cls-7" d="M118.258,199.687a13.628,13.628,0,0,1,1.125,2.115,16.547,16.547,0,0,1,.984,10.125,18.462,18.462,0,0,1-1.289,3.641,15.066,15.066,0,0,1,6.164-1.909c2.995-.167,6.562-.161,9.127,1.528a23.592,23.592,0,0,1-1.325-4.231,17.249,17.249,0,0,1,1.6-11.37c.535-1.078,1.128-2.131,1.738-3.173C131.28,199.611,124.013,202.653,118.258,199.687Z"/><path class="cls-7" d="M141.722,173.926a13.76,13.76,0,0,0-2.115-1.125,16.547,16.547,0,0,0-10.125-.983,18.4,18.4,0,0,0-3.641,1.289,15.071,15.071,0,0,0,1.909-6.164c.167-3,.161-6.563-1.528-9.128a23.6,23.6,0,0,0,4.231,1.326,17.256,17.256,0,0,0,11.37-1.6c1.078-.536,2.131-1.128,3.173-1.739C141.8,160.905,138.756,168.171,141.722,173.926Z"/><path class="cls-7" d="M514.618,386.2a13.661,13.661,0,0,0,2.291-.7,16.542,16.542,0,0,0,7.855-6.464,18.442,18.442,0,0,0,1.664-3.486,15.072,15.072,0,0,0,3.008,5.709c2,2.235,4.527,4.753,7.535,5.373a23.531,23.531,0,0,0-3.929,2.055,17.242,17.242,0,0,0-6.908,9.17c-.384,1.141-.71,2.305-1.015,3.474C523.773,395.464,520.786,388.175,514.618,386.2Z"/><path class="cls-7" d="M408.407,580.175a13.69,13.69,0,0,0,2.291-.7,16.551,16.551,0,0,0,7.855-6.464,18.5,18.5,0,0,0,1.663-3.486,15.06,15.06,0,0,0,3.009,5.709c2,2.235,4.526,4.753,7.535,5.373a23.54,23.54,0,0,0-3.93,2.055,17.247,17.247,0,0,0-6.908,9.17c-.384,1.141-.709,2.3-1.014,3.474C417.561,589.436,414.574,582.147,408.407,580.175Z"/><path class="cls-7" d="M358.312,98.907a13.661,13.661,0,0,0,2.291-.7,16.541,16.541,0,0,0,7.855-6.464,18.383,18.383,0,0,0,1.663-3.486,15.081,15.081,0,0,0,3.009,5.709c2,2.236,4.527,4.754,7.535,5.373a23.566,23.566,0,0,0-3.929,2.055,17.243,17.243,0,0,0-6.908,9.171c-.385,1.141-.71,2.305-1.015,3.473C367.467,108.168,364.479,100.879,358.312,98.907Z"/><path class="cls-7" d="M111.335,315.93a8.337,8.337,0,0,0,1.4-.426,10.082,10.082,0,0,0,4.784-3.937,11.273,11.273,0,0,0,1.013-2.123,9.161,9.161,0,0,0,1.832,3.477c1.218,1.362,2.756,2.895,4.589,3.272a14.373,14.373,0,0,0-2.393,1.252,10.5,10.5,0,0,0-4.207,5.585c-.234.7-.432,1.4-.618,2.115C116.91,321.57,115.091,317.131,111.335,315.93Z"/><path class="cls-7" d="M109.968,287.955a13.642,13.642,0,0,1-2.269-.693,16.386,16.386,0,0,1-7.778-6.4,18.263,18.263,0,0,1-1.646-3.452,14.931,14.931,0,0,1-2.98,5.653c-1.98,2.214-4.482,4.708-7.461,5.321a23.3,23.3,0,0,1,3.891,2.035,17.075,17.075,0,0,1,6.84,9.081c.38,1.129.7,2.282,1,3.439C100.9,297.126,103.861,289.908,109.968,287.955Z"/><path class="cls-9" d="M377.048,519.021v81.33l-96.37.46s-16.5-.33-30.68-1.68c-12.72-1.21-62.58-5.96-72.66-6.92v-73.19Z"/><path class="cls-10" d="M107.846,379.046c.035,6.625.28,17.284.828,29.029.56,12.164,1.435,25.483,2.718,36.738.583,5.015,1.236,9.61,1.982,13.5q1.1,5.774,2.38,11.29c.1.466.21.933.326,1.4.49,2.146,1.015,4.269,1.551,6.356q1.084,4.216,2.24,8.258c.2.7.4,1.4.606,2.087a313.967,313.967,0,0,0,20.457,52.04c.466.921.921,1.831,1.376,2.717a23.969,23.969,0,0,0-4.385,9.645c-3.289,16.351,9.516,34.382,17.529,33.892a19.832,19.832,0,0,0,4.163-.781c1.062,1.4,6.17-1.388,7.348.2a3.645,3.645,0,0,0,3.9,1.341,1.31,1.31,0,0,0,.374-.151,5.349,5.349,0,0,0,1.854-4.374c.116.525.245,1.061.361,1.575a3.38,3.38,0,0,0,6.672-.653,55.3,55.3,0,0,0-.56-10c-.525-4.933-.7-7.615-1.761-10.974a35.123,35.123,0,0,0-7.884-13.366c-.968-46.9-1.925-114.143-2.905-162.905-.011-.712-.023-1.423-.046-2.123-.023-1.61-.058-3.2-.093-4.747Z"/><path class="cls-11" d="M149.482,542.908s29.764-1.563,29.717,42.464a3.355,3.355,0,0,0,.922-2.215,55.3,55.3,0,0,0-.56-10c-.525-4.933-.7-7.615-1.761-10.974a35.123,35.123,0,0,0-7.884-13.366c-.968-46.9-1.925-114.143-2.905-162.905-.011-.712-.023-1.423-.046-2.123l-7.252-2.83,10.039,166.424A34.844,34.844,0,0,0,149.482,542.908Z"/><path class="cls-10" d="M447.291,379.046c-.035,6.625-.28,17.284-.828,29.029-.56,12.164-1.435,25.483-2.718,36.738-.583,5.015-1.236,9.61-1.982,13.5q-1.1,5.774-2.379,11.29c-.105.466-.21.933-.327,1.4-.49,2.146-1.015,4.269-1.551,6.356q-1.084,4.216-2.239,8.258c-.2.7-.4,1.4-.607,2.087a314.061,314.061,0,0,1-20.456,52.04c-.467.921-.922,1.831-1.377,2.717a23.987,23.987,0,0,1,4.386,9.645c3.288,16.351-9.517,34.382-17.53,33.892a19.832,19.832,0,0,1-4.163-.781c-1.061,1.4-6.17-1.388-7.348.2a3.645,3.645,0,0,1-3.9,1.341,1.3,1.3,0,0,1-.373-.151,5.349,5.349,0,0,1-1.855-4.374c-.116.525-.245,1.061-.361,1.575a3.379,3.379,0,0,1-6.671-.653,55.116,55.116,0,0,1,.56-10c.524-4.933.7-7.615,1.761-10.974a35.11,35.11,0,0,1,7.884-13.366c.968-46.9,1.924-114.143,2.9-162.905.011-.712.023-1.423.046-2.123.024-1.61.059-3.2.094-4.747Z"/><path class="cls-11" d="M405.655,542.908s-29.764-1.563-29.717,42.464a3.349,3.349,0,0,1-.921-2.215,55.116,55.116,0,0,1,.56-10c.524-4.933.7-7.615,1.761-10.974a35.11,35.11,0,0,1,7.884-13.366c.968-46.9,1.924-114.143,2.9-162.905.011-.712.023-1.423.046-2.123l7.252-2.83L385.385,547.387A34.847,34.847,0,0,1,405.655,542.908Z"/><path class="cls-7" d="M201.93,235.427l-64.713,31.13a18.4,18.4,0,0,0-9.761,11.689L97.569,386.62a4.944,4.944,0,0,0,4.766,6.258h65.144a4.944,4.944,0,0,0,4.924-4.5l4.943-55.277v185.92H377.791V333.1l4.943,55.277a4.944,4.944,0,0,0,4.924,4.5H452.8a4.944,4.944,0,0,0,4.766-6.258L427.681,278.246a18.4,18.4,0,0,0-9.76-11.689l-64.714-31.13Z"/><polygon class="cls-10" points="319.148 208.265 319.148 216.472 318.772 216.83 305.885 229.171 277.566 256.284 249.246 229.171 236.281 216.757 231.007 211.708 231.007 208.265 319.148 208.265"/><path class="cls-10" d="M186.793,115.753s-7.155-12.656-20.248-6.982-3.365,45.767,20.248,44.705Z"/><path class="cls-10" d="M368.349,115.753S375.5,103.1,388.6,108.771s3.365,45.767-20.248,44.705Z"/><path class="cls-10" d="M368.346,98.3v34.915c0,2.067-.066,4.122-.206,6.152a90.779,90.779,0,0,1-181.349-6.152V98.3a90.778,90.778,0,1,1,181.555,0Z"/><ellipse class="cls-12" cx="243.357" cy="132.635" rx="5.075" ry="1.488"/><ellipse class="cls-12" cx="310.157" cy="132.635" rx="5.075" ry="1.488"/><path class="cls-12" d="M259.069,103.527v8.292L241.1,98.945l5.369-.841a10.527,10.527,0,0,1,7.885,1.936Z"/><path class="cls-12" d="M294.446,103.527v8.292l17.969-12.874-5.37-.841a10.523,10.523,0,0,0-7.884,1.936Z"/><path class="cls-12" d="M370.738,95.961q-.09-3.615-.45-7.17a92.156,92.156,0,0,0-18.26-46.59,94.137,94.137,0,0,0-8.55-9.81c-.7-.7-1.41-1.4-2.14-2.07l-.01-.01a93.725,93.725,0,0,0-12.57-9.95,93.208,93.208,0,0,0-108.16,4.22l-.03.03a93.284,93.284,0,0,0-33.66,52.01l-.3,1.35a92.317,92.317,0,0,0-2.24,19.59v.1c-.01.21-.01.42-.01.63v34.92a92.735,92.735,0,0,0,1.36,15.83c0,.02.01.03.01.05v.02c.11.65.23,1.31.35,1.95v.01c.16.81.33,1.6.51,2.4v.01c.08.37.17.73.25,1.1a.037.037,0,0,1,.01.03v.02a93.3,93.3,0,0,0,29.97,49.21q3.555,3.06,7.39,5.76h.01c.64.44,1.27.88,1.92,1.31h.01c1.24.82,2.48,1.62,3.76,2.37h.01l.02.01c2.06,1.24,4.18,2.39,6.33,3.46h.02a89.811,89.811,0,0,0,11.25,4.7,93.111,93.111,0,0,0,71.22-4.61l.03-.02c2.14-1.05,4.22-2.18,6.28-3.4l.04-.03c1.29-.76,2.58-1.56,3.83-2.4a.607.607,0,0,0,.1-.07c.01,0,.01,0,.02-.01.63-.41,1.26-.85,1.89-1.29a91.75,91.75,0,0,0,10.4-8.46,92.823,92.823,0,0,0,26.95-46.51v-.02c.09-.38.18-.77.26-1.15v-.01c.18-.81.35-1.59.5-2.4v-.01q.735-3.765,1.15-7.61v-.02c.15-1.29.26-2.6.34-3.9.16-2.04.22-4.17.22-6.32V98.261C370.768,97.491,370.758,96.731,370.738,95.961Zm-4.82,37.25c0,2.04-.06,4.05-.2,5.99a88.361,88.361,0,0,1-176.28.43q-.225-3.18-.23-6.42V98.291a87.966,87.966,0,0,1,20.81-56.88.01.01,0,0,1,.01-.01c1.03-1.23,2.09-2.41,3.19-3.58a88.128,88.128,0,0,1,64.35-27.88c1.21,0,2.41.03,3.62.07a87.771,87.771,0,0,1,58.86,25.81c1.26,1.26,2.49,2.56,3.67,3.89a86.629,86.629,0,0,1,6.24,7.88,87.635,87.635,0,0,1,15.89,47.31c.05,1.13.07,2.26.07,3.39Z"/><path class="cls-1" d="M227.646,103.527a18.181,18.181,0,0,1,6.566-6.451,19.056,19.056,0,0,1,9.161-2.709,17.985,17.985,0,0,1,4.87.578l1.173.35c.384.134.757.3,1.132.45a9.425,9.425,0,0,1,1.095.515c.352.2.718.362,1.053.581a17.675,17.675,0,0,1,6.373,6.686,54.181,54.181,0,0,0-7.833-3.6,22.443,22.443,0,0,0-7.745-1.192,28.525,28.525,0,0,0-7.832,1.475A66.483,66.483,0,0,0,227.646,103.527Z"/><path class="cls-1" d="M294.446,103.527a14.552,14.552,0,0,1,2.736-3.8,19.626,19.626,0,0,1,3.692-2.952,18.685,18.685,0,0,1,9.288-2.828,17.861,17.861,0,0,1,4.965.611l1.193.366c.39.14.767.316,1.148.472a9.515,9.515,0,0,1,1.107.54c.356.2.724.38,1.061.608a16.8,16.8,0,0,1,6.233,6.982,65.777,65.777,0,0,0-7.973-3.3,23.62,23.62,0,0,0-7.593-1.069,30.678,30.678,0,0,0-7.7,1.357A86.749,86.749,0,0,0,294.446,103.527Z"/><path class="cls-12" d="M259.88,179.924a59.272,59.272,0,0,0,8.887,2.624,41.873,41.873,0,0,0,8.763.912,34.741,34.741,0,0,0,4.377-.263c.733-.064,1.456-.205,2.192-.3.367-.052.726-.147,1.1-.207s.737-.125,1.1-.221c2.936-.633,5.863-1.562,8.964-2.542a23.375,23.375,0,0,1-7.958,5.619,24.231,24.231,0,0,1-4.75,1.516c-.814.2-1.65.283-2.48.41-.836.071-1.674.136-2.515.137a24.393,24.393,0,0,1-9.78-1.932,22.772,22.772,0,0,1-4.323-2.4,18.829,18.829,0,0,1-1.912-1.546A12.62,12.62,0,0,1,259.88,179.924Z"/><path class="cls-1" d="M268.8,137.726a9.065,9.065,0,0,1,.869-2.772,11.389,11.389,0,0,1,.75-1.294,9.716,9.716,0,0,1,.984-1.174l.56-.549.638-.476a7.882,7.882,0,0,1,1.4-.811,12.3,12.3,0,0,1,1.561-.532c.54-.078,1.092-.177,1.64-.2.54.02,1.092.024,1.633.077l1.565.331c.511.137.978.353,1.468.531.241.1.486.174.724.3l.71.375a10.527,10.527,0,0,1,2.585,2.062,8.115,8.115,0,0,1,1.695,3,7.946,7.946,0,0,1,.25,3.426,8.926,8.926,0,0,1-1.094,3.117,10.919,10.919,0,0,1-1.973,2.479,12.9,12.9,0,0,1-2.5,1.776,14.767,14.767,0,0,1-2.762,1.129,15.615,15.615,0,0,1-2.871.523,17.229,17.229,0,0,1-5.648-.395,25.442,25.442,0,0,0,5.392-.939,18.265,18.265,0,0,0,2.468-.945,14.782,14.782,0,0,0,2.2-1.319,9.561,9.561,0,0,0,3.107-3.656,5.5,5.5,0,0,0,.309-4.186,5.936,5.936,0,0,0-2.838-3.1,8.454,8.454,0,0,0-1.073-.5c-.376-.143-.749-.328-1.125-.442l-1.13-.317-1.128-.163a7.332,7.332,0,0,0-4.42,1.081,11.33,11.33,0,0,0-1.056.7c-.33.275-.682.541-1,.852a17.45,17.45,0,0,0-1.883,2.026Z"/><path class="cls-12" d="M185.885,155.921c-14.142,0-23.688-13.4-26.629-26.138-2.614-11.319-.131-20.44,6.325-23.237,11.942-5.174,20.477,2.98,23.323,8.014l-4.218,2.394c-.252-.438-6.3-10.674-17.177-5.959-4.075,1.767-5.526,9.043-3.528,17.7,2.573,11.146,10.783,22.9,22.7,22.362l.218,4.844C186.561,155.914,186.221,155.921,185.885,155.921Z"/><path class="cls-12" d="M369.257,155.921c-.336,0-.675-.007-1.017-.023l.218-4.844c11.934.539,20.13-11.215,22.7-22.362,2-8.654.547-15.93-3.529-17.7-10.887-4.718-16.926,5.521-17.177,5.959l-4.218-2.394c2.846-5.034,11.385-13.19,23.324-8.014,6.455,2.8,8.938,11.918,6.325,23.237C392.945,142.521,383.4,155.921,369.257,155.921Z"/><rect class="cls-1" x="237.465" y="111.819" width="11.784" height="20.816" rx="5.892"/><rect class="cls-1" x="304.266" y="111.819" width="11.784" height="20.816" rx="5.892"/><path class="cls-12" d="M184.581,129.845c-.175-.386-4.389-9.422-11.707-6.592l-1.747-4.524c9.29-3.59,15.755,4.4,17.876,9.125Z"/><path class="cls-12" d="M178.154,140.967c-9.738-5.8-3.089-20.876-2.8-21.515l4.422,1.99c-.052.117-5.078,11.82.861,15.359Z"/><path class="cls-12" d="M370.4,127.946l-4.12-2.557c2.875-4.651,11.074-11.94,21.529-6.236l-2.322,4.257C376.629,118.575,371.015,126.973,370.4,127.946Z"/><path class="cls-12" d="M377.692,136.594l-2.277-4.281c5.546-2.952,2.169-11.949,2.134-12.04l4.527-1.737C383.81,123.051,385.126,132.638,377.692,136.594Z"/><path class="cls-1" d="M370.768,98.3v6.595a6.067,6.067,0,0,1-3.5,5.552,5.572,5.572,0,0,1-2.334.51.136.136,0,0,1-.017-.025l-2.316-2.867-3.53-4.37-.035-.037L337.783,77.33,329.05,66.516c-24.782,13.318-84.411,6.759-84.411,6.759a19.734,19.734,0,0,1,12.893-10.856l-30.745.963-34.256,44.535-2.334,3.037c.018,1.1.029,2.121.041,3.073.023,2.824.006,5.019-.041,6.668-.239,8.261-1.313,3.139-2.333-2.661-.415-2.334-.817-4.777-1.156-6.511a8.832,8.832,0,0,0-.635-2.345,6.164,6.164,0,0,1-1.71-4.286v-5.74q0-3.129.193-6.207a.172.172,0,0,1,.006-.055,99.8,99.8,0,0,1,4.428-23.931c-.584.352-1.15.709-1.686,1.067C203.259-8.113,278.721.264,278.721.264c54.366,0,76.675,33.611,85.8,62.725l-.1.036c.239.636.472,1.279.7,1.921A100.35,100.35,0,0,1,370.768,98.3Z"/><path class="cls-13" d="M201.93,238.045l22.714-26.329a2.394,2.394,0,0,1,3.468-.165L277.568,258.9,250.592,281.1Z"/><path class="cls-13" d="M353.207,238.045l-22.714-26.329a2.394,2.394,0,0,0-3.468-.165L277.568,258.9,304.545,281.1Z"/><path class="cls-9" d="M259.983,287.009l14.979,13.606a3.876,3.876,0,0,0,5.213,0l14.979-13.606a10.969,10.969,0,0,0-.406-16.59l-17.18-14.134-17.179,14.134A10.969,10.969,0,0,0,259.983,287.009Z"/><path class="cls-9" d="M305.33,416.892l-27.761,47.134-27.762-47.134,17.948-122.826,7.207,6.547a3.863,3.863,0,0,0,5.213,0l7.207-6.547Z"/><path class="cls-13" d="M307.949,335.06h54.99a0,0,0,0,1,0,0v57.823a10.26,10.26,0,0,1-10.26,10.26h-34.47a10.26,10.26,0,0,1-10.26-10.26V335.06A0,0,0,0,1,307.949,335.06Z"/><path class="cls-7" d="M307.949,335.2h51.175a0,0,0,0,1,0,0v53.1a10.26,10.26,0,0,1-10.26,10.26H318.209a10.26,10.26,0,0,1-10.26-10.26V335.2A0,0,0,0,1,307.949,335.2Z"/><path class="cls-12" d="M192.189,111.819s78.208-76.271,170.874-1.37l1.037-11.5L332.386,78.529,268.8,69.175,200.815,90.5s-10.124,6.214-10.124,8.448S192.189,111.819,192.189,111.819Z"/><path class="cls-7" d="M201.93,235.427,224.644,209.1a2.394,2.394,0,0,1,3.468-.166l49.456,47.353-26.976,22.194Z"/><path class="cls-7" d="M353.207,235.427,330.493,209.1a2.394,2.394,0,0,0-3.468-.166l-49.457,47.353,26.977,22.194Z"/><rect class="cls-13" x="177.346" y="519.017" width="199.365" height="14.402"/><polygon class="cls-1" points="362.252 103.692 362.252 118.536 370.208 143.455 370.768 110.444 374.405 98.297 362.252 103.692"/><polygon class="cls-1" points="198.657 101.94 192.189 111.819 192.189 132.635 185.722 149.115 185.722 104.898 198.657 101.94"/><polygon class="cls-1" points="363.518 109.036 353.262 94.364 368.328 103.527 363.518 109.036"/><rect class="cls-9" x="262.19" y="516.834" width="29.677" height="18.767"/><path class="cls-9" d="M374.405,106.77l-6.062,4.181a.178.178,0,0,1-.018-.024,33.419,33.419,0,0,0-2.407-3.219c-.933-1.121-2.146-2.491-3.667-4.019l-.036-.036a75.7,75.7,0,0,0-6.613-5.88,90.309,90.309,0,0,0-14.184-9.153c-14.063-7.377-34.388-13.735-62.653-13.735-28.677,0-49.989,7.631-65.016,16.4a104.133,104.133,0,0,0-14.978,10.56c-.018.018-.036.03-.049.042s-.042.036-.066.054a90.769,90.769,0,0,0-9.444,9.232c-.946,1.079-1.74,2.037-2.382,2.855a.4.4,0,0,0-.043.055c-1.418,1.8-2.1,2.873-2.1,2.873l-.321-1.146-1.2-4.285-.66-2.346-1.267-1.873-.509-5.789q0-4.41.2-8.571a.175.175,0,0,1,.006-.055,143.3,143.3,0,0,1,2.849-22.864C200.359-8.116,278.765.261,278.765.261c56.488,0,79.667,33.611,89.148,62.725.218.654.424,1.309.624,1.958a138.156,138.156,0,0,1,5.867,36.133C374.459,103.514,374.405,106.77,374.405,106.77Z"/><path class="cls-7" d="M278.765.261s-76.836-4.7-76.836,84.334c0,0,37.03-19.178,76.836-21.621C318.572,65.417,355.6,84.6,355.6,84.6,355.6-4.437,278.765.261,278.765.261Z"/><path class="cls-14" d="M341.418,88.62c-14.063-7.377-34.388-13.735-62.653-13.735-28.677,0-49.989,7.631-65.016,16.4,15.4-9.868,40.467-23.215,65.016-24.579C303.284,68.066,326.973,79.868,341.418,88.62Z"/></g></g></svg>