<svg xmlns="http://www.w3.org/2000/svg" viewBox="0 0 29.722 34"><defs><style>.cls-1{fill:#2f2e41;}</style></defs><g id="Layer_2" data-name="Layer 2"><g id="Layer_1-2" data-name="Layer 1"><path class="cls-1" d="M28.749,24.934c-1.732-.889-2.941-2.022-2.941-2.756V13.209A11.1,11.1,0,0,0,17.427,2.434,2.57,2.57,0,0,0,12.3,2.423a10.94,10.94,0,0,0-8.38,10.64v9.115c0,.734-1.21,1.867-2.942,2.756A1.785,1.785,0,0,0,0,26.529v1.455a2.386,2.386,0,0,0,2.383,2.383h9.628v.783a2.85,2.85,0,1,0,5.7,0v-.783h9.629a2.386,2.386,0,0,0,2.383-2.383V26.529A1.785,1.785,0,0,0,28.749,24.934ZM15.52,30.367v.783a.659.659,0,1,1-1.318,0v-.783Zm8.317-7.094c.614,1.62,2.465,2.838,3.693,3.5v1.215a.192.192,0,0,1-.191.193H2.383a.192.192,0,0,1-.193-.193V26.769c1.229-.657,3.081-1.876,3.7-3.5ZM6.105,21.083V19.8H23.616v1.279Zm0-3.47v-4.55A8.685,8.685,0,0,1,8.711,6.832h0a8.67,8.67,0,0,1,4.444-2.35,2.619,2.619,0,0,0,3.4.007,8.954,8.954,0,0,1,7.057,8.721v4.4Z"/></g></g></svg>