<svg xmlns="http://www.w3.org/2000/svg" xmlns:xlink="http://www.w3.org/1999/xlink" viewBox="0 0 1920 1165.08"><defs><style>.cls-1{fill:none;}.cls-2{clip-path:url(#clip-path);}.cls-3{fill:#2490cf;}.cls-4{fill:#6cbdea;}</style><clipPath id="clip-path" transform="translate(0 -80.08)"><rect class="cls-1" width="1920" height="1169"/></clipPath></defs><g id="Layer_2" data-name="Layer 2"><g id="Layer_1-2" data-name="Layer 1"><g class="cls-2"><path class="cls-1" d="M29.59,274.69c-2.4,8.32-4.59,16.95-7,25.41q2.21,5.88,4.8,11.72A156.82,156.82,0,0,0,29.59,274.69Z" transform="translate(0 -80.08)"/><path class="cls-1" d="M74.31,1018.53c0-1.17-.11-2.33-.19-3.5-3.64.59-7.2,1.09-10.61,1.52A93.5,93.5,0,0,0,74.31,1018.53Z" transform="translate(0 -80.08)"/><path class="cls-1" d="M0,1092.37v11.48c1.47.77,3,1.49,4.48,2.17C3,1102.13,1.47,1097.52,0,1092.37Z" transform="translate(0 -80.08)"/><path class="cls-1" d="M179.81,247.89c-3.51-15.52-8.09-30.23-21.44-39.61.69,1.53,1.3,3.09,1.88,4.66,2.27,3,4.43,6.17,6.44,9.41A173.59,173.59,0,0,1,179.81,247.89Z" transform="translate(0 -80.08)"/><path class="cls-3" d="M123.42,294.16c-1.16-28.94-15.14-57-37.21-80.69C99.06,242.7,117,273.13,105.57,303c-.34.72-.69,1.43-1,2.12-1.1.58-2.19,1.14-3.29,1.7a811.54,811.54,0,0,1,71.36,99.5,207.51,207.51,0,0,0,18.77-60.43c-18-11.31-34.46-27.34-55-31A186.94,186.94,0,0,1,193,331.48a188.27,188.27,0,0,0-2.28-46.2c-9.41-6.62-21-11-32.72-14l0,.05C146.65,278.92,135.12,286.88,123.42,294.16Z" transform="translate(0 -80.08)"/><path class="cls-3" d="M179.81,247.89a173.59,173.59,0,0,0-13.12-25.54c-2-3.24-4.17-6.37-6.44-9.41a77.08,77.08,0,0,1,.7,50.86,191.55,191.55,0,0,1,25.68,3.67c-1.15-4.07-2.46-8.1-3.9-12.09l-1.15.68C181,253.32,180.42,250.59,179.81,247.89Z" transform="translate(0 -80.08)"/><path class="cls-3" d="M0,304v41.75c8.11-8.47,13.55-19.22,17.8-30.88A89.51,89.51,0,0,1,0,304Z" transform="translate(0 -80.08)"/><path class="cls-3" d="M60.93,320.62h0C45.2,303.4,32.26,266.38,25.83,237.17q-6.46-6-12.56-11.48c-4.46,21.65-.62,48.05,9.27,74.41,2.46-8.46,4.65-17.09,7.05-25.41a156.82,156.82,0,0,1-2.25,37.13q1.68,3.8,3.53,7.58c-1.61-.4-3.22-.87-4.83-1.38-3.71,15.72-10.19,30.16-19.64,42.44,13.65,1.92,27.59,3.21,41.14,4.63A76.75,76.75,0,0,0,88.29,317c5,18.51-4.06,34.89-12.83,51.54,5.8.9,11.41,1.94,16.75,3.18,25.14,5.5,50.05,14.9,70.06,30.84a808.28,808.28,0,0,0-67.44-92.66C83.62,315.08,72.3,319,60.93,320.62Z" transform="translate(0 -80.08)"/><path class="cls-3" d="M21.44,204.34a62.4,62.4,0,0,0-6.24,13.9c2.8,2.49,5.6,5,8.37,7.53C22.07,217.06,21.31,209.59,21.44,204.34Z" transform="translate(0 -80.08)"/><path class="cls-3" d="M23.57,225.77c-2.77-2.53-5.57-5-8.37-7.53a76.64,76.64,0,0,0-1.93,7.45q6.09,5.44,12.56,11.48C25,233.2,24.2,229.38,23.57,225.77Z" transform="translate(0 -80.08)"/><path class="cls-3" d="M94.83,309.89a808.28,808.28,0,0,1,67.44,92.66c2.94,2.34,5.78,4.83,8.49,7.46l.05-.09h0c.62-1.21,1.22-2.42,1.81-3.64a811.54,811.54,0,0,0-71.36-99.5Q98.05,308.4,94.83,309.89Z" transform="translate(0 -80.08)"/><path class="cls-4" d="M26,318c1.61.51,3.22,1,4.83,1.38q-1.85-3.78-3.53-7.58-2.6-5.83-4.8-11.72c-9.89-26.36-13.73-52.76-9.27-74.41a76.64,76.64,0,0,1,1.93-7.45,62.4,62.4,0,0,1,6.24-13.9c-.13,5.25.63,12.72,2.13,21.43.63,3.61,1.38,7.43,2.26,11.4,6.43,29.21,19.37,66.23,35.09,83.45h0c11.37-1.67,22.69-5.54,33.9-10.73q3.23-1.49,6.43-3.11c1.1-.56,2.19-1.12,3.29-1.7.33-.69.68-1.4,1-2.12,11.38-29.83-6.51-60.26-19.36-89.49,22.07,23.7,36.05,51.75,37.21,80.69,11.7-7.28,23.23-15.24,34.53-22.84l0-.05a71.73,71.73,0,0,0,3-7.47,77.08,77.08,0,0,0-.7-50.86c-.58-1.57-1.19-3.13-1.88-4.66,13.35,9.38,17.93,24.09,21.44,39.61.61,2.7,1.19,5.43,1.77,8.17l1.15-.68c4.63-2.77,9.22-5.34,13.74-7.63,22.81-11.9,48-20.67,73.53-21.27C174.7,195.16,87.87,187.15,31,186c-11.06-.21-21.43-.18-31,0V304a89.51,89.51,0,0,0,17.8,10.87A76.75,76.75,0,0,0,26,318Z" transform="translate(0 -80.08)"/><path class="cls-4" d="M31,179.17a836,836,0,0,1,113.8,10.08,815.28,815.28,0,0,1,135.59,33.46A207.68,207.68,0,0,0,256,164.3c-21,2.84-44,1.13-62.11,11.53A186.38,186.38,0,0,1,248,152.27a188.15,188.15,0,0,0-31.39-34c-20.88,1.74-42.51,13.77-59,24.33C169,127.17,185,116.4,202.06,107.22a175.39,175.39,0,0,0-44.24-21.84,140,140,0,0,0-20.09-5c-11.32,5.82-24.26,14.14-41.16,23.8-16.82,12.27-31.12,29.11-36.38,49.25-8.74-15.16-1.6-34.84,8.1-49.42,5.39-8.11,13.49-16.33,23.5-24l-1,.15A147,147,0,0,0,0,131.38v47.8C9.58,179,19.93,179,31,179.17Z" transform="translate(0 -80.08)"/><path class="cls-4" d="M31,186c56.85,1.11,143.68,9.12,239,40.44q5.64-.14,11.3.28a.3.3,0,0,0,0-.1h0c-.3-1.32-.61-2.63-.94-3.94a815.28,815.28,0,0,0-135.59-33.46A836,836,0,0,0,31,179.17c-11-.21-21.37-.18-30.95,0v6.87C9.59,185.86,20,185.83,31,186Z" transform="translate(0 -80.08)"/><path class="cls-3" d="M4.48,1106c-1.51-.68-3-1.4-4.48-2.17v3a64.28,64.28,0,0,0,7.26,5.58C6.35,1110.59,5.42,1108.44,4.48,1106Z" transform="translate(0 -80.08)"/><path class="cls-3" d="M42,975.79c.65.52,1.31,1.05,2,1.61,24.85,23.87,21.39,61.82,22.3,96.26,5.92-18.53,8.77-37.23,8-55.13a93.5,93.5,0,0,1-10.8-2c3.41-.43,7-.93,10.61-1.52a115.13,115.13,0,0,0-8.66-37.26c14.77,1.72,29.69,4.17,44.22,6.39a80.45,80.45,0,0,1,14,15.18c1.88-1.09,3.72-2.23,5.47-3.46A203.22,203.22,0,0,0,131.63,946a201.65,201.65,0,0,1-61.12,18c22.22-3.94,40-21.24,59.42-33.45a224,224,0,0,0-20.27-65.23A877.25,877.25,0,0,1,30.21,975.57Q36.06,975.52,42,975.79Z" transform="translate(0 -80.08)"/><path class="cls-3" d="M98.49,869.31C76.9,886.52,50,896.66,22.88,902.6c-5.77,1.34-11.82,2.46-18.08,3.43,9.47,18,19.21,35.66,13.85,55.63A82,82,0,0,0,0,928.46V978.7a132.38,132.38,0,0,1,20.1-2.78A872.64,872.64,0,0,0,98.49,869.31Z" transform="translate(0 -80.08)"/><path class="cls-3" d="M30.21,975.57a877.25,877.25,0,0,0,79.45-110.29c-.63-1.31-1.28-2.62-1.94-3.92h0l-.06-.09q-4.39,4.26-9.17,8A872.64,872.64,0,0,1,20.1,975.92Q25.1,975.61,30.21,975.57Z" transform="translate(0 -80.08)"/><path class="cls-4" d="M132.09,1201.63l1.06-.32c-13.3-2.85-25-7.15-34-12.58C83,1179,67,1163,68.5,1144.21c14.41,17.25,36.13,27.1,58.19,31.34,20.94,1.64,37.42,3.81,51.15,4.28a151.47,151.47,0,0,0,17.32-14.1,188.79,188.79,0,0,0,33.13-41.68c-20.85-1.12-41.49-4.24-59.65-14.09,20.91,2.73,47.56,4.51,68.75-3.4a203.14,203.14,0,0,0,15-47.62,201.85,201.85,0,0,1-63.67,1.91c22.49,1.8,44.09-10.43,65.94-17.35a223.87,223.87,0,0,0-3.11-68.23,878.06,878.06,0,0,1-117,95.08,902.46,902.46,0,0,1-106.45,62.24c-9.88,4.89-19.29,9.31-28.13,13.3v36.57A158.72,158.72,0,0,0,132.09,1201.63Z" transform="translate(0 -80.08)"/><path class="cls-4" d="M25,1125.85c55-27.26,136.06-75,214.68-149.51-25.24,11.19-53.82,14.21-81.57,13.1-5.92-.16-12.06-.61-18.36-1.26,4.62,19.78,9.57,39.36-.67,57.33a82.57,82.57,0,0,0-15.41-46.17,80.45,80.45,0,0,0-14-15.18c-14.53-2.22-29.45-4.67-44.22-6.39A115.13,115.13,0,0,1,74.12,1015c.08,1.17.14,2.33.19,3.5.74,17.9-2.11,36.6-8,55.13-.91-34.44,2.55-72.39-22.3-96.26-.66-.56-1.32-1.09-2-1.61q-6-.27-11.8-.22-5.12,0-10.11.35A132.38,132.38,0,0,0,0,978.7v113.67c1.47,5.15,3,9.76,4.48,13.65.94,2.42,1.87,4.57,2.78,6.38A64.28,64.28,0,0,1,0,1106.82v30.93Q11.9,1132.34,25,1125.85Z" transform="translate(0 -80.08)"/><path class="cls-4" d="M134.58,1070.35a878.06,878.06,0,0,0,117-95.08c-.28-1.43-.58-2.85-.89-4.28h0l0-.11q-5.34,3-10.91,5.47C161.09,1050.8,80,1098.59,25,1125.85q-13.11,6.5-25,11.9v8.14c8.84-4,18.25-8.41,28.13-13.3A902.46,902.46,0,0,0,134.58,1070.35Z" transform="translate(0 -80.08)"/><path class="cls-1" d="M1898.58,1117.17a183.43,183.43,0,0,0-30.41,31q7.08-2.33,13.9-5C1887.49,1134.41,1893.26,1125.77,1898.58,1117.17Z" transform="translate(0 -80.08)"/><path class="cls-1" d="M1853.88,242.82c-.07-1.2-.13-2.4-.19-3.61l-6.29-.16c-.24,1.75-.44,3.49-.62,5.24C1849.14,243.85,1851.51,243.37,1853.88,242.82Z" transform="translate(0 -80.08)"/><path class="cls-1" d="M1849.9,955.62c1.82-.72,3.66-1.4,5.53-2-18.52-4.23-34.82,3.26-51,12.33a203.63,203.63,0,0,1,32.27-8.54Q1843.29,956.24,1849.9,955.62Z" transform="translate(0 -80.08)"/><path class="cls-1" d="M1848.5,145.2l-.19-.06.18.2C1848.5,145.29,1848.49,145.25,1848.5,145.2Z" transform="translate(0 -80.08)"/><path class="cls-4" d="M1780.25,223.65a56.39,56.39,0,0,1-8.35-7.36c-.54-.66-1.05-1.32-1.55-2-.52-17.22.77-33.79,5.55-48.75h0c21.74-6.35,58.21-2.73,87.85,3.69q8.71-5,17.51-9.79a128.93,128.93,0,0,0-32.76-14.28c0,.05,0,.09,0,.14l-.18-.2c-17.4-5-37-7.57-57.23-7.59a82.69,82.69,0,0,1,19-16.52,124.25,124.25,0,0,0-19.57-4.82c-20.6-1-36.82-2.7-50.31-2.77a148.42,148.42,0,0,0-16.6,14.31,185.52,185.52,0,0,0-31.35,41.83c20.49.52,40.83,3,58.93,12.17-20.6-2.1-46.8-3.1-67.37,5.25a199.25,199.25,0,0,0-13.38,47.15,197.79,197.79,0,0,1,62.42-3.65c-22.12-1.14-43,11.47-64.22,18.86a219.6,219.6,0,0,0,5,66.87A862.31,862.31,0,0,1,1780.25,223.65Z" transform="translate(0 -80.08)"/><path class="cls-4" d="M1846.78,244.29c.18-1.75.38-3.49.62-5.24-21.48-.56-43.06-1.74-60.47-11.19q-6.75,4.92-13.59,10.11C1795.59,247.4,1821,249,1846.78,244.29Z" transform="translate(0 -80.08)"/><path class="cls-4" d="M1866.06,239.59c-4.08-.17-8.21-.28-12.37-.38.06,1.21.12,2.41.19,3.61Q1860,241.44,1866.06,239.59Z" transform="translate(0 -80.08)"/><path class="cls-4" d="M1784.49,90.77l-1,.34c13.12,2.43,24.71,6.32,33.7,11.4a91.45,91.45,0,0,1,13,8.89c26.61-8.47,53.06-4.16,77.61,7q6.3,2.88,12.2,6.27V109.35A155.77,155.77,0,0,0,1784.49,90.77Z" transform="translate(0 -80.08)"/><path class="cls-4" d="M1685.17,314.85c24.46-11.69,52.42-15.45,79.68-15.13l10.57-34.32c-1.22-8.8-2.39-17.67-3.31-26.49A853.58,853.58,0,0,0,1685.17,314.85Z" transform="translate(0 -80.08)"/><path class="cls-4" d="M1905,182.22a70.82,70.82,0,0,0-17-18.09q-6.64,3.59-13.77,7.58C1887.35,175,1898.38,178.8,1905,182.22Z" transform="translate(0 -80.08)"/><path class="cls-4" d="M1874.19,171.71q7.11-4,13.77-7.58c-2.13-1.62-4.37-3.17-6.7-4.65q-8.79,4.78-17.51,9.79C1867.34,170.05,1870.84,170.87,1874.19,171.71Z" transform="translate(0 -80.08)"/><path class="cls-4" d="M1772,237.38l1.39.59q6.86-5.19,13.59-10.11a59.86,59.86,0,0,1-6.68-4.21,862.31,862.31,0,0,0-106.65,92.58c.31,1.39.64,2.78,1,4.18h0l0,.11q5.16-3.11,10.55-5.67a853.58,853.58,0,0,1,86.94-75.94C1772.06,238.4,1772,237.89,1772,237.38Z" transform="translate(0 -80.08)"/><path class="cls-3" d="M1861.81,306.58a862.21,862.21,0,0,1-95,113.41,220,220,0,0,0,66.93,4.06c7.1-21.35,19.43-42.37,18-64.47a198.18,198.18,0,0,1-2.81,62.46,199.41,199.41,0,0,0,47-14c8.07-20.68,6.71-46.87,4.34-67.44,9.4,18,12.17,38.28,13,58.76,2.31-1.31,4.59-2.69,6.85-4.1V211.54A884.14,884.14,0,0,1,1861.81,306.58Z" transform="translate(0 -80.08)"/><path class="cls-3" d="M1830.19,111.4c-2.23.71-4.47,1.5-6.7,2.4a104.4,104.4,0,0,0-13.4,7.23,82.69,82.69,0,0,0-19,16.52c20.22,0,39.83,2.57,57.23,7.59l.19.06a128.93,128.93,0,0,1,32.76,14.28c2.33,1.48,4.57,3,6.7,4.65a70.82,70.82,0,0,1,17,18.09c-6.57-3.42-17.6-7.18-30.76-10.51-3.35-.84-6.85-1.66-10.44-2.44-29.64-6.42-66.11-10-87.85-3.69h0c-4.78,15-6.07,31.53-5.55,48.75.5.64,1,1.3,1.55,2a56.39,56.39,0,0,0,8.35,7.36,59.86,59.86,0,0,0,6.68,4.21c17.41,9.45,39,10.63,60.47,11.19l6.29.16c4.16.1,8.29.21,12.37.38q-6.09,1.84-12.18,3.23c-2.37.55-4.74,1-7.1,1.47-25.82,4.75-51.19,3.11-73.44-6.32l-1.39-.59c0,.51.11,1,.16,1.53.92,8.82,2.09,17.69,3.31,26.49.72,5.19,1.45,10.36,2.15,15.48a81.32,81.32,0,0,0,59.79,29.79c-17.79,9.79-36.93,4.63-56.28-.19.54,6.2.89,12.23,1,18,.69,27.26-2.69,55.27-14,79.88,74.24-76.08,122.34-155,149.9-208.53.71-1.39,1.42-2.76,2.11-4.13v-71q-5.91-3.37-12.2-6.27C1883.25,107.24,1856.8,102.93,1830.19,111.4Z" transform="translate(0 -80.08)"/><path class="cls-3" d="M1917.89,199.87c-27.56,53.57-75.66,132.45-149.9,208.53a118.93,118.93,0,0,1-5.53,10.62l.11,0h0c1.4.33,2.8.65,4.2.94a862.21,862.21,0,0,0,95-113.41,884.14,884.14,0,0,0,58.19-95v-15.8C1919.31,197.11,1918.6,198.48,1917.89,199.87Z" transform="translate(0 -80.08)"/><path class="cls-3" d="M1900.38,1166.38a107.35,107.35,0,0,1-27.36-7.59c-9.88,18.66-16.15,38-11.43,58.66.27.89.55,1.76.83,2.62,15.38,11.12,31.29,20.2,47.88,25.09h0a84.8,84.8,0,0,0,9.69-9.6v-69A105.7,105.7,0,0,1,1900.38,1166.38Z" transform="translate(0 -80.08)"/><path class="cls-3" d="M1849.9,955.62q-6.62.63-13.17,1.79a203.63,203.63,0,0,0-32.27,8.54c-2.87,1.61-5.73,3.27-8.59,4.92-.1-.52-.21-1-.31-1.53q-6.88,2.8-13.54,6.08a222.36,222.36,0,0,1,23.27,19.38A90,90,0,0,1,1849.9,955.62Z" transform="translate(0 -80.08)"/><path class="cls-3" d="M1834.27,1125.94c-7.44-11.17-12.94-24-17.22-37.78a941.52,941.52,0,0,0-133,14c29.46,4.87,57.1,19.1,81.52,36.59,5.26,3.66,10.54,7.71,15.86,12,7.57-20.62,14.71-41.26,34.64-51.43a89.57,89.57,0,0,0-9.82,72.94c11.82,10.63,23.85,21.71,36.19,32,3.24-17.8,10.7-34.7,21.43-50.22-1.71-1-3.37-2-5-3.11q4.71-1.35,9.33-2.86a183.43,183.43,0,0,1,30.41-31c-5.32,8.6-11.09,17.24-16.51,26a210.42,210.42,0,0,0,37.93-19.32v-25.17c-28.37,14.51-62.5,27.4-85.72,27.27Z" transform="translate(0 -80.08)"/><path class="cls-3" d="M1813.62,1076q.51-1.26,1.05-2.55c16.94-33.19,57.32-41.49,92.7-53.2-37.8-.6-73,9.22-99,30.85-2.84-15.84-5-32-7.21-47.79l0-.06c-11.79-7.81-24.64-14.42-37.74-17.4a220,220,0,0,0-41.83,34.16,217.86,217.86,0,0,1,58.7,36.08c-19.26-15-46-16.75-69.91-23.47a242.28,242.28,0,0,0-37.7,63.53,947.6,947.6,0,0,1,142-16C1814.35,1078.77,1814,1077.38,1813.62,1076Z" transform="translate(0 -80.08)"/><path class="cls-3" d="M1814.72,1080.15a947.6,947.6,0,0,0-142,16c-.6,1.46-1.17,2.93-1.74,4.41h0a.84.84,0,0,0,0,.12c4.41.29,8.78.81,13.11,1.53a941.52,941.52,0,0,1,133-14C1816.23,1085.52,1815.46,1082.85,1814.72,1080.15Z" transform="translate(0 -80.08)"/><path class="cls-4" d="M1791.42,951.46c1.56,5.71,2.91,11.7,4.14,17.88.1.51.21,1,.31,1.53,2.86-1.65,5.72-3.31,8.59-4.92,16.15-9.07,32.45-16.56,51-12.33-1.87.6-3.71,1.28-5.53,2a90,90,0,0,0-44.61,39.18,84.36,84.36,0,0,0-4.14,8.43l0,.06c2.25,15.74,4.37,32,7.21,47.79,26-21.63,61.24-31.45,99-30.85-35.38,11.71-75.76,20-92.7,53.2q-.54,1.29-1.05,2.55c.36,1.4.73,2.79,1.1,4.17.74,2.7,1.51,5.37,2.33,8,4.28,13.78,9.78,26.61,17.22,37.78h0c23.22.13,57.35-12.76,85.72-27.27V993.27A958.78,958.78,0,0,0,1752.34,871.1C1771.83,893.74,1783.9,922.38,1791.42,951.46Z" transform="translate(0 -80.08)"/><path class="cls-4" d="M1912.92,902.89c-3.71-22.51-10.21-50.66-25-70.13a219.65,219.65,0,0,0-54-.61,218.51,218.51,0,0,1,21.9,65.32c-5.18-23.85-24.6-42.39-38.6-62.85a242.39,242.39,0,0,0-69.67,24.57,951.19,951.19,0,0,1,135,91.35Q1901.67,966,1920,982.4V839.75q-5.54-1.68-11.15-3C1914.22,858.65,1917.44,881,1912.92,902.89Z" transform="translate(0 -80.08)"/><path class="cls-4" d="M1868.17,1148.17q-4.62,1.5-9.33,2.86c1.61,1.09,3.27,2.12,5,3.11a89.91,89.91,0,0,0,9.2,4.65,107.35,107.35,0,0,0,27.36,7.59,105.7,105.7,0,0,0,19.62.19v-42.73a210.42,210.42,0,0,1-37.93,19.32Q1875.26,1145.85,1868.17,1148.17Z" transform="translate(0 -80.08)"/><path class="cls-4" d="M1747.53,859.19c-1.39.74-2.78,1.49-4.16,2.27h0l-.1.06q4.79,4.58,9.07,9.58A958.78,958.78,0,0,1,1920,993.27V982.4q-18.32-16.39-37.43-31.86A951.19,951.19,0,0,0,1747.53,859.19Z" transform="translate(0 -80.08)"/></g></g></g></svg>