<svg xmlns="http://www.w3.org/2000/svg" viewBox="0 0 41.77 28.43"><defs><style>.cls-1{fill:#2f2e41;}</style></defs><g id="Layer_2" data-name="Layer 2"><g id="Layer_1-2" data-name="Layer 1"><path class="cls-1" d="M36.47,0H5.3A5.31,5.31,0,0,0,0,5.3V23.13a5.31,5.31,0,0,0,5.3,5.3H36.47a5.3,5.3,0,0,0,5.3-5.3V5.3A5.3,5.3,0,0,0,36.47,0Zm0,2.42c.14,0,.27,0,.4,0L21.08,15.09a.32.32,0,0,1-.39,0L4.9,2.45c.13,0,.26,0,.4,0Zm2.88,20.71A2.88,2.88,0,0,1,36.47,26H5.3a2.88,2.88,0,0,1-2.88-2.88V5.3A2.84,2.84,0,0,1,2.8,3.88L19.17,17a2.75,2.75,0,0,0,3.43,0L39,3.88a2.84,2.84,0,0,1,.38,1.42Z"/></g></g></svg>