<svg xmlns="http://www.w3.org/2000/svg" viewBox="0 0 24.63 30.2"><defs><style>.cls-1{fill:#2f2e41;}</style></defs><g id="Layer_2" data-name="Layer 2"><g id="Layer_1-2" data-name="Layer 1"><path class="cls-1" d="M20.76,11.71V6.2A6.21,6.21,0,0,0,14.56,0H10.07a6.21,6.21,0,0,0-6.2,6.2v5.51A4.89,4.89,0,0,0,0,16.49v8.83A4.89,4.89,0,0,0,4.88,30.2H19.75a4.89,4.89,0,0,0,4.88-4.88V16.49A4.89,4.89,0,0,0,20.76,11.71ZM10.07,2.42h4.49A3.78,3.78,0,0,1,18.33,6.2v5.4H6.3V6.2A3.78,3.78,0,0,1,10.07,2.42Zm12.14,22.9a2.46,2.46,0,0,1-2.46,2.46H4.88a2.46,2.46,0,0,1-2.46-2.46V16.49A2.46,2.46,0,0,1,4.88,14H19.47l.76.05a2.47,2.47,0,0,1,2,2.41Z"/></g></g></svg>