<svg xmlns="http://www.w3.org/2000/svg" viewBox="0 0 1440 1390.083"><defs><style>.cls-1{fill:none;}.cls-2{fill:#2490cf;}.cls-3{fill:#6cbdea;}</style></defs><g id="Layer_2" data-name="Layer 2"><g id="Layer_1-2" data-name="Layer 1"><path class="cls-1" d="M29.594,194.616c-2.409,8.321-4.593,16.947-7.051,25.412q2.2,5.868,4.8,11.718A156.826,156.826,0,0,0,29.594,194.616Z"/><path class="cls-2" d="M123.419,214.08c-1.161-28.934-15.143-56.989-37.213-80.682,12.854,29.221,30.749,59.657,19.361,89.482-.34.725-.682,1.43-1.018,2.123q-1.641.867-3.287,1.7a812.092,812.092,0,0,1,71.355,99.509,207.566,207.566,0,0,0,18.773-60.432c-17.97-11.316-34.465-27.34-55.048-31a186.889,186.889,0,0,1,56.626,16.629,188.186,188.186,0,0,0-2.278-46.2c-9.413-6.617-20.987-10.993-32.72-14.007-.007.015-.013.032-.021.048C146.648,198.846,135.118,206.8,123.419,214.08Z"/><path class="cls-2" d="M179.805,167.813a174.313,174.313,0,0,0-13.114-25.542c-2.015-3.232-4.172-6.363-6.437-9.407a77.116,77.116,0,0,1,.7,50.856,191.2,191.2,0,0,1,25.676,3.675q-1.726-6.109-3.9-12.1c-.383.228-.764.449-1.148.68C181,173.248,180.416,170.518,179.805,167.813Z"/><path class="cls-2" d="M0,223.886v41.745c8.108-8.464,13.549-19.216,17.8-30.878A89.691,89.691,0,0,1,0,223.886Z"/><path class="cls-2" d="M60.926,240.542l-.005,0C45.2,223.322,32.263,186.3,25.826,157.1q-6.459-6.035-12.553-11.483c-4.46,21.649-.626,48.055,9.27,74.416,2.458-8.465,4.642-17.091,7.051-25.412a156.826,156.826,0,0,1-2.253,37.13q1.686,3.8,3.527,7.573c-1.61-.4-3.221-.862-4.831-1.379C22.326,253.667,15.854,268.107,6.4,280.385c13.645,1.918,27.592,3.211,41.138,4.627a76.734,76.734,0,0,0,40.751-48.1c4.973,18.506-4.058,34.893-12.829,51.543,5.8.9,11.408,1.936,16.754,3.18,25.134,5.5,50.047,14.9,70.052,30.843a806.6,806.6,0,0,0-67.433-92.663C83.615,235,72.3,238.87,60.926,240.542Z"/><path class="cls-2" d="M94.833,229.816a806.6,806.6,0,0,1,67.433,92.663q4.412,3.508,8.5,7.459l.051-.091v0c.618-1.207,1.219-2.414,1.8-3.634A812.092,812.092,0,0,0,101.262,226.7Q98.054,228.326,94.833,229.816Z"/><path class="cls-3" d="M26.037,237.94c1.61.517,3.221.981,4.831,1.379q-1.843-3.771-3.527-7.573-2.592-5.841-4.8-11.718c-9.9-26.361-13.73-52.767-9.27-74.416a75.4,75.4,0,0,1,1.925-7.445,62.751,62.751,0,0,1,6.24-13.907,118.494,118.494,0,0,0,2.135,21.434c.625,3.611,1.379,7.433,2.253,11.4,6.437,29.208,19.378,66.227,35.1,83.449l.005,0C72.3,238.87,83.615,235,94.833,229.816q3.221-1.489,6.429-3.117,1.645-.833,3.287-1.7c.336-.693.678-1.4,1.018-2.123,11.388-29.825-6.507-60.261-19.361-89.482,22.07,23.693,36.052,51.748,37.213,80.682,11.7-7.281,23.229-15.234,34.53-22.835.008-.016.014-.033.021-.048a73.4,73.4,0,0,0,2.983-7.477,77.116,77.116,0,0,0-.7-50.856c-.582-1.572-1.2-3.13-1.888-4.659,13.357,9.376,17.935,24.085,21.439,39.608.611,2.705,1.19,5.435,1.776,8.166.384-.231.765-.452,1.148-.68,4.636-2.766,9.22-5.34,13.746-7.625,22.809-11.9,47.954-20.669,73.528-21.266C174.7,115.085,87.871,107.077,31.02,105.967c-11.064-.217-21.428-.187-31.02.01V223.886a89.691,89.691,0,0,0,17.8,10.867A76.357,76.357,0,0,0,26.037,237.94Z"/><path class="cls-1" d="M74.309,1163.456c-.048-1.169-.107-2.336-.186-3.5-3.64.581-7.2,1.084-10.618,1.516A94.737,94.737,0,0,0,74.309,1163.456Z"/><path class="cls-1" d="M0,1237.293v11.48q2.205,1.15,4.481,2.168C2.981,1247.055,1.467,1242.441,0,1237.293Z"/><path class="cls-2" d="M4.481,1250.941q-2.272-1.016-4.481-2.168v2.968a64.735,64.735,0,0,0,7.258,5.584C6.347,1255.512,5.417,1253.366,4.481,1250.941Z"/><path class="cls-2" d="M42.01,1120.715c.647.522,1.306,1.053,1.972,1.6,24.848,23.873,21.391,61.823,22.3,96.267,5.922-18.533,8.769-37.229,8.032-55.13a94.737,94.737,0,0,1-10.8-1.982c3.414-.432,6.978-.935,10.618-1.516a115.247,115.247,0,0,0-8.662-37.267c14.772,1.721,29.689,4.177,44.221,6.394a80.587,80.587,0,0,1,14.022,15.183c1.878-1.093,3.716-2.23,5.466-3.46a203.055,203.055,0,0,0,2.459-49.87,201.687,201.687,0,0,1-61.117,17.947c22.216-3.945,40.019-21.241,59.414-33.454a224.011,224.011,0,0,0-20.262-65.226A876.988,876.988,0,0,1,30.211,1120.49Q36.052,1120.444,42.01,1120.715Z"/><path class="cls-2" d="M98.492,1014.23c-21.591,17.209-48.481,27.358-75.609,33.29-5.77,1.343-11.821,2.46-18.082,3.432,9.466,17.971,19.213,35.657,13.846,55.631A81.885,81.885,0,0,0,0,1073.383v50.236a132.572,132.572,0,0,1,20.1-2.771A872.9,872.9,0,0,0,98.492,1014.23Z"/><path class="cls-2" d="M30.211,1120.49a876.988,876.988,0,0,0,79.453-110.285c-.631-1.316-1.281-2.619-1.947-3.922l0,0c-.02-.037-.036-.065-.055-.1q-4.4,4.268-9.168,8.05A872.9,872.9,0,0,1,20.1,1120.848C23.432,1120.631,26.805,1120.518,30.211,1120.49Z"/><path class="cls-3" d="M132.1,1346.552l1.05-.314c-13.3-2.852-24.984-7.153-33.986-12.586-16.17-9.765-32.209-25.693-30.655-44.517,14.407,17.247,36.124,27.1,58.191,31.339,20.939,1.644,37.41,3.812,51.142,4.279a150.548,150.548,0,0,0,17.321-14.1,189.14,189.14,0,0,0,33.134-41.679c-20.852-1.122-41.489-4.245-59.657-14.1,20.917,2.734,47.568,4.514,68.757-3.393a203.134,203.134,0,0,0,14.987-47.628,201.669,201.669,0,0,1-63.669,1.912c22.492,1.8,44.089-10.433,65.942-17.345a224.038,224.038,0,0,0-3.113-68.23,879.175,879.175,0,0,1-116.959,95.081,901.492,901.492,0,0,1-106.451,62.231c-9.882,4.9-19.286,9.318-28.129,13.3v36.572A158.7,158.7,0,0,0,132.1,1346.552Z"/><path class="cls-3" d="M25.034,1270.771c54.987-27.257,136.059-75.048,214.678-149.5-25.241,11.191-53.822,14.212-81.569,13.092-5.922-.16-12.059-.609-18.363-1.251,4.615,19.781,9.574,39.356-.668,57.325a82.628,82.628,0,0,0-15.408-46.165,80.587,80.587,0,0,0-14.022-15.183c-14.532-2.217-29.449-4.673-44.221-6.394a115.247,115.247,0,0,1,8.662,37.267c.079,1.162.138,2.329.186,3.5.737,17.9-2.11,36.6-8.032,55.13-.9-34.444,2.553-72.394-22.295-96.267-.666-.551-1.325-1.082-1.972-1.6q-5.955-.267-11.8-.225c-3.406.028-6.779.141-10.111.358A132.572,132.572,0,0,0,0,1123.619v113.674c1.467,5.148,2.981,9.762,4.481,13.648.936,2.425,1.866,4.571,2.777,6.384A64.735,64.735,0,0,1,0,1251.741v30.934Q11.891,1277.26,25.034,1270.771Z"/><path class="cls-3" d="M134.58,1215.278A879.175,879.175,0,0,0,251.539,1120.2c-.278-1.433-.577-2.858-.892-4.287v-.005c-.01-.042-.019-.072-.028-.109q-5.333,3.018-10.906,5.471c-78.619,74.456-159.691,122.247-214.678,149.5q-13.116,6.5-25.034,11.9v8.134c8.843-3.982,18.247-8.4,28.129-13.3A901.492,901.492,0,0,0,134.58,1215.278Z"/><path class="cls-1" d="M1418.584,1262.1a183.005,183.005,0,0,0-30.418,30.993q7.091-2.322,13.907-5.007C1407.489,1279.333,1413.257,1270.693,1418.584,1262.1Z"/><path class="cls-1" d="M1369.9,1100.546c1.821-.727,3.664-1.4,5.533-2-18.524-4.233-34.818,3.253-50.972,12.325a203.591,203.591,0,0,1,32.27-8.539Q1363.286,1101.163,1369.9,1100.546Z"/><path class="cls-2" d="M1420.375,1311.3a107.125,107.125,0,0,1-27.354-7.59c-9.886,18.664-16.149,38-11.436,58.659.275.894.555,1.765.831,2.621,15.387,11.123,31.29,20.2,47.887,25.089l0,0a84.829,84.829,0,0,0,9.692-9.6V1311.5A105.6,105.6,0,0,1,1420.375,1311.3Z"/><path class="cls-2" d="M1369.9,1100.546q-6.606.625-13.169,1.788a203.591,203.591,0,0,0-32.27,8.539c-2.864,1.608-5.724,3.266-8.591,4.918-.1-.515-.207-1.019-.309-1.531q-6.883,2.8-13.534,6.084a223.16,223.16,0,0,1,23.267,19.381A90.037,90.037,0,0,1,1369.9,1100.546Z"/><path class="cls-2" d="M1354.274,1270.861c-7.443-11.163-12.946-24-17.222-37.777A941.76,941.76,0,0,0,1204,1247.111c29.464,4.868,57.1,19.107,81.52,36.594,5.26,3.66,10.542,7.71,15.86,12.033,7.571-20.624,14.711-41.267,34.64-51.431a89.574,89.574,0,0,0-9.817,72.938c11.822,10.633,23.85,21.71,36.185,32.037,3.248-17.8,10.7-34.7,21.43-50.217q-2.562-1.486-4.974-3.108,4.71-1.353,9.323-2.866a183.005,183.005,0,0,1,30.418-30.993c-5.327,8.6-11.1,17.235-16.511,25.986A210.519,210.519,0,0,0,1440,1268.765V1243.6c-28.371,14.51-62.5,27.4-85.724,27.271Z"/><path class="cls-2" d="M1333.624,1220.9c.338-.833.682-1.681,1.044-2.543,16.944-33.2,57.319-41.491,92.7-53.2-37.8-.6-73.048,9.225-99.034,30.848-2.84-15.834-4.964-32.047-7.214-47.787.008-.021.018-.042.027-.063-11.789-7.811-24.637-14.414-37.733-17.4a219.728,219.728,0,0,0-41.829,34.163,218.187,218.187,0,0,1,58.7,36.074c-19.266-14.981-46.056-16.745-69.918-23.47a242.36,242.36,0,0,0-37.7,63.536,948.1,948.1,0,0,1,142.055-15.982Q1334.161,1223,1333.624,1220.9Z"/><path class="cls-2" d="M1334.725,1225.074a948.1,948.1,0,0,0-142.055,15.982q-.9,2.191-1.738,4.4l0,.006c-.015.043-.026.076-.038.115q6.612.438,13.108,1.529a941.76,941.76,0,0,1,133.053-14.027Q1335.824,1229.128,1334.725,1225.074Z"/><path class="cls-3" d="M1311.417,1096.387c1.559,5.708,2.913,11.693,4.141,17.873.1.512.209,1.016.309,1.531,2.867-1.652,5.727-3.31,8.591-4.918,16.154-9.072,32.448-16.558,50.972-12.325-1.869.6-3.712,1.271-5.533,2a90.037,90.037,0,0,0-44.606,39.179,85.406,85.406,0,0,0-4.145,8.425c-.009.021-.019.042-.027.063,2.25,15.74,4.374,31.953,7.214,47.787,25.986-21.623,61.237-31.446,99.034-30.848-35.38,11.713-75.755,20.008-92.7,53.2-.362.862-.706,1.71-1.044,2.543q.534,2.1,1.1,4.175,1.1,4.053,2.327,8.01c4.276,13.781,9.779,26.614,17.222,37.777l0,.006c23.222.131,57.353-12.761,85.724-27.271V1138.2a958.423,958.423,0,0,0-167.658-122.169C1291.825,1038.659,1303.9,1067.308,1311.417,1096.387Z"/><path class="cls-3" d="M1432.923,1047.816c-3.713-22.513-10.209-50.664-25.024-70.129a219.675,219.675,0,0,0-54-.617,218.2,218.2,0,0,1,21.9,65.325c-5.173-23.851-24.6-42.386-38.59-62.85a242.338,242.338,0,0,0-69.672,24.57,950.945,950.945,0,0,1,135.039,91.352q19.1,15.439,37.428,31.86V984.674q-5.537-1.673-11.146-3.037C1434.217,1003.578,1437.44,1025.922,1432.923,1047.816Z"/><path class="cls-3" d="M1388.166,1293.091q-4.612,1.509-9.323,2.866,2.408,1.626,4.974,3.108a88.961,88.961,0,0,0,9.2,4.647,107.125,107.125,0,0,0,27.354,7.59,105.6,105.6,0,0,0,19.625.2v-42.732a210.519,210.519,0,0,1-37.927,19.319Q1395.265,1290.765,1388.166,1293.091Z"/><path class="cls-3" d="M1267.533,1004.115c-1.4.737-2.778,1.492-4.159,2.265l-.005,0-.1.064q4.792,4.576,9.077,9.58A958.423,958.423,0,0,1,1440,1138.2v-10.868q-18.314-16.4-37.428-31.86A950.945,950.945,0,0,0,1267.533,1004.115Z"/><path class="cls-1" d="M179.805,167.813c-3.5-15.523-8.082-30.232-21.439-39.608.69,1.529,1.306,3.087,1.888,4.659,2.265,3.044,4.422,6.175,6.437,9.407A174.313,174.313,0,0,1,179.805,167.813Z"/><path class="cls-2" d="M21.438,124.26a62.751,62.751,0,0,0-6.24,13.907q4.208,3.732,8.375,7.527A118.494,118.494,0,0,1,21.438,124.26Z"/><path class="cls-2" d="M23.573,145.694q-4.167-3.8-8.375-7.527a75.4,75.4,0,0,0-1.925,7.445q6.083,5.445,12.553,11.483C24.952,153.127,24.2,149.305,23.573,145.694Z"/><path class="cls-3" d="M30.951,99.1a835.386,835.386,0,0,1,113.8,10.078A814.591,814.591,0,0,1,280.337,142.63a207.6,207.6,0,0,0-24.356-58.406C234.936,87.068,212,85.353,193.866,95.75a186.858,186.858,0,0,1,54.111-23.561A188.177,188.177,0,0,0,216.594,38.2c-20.88,1.748-42.51,13.772-58.958,24.329,11.331-15.435,27.39-26.209,44.421-35.389A175.191,175.191,0,0,0,157.819,5.309,139.48,139.48,0,0,0,137.733.341c-11.322,5.819-24.268,14.145-41.165,23.8C79.752,36.415,65.447,53.251,60.19,73.4c-8.742-15.16-1.6-34.846,8.095-49.419C73.682,15.868,81.777,7.644,91.791,0l-1,.152A146.974,146.974,0,0,0,0,51.3V99.108C9.582,98.913,19.927,98.883,30.951,99.1Z"/><path class="cls-3" d="M31.02,105.967C87.871,107.077,174.7,115.085,270,146.408q5.636-.138,11.3.274c-.007-.034-.011-.063-.019-.1l0-.005c-.3-1.322-.613-2.634-.946-3.945A814.591,814.591,0,0,0,144.75,109.176,835.386,835.386,0,0,0,30.951,99.1c-11.024-.215-21.369-.185-30.951.01v6.869C9.592,105.78,19.956,105.75,31.02,105.967Z"/><path class="cls-1" d="M1373.883,162.747q-.1-1.8-.188-3.613-3.141-.076-6.291-.156c-.24,1.748-.445,3.491-.625,5.231Q1370.327,163.555,1373.883,162.747Z"/><path class="cls-1" d="M1368.5,65.124l-.188-.057c.06.068.125.13.184.2C1368.5,65.217,1368.5,65.171,1368.5,65.124Z"/><path class="cls-3" d="M1300.249,143.577a57.593,57.593,0,0,1-8.353-7.364c-.532-.662-1.043-1.316-1.546-1.958-.516-17.225.769-33.794,5.552-48.751V85.5c21.733-6.348,58.2-2.724,87.846,3.694q8.714-5,17.509-9.786A128.482,128.482,0,0,0,1368.5,65.124c0,.047,0,.093,0,.14-.059-.067-.124-.129-.184-.2-17.4-5.026-37.01-7.571-57.229-7.592a82.9,82.9,0,0,1,19.01-16.526,124.255,124.255,0,0,0-19.574-4.814c-20.593-1.029-36.817-2.7-50.305-2.772a147.784,147.784,0,0,0-16.6,14.316A185.642,185.642,0,0,0,1212.257,89.5c20.493.518,40.831,3.008,58.934,12.168-20.6-2.1-46.8-3.1-67.376,5.248a199.432,199.432,0,0,0-13.378,47.155,198.052,198.052,0,0,1,62.425-3.653c-22.121-1.138-42.973,11.469-64.225,18.862a219.949,219.949,0,0,0,4.959,66.866A862.2,862.2,0,0,1,1300.249,143.577Z"/><path class="cls-3" d="M1366.779,164.209c.18-1.74.385-3.483.625-5.231-21.48-.564-43.063-1.74-60.476-11.192q-6.74,4.915-13.585,10.11C1315.589,167.325,1340.964,168.962,1366.779,164.209Z"/><path class="cls-3" d="M1386.062,159.51c-4.082-.169-8.215-.275-12.367-.376q.087,1.809.188,3.613Q1379.97,161.356,1386.062,159.51Z"/><path class="cls-3" d="M1304.49,10.7l-1.022.338c13.126,2.427,24.716,6.321,33.7,11.4a90.589,90.589,0,0,1,13.017,8.893c26.61-8.473,53.061-4.17,77.613,7.037,4.2,1.918,8.257,4.023,12.2,6.266V29.27A155.776,155.776,0,0,0,1304.49,10.7Z"/><path class="cls-3" d="M1205.172,234.77c24.456-11.686,52.419-15.449,79.678-15.124l10.571-34.322c-1.217-8.8-2.388-17.669-3.311-26.491A853.061,853.061,0,0,0,1205.172,234.77Z"/><path class="cls-3" d="M1424.953,102.146a70.707,70.707,0,0,0-16.995-18.089q-6.648,3.577-13.768,7.58C1407.355,94.962,1418.384,98.723,1424.953,102.146Z"/><path class="cls-3" d="M1394.19,91.637q7.113-4,13.768-7.58-3.191-2.436-6.7-4.65-8.795,4.782-17.509,9.786C1387.343,89.971,1390.836,90.79,1394.19,91.637Z"/><path class="cls-3" d="M1291.946,157.3c.463.205.931.4,1.4.594q6.843-5.194,13.585-10.11a60.5,60.5,0,0,1-6.679-4.209A862.2,862.2,0,0,0,1193.6,236.149c.313,1.4.646,2.789,1,4.182v.005c.011.04.021.071.031.106q5.148-3.11,10.549-5.672a853.061,853.061,0,0,1,86.938-75.937C1292.056,158.323,1292,157.812,1291.946,157.3Z"/><path class="cls-2" d="M1381.813,226.506a863.141,863.141,0,0,1-95.043,113.411,219.965,219.965,0,0,0,66.927,4.056c7.105-21.35,19.429-42.37,17.993-64.474a198.038,198.038,0,0,1-2.81,62.469,199.4,199.4,0,0,0,46.97-14.014c8.071-20.683,6.715-46.869,4.338-67.44,9.4,17.978,12.167,38.28,12.963,58.765,2.313-1.313,4.59-2.693,6.849-4.105V131.467A886.434,886.434,0,0,1,1381.813,226.506Z"/><path class="cls-2" d="M1350.186,31.329c-2.23.71-4.462,1.5-6.693,2.392a104.669,104.669,0,0,0-13.4,7.228,82.9,82.9,0,0,0-19.01,16.526c20.219.021,39.827,2.566,57.229,7.592l.188.057a128.482,128.482,0,0,1,32.761,14.283q3.505,2.214,6.7,4.65a70.707,70.707,0,0,1,16.995,18.089c-6.569-3.423-17.6-7.184-30.763-10.509-3.354-.847-6.847-1.666-10.441-2.444-29.644-6.418-66.113-10.042-87.846-3.694V85.5c-4.783,14.957-6.068,31.526-5.552,48.751.5.642,1.014,1.3,1.546,1.958a57.593,57.593,0,0,0,8.353,7.364,60.5,60.5,0,0,0,6.679,4.209c17.413,9.452,39,10.628,60.476,11.192q3.148.082,6.291.156c4.152.1,8.285.207,12.367.376q-6.087,1.845-12.179,3.237-3.557.813-7.1,1.462c-25.815,4.753-51.19,3.116-73.436-6.313-.466-.2-.934-.389-1.4-.594.051.51.11,1.021.164,1.531.923,8.822,2.094,17.69,3.311,26.491.718,5.192,1.45,10.361,2.153,15.479a81.3,81.3,0,0,0,59.786,29.787c-17.788,9.79-36.93,4.636-56.279-.185.538,6.2.889,12.228.959,18.043.692,27.252-2.692,55.263-14.047,79.875,74.237-76.08,122.336-154.957,149.9-208.532q1.07-2.079,2.109-4.127V44.632c-3.944-2.243-8-4.348-12.2-6.266C1403.247,27.159,1376.8,22.856,1350.186,31.329Z"/><path class="cls-2" d="M1437.891,119.791c-27.562,53.575-75.661,132.452-149.9,208.532q-2.5,5.426-5.53,10.625c.036.01.066.019.107.029h.005c1.4.33,2.792.644,4.195.939a863.141,863.141,0,0,0,95.043-113.411A886.434,886.434,0,0,0,1440,131.467v-15.8Q1438.961,117.713,1437.891,119.791Z"/></g></g></svg>