<svg xmlns="http://www.w3.org/2000/svg" viewBox="0 0 42.598 44.688"><defs><style>.cls-1{fill:#2490cf;}</style></defs><g id="Layer_2" data-name="Layer 2"><g id="Layer_1-2" data-name="Layer 1"><path class="cls-1" d="M16.637,27.2H9.823a2.361,2.361,0,0,0-2.357,2.358v4.625a2.361,2.361,0,0,0,2.357,2.357h6.814a2.359,2.359,0,0,0,2.357-2.357V29.561A2.359,2.359,0,0,0,16.637,27.2ZM17.8,34.186a1.165,1.165,0,0,1-1.164,1.164H9.823a1.166,1.166,0,0,1-1.164-1.164V29.561A1.166,1.166,0,0,1,9.823,28.4h6.814A1.164,1.164,0,0,1,17.8,29.561Z"/><path class="cls-1" d="M39.932,29.668V22.833a3.933,3.933,0,0,0-3.927-3.927h-.618V5.323c0-.065,0-.129-.005-.2,0-.087-.007-.172-.014-.257q-.008-.087-.018-.174c-.006-.061-.014-.123-.024-.182s-.015-.088-.023-.132c-.013-.073-.026-.144-.043-.216s-.027-.124-.043-.183-.033-.126-.052-.187a5.3,5.3,0,0,0-.539-1.219l.016-.016L34.375,2.2l-.04-.054c-.016-.022-.034-.042-.051-.063-.064-.082-.128-.164-.2-.243-.082-.1-.17-.191-.261-.28-.022-.023-.043-.044-.065-.065a5.144,5.144,0,0,0-.523-.443C33.18,1.01,33.122.97,33.064.93,32.982.871,32.9.818,32.813.767l-.006,0A5.264,5.264,0,0,0,31.039.091c-.116-.021-.234-.04-.352-.054-.051-.006-.1-.012-.155-.016S30.451.013,30.41.012c-.063,0-.127-.008-.19-.009l-.156,0H9.868L9.711,0c-.062,0-.126,0-.189.009C9.48.013,9.44.018,9.4.021S9.3.031,9.244.037c-.118.014-.235.033-.352.054A5.28,5.28,0,0,0,7.124.764l-.006,0c-.085.052-.168.106-.25.163-.059.04-.117.08-.175.123a5.243,5.243,0,0,0-.522.443c-.023.021-.043.042-.066.065s-.061.059-.089.091L6,1.67H6a.115.115,0,0,0-.021.023.326.326,0,0,0-.036.039l-.012.014a1.034,1.034,0,0,0-.1.112,1.151,1.151,0,0,0-.085.1c-.053.061-.1.125-.15.189l-.307.415.018.018c-.04.068-.081.138-.119.209l-.076.143a4.949,4.949,0,0,0-.4,1.052c-.017.059-.032.12-.044.183s-.029.143-.043.216c-.007.044-.015.087-.022.132s-.018.121-.024.182-.014.116-.018.174c-.007.085-.013.17-.015.257,0,.066,0,.13,0,.2V18.906H3.927A3.932,3.932,0,0,0,0,22.833V35.939a3.932,3.932,0,0,0,3.927,3.927H26.044a8.74,8.74,0,1,0,13.888-10.2ZM36.005,20.1a2.736,2.736,0,0,1,2.733,2.733V28.7a8.7,8.7,0,0,0-3.351-1.359V20.1ZM6.184,3.457,16.8,14.074a4.442,4.442,0,0,0,2.568,1.268v.019h-9.5a4.135,4.135,0,0,1-4.13-4.129V5.323c0-.071,0-.141.006-.211S5.75,5,5.756,4.946c0-.028,0-.057.009-.085,0-.055.012-.111.021-.166s.022-.131.034-.2l0-.006c.015-.067.03-.134.046-.2a3.47,3.47,0,0,1,.121-.387,4.361,4.361,0,0,1,.2-.448ZM20.563,15.342h0a4.436,4.436,0,0,0,2.567-1.268L33.747,3.457a4.367,4.367,0,0,1,.2.448,3.692,3.692,0,0,1,.121.387c.016.066.031.133.046.2V4.5c.012.066.024.132.035.2s.016.111.02.166a.613.613,0,0,1,.009.085c.006.055.011.11.012.166s.006.14.006.211v5.909a4.135,4.135,0,0,1-4.129,4.129h-9.5ZM9.028,1.279l.009,0c.067-.013.134-.025.2-.036l.139-.019.038,0,.063-.005a.071.071,0,0,1,.021,0c.051,0,.1-.009.154-.01h0c.07,0,.14-.006.212-.006h20.2c.071,0,.141,0,.211.006h0c.052,0,.1.006.154.01a.065.065,0,0,1,.02,0l.063.005.039,0,.139.019c.068.011.135.023.2.036l.009,0c.052.01.1.022.155.035a4.111,4.111,0,0,1,1.986,1.157h0L22.286,13.229a3.282,3.282,0,0,1-4.64,0L6.887,2.471h0A4.111,4.111,0,0,1,8.873,1.314C8.924,1.3,8.976,1.289,9.028,1.279Zm-5.1,37.393a2.736,2.736,0,0,1-2.733-2.733V22.833A2.736,2.736,0,0,1,3.927,20.1h.618V34.542q0,.079,0,.156c0,.11.009.22.019.329,0,.044.007.087.013.13s.012.106.021.158.012.085.02.129.021.113.033.17.019.092.029.138.024.1.036.145c.021.076.042.152.066.227.012.042.025.084.04.124a5.239,5.239,0,0,0,.21.526c.015.032.029.062.044.092s.043.086.065.129.047.087.07.13.048.084.072.125c.075.126.154.248.239.366.025.037.052.075.079.11l.006.008c.03.039.058.077.089.115s.06.076.091.112.063.074.1.11c.07.081.143.158.219.234.06.06.123.118.185.176s.146.129.223.191Zm5.941,0a4.135,4.135,0,0,1-4.13-4.13V14.587a5.316,5.316,0,0,0,4.13,1.968h9.5v6.022a1.557,1.557,0,1,0,1.194,0V16.555h9.5a5.314,5.314,0,0,0,4.129-1.968V27.212c-.112-.006-.223-.007-.337-.007a8.718,8.718,0,0,0-2.491.362,2.337,2.337,0,0,0-1.257-.364H23.294a2.359,2.359,0,0,0-2.357,2.358v4.625a2.359,2.359,0,0,0,2.357,2.357h1.841a8.62,8.62,0,0,0,.415,2.129ZM23.294,35.35a1.164,1.164,0,0,1-1.163-1.164V29.561A1.164,1.164,0,0,1,23.294,28.4h6.159a8.746,8.746,0,0,0-4.318,6.953Zm10.562,8.144a7.552,7.552,0,0,1-6.45-3.628,7.7,7.7,0,0,1-.589-1.194,7.464,7.464,0,0,1-.485-2.129c-.016-.2-.024-.395-.024-.6s.008-.4.024-.6a7.566,7.566,0,0,1,4.751-6.425,7.335,7.335,0,0,1,1.165-.353,7.474,7.474,0,0,1,1.608-.174c.114,0,.225,0,.337.009a7.437,7.437,0,0,1,1.194.148,7.512,7.512,0,0,1,3.351,1.638,7.62,7.62,0,0,1,1.194,1.279,7.545,7.545,0,0,1-6.076,12.022Z"/><path class="cls-1" d="M34.453,35.35v-3.3H33.259v3.3h-3.3v1.193h3.3v3.3h1.194V37.55q.1-.145.192-.3c.024-.041.05-.083.072-.125s.048-.086.07-.13.045-.086.066-.129.028-.06.043-.092c.036-.076.069-.153.1-.231h2.757V35.35h-3.3Z"/></g></g></svg>