<svg xmlns="http://www.w3.org/2000/svg" viewBox="0 0 52.201 52.201"><defs><style>.cls-1{fill:#2490cf;}.cls-2{fill:#fff;}</style></defs><g id="Layer_2" data-name="Layer 2"><g id="Layer_1-2" data-name="Layer 1"><circle class="cls-1" cx="26.1" cy="26.1" r="26.1"/><path class="cls-2" d="M41.765,12.142H10.436a.945.945,0,0,0-.945.944V17.4H42.71V13.086A.945.945,0,0,0,41.765,12.142ZM9.491,20.07V39.114a.945.945,0,0,0,.945.945H41.765a.945.945,0,0,0,.945-.945V20.07Zm11.46,15.523H15.659V30.3h5.292Zm0-7.3H15.659V23h5.292Zm7.869,7.3H23.528V30.3H28.82Zm0-7.3H23.528V23H28.82Zm7.87,7.3H31.4V30.3H36.69Zm0-7.3H31.4V23H36.69Z"/></g></g></svg>